G04 #@! TF.GenerationSoftware,KiCad,Pcbnew,7.0.9*
G04 #@! TF.CreationDate,2024-04-20T19:04:57+02:00*
G04 #@! TF.ProjectId,NFC_Programmer,4e46435f-5072-46f6-9772-616d6d65722e,3.0*
G04 #@! TF.SameCoordinates,Original*
G04 #@! TF.FileFunction,Legend,Bot*
G04 #@! TF.FilePolarity,Positive*
%FSLAX46Y46*%
G04 Gerber Fmt 4.6, Leading zero omitted, Abs format (unit mm)*
G04 Created by KiCad (PCBNEW 7.0.9) date 2024-04-20 19:04:57*
%MOMM*%
%LPD*%
G01*
G04 APERTURE LIST*
%ADD10C,0.153000*%
%ADD11C,3.000000*%
%ADD12R,1.700000X1.700000*%
%ADD13O,1.700000X1.700000*%
G04 APERTURE END LIST*
D10*
X138150336Y-106796485D02*
X138150336Y-106177438D01*
X138150336Y-106177438D02*
X137769384Y-106510771D01*
X137769384Y-106510771D02*
X137769384Y-106367914D01*
X137769384Y-106367914D02*
X137721765Y-106272676D01*
X137721765Y-106272676D02*
X137674146Y-106225057D01*
X137674146Y-106225057D02*
X137578908Y-106177438D01*
X137578908Y-106177438D02*
X137340813Y-106177438D01*
X137340813Y-106177438D02*
X137245575Y-106225057D01*
X137245575Y-106225057D02*
X137197956Y-106272676D01*
X137197956Y-106272676D02*
X137150336Y-106367914D01*
X137150336Y-106367914D02*
X137150336Y-106653628D01*
X137150336Y-106653628D02*
X137197956Y-106748866D01*
X137197956Y-106748866D02*
X137245575Y-106796485D01*
X137245575Y-105748866D02*
X137197956Y-105701247D01*
X137197956Y-105701247D02*
X137150336Y-105748866D01*
X137150336Y-105748866D02*
X137197956Y-105796485D01*
X137197956Y-105796485D02*
X137245575Y-105748866D01*
X137245575Y-105748866D02*
X137150336Y-105748866D01*
X138150336Y-105367914D02*
X138150336Y-104748867D01*
X138150336Y-104748867D02*
X137769384Y-105082200D01*
X137769384Y-105082200D02*
X137769384Y-104939343D01*
X137769384Y-104939343D02*
X137721765Y-104844105D01*
X137721765Y-104844105D02*
X137674146Y-104796486D01*
X137674146Y-104796486D02*
X137578908Y-104748867D01*
X137578908Y-104748867D02*
X137340813Y-104748867D01*
X137340813Y-104748867D02*
X137245575Y-104796486D01*
X137245575Y-104796486D02*
X137197956Y-104844105D01*
X137197956Y-104844105D02*
X137150336Y-104939343D01*
X137150336Y-104939343D02*
X137150336Y-105225057D01*
X137150336Y-105225057D02*
X137197956Y-105320295D01*
X137197956Y-105320295D02*
X137245575Y-105367914D01*
X138150336Y-104463152D02*
X137150336Y-104129819D01*
X137150336Y-104129819D02*
X138150336Y-103796486D01*
X142300336Y-106851247D02*
X143300336Y-106851247D01*
X143300336Y-106851247D02*
X142586051Y-106517914D01*
X142586051Y-106517914D02*
X143300336Y-106184581D01*
X143300336Y-106184581D02*
X142300336Y-106184581D01*
X143300336Y-105517914D02*
X143300336Y-105327438D01*
X143300336Y-105327438D02*
X143252717Y-105232200D01*
X143252717Y-105232200D02*
X143157479Y-105136962D01*
X143157479Y-105136962D02*
X142967003Y-105089343D01*
X142967003Y-105089343D02*
X142633670Y-105089343D01*
X142633670Y-105089343D02*
X142443194Y-105136962D01*
X142443194Y-105136962D02*
X142347956Y-105232200D01*
X142347956Y-105232200D02*
X142300336Y-105327438D01*
X142300336Y-105327438D02*
X142300336Y-105517914D01*
X142300336Y-105517914D02*
X142347956Y-105613152D01*
X142347956Y-105613152D02*
X142443194Y-105708390D01*
X142443194Y-105708390D02*
X142633670Y-105756009D01*
X142633670Y-105756009D02*
X142967003Y-105756009D01*
X142967003Y-105756009D02*
X143157479Y-105708390D01*
X143157479Y-105708390D02*
X143252717Y-105613152D01*
X143252717Y-105613152D02*
X143300336Y-105517914D01*
X142347956Y-104708390D02*
X142300336Y-104565533D01*
X142300336Y-104565533D02*
X142300336Y-104327438D01*
X142300336Y-104327438D02*
X142347956Y-104232200D01*
X142347956Y-104232200D02*
X142395575Y-104184581D01*
X142395575Y-104184581D02*
X142490813Y-104136962D01*
X142490813Y-104136962D02*
X142586051Y-104136962D01*
X142586051Y-104136962D02*
X142681289Y-104184581D01*
X142681289Y-104184581D02*
X142728908Y-104232200D01*
X142728908Y-104232200D02*
X142776527Y-104327438D01*
X142776527Y-104327438D02*
X142824146Y-104517914D01*
X142824146Y-104517914D02*
X142871765Y-104613152D01*
X142871765Y-104613152D02*
X142919384Y-104660771D01*
X142919384Y-104660771D02*
X143014622Y-104708390D01*
X143014622Y-104708390D02*
X143109860Y-104708390D01*
X143109860Y-104708390D02*
X143205098Y-104660771D01*
X143205098Y-104660771D02*
X143252717Y-104613152D01*
X143252717Y-104613152D02*
X143300336Y-104517914D01*
X143300336Y-104517914D02*
X143300336Y-104279819D01*
X143300336Y-104279819D02*
X143252717Y-104136962D01*
X142300336Y-103708390D02*
X143300336Y-103708390D01*
X141904104Y-74979663D02*
X141570771Y-75979663D01*
X141570771Y-75979663D02*
X141237438Y-74979663D01*
X140951723Y-75074901D02*
X140904104Y-75027282D01*
X140904104Y-75027282D02*
X140808866Y-74979663D01*
X140808866Y-74979663D02*
X140570771Y-74979663D01*
X140570771Y-74979663D02*
X140475533Y-75027282D01*
X140475533Y-75027282D02*
X140427914Y-75074901D01*
X140427914Y-75074901D02*
X140380295Y-75170139D01*
X140380295Y-75170139D02*
X140380295Y-75265377D01*
X140380295Y-75265377D02*
X140427914Y-75408234D01*
X140427914Y-75408234D02*
X140999342Y-75979663D01*
X140999342Y-75979663D02*
X140380295Y-75979663D01*
X139951723Y-75884424D02*
X139904104Y-75932044D01*
X139904104Y-75932044D02*
X139951723Y-75979663D01*
X139951723Y-75979663D02*
X139999342Y-75932044D01*
X139999342Y-75932044D02*
X139951723Y-75884424D01*
X139951723Y-75884424D02*
X139951723Y-75979663D01*
X139285057Y-74979663D02*
X139189819Y-74979663D01*
X139189819Y-74979663D02*
X139094581Y-75027282D01*
X139094581Y-75027282D02*
X139046962Y-75074901D01*
X139046962Y-75074901D02*
X138999343Y-75170139D01*
X138999343Y-75170139D02*
X138951724Y-75360615D01*
X138951724Y-75360615D02*
X138951724Y-75598710D01*
X138951724Y-75598710D02*
X138999343Y-75789186D01*
X138999343Y-75789186D02*
X139046962Y-75884424D01*
X139046962Y-75884424D02*
X139094581Y-75932044D01*
X139094581Y-75932044D02*
X139189819Y-75979663D01*
X139189819Y-75979663D02*
X139285057Y-75979663D01*
X139285057Y-75979663D02*
X139380295Y-75932044D01*
X139380295Y-75932044D02*
X139427914Y-75884424D01*
X139427914Y-75884424D02*
X139475533Y-75789186D01*
X139475533Y-75789186D02*
X139523152Y-75598710D01*
X139523152Y-75598710D02*
X139523152Y-75360615D01*
X139523152Y-75360615D02*
X139475533Y-75170139D01*
X139475533Y-75170139D02*
X139427914Y-75074901D01*
X139427914Y-75074901D02*
X139380295Y-75027282D01*
X139380295Y-75027282D02*
X139285057Y-74979663D01*
X145358866Y-72214901D02*
X145311247Y-72167282D01*
X145311247Y-72167282D02*
X145216009Y-72119663D01*
X145216009Y-72119663D02*
X144977914Y-72119663D01*
X144977914Y-72119663D02*
X144882676Y-72167282D01*
X144882676Y-72167282D02*
X144835057Y-72214901D01*
X144835057Y-72214901D02*
X144787438Y-72310139D01*
X144787438Y-72310139D02*
X144787438Y-72405377D01*
X144787438Y-72405377D02*
X144835057Y-72548234D01*
X144835057Y-72548234D02*
X145406485Y-73119663D01*
X145406485Y-73119663D02*
X144787438Y-73119663D01*
X143882676Y-72119663D02*
X144358866Y-72119663D01*
X144358866Y-72119663D02*
X144406485Y-72595853D01*
X144406485Y-72595853D02*
X144358866Y-72548234D01*
X144358866Y-72548234D02*
X144263628Y-72500615D01*
X144263628Y-72500615D02*
X144025533Y-72500615D01*
X144025533Y-72500615D02*
X143930295Y-72548234D01*
X143930295Y-72548234D02*
X143882676Y-72595853D01*
X143882676Y-72595853D02*
X143835057Y-72691091D01*
X143835057Y-72691091D02*
X143835057Y-72929186D01*
X143835057Y-72929186D02*
X143882676Y-73024424D01*
X143882676Y-73024424D02*
X143930295Y-73072044D01*
X143930295Y-73072044D02*
X144025533Y-73119663D01*
X144025533Y-73119663D02*
X144263628Y-73119663D01*
X144263628Y-73119663D02*
X144358866Y-73072044D01*
X144358866Y-73072044D02*
X144406485Y-73024424D01*
X142692200Y-72072044D02*
X143549342Y-73357758D01*
X142168390Y-72119663D02*
X142073152Y-72119663D01*
X142073152Y-72119663D02*
X141977914Y-72167282D01*
X141977914Y-72167282D02*
X141930295Y-72214901D01*
X141930295Y-72214901D02*
X141882676Y-72310139D01*
X141882676Y-72310139D02*
X141835057Y-72500615D01*
X141835057Y-72500615D02*
X141835057Y-72738710D01*
X141835057Y-72738710D02*
X141882676Y-72929186D01*
X141882676Y-72929186D02*
X141930295Y-73024424D01*
X141930295Y-73024424D02*
X141977914Y-73072044D01*
X141977914Y-73072044D02*
X142073152Y-73119663D01*
X142073152Y-73119663D02*
X142168390Y-73119663D01*
X142168390Y-73119663D02*
X142263628Y-73072044D01*
X142263628Y-73072044D02*
X142311247Y-73024424D01*
X142311247Y-73024424D02*
X142358866Y-72929186D01*
X142358866Y-72929186D02*
X142406485Y-72738710D01*
X142406485Y-72738710D02*
X142406485Y-72500615D01*
X142406485Y-72500615D02*
X142358866Y-72310139D01*
X142358866Y-72310139D02*
X142311247Y-72214901D01*
X142311247Y-72214901D02*
X142263628Y-72167282D01*
X142263628Y-72167282D02*
X142168390Y-72119663D01*
X141454104Y-72214901D02*
X141406485Y-72167282D01*
X141406485Y-72167282D02*
X141311247Y-72119663D01*
X141311247Y-72119663D02*
X141073152Y-72119663D01*
X141073152Y-72119663D02*
X140977914Y-72167282D01*
X140977914Y-72167282D02*
X140930295Y-72214901D01*
X140930295Y-72214901D02*
X140882676Y-72310139D01*
X140882676Y-72310139D02*
X140882676Y-72405377D01*
X140882676Y-72405377D02*
X140930295Y-72548234D01*
X140930295Y-72548234D02*
X141501723Y-73119663D01*
X141501723Y-73119663D02*
X140882676Y-73119663D01*
X139739819Y-72072044D02*
X140596961Y-73357758D01*
X139454104Y-72214901D02*
X139406485Y-72167282D01*
X139406485Y-72167282D02*
X139311247Y-72119663D01*
X139311247Y-72119663D02*
X139073152Y-72119663D01*
X139073152Y-72119663D02*
X138977914Y-72167282D01*
X138977914Y-72167282D02*
X138930295Y-72214901D01*
X138930295Y-72214901D02*
X138882676Y-72310139D01*
X138882676Y-72310139D02*
X138882676Y-72405377D01*
X138882676Y-72405377D02*
X138930295Y-72548234D01*
X138930295Y-72548234D02*
X139501723Y-73119663D01*
X139501723Y-73119663D02*
X138882676Y-73119663D01*
X138263628Y-72119663D02*
X138168390Y-72119663D01*
X138168390Y-72119663D02*
X138073152Y-72167282D01*
X138073152Y-72167282D02*
X138025533Y-72214901D01*
X138025533Y-72214901D02*
X137977914Y-72310139D01*
X137977914Y-72310139D02*
X137930295Y-72500615D01*
X137930295Y-72500615D02*
X137930295Y-72738710D01*
X137930295Y-72738710D02*
X137977914Y-72929186D01*
X137977914Y-72929186D02*
X138025533Y-73024424D01*
X138025533Y-73024424D02*
X138073152Y-73072044D01*
X138073152Y-73072044D02*
X138168390Y-73119663D01*
X138168390Y-73119663D02*
X138263628Y-73119663D01*
X138263628Y-73119663D02*
X138358866Y-73072044D01*
X138358866Y-73072044D02*
X138406485Y-73024424D01*
X138406485Y-73024424D02*
X138454104Y-72929186D01*
X138454104Y-72929186D02*
X138501723Y-72738710D01*
X138501723Y-72738710D02*
X138501723Y-72500615D01*
X138501723Y-72500615D02*
X138454104Y-72310139D01*
X138454104Y-72310139D02*
X138406485Y-72214901D01*
X138406485Y-72214901D02*
X138358866Y-72167282D01*
X138358866Y-72167282D02*
X138263628Y-72119663D01*
X137549342Y-72214901D02*
X137501723Y-72167282D01*
X137501723Y-72167282D02*
X137406485Y-72119663D01*
X137406485Y-72119663D02*
X137168390Y-72119663D01*
X137168390Y-72119663D02*
X137073152Y-72167282D01*
X137073152Y-72167282D02*
X137025533Y-72214901D01*
X137025533Y-72214901D02*
X136977914Y-72310139D01*
X136977914Y-72310139D02*
X136977914Y-72405377D01*
X136977914Y-72405377D02*
X137025533Y-72548234D01*
X137025533Y-72548234D02*
X137596961Y-73119663D01*
X137596961Y-73119663D02*
X136977914Y-73119663D01*
X136120771Y-72452996D02*
X136120771Y-73119663D01*
X136358866Y-72072044D02*
X136596961Y-72786329D01*
X136596961Y-72786329D02*
X135977914Y-72786329D01*
X155812717Y-106397438D02*
X155860336Y-106492676D01*
X155860336Y-106492676D02*
X155860336Y-106635533D01*
X155860336Y-106635533D02*
X155812717Y-106778390D01*
X155812717Y-106778390D02*
X155717479Y-106873628D01*
X155717479Y-106873628D02*
X155622241Y-106921247D01*
X155622241Y-106921247D02*
X155431765Y-106968866D01*
X155431765Y-106968866D02*
X155288908Y-106968866D01*
X155288908Y-106968866D02*
X155098432Y-106921247D01*
X155098432Y-106921247D02*
X155003194Y-106873628D01*
X155003194Y-106873628D02*
X154907956Y-106778390D01*
X154907956Y-106778390D02*
X154860336Y-106635533D01*
X154860336Y-106635533D02*
X154860336Y-106540295D01*
X154860336Y-106540295D02*
X154907956Y-106397438D01*
X154907956Y-106397438D02*
X154955575Y-106349819D01*
X154955575Y-106349819D02*
X155288908Y-106349819D01*
X155288908Y-106349819D02*
X155288908Y-106540295D01*
X154860336Y-105921247D02*
X155860336Y-105921247D01*
X155860336Y-105921247D02*
X154860336Y-105349819D01*
X154860336Y-105349819D02*
X155860336Y-105349819D01*
X154860336Y-104873628D02*
X155860336Y-104873628D01*
X155860336Y-104873628D02*
X155860336Y-104635533D01*
X155860336Y-104635533D02*
X155812717Y-104492676D01*
X155812717Y-104492676D02*
X155717479Y-104397438D01*
X155717479Y-104397438D02*
X155622241Y-104349819D01*
X155622241Y-104349819D02*
X155431765Y-104302200D01*
X155431765Y-104302200D02*
X155288908Y-104302200D01*
X155288908Y-104302200D02*
X155098432Y-104349819D01*
X155098432Y-104349819D02*
X155003194Y-104397438D01*
X155003194Y-104397438D02*
X154907956Y-104492676D01*
X154907956Y-104492676D02*
X154860336Y-104635533D01*
X154860336Y-104635533D02*
X154860336Y-104873628D01*
X139580336Y-106881247D02*
X140580336Y-106881247D01*
X140580336Y-106881247D02*
X140580336Y-106500295D01*
X140580336Y-106500295D02*
X140532717Y-106405057D01*
X140532717Y-106405057D02*
X140485098Y-106357438D01*
X140485098Y-106357438D02*
X140389860Y-106309819D01*
X140389860Y-106309819D02*
X140247003Y-106309819D01*
X140247003Y-106309819D02*
X140151765Y-106357438D01*
X140151765Y-106357438D02*
X140104146Y-106405057D01*
X140104146Y-106405057D02*
X140056527Y-106500295D01*
X140056527Y-106500295D02*
X140056527Y-106881247D01*
X139580336Y-105881247D02*
X140580336Y-105881247D01*
X140580336Y-105881247D02*
X140580336Y-105643152D01*
X140580336Y-105643152D02*
X140532717Y-105500295D01*
X140532717Y-105500295D02*
X140437479Y-105405057D01*
X140437479Y-105405057D02*
X140342241Y-105357438D01*
X140342241Y-105357438D02*
X140151765Y-105309819D01*
X140151765Y-105309819D02*
X140008908Y-105309819D01*
X140008908Y-105309819D02*
X139818432Y-105357438D01*
X139818432Y-105357438D02*
X139723194Y-105405057D01*
X139723194Y-105405057D02*
X139627956Y-105500295D01*
X139627956Y-105500295D02*
X139580336Y-105643152D01*
X139580336Y-105643152D02*
X139580336Y-105881247D01*
X140580336Y-104690771D02*
X140580336Y-104500295D01*
X140580336Y-104500295D02*
X140532717Y-104405057D01*
X140532717Y-104405057D02*
X140437479Y-104309819D01*
X140437479Y-104309819D02*
X140247003Y-104262200D01*
X140247003Y-104262200D02*
X139913670Y-104262200D01*
X139913670Y-104262200D02*
X139723194Y-104309819D01*
X139723194Y-104309819D02*
X139627956Y-104405057D01*
X139627956Y-104405057D02*
X139580336Y-104500295D01*
X139580336Y-104500295D02*
X139580336Y-104690771D01*
X139580336Y-104690771D02*
X139627956Y-104786009D01*
X139627956Y-104786009D02*
X139723194Y-104881247D01*
X139723194Y-104881247D02*
X139913670Y-104928866D01*
X139913670Y-104928866D02*
X140247003Y-104928866D01*
X140247003Y-104928866D02*
X140437479Y-104881247D01*
X140437479Y-104881247D02*
X140532717Y-104786009D01*
X140532717Y-104786009D02*
X140580336Y-104690771D01*
X140580336Y-103928866D02*
X139580336Y-103690771D01*
X139580336Y-103690771D02*
X140294622Y-103500295D01*
X140294622Y-103500295D02*
X139580336Y-103309819D01*
X139580336Y-103309819D02*
X140580336Y-103071724D01*
X139580336Y-102690771D02*
X140580336Y-102690771D01*
X140580336Y-102690771D02*
X139580336Y-102119343D01*
X139580336Y-102119343D02*
X140580336Y-102119343D01*
X148991247Y-70389663D02*
X148991247Y-69389663D01*
X148991247Y-69389663D02*
X148610295Y-69389663D01*
X148610295Y-69389663D02*
X148515057Y-69437282D01*
X148515057Y-69437282D02*
X148467438Y-69484901D01*
X148467438Y-69484901D02*
X148419819Y-69580139D01*
X148419819Y-69580139D02*
X148419819Y-69722996D01*
X148419819Y-69722996D02*
X148467438Y-69818234D01*
X148467438Y-69818234D02*
X148515057Y-69865853D01*
X148515057Y-69865853D02*
X148610295Y-69913472D01*
X148610295Y-69913472D02*
X148991247Y-69913472D01*
X147610295Y-70342044D02*
X147705533Y-70389663D01*
X147705533Y-70389663D02*
X147896009Y-70389663D01*
X147896009Y-70389663D02*
X147991247Y-70342044D01*
X147991247Y-70342044D02*
X148038866Y-70246805D01*
X148038866Y-70246805D02*
X148038866Y-69865853D01*
X148038866Y-69865853D02*
X147991247Y-69770615D01*
X147991247Y-69770615D02*
X147896009Y-69722996D01*
X147896009Y-69722996D02*
X147705533Y-69722996D01*
X147705533Y-69722996D02*
X147610295Y-69770615D01*
X147610295Y-69770615D02*
X147562676Y-69865853D01*
X147562676Y-69865853D02*
X147562676Y-69961091D01*
X147562676Y-69961091D02*
X148038866Y-70056329D01*
X146705533Y-70389663D02*
X146705533Y-69389663D01*
X146705533Y-70342044D02*
X146800771Y-70389663D01*
X146800771Y-70389663D02*
X146991247Y-70389663D01*
X146991247Y-70389663D02*
X147086485Y-70342044D01*
X147086485Y-70342044D02*
X147134104Y-70294424D01*
X147134104Y-70294424D02*
X147181723Y-70199186D01*
X147181723Y-70199186D02*
X147181723Y-69913472D01*
X147181723Y-69913472D02*
X147134104Y-69818234D01*
X147134104Y-69818234D02*
X147086485Y-69770615D01*
X147086485Y-69770615D02*
X146991247Y-69722996D01*
X146991247Y-69722996D02*
X146800771Y-69722996D01*
X146800771Y-69722996D02*
X146705533Y-69770615D01*
X146229342Y-70389663D02*
X146229342Y-69722996D01*
X146229342Y-69913472D02*
X146181723Y-69818234D01*
X146181723Y-69818234D02*
X146134104Y-69770615D01*
X146134104Y-69770615D02*
X146038866Y-69722996D01*
X146038866Y-69722996D02*
X145943628Y-69722996D01*
X145467437Y-70389663D02*
X145562675Y-70342044D01*
X145562675Y-70342044D02*
X145610294Y-70294424D01*
X145610294Y-70294424D02*
X145657913Y-70199186D01*
X145657913Y-70199186D02*
X145657913Y-69913472D01*
X145657913Y-69913472D02*
X145610294Y-69818234D01*
X145610294Y-69818234D02*
X145562675Y-69770615D01*
X145562675Y-69770615D02*
X145467437Y-69722996D01*
X145467437Y-69722996D02*
X145324580Y-69722996D01*
X145324580Y-69722996D02*
X145229342Y-69770615D01*
X145229342Y-69770615D02*
X145181723Y-69818234D01*
X145181723Y-69818234D02*
X145134104Y-69913472D01*
X145134104Y-69913472D02*
X145134104Y-70199186D01*
X145134104Y-70199186D02*
X145181723Y-70294424D01*
X145181723Y-70294424D02*
X145229342Y-70342044D01*
X145229342Y-70342044D02*
X145324580Y-70389663D01*
X145324580Y-70389663D02*
X145467437Y-70389663D01*
X144086484Y-69389663D02*
X143515056Y-69389663D01*
X143800770Y-70389663D02*
X143800770Y-69389663D01*
X143181722Y-70389663D02*
X143181722Y-69722996D01*
X143181722Y-69913472D02*
X143134103Y-69818234D01*
X143134103Y-69818234D02*
X143086484Y-69770615D01*
X143086484Y-69770615D02*
X142991246Y-69722996D01*
X142991246Y-69722996D02*
X142896008Y-69722996D01*
X142181722Y-70342044D02*
X142276960Y-70389663D01*
X142276960Y-70389663D02*
X142467436Y-70389663D01*
X142467436Y-70389663D02*
X142562674Y-70342044D01*
X142562674Y-70342044D02*
X142610293Y-70246805D01*
X142610293Y-70246805D02*
X142610293Y-69865853D01*
X142610293Y-69865853D02*
X142562674Y-69770615D01*
X142562674Y-69770615D02*
X142467436Y-69722996D01*
X142467436Y-69722996D02*
X142276960Y-69722996D01*
X142276960Y-69722996D02*
X142181722Y-69770615D01*
X142181722Y-69770615D02*
X142134103Y-69865853D01*
X142134103Y-69865853D02*
X142134103Y-69961091D01*
X142134103Y-69961091D02*
X142610293Y-70056329D01*
X141705531Y-69722996D02*
X141705531Y-70389663D01*
X141705531Y-69818234D02*
X141657912Y-69770615D01*
X141657912Y-69770615D02*
X141562674Y-69722996D01*
X141562674Y-69722996D02*
X141419817Y-69722996D01*
X141419817Y-69722996D02*
X141324579Y-69770615D01*
X141324579Y-69770615D02*
X141276960Y-69865853D01*
X141276960Y-69865853D02*
X141276960Y-70389663D01*
X140372198Y-70389663D02*
X140372198Y-69865853D01*
X140372198Y-69865853D02*
X140419817Y-69770615D01*
X140419817Y-69770615D02*
X140515055Y-69722996D01*
X140515055Y-69722996D02*
X140705531Y-69722996D01*
X140705531Y-69722996D02*
X140800769Y-69770615D01*
X140372198Y-70342044D02*
X140467436Y-70389663D01*
X140467436Y-70389663D02*
X140705531Y-70389663D01*
X140705531Y-70389663D02*
X140800769Y-70342044D01*
X140800769Y-70342044D02*
X140848388Y-70246805D01*
X140848388Y-70246805D02*
X140848388Y-70151567D01*
X140848388Y-70151567D02*
X140800769Y-70056329D01*
X140800769Y-70056329D02*
X140705531Y-70008710D01*
X140705531Y-70008710D02*
X140467436Y-70008710D01*
X140467436Y-70008710D02*
X140372198Y-69961091D01*
X139467436Y-70389663D02*
X139467436Y-69389663D01*
X139467436Y-70342044D02*
X139562674Y-70389663D01*
X139562674Y-70389663D02*
X139753150Y-70389663D01*
X139753150Y-70389663D02*
X139848388Y-70342044D01*
X139848388Y-70342044D02*
X139896007Y-70294424D01*
X139896007Y-70294424D02*
X139943626Y-70199186D01*
X139943626Y-70199186D02*
X139943626Y-69913472D01*
X139943626Y-69913472D02*
X139896007Y-69818234D01*
X139896007Y-69818234D02*
X139848388Y-69770615D01*
X139848388Y-69770615D02*
X139753150Y-69722996D01*
X139753150Y-69722996D02*
X139562674Y-69722996D01*
X139562674Y-69722996D02*
X139467436Y-69770615D01*
X138848388Y-70389663D02*
X138943626Y-70342044D01*
X138943626Y-70342044D02*
X138991245Y-70294424D01*
X138991245Y-70294424D02*
X139038864Y-70199186D01*
X139038864Y-70199186D02*
X139038864Y-69913472D01*
X139038864Y-69913472D02*
X138991245Y-69818234D01*
X138991245Y-69818234D02*
X138943626Y-69770615D01*
X138943626Y-69770615D02*
X138848388Y-69722996D01*
X138848388Y-69722996D02*
X138705531Y-69722996D01*
X138705531Y-69722996D02*
X138610293Y-69770615D01*
X138610293Y-69770615D02*
X138562674Y-69818234D01*
X138562674Y-69818234D02*
X138515055Y-69913472D01*
X138515055Y-69913472D02*
X138515055Y-70199186D01*
X138515055Y-70199186D02*
X138562674Y-70294424D01*
X138562674Y-70294424D02*
X138610293Y-70342044D01*
X138610293Y-70342044D02*
X138705531Y-70389663D01*
X138705531Y-70389663D02*
X138848388Y-70389663D01*
X136991245Y-69865853D02*
X137324578Y-69865853D01*
X137324578Y-70389663D02*
X137324578Y-69389663D01*
X137324578Y-69389663D02*
X136848388Y-69389663D01*
X136467435Y-70389663D02*
X136467435Y-69722996D01*
X136467435Y-69389663D02*
X136515054Y-69437282D01*
X136515054Y-69437282D02*
X136467435Y-69484901D01*
X136467435Y-69484901D02*
X136419816Y-69437282D01*
X136419816Y-69437282D02*
X136467435Y-69389663D01*
X136467435Y-69389663D02*
X136467435Y-69484901D01*
X135562674Y-69722996D02*
X135562674Y-70532520D01*
X135562674Y-70532520D02*
X135610293Y-70627758D01*
X135610293Y-70627758D02*
X135657912Y-70675377D01*
X135657912Y-70675377D02*
X135753150Y-70722996D01*
X135753150Y-70722996D02*
X135896007Y-70722996D01*
X135896007Y-70722996D02*
X135991245Y-70675377D01*
X135562674Y-70342044D02*
X135657912Y-70389663D01*
X135657912Y-70389663D02*
X135848388Y-70389663D01*
X135848388Y-70389663D02*
X135943626Y-70342044D01*
X135943626Y-70342044D02*
X135991245Y-70294424D01*
X135991245Y-70294424D02*
X136038864Y-70199186D01*
X136038864Y-70199186D02*
X136038864Y-69913472D01*
X136038864Y-69913472D02*
X135991245Y-69818234D01*
X135991245Y-69818234D02*
X135943626Y-69770615D01*
X135943626Y-69770615D02*
X135848388Y-69722996D01*
X135848388Y-69722996D02*
X135657912Y-69722996D01*
X135657912Y-69722996D02*
X135562674Y-69770615D01*
X134657912Y-69722996D02*
X134657912Y-70389663D01*
X135086483Y-69722996D02*
X135086483Y-70246805D01*
X135086483Y-70246805D02*
X135038864Y-70342044D01*
X135038864Y-70342044D02*
X134943626Y-70389663D01*
X134943626Y-70389663D02*
X134800769Y-70389663D01*
X134800769Y-70389663D02*
X134705531Y-70342044D01*
X134705531Y-70342044D02*
X134657912Y-70294424D01*
X133800769Y-70342044D02*
X133896007Y-70389663D01*
X133896007Y-70389663D02*
X134086483Y-70389663D01*
X134086483Y-70389663D02*
X134181721Y-70342044D01*
X134181721Y-70342044D02*
X134229340Y-70246805D01*
X134229340Y-70246805D02*
X134229340Y-69865853D01*
X134229340Y-69865853D02*
X134181721Y-69770615D01*
X134181721Y-69770615D02*
X134086483Y-69722996D01*
X134086483Y-69722996D02*
X133896007Y-69722996D01*
X133896007Y-69722996D02*
X133800769Y-69770615D01*
X133800769Y-69770615D02*
X133753150Y-69865853D01*
X133753150Y-69865853D02*
X133753150Y-69961091D01*
X133753150Y-69961091D02*
X134229340Y-70056329D01*
X133324578Y-70389663D02*
X133324578Y-69722996D01*
X133324578Y-69913472D02*
X133276959Y-69818234D01*
X133276959Y-69818234D02*
X133229340Y-69770615D01*
X133229340Y-69770615D02*
X133134102Y-69722996D01*
X133134102Y-69722996D02*
X133038864Y-69722996D01*
X132562673Y-70389663D02*
X132657911Y-70342044D01*
X132657911Y-70342044D02*
X132705530Y-70294424D01*
X132705530Y-70294424D02*
X132753149Y-70199186D01*
X132753149Y-70199186D02*
X132753149Y-69913472D01*
X132753149Y-69913472D02*
X132705530Y-69818234D01*
X132705530Y-69818234D02*
X132657911Y-69770615D01*
X132657911Y-69770615D02*
X132562673Y-69722996D01*
X132562673Y-69722996D02*
X132419816Y-69722996D01*
X132419816Y-69722996D02*
X132324578Y-69770615D01*
X132324578Y-69770615D02*
X132276959Y-69818234D01*
X132276959Y-69818234D02*
X132229340Y-69913472D01*
X132229340Y-69913472D02*
X132229340Y-70199186D01*
X132229340Y-70199186D02*
X132276959Y-70294424D01*
X132276959Y-70294424D02*
X132324578Y-70342044D01*
X132324578Y-70342044D02*
X132419816Y-70389663D01*
X132419816Y-70389663D02*
X132562673Y-70389663D01*
X131372197Y-70389663D02*
X131372197Y-69865853D01*
X131372197Y-69865853D02*
X131419816Y-69770615D01*
X131419816Y-69770615D02*
X131515054Y-69722996D01*
X131515054Y-69722996D02*
X131705530Y-69722996D01*
X131705530Y-69722996D02*
X131800768Y-69770615D01*
X131372197Y-70342044D02*
X131467435Y-70389663D01*
X131467435Y-70389663D02*
X131705530Y-70389663D01*
X131705530Y-70389663D02*
X131800768Y-70342044D01*
X131800768Y-70342044D02*
X131848387Y-70246805D01*
X131848387Y-70246805D02*
X131848387Y-70151567D01*
X131848387Y-70151567D02*
X131800768Y-70056329D01*
X131800768Y-70056329D02*
X131705530Y-70008710D01*
X131705530Y-70008710D02*
X131467435Y-70008710D01*
X131467435Y-70008710D02*
X131372197Y-69961091D01*
X149820336Y-106781247D02*
X150820336Y-106781247D01*
X150820336Y-106781247D02*
X149820336Y-106209819D01*
X149820336Y-106209819D02*
X150820336Y-106209819D01*
X149867956Y-105781247D02*
X149820336Y-105638390D01*
X149820336Y-105638390D02*
X149820336Y-105400295D01*
X149820336Y-105400295D02*
X149867956Y-105305057D01*
X149867956Y-105305057D02*
X149915575Y-105257438D01*
X149915575Y-105257438D02*
X150010813Y-105209819D01*
X150010813Y-105209819D02*
X150106051Y-105209819D01*
X150106051Y-105209819D02*
X150201289Y-105257438D01*
X150201289Y-105257438D02*
X150248908Y-105305057D01*
X150248908Y-105305057D02*
X150296527Y-105400295D01*
X150296527Y-105400295D02*
X150344146Y-105590771D01*
X150344146Y-105590771D02*
X150391765Y-105686009D01*
X150391765Y-105686009D02*
X150439384Y-105733628D01*
X150439384Y-105733628D02*
X150534622Y-105781247D01*
X150534622Y-105781247D02*
X150629860Y-105781247D01*
X150629860Y-105781247D02*
X150725098Y-105733628D01*
X150725098Y-105733628D02*
X150772717Y-105686009D01*
X150772717Y-105686009D02*
X150820336Y-105590771D01*
X150820336Y-105590771D02*
X150820336Y-105352676D01*
X150820336Y-105352676D02*
X150772717Y-105209819D01*
X149867956Y-104828866D02*
X149820336Y-104686009D01*
X149820336Y-104686009D02*
X149820336Y-104447914D01*
X149820336Y-104447914D02*
X149867956Y-104352676D01*
X149867956Y-104352676D02*
X149915575Y-104305057D01*
X149915575Y-104305057D02*
X150010813Y-104257438D01*
X150010813Y-104257438D02*
X150106051Y-104257438D01*
X150106051Y-104257438D02*
X150201289Y-104305057D01*
X150201289Y-104305057D02*
X150248908Y-104352676D01*
X150248908Y-104352676D02*
X150296527Y-104447914D01*
X150296527Y-104447914D02*
X150344146Y-104638390D01*
X150344146Y-104638390D02*
X150391765Y-104733628D01*
X150391765Y-104733628D02*
X150439384Y-104781247D01*
X150439384Y-104781247D02*
X150534622Y-104828866D01*
X150534622Y-104828866D02*
X150629860Y-104828866D01*
X150629860Y-104828866D02*
X150725098Y-104781247D01*
X150725098Y-104781247D02*
X150772717Y-104733628D01*
X150772717Y-104733628D02*
X150820336Y-104638390D01*
X150820336Y-104638390D02*
X150820336Y-104400295D01*
X150820336Y-104400295D02*
X150772717Y-104257438D01*
X144837956Y-106858866D02*
X144790336Y-106716009D01*
X144790336Y-106716009D02*
X144790336Y-106477914D01*
X144790336Y-106477914D02*
X144837956Y-106382676D01*
X144837956Y-106382676D02*
X144885575Y-106335057D01*
X144885575Y-106335057D02*
X144980813Y-106287438D01*
X144980813Y-106287438D02*
X145076051Y-106287438D01*
X145076051Y-106287438D02*
X145171289Y-106335057D01*
X145171289Y-106335057D02*
X145218908Y-106382676D01*
X145218908Y-106382676D02*
X145266527Y-106477914D01*
X145266527Y-106477914D02*
X145314146Y-106668390D01*
X145314146Y-106668390D02*
X145361765Y-106763628D01*
X145361765Y-106763628D02*
X145409384Y-106811247D01*
X145409384Y-106811247D02*
X145504622Y-106858866D01*
X145504622Y-106858866D02*
X145599860Y-106858866D01*
X145599860Y-106858866D02*
X145695098Y-106811247D01*
X145695098Y-106811247D02*
X145742717Y-106763628D01*
X145742717Y-106763628D02*
X145790336Y-106668390D01*
X145790336Y-106668390D02*
X145790336Y-106430295D01*
X145790336Y-106430295D02*
X145742717Y-106287438D01*
X144885575Y-105287438D02*
X144837956Y-105335057D01*
X144837956Y-105335057D02*
X144790336Y-105477914D01*
X144790336Y-105477914D02*
X144790336Y-105573152D01*
X144790336Y-105573152D02*
X144837956Y-105716009D01*
X144837956Y-105716009D02*
X144933194Y-105811247D01*
X144933194Y-105811247D02*
X145028432Y-105858866D01*
X145028432Y-105858866D02*
X145218908Y-105906485D01*
X145218908Y-105906485D02*
X145361765Y-105906485D01*
X145361765Y-105906485D02*
X145552241Y-105858866D01*
X145552241Y-105858866D02*
X145647479Y-105811247D01*
X145647479Y-105811247D02*
X145742717Y-105716009D01*
X145742717Y-105716009D02*
X145790336Y-105573152D01*
X145790336Y-105573152D02*
X145790336Y-105477914D01*
X145790336Y-105477914D02*
X145742717Y-105335057D01*
X145742717Y-105335057D02*
X145695098Y-105287438D01*
X144790336Y-104858866D02*
X145790336Y-104858866D01*
X144790336Y-104287438D02*
X145361765Y-104716009D01*
X145790336Y-104287438D02*
X145218908Y-104858866D01*
X152450336Y-106741247D02*
X153450336Y-106741247D01*
X152450336Y-105693629D02*
X152926527Y-106026962D01*
X152450336Y-106265057D02*
X153450336Y-106265057D01*
X153450336Y-106265057D02*
X153450336Y-105884105D01*
X153450336Y-105884105D02*
X153402717Y-105788867D01*
X153402717Y-105788867D02*
X153355098Y-105741248D01*
X153355098Y-105741248D02*
X153259860Y-105693629D01*
X153259860Y-105693629D02*
X153117003Y-105693629D01*
X153117003Y-105693629D02*
X153021765Y-105741248D01*
X153021765Y-105741248D02*
X152974146Y-105788867D01*
X152974146Y-105788867D02*
X152926527Y-105884105D01*
X152926527Y-105884105D02*
X152926527Y-106265057D01*
X152355098Y-104598391D02*
X152402717Y-104693629D01*
X152402717Y-104693629D02*
X152497956Y-104788867D01*
X152497956Y-104788867D02*
X152640813Y-104931724D01*
X152640813Y-104931724D02*
X152688432Y-105026962D01*
X152688432Y-105026962D02*
X152688432Y-105122200D01*
X152450336Y-105074581D02*
X152497956Y-105169819D01*
X152497956Y-105169819D02*
X152593194Y-105265057D01*
X152593194Y-105265057D02*
X152783670Y-105312676D01*
X152783670Y-105312676D02*
X153117003Y-105312676D01*
X153117003Y-105312676D02*
X153307479Y-105265057D01*
X153307479Y-105265057D02*
X153402717Y-105169819D01*
X153402717Y-105169819D02*
X153450336Y-105074581D01*
X153450336Y-105074581D02*
X153450336Y-104884105D01*
X153450336Y-104884105D02*
X153402717Y-104788867D01*
X153402717Y-104788867D02*
X153307479Y-104693629D01*
X153307479Y-104693629D02*
X153117003Y-104646010D01*
X153117003Y-104646010D02*
X152783670Y-104646010D01*
X152783670Y-104646010D02*
X152593194Y-104693629D01*
X152593194Y-104693629D02*
X152497956Y-104788867D01*
X152497956Y-104788867D02*
X152450336Y-104884105D01*
X152450336Y-104884105D02*
X152450336Y-105074581D01*
X147240336Y-106881247D02*
X148240336Y-106881247D01*
X148240336Y-106881247D02*
X147526051Y-106547914D01*
X147526051Y-106547914D02*
X148240336Y-106214581D01*
X148240336Y-106214581D02*
X147240336Y-106214581D01*
X147240336Y-105738390D02*
X148240336Y-105738390D01*
X147287956Y-105309819D02*
X147240336Y-105166962D01*
X147240336Y-105166962D02*
X147240336Y-104928867D01*
X147240336Y-104928867D02*
X147287956Y-104833629D01*
X147287956Y-104833629D02*
X147335575Y-104786010D01*
X147335575Y-104786010D02*
X147430813Y-104738391D01*
X147430813Y-104738391D02*
X147526051Y-104738391D01*
X147526051Y-104738391D02*
X147621289Y-104786010D01*
X147621289Y-104786010D02*
X147668908Y-104833629D01*
X147668908Y-104833629D02*
X147716527Y-104928867D01*
X147716527Y-104928867D02*
X147764146Y-105119343D01*
X147764146Y-105119343D02*
X147811765Y-105214581D01*
X147811765Y-105214581D02*
X147859384Y-105262200D01*
X147859384Y-105262200D02*
X147954622Y-105309819D01*
X147954622Y-105309819D02*
X148049860Y-105309819D01*
X148049860Y-105309819D02*
X148145098Y-105262200D01*
X148145098Y-105262200D02*
X148192717Y-105214581D01*
X148192717Y-105214581D02*
X148240336Y-105119343D01*
X148240336Y-105119343D02*
X148240336Y-104881248D01*
X148240336Y-104881248D02*
X148192717Y-104738391D01*
X148240336Y-104119343D02*
X148240336Y-103928867D01*
X148240336Y-103928867D02*
X148192717Y-103833629D01*
X148192717Y-103833629D02*
X148097479Y-103738391D01*
X148097479Y-103738391D02*
X147907003Y-103690772D01*
X147907003Y-103690772D02*
X147573670Y-103690772D01*
X147573670Y-103690772D02*
X147383194Y-103738391D01*
X147383194Y-103738391D02*
X147287956Y-103833629D01*
X147287956Y-103833629D02*
X147240336Y-103928867D01*
X147240336Y-103928867D02*
X147240336Y-104119343D01*
X147240336Y-104119343D02*
X147287956Y-104214581D01*
X147287956Y-104214581D02*
X147383194Y-104309819D01*
X147383194Y-104309819D02*
X147573670Y-104357438D01*
X147573670Y-104357438D02*
X147907003Y-104357438D01*
X147907003Y-104357438D02*
X148097479Y-104309819D01*
X148097479Y-104309819D02*
X148192717Y-104214581D01*
X148192717Y-104214581D02*
X148240336Y-104119343D01*
%LPC*%
D11*
X124080000Y-58640000D03*
X156120000Y-58640000D03*
D12*
X128530000Y-103060000D03*
D13*
X131070000Y-103060000D03*
D11*
X124060000Y-88020000D03*
D12*
X137670000Y-108020000D03*
D13*
X140210000Y-108020000D03*
X142750000Y-108020000D03*
X145290000Y-108020000D03*
X147830000Y-108020000D03*
X150370000Y-108020000D03*
X152910000Y-108020000D03*
X155450000Y-108020000D03*
D11*
X156110000Y-88020000D03*
%LPD*%
M02*
