G04 #@! TF.GenerationSoftware,KiCad,Pcbnew,7.0.9*
G04 #@! TF.CreationDate,2024-04-03T14:30:27+02:00*
G04 #@! TF.ProjectId,NFC_Programmer,4e46435f-5072-46f6-9772-616d6d65722e,3.0*
G04 #@! TF.SameCoordinates,Original*
G04 #@! TF.FileFunction,Legend,Bot*
G04 #@! TF.FilePolarity,Positive*
%FSLAX46Y46*%
G04 Gerber Fmt 4.6, Leading zero omitted, Abs format (unit mm)*
G04 Created by KiCad (PCBNEW 7.0.9) date 2024-04-03 14:30:27*
%MOMM*%
%LPD*%
G01*
G04 APERTURE LIST*
%ADD10C,0.153000*%
%ADD11C,3.000000*%
%ADD12R,1.350000X1.350000*%
%ADD13O,1.350000X1.350000*%
G04 APERTURE END LIST*
D10*
X139130336Y-106771247D02*
X140130336Y-106771247D01*
X140130336Y-106771247D02*
X140130336Y-106390295D01*
X140130336Y-106390295D02*
X140082717Y-106295057D01*
X140082717Y-106295057D02*
X140035098Y-106247438D01*
X140035098Y-106247438D02*
X139939860Y-106199819D01*
X139939860Y-106199819D02*
X139797003Y-106199819D01*
X139797003Y-106199819D02*
X139701765Y-106247438D01*
X139701765Y-106247438D02*
X139654146Y-106295057D01*
X139654146Y-106295057D02*
X139606527Y-106390295D01*
X139606527Y-106390295D02*
X139606527Y-106771247D01*
X139130336Y-105771247D02*
X140130336Y-105771247D01*
X140130336Y-105771247D02*
X140130336Y-105533152D01*
X140130336Y-105533152D02*
X140082717Y-105390295D01*
X140082717Y-105390295D02*
X139987479Y-105295057D01*
X139987479Y-105295057D02*
X139892241Y-105247438D01*
X139892241Y-105247438D02*
X139701765Y-105199819D01*
X139701765Y-105199819D02*
X139558908Y-105199819D01*
X139558908Y-105199819D02*
X139368432Y-105247438D01*
X139368432Y-105247438D02*
X139273194Y-105295057D01*
X139273194Y-105295057D02*
X139177956Y-105390295D01*
X139177956Y-105390295D02*
X139130336Y-105533152D01*
X139130336Y-105533152D02*
X139130336Y-105771247D01*
X140130336Y-104580771D02*
X140130336Y-104390295D01*
X140130336Y-104390295D02*
X140082717Y-104295057D01*
X140082717Y-104295057D02*
X139987479Y-104199819D01*
X139987479Y-104199819D02*
X139797003Y-104152200D01*
X139797003Y-104152200D02*
X139463670Y-104152200D01*
X139463670Y-104152200D02*
X139273194Y-104199819D01*
X139273194Y-104199819D02*
X139177956Y-104295057D01*
X139177956Y-104295057D02*
X139130336Y-104390295D01*
X139130336Y-104390295D02*
X139130336Y-104580771D01*
X139130336Y-104580771D02*
X139177956Y-104676009D01*
X139177956Y-104676009D02*
X139273194Y-104771247D01*
X139273194Y-104771247D02*
X139463670Y-104818866D01*
X139463670Y-104818866D02*
X139797003Y-104818866D01*
X139797003Y-104818866D02*
X139987479Y-104771247D01*
X139987479Y-104771247D02*
X140082717Y-104676009D01*
X140082717Y-104676009D02*
X140130336Y-104580771D01*
X140130336Y-103818866D02*
X139130336Y-103580771D01*
X139130336Y-103580771D02*
X139844622Y-103390295D01*
X139844622Y-103390295D02*
X139130336Y-103199819D01*
X139130336Y-103199819D02*
X140130336Y-102961724D01*
X139130336Y-102580771D02*
X140130336Y-102580771D01*
X140130336Y-102580771D02*
X139130336Y-102009343D01*
X139130336Y-102009343D02*
X140130336Y-102009343D01*
X148921247Y-68929663D02*
X148921247Y-67929663D01*
X148921247Y-67929663D02*
X148540295Y-67929663D01*
X148540295Y-67929663D02*
X148445057Y-67977282D01*
X148445057Y-67977282D02*
X148397438Y-68024901D01*
X148397438Y-68024901D02*
X148349819Y-68120139D01*
X148349819Y-68120139D02*
X148349819Y-68262996D01*
X148349819Y-68262996D02*
X148397438Y-68358234D01*
X148397438Y-68358234D02*
X148445057Y-68405853D01*
X148445057Y-68405853D02*
X148540295Y-68453472D01*
X148540295Y-68453472D02*
X148921247Y-68453472D01*
X147540295Y-68882044D02*
X147635533Y-68929663D01*
X147635533Y-68929663D02*
X147826009Y-68929663D01*
X147826009Y-68929663D02*
X147921247Y-68882044D01*
X147921247Y-68882044D02*
X147968866Y-68786805D01*
X147968866Y-68786805D02*
X147968866Y-68405853D01*
X147968866Y-68405853D02*
X147921247Y-68310615D01*
X147921247Y-68310615D02*
X147826009Y-68262996D01*
X147826009Y-68262996D02*
X147635533Y-68262996D01*
X147635533Y-68262996D02*
X147540295Y-68310615D01*
X147540295Y-68310615D02*
X147492676Y-68405853D01*
X147492676Y-68405853D02*
X147492676Y-68501091D01*
X147492676Y-68501091D02*
X147968866Y-68596329D01*
X146635533Y-68929663D02*
X146635533Y-67929663D01*
X146635533Y-68882044D02*
X146730771Y-68929663D01*
X146730771Y-68929663D02*
X146921247Y-68929663D01*
X146921247Y-68929663D02*
X147016485Y-68882044D01*
X147016485Y-68882044D02*
X147064104Y-68834424D01*
X147064104Y-68834424D02*
X147111723Y-68739186D01*
X147111723Y-68739186D02*
X147111723Y-68453472D01*
X147111723Y-68453472D02*
X147064104Y-68358234D01*
X147064104Y-68358234D02*
X147016485Y-68310615D01*
X147016485Y-68310615D02*
X146921247Y-68262996D01*
X146921247Y-68262996D02*
X146730771Y-68262996D01*
X146730771Y-68262996D02*
X146635533Y-68310615D01*
X146159342Y-68929663D02*
X146159342Y-68262996D01*
X146159342Y-68453472D02*
X146111723Y-68358234D01*
X146111723Y-68358234D02*
X146064104Y-68310615D01*
X146064104Y-68310615D02*
X145968866Y-68262996D01*
X145968866Y-68262996D02*
X145873628Y-68262996D01*
X145397437Y-68929663D02*
X145492675Y-68882044D01*
X145492675Y-68882044D02*
X145540294Y-68834424D01*
X145540294Y-68834424D02*
X145587913Y-68739186D01*
X145587913Y-68739186D02*
X145587913Y-68453472D01*
X145587913Y-68453472D02*
X145540294Y-68358234D01*
X145540294Y-68358234D02*
X145492675Y-68310615D01*
X145492675Y-68310615D02*
X145397437Y-68262996D01*
X145397437Y-68262996D02*
X145254580Y-68262996D01*
X145254580Y-68262996D02*
X145159342Y-68310615D01*
X145159342Y-68310615D02*
X145111723Y-68358234D01*
X145111723Y-68358234D02*
X145064104Y-68453472D01*
X145064104Y-68453472D02*
X145064104Y-68739186D01*
X145064104Y-68739186D02*
X145111723Y-68834424D01*
X145111723Y-68834424D02*
X145159342Y-68882044D01*
X145159342Y-68882044D02*
X145254580Y-68929663D01*
X145254580Y-68929663D02*
X145397437Y-68929663D01*
X144016484Y-67929663D02*
X143445056Y-67929663D01*
X143730770Y-68929663D02*
X143730770Y-67929663D01*
X143111722Y-68929663D02*
X143111722Y-68262996D01*
X143111722Y-68453472D02*
X143064103Y-68358234D01*
X143064103Y-68358234D02*
X143016484Y-68310615D01*
X143016484Y-68310615D02*
X142921246Y-68262996D01*
X142921246Y-68262996D02*
X142826008Y-68262996D01*
X142111722Y-68882044D02*
X142206960Y-68929663D01*
X142206960Y-68929663D02*
X142397436Y-68929663D01*
X142397436Y-68929663D02*
X142492674Y-68882044D01*
X142492674Y-68882044D02*
X142540293Y-68786805D01*
X142540293Y-68786805D02*
X142540293Y-68405853D01*
X142540293Y-68405853D02*
X142492674Y-68310615D01*
X142492674Y-68310615D02*
X142397436Y-68262996D01*
X142397436Y-68262996D02*
X142206960Y-68262996D01*
X142206960Y-68262996D02*
X142111722Y-68310615D01*
X142111722Y-68310615D02*
X142064103Y-68405853D01*
X142064103Y-68405853D02*
X142064103Y-68501091D01*
X142064103Y-68501091D02*
X142540293Y-68596329D01*
X141635531Y-68262996D02*
X141635531Y-68929663D01*
X141635531Y-68358234D02*
X141587912Y-68310615D01*
X141587912Y-68310615D02*
X141492674Y-68262996D01*
X141492674Y-68262996D02*
X141349817Y-68262996D01*
X141349817Y-68262996D02*
X141254579Y-68310615D01*
X141254579Y-68310615D02*
X141206960Y-68405853D01*
X141206960Y-68405853D02*
X141206960Y-68929663D01*
X140302198Y-68929663D02*
X140302198Y-68405853D01*
X140302198Y-68405853D02*
X140349817Y-68310615D01*
X140349817Y-68310615D02*
X140445055Y-68262996D01*
X140445055Y-68262996D02*
X140635531Y-68262996D01*
X140635531Y-68262996D02*
X140730769Y-68310615D01*
X140302198Y-68882044D02*
X140397436Y-68929663D01*
X140397436Y-68929663D02*
X140635531Y-68929663D01*
X140635531Y-68929663D02*
X140730769Y-68882044D01*
X140730769Y-68882044D02*
X140778388Y-68786805D01*
X140778388Y-68786805D02*
X140778388Y-68691567D01*
X140778388Y-68691567D02*
X140730769Y-68596329D01*
X140730769Y-68596329D02*
X140635531Y-68548710D01*
X140635531Y-68548710D02*
X140397436Y-68548710D01*
X140397436Y-68548710D02*
X140302198Y-68501091D01*
X139397436Y-68929663D02*
X139397436Y-67929663D01*
X139397436Y-68882044D02*
X139492674Y-68929663D01*
X139492674Y-68929663D02*
X139683150Y-68929663D01*
X139683150Y-68929663D02*
X139778388Y-68882044D01*
X139778388Y-68882044D02*
X139826007Y-68834424D01*
X139826007Y-68834424D02*
X139873626Y-68739186D01*
X139873626Y-68739186D02*
X139873626Y-68453472D01*
X139873626Y-68453472D02*
X139826007Y-68358234D01*
X139826007Y-68358234D02*
X139778388Y-68310615D01*
X139778388Y-68310615D02*
X139683150Y-68262996D01*
X139683150Y-68262996D02*
X139492674Y-68262996D01*
X139492674Y-68262996D02*
X139397436Y-68310615D01*
X138778388Y-68929663D02*
X138873626Y-68882044D01*
X138873626Y-68882044D02*
X138921245Y-68834424D01*
X138921245Y-68834424D02*
X138968864Y-68739186D01*
X138968864Y-68739186D02*
X138968864Y-68453472D01*
X138968864Y-68453472D02*
X138921245Y-68358234D01*
X138921245Y-68358234D02*
X138873626Y-68310615D01*
X138873626Y-68310615D02*
X138778388Y-68262996D01*
X138778388Y-68262996D02*
X138635531Y-68262996D01*
X138635531Y-68262996D02*
X138540293Y-68310615D01*
X138540293Y-68310615D02*
X138492674Y-68358234D01*
X138492674Y-68358234D02*
X138445055Y-68453472D01*
X138445055Y-68453472D02*
X138445055Y-68739186D01*
X138445055Y-68739186D02*
X138492674Y-68834424D01*
X138492674Y-68834424D02*
X138540293Y-68882044D01*
X138540293Y-68882044D02*
X138635531Y-68929663D01*
X138635531Y-68929663D02*
X138778388Y-68929663D01*
X136921245Y-68405853D02*
X137254578Y-68405853D01*
X137254578Y-68929663D02*
X137254578Y-67929663D01*
X137254578Y-67929663D02*
X136778388Y-67929663D01*
X136397435Y-68929663D02*
X136397435Y-68262996D01*
X136397435Y-67929663D02*
X136445054Y-67977282D01*
X136445054Y-67977282D02*
X136397435Y-68024901D01*
X136397435Y-68024901D02*
X136349816Y-67977282D01*
X136349816Y-67977282D02*
X136397435Y-67929663D01*
X136397435Y-67929663D02*
X136397435Y-68024901D01*
X135492674Y-68262996D02*
X135492674Y-69072520D01*
X135492674Y-69072520D02*
X135540293Y-69167758D01*
X135540293Y-69167758D02*
X135587912Y-69215377D01*
X135587912Y-69215377D02*
X135683150Y-69262996D01*
X135683150Y-69262996D02*
X135826007Y-69262996D01*
X135826007Y-69262996D02*
X135921245Y-69215377D01*
X135492674Y-68882044D02*
X135587912Y-68929663D01*
X135587912Y-68929663D02*
X135778388Y-68929663D01*
X135778388Y-68929663D02*
X135873626Y-68882044D01*
X135873626Y-68882044D02*
X135921245Y-68834424D01*
X135921245Y-68834424D02*
X135968864Y-68739186D01*
X135968864Y-68739186D02*
X135968864Y-68453472D01*
X135968864Y-68453472D02*
X135921245Y-68358234D01*
X135921245Y-68358234D02*
X135873626Y-68310615D01*
X135873626Y-68310615D02*
X135778388Y-68262996D01*
X135778388Y-68262996D02*
X135587912Y-68262996D01*
X135587912Y-68262996D02*
X135492674Y-68310615D01*
X134587912Y-68262996D02*
X134587912Y-68929663D01*
X135016483Y-68262996D02*
X135016483Y-68786805D01*
X135016483Y-68786805D02*
X134968864Y-68882044D01*
X134968864Y-68882044D02*
X134873626Y-68929663D01*
X134873626Y-68929663D02*
X134730769Y-68929663D01*
X134730769Y-68929663D02*
X134635531Y-68882044D01*
X134635531Y-68882044D02*
X134587912Y-68834424D01*
X133730769Y-68882044D02*
X133826007Y-68929663D01*
X133826007Y-68929663D02*
X134016483Y-68929663D01*
X134016483Y-68929663D02*
X134111721Y-68882044D01*
X134111721Y-68882044D02*
X134159340Y-68786805D01*
X134159340Y-68786805D02*
X134159340Y-68405853D01*
X134159340Y-68405853D02*
X134111721Y-68310615D01*
X134111721Y-68310615D02*
X134016483Y-68262996D01*
X134016483Y-68262996D02*
X133826007Y-68262996D01*
X133826007Y-68262996D02*
X133730769Y-68310615D01*
X133730769Y-68310615D02*
X133683150Y-68405853D01*
X133683150Y-68405853D02*
X133683150Y-68501091D01*
X133683150Y-68501091D02*
X134159340Y-68596329D01*
X133254578Y-68929663D02*
X133254578Y-68262996D01*
X133254578Y-68453472D02*
X133206959Y-68358234D01*
X133206959Y-68358234D02*
X133159340Y-68310615D01*
X133159340Y-68310615D02*
X133064102Y-68262996D01*
X133064102Y-68262996D02*
X132968864Y-68262996D01*
X132492673Y-68929663D02*
X132587911Y-68882044D01*
X132587911Y-68882044D02*
X132635530Y-68834424D01*
X132635530Y-68834424D02*
X132683149Y-68739186D01*
X132683149Y-68739186D02*
X132683149Y-68453472D01*
X132683149Y-68453472D02*
X132635530Y-68358234D01*
X132635530Y-68358234D02*
X132587911Y-68310615D01*
X132587911Y-68310615D02*
X132492673Y-68262996D01*
X132492673Y-68262996D02*
X132349816Y-68262996D01*
X132349816Y-68262996D02*
X132254578Y-68310615D01*
X132254578Y-68310615D02*
X132206959Y-68358234D01*
X132206959Y-68358234D02*
X132159340Y-68453472D01*
X132159340Y-68453472D02*
X132159340Y-68739186D01*
X132159340Y-68739186D02*
X132206959Y-68834424D01*
X132206959Y-68834424D02*
X132254578Y-68882044D01*
X132254578Y-68882044D02*
X132349816Y-68929663D01*
X132349816Y-68929663D02*
X132492673Y-68929663D01*
X131302197Y-68929663D02*
X131302197Y-68405853D01*
X131302197Y-68405853D02*
X131349816Y-68310615D01*
X131349816Y-68310615D02*
X131445054Y-68262996D01*
X131445054Y-68262996D02*
X131635530Y-68262996D01*
X131635530Y-68262996D02*
X131730768Y-68310615D01*
X131302197Y-68882044D02*
X131397435Y-68929663D01*
X131397435Y-68929663D02*
X131635530Y-68929663D01*
X131635530Y-68929663D02*
X131730768Y-68882044D01*
X131730768Y-68882044D02*
X131778387Y-68786805D01*
X131778387Y-68786805D02*
X131778387Y-68691567D01*
X131778387Y-68691567D02*
X131730768Y-68596329D01*
X131730768Y-68596329D02*
X131635530Y-68548710D01*
X131635530Y-68548710D02*
X131397435Y-68548710D01*
X131397435Y-68548710D02*
X131302197Y-68501091D01*
X141344104Y-73549663D02*
X141010771Y-74549663D01*
X141010771Y-74549663D02*
X140677438Y-73549663D01*
X139915533Y-73882996D02*
X139915533Y-74549663D01*
X140153628Y-73502044D02*
X140391723Y-74216329D01*
X140391723Y-74216329D02*
X139772676Y-74216329D01*
X139391723Y-74454424D02*
X139344104Y-74502044D01*
X139344104Y-74502044D02*
X139391723Y-74549663D01*
X139391723Y-74549663D02*
X139439342Y-74502044D01*
X139439342Y-74502044D02*
X139391723Y-74454424D01*
X139391723Y-74454424D02*
X139391723Y-74549663D01*
X138725057Y-73549663D02*
X138629819Y-73549663D01*
X138629819Y-73549663D02*
X138534581Y-73597282D01*
X138534581Y-73597282D02*
X138486962Y-73644901D01*
X138486962Y-73644901D02*
X138439343Y-73740139D01*
X138439343Y-73740139D02*
X138391724Y-73930615D01*
X138391724Y-73930615D02*
X138391724Y-74168710D01*
X138391724Y-74168710D02*
X138439343Y-74359186D01*
X138439343Y-74359186D02*
X138486962Y-74454424D01*
X138486962Y-74454424D02*
X138534581Y-74502044D01*
X138534581Y-74502044D02*
X138629819Y-74549663D01*
X138629819Y-74549663D02*
X138725057Y-74549663D01*
X138725057Y-74549663D02*
X138820295Y-74502044D01*
X138820295Y-74502044D02*
X138867914Y-74454424D01*
X138867914Y-74454424D02*
X138915533Y-74359186D01*
X138915533Y-74359186D02*
X138963152Y-74168710D01*
X138963152Y-74168710D02*
X138963152Y-73930615D01*
X138963152Y-73930615D02*
X138915533Y-73740139D01*
X138915533Y-73740139D02*
X138867914Y-73644901D01*
X138867914Y-73644901D02*
X138820295Y-73597282D01*
X138820295Y-73597282D02*
X138725057Y-73549663D01*
X138170336Y-106916485D02*
X138170336Y-106297438D01*
X138170336Y-106297438D02*
X137789384Y-106630771D01*
X137789384Y-106630771D02*
X137789384Y-106487914D01*
X137789384Y-106487914D02*
X137741765Y-106392676D01*
X137741765Y-106392676D02*
X137694146Y-106345057D01*
X137694146Y-106345057D02*
X137598908Y-106297438D01*
X137598908Y-106297438D02*
X137360813Y-106297438D01*
X137360813Y-106297438D02*
X137265575Y-106345057D01*
X137265575Y-106345057D02*
X137217956Y-106392676D01*
X137217956Y-106392676D02*
X137170336Y-106487914D01*
X137170336Y-106487914D02*
X137170336Y-106773628D01*
X137170336Y-106773628D02*
X137217956Y-106868866D01*
X137217956Y-106868866D02*
X137265575Y-106916485D01*
X137265575Y-105868866D02*
X137217956Y-105821247D01*
X137217956Y-105821247D02*
X137170336Y-105868866D01*
X137170336Y-105868866D02*
X137217956Y-105916485D01*
X137217956Y-105916485D02*
X137265575Y-105868866D01*
X137265575Y-105868866D02*
X137170336Y-105868866D01*
X138170336Y-105487914D02*
X138170336Y-104868867D01*
X138170336Y-104868867D02*
X137789384Y-105202200D01*
X137789384Y-105202200D02*
X137789384Y-105059343D01*
X137789384Y-105059343D02*
X137741765Y-104964105D01*
X137741765Y-104964105D02*
X137694146Y-104916486D01*
X137694146Y-104916486D02*
X137598908Y-104868867D01*
X137598908Y-104868867D02*
X137360813Y-104868867D01*
X137360813Y-104868867D02*
X137265575Y-104916486D01*
X137265575Y-104916486D02*
X137217956Y-104964105D01*
X137217956Y-104964105D02*
X137170336Y-105059343D01*
X137170336Y-105059343D02*
X137170336Y-105345057D01*
X137170336Y-105345057D02*
X137217956Y-105440295D01*
X137217956Y-105440295D02*
X137265575Y-105487914D01*
X138170336Y-104583152D02*
X137170336Y-104249819D01*
X137170336Y-104249819D02*
X138170336Y-103916486D01*
X147090336Y-106831247D02*
X148090336Y-106831247D01*
X148090336Y-106831247D02*
X147090336Y-106259819D01*
X147090336Y-106259819D02*
X148090336Y-106259819D01*
X147137956Y-105831247D02*
X147090336Y-105688390D01*
X147090336Y-105688390D02*
X147090336Y-105450295D01*
X147090336Y-105450295D02*
X147137956Y-105355057D01*
X147137956Y-105355057D02*
X147185575Y-105307438D01*
X147185575Y-105307438D02*
X147280813Y-105259819D01*
X147280813Y-105259819D02*
X147376051Y-105259819D01*
X147376051Y-105259819D02*
X147471289Y-105307438D01*
X147471289Y-105307438D02*
X147518908Y-105355057D01*
X147518908Y-105355057D02*
X147566527Y-105450295D01*
X147566527Y-105450295D02*
X147614146Y-105640771D01*
X147614146Y-105640771D02*
X147661765Y-105736009D01*
X147661765Y-105736009D02*
X147709384Y-105783628D01*
X147709384Y-105783628D02*
X147804622Y-105831247D01*
X147804622Y-105831247D02*
X147899860Y-105831247D01*
X147899860Y-105831247D02*
X147995098Y-105783628D01*
X147995098Y-105783628D02*
X148042717Y-105736009D01*
X148042717Y-105736009D02*
X148090336Y-105640771D01*
X148090336Y-105640771D02*
X148090336Y-105402676D01*
X148090336Y-105402676D02*
X148042717Y-105259819D01*
X147137956Y-104878866D02*
X147090336Y-104736009D01*
X147090336Y-104736009D02*
X147090336Y-104497914D01*
X147090336Y-104497914D02*
X147137956Y-104402676D01*
X147137956Y-104402676D02*
X147185575Y-104355057D01*
X147185575Y-104355057D02*
X147280813Y-104307438D01*
X147280813Y-104307438D02*
X147376051Y-104307438D01*
X147376051Y-104307438D02*
X147471289Y-104355057D01*
X147471289Y-104355057D02*
X147518908Y-104402676D01*
X147518908Y-104402676D02*
X147566527Y-104497914D01*
X147566527Y-104497914D02*
X147614146Y-104688390D01*
X147614146Y-104688390D02*
X147661765Y-104783628D01*
X147661765Y-104783628D02*
X147709384Y-104831247D01*
X147709384Y-104831247D02*
X147804622Y-104878866D01*
X147804622Y-104878866D02*
X147899860Y-104878866D01*
X147899860Y-104878866D02*
X147995098Y-104831247D01*
X147995098Y-104831247D02*
X148042717Y-104783628D01*
X148042717Y-104783628D02*
X148090336Y-104688390D01*
X148090336Y-104688390D02*
X148090336Y-104450295D01*
X148090336Y-104450295D02*
X148042717Y-104307438D01*
X141090336Y-106761247D02*
X142090336Y-106761247D01*
X142090336Y-106761247D02*
X141376051Y-106427914D01*
X141376051Y-106427914D02*
X142090336Y-106094581D01*
X142090336Y-106094581D02*
X141090336Y-106094581D01*
X142090336Y-105427914D02*
X142090336Y-105237438D01*
X142090336Y-105237438D02*
X142042717Y-105142200D01*
X142042717Y-105142200D02*
X141947479Y-105046962D01*
X141947479Y-105046962D02*
X141757003Y-104999343D01*
X141757003Y-104999343D02*
X141423670Y-104999343D01*
X141423670Y-104999343D02*
X141233194Y-105046962D01*
X141233194Y-105046962D02*
X141137956Y-105142200D01*
X141137956Y-105142200D02*
X141090336Y-105237438D01*
X141090336Y-105237438D02*
X141090336Y-105427914D01*
X141090336Y-105427914D02*
X141137956Y-105523152D01*
X141137956Y-105523152D02*
X141233194Y-105618390D01*
X141233194Y-105618390D02*
X141423670Y-105666009D01*
X141423670Y-105666009D02*
X141757003Y-105666009D01*
X141757003Y-105666009D02*
X141947479Y-105618390D01*
X141947479Y-105618390D02*
X142042717Y-105523152D01*
X142042717Y-105523152D02*
X142090336Y-105427914D01*
X141137956Y-104618390D02*
X141090336Y-104475533D01*
X141090336Y-104475533D02*
X141090336Y-104237438D01*
X141090336Y-104237438D02*
X141137956Y-104142200D01*
X141137956Y-104142200D02*
X141185575Y-104094581D01*
X141185575Y-104094581D02*
X141280813Y-104046962D01*
X141280813Y-104046962D02*
X141376051Y-104046962D01*
X141376051Y-104046962D02*
X141471289Y-104094581D01*
X141471289Y-104094581D02*
X141518908Y-104142200D01*
X141518908Y-104142200D02*
X141566527Y-104237438D01*
X141566527Y-104237438D02*
X141614146Y-104427914D01*
X141614146Y-104427914D02*
X141661765Y-104523152D01*
X141661765Y-104523152D02*
X141709384Y-104570771D01*
X141709384Y-104570771D02*
X141804622Y-104618390D01*
X141804622Y-104618390D02*
X141899860Y-104618390D01*
X141899860Y-104618390D02*
X141995098Y-104570771D01*
X141995098Y-104570771D02*
X142042717Y-104523152D01*
X142042717Y-104523152D02*
X142090336Y-104427914D01*
X142090336Y-104427914D02*
X142090336Y-104189819D01*
X142090336Y-104189819D02*
X142042717Y-104046962D01*
X141090336Y-103618390D02*
X142090336Y-103618390D01*
X152142717Y-106227438D02*
X152190336Y-106322676D01*
X152190336Y-106322676D02*
X152190336Y-106465533D01*
X152190336Y-106465533D02*
X152142717Y-106608390D01*
X152142717Y-106608390D02*
X152047479Y-106703628D01*
X152047479Y-106703628D02*
X151952241Y-106751247D01*
X151952241Y-106751247D02*
X151761765Y-106798866D01*
X151761765Y-106798866D02*
X151618908Y-106798866D01*
X151618908Y-106798866D02*
X151428432Y-106751247D01*
X151428432Y-106751247D02*
X151333194Y-106703628D01*
X151333194Y-106703628D02*
X151237956Y-106608390D01*
X151237956Y-106608390D02*
X151190336Y-106465533D01*
X151190336Y-106465533D02*
X151190336Y-106370295D01*
X151190336Y-106370295D02*
X151237956Y-106227438D01*
X151237956Y-106227438D02*
X151285575Y-106179819D01*
X151285575Y-106179819D02*
X151618908Y-106179819D01*
X151618908Y-106179819D02*
X151618908Y-106370295D01*
X151190336Y-105751247D02*
X152190336Y-105751247D01*
X152190336Y-105751247D02*
X151190336Y-105179819D01*
X151190336Y-105179819D02*
X152190336Y-105179819D01*
X151190336Y-104703628D02*
X152190336Y-104703628D01*
X152190336Y-104703628D02*
X152190336Y-104465533D01*
X152190336Y-104465533D02*
X152142717Y-104322676D01*
X152142717Y-104322676D02*
X152047479Y-104227438D01*
X152047479Y-104227438D02*
X151952241Y-104179819D01*
X151952241Y-104179819D02*
X151761765Y-104132200D01*
X151761765Y-104132200D02*
X151618908Y-104132200D01*
X151618908Y-104132200D02*
X151428432Y-104179819D01*
X151428432Y-104179819D02*
X151333194Y-104227438D01*
X151333194Y-104227438D02*
X151237956Y-104322676D01*
X151237956Y-104322676D02*
X151190336Y-104465533D01*
X151190336Y-104465533D02*
X151190336Y-104703628D01*
X145090336Y-106741247D02*
X146090336Y-106741247D01*
X146090336Y-106741247D02*
X145376051Y-106407914D01*
X145376051Y-106407914D02*
X146090336Y-106074581D01*
X146090336Y-106074581D02*
X145090336Y-106074581D01*
X145090336Y-105598390D02*
X146090336Y-105598390D01*
X145137956Y-105169819D02*
X145090336Y-105026962D01*
X145090336Y-105026962D02*
X145090336Y-104788867D01*
X145090336Y-104788867D02*
X145137956Y-104693629D01*
X145137956Y-104693629D02*
X145185575Y-104646010D01*
X145185575Y-104646010D02*
X145280813Y-104598391D01*
X145280813Y-104598391D02*
X145376051Y-104598391D01*
X145376051Y-104598391D02*
X145471289Y-104646010D01*
X145471289Y-104646010D02*
X145518908Y-104693629D01*
X145518908Y-104693629D02*
X145566527Y-104788867D01*
X145566527Y-104788867D02*
X145614146Y-104979343D01*
X145614146Y-104979343D02*
X145661765Y-105074581D01*
X145661765Y-105074581D02*
X145709384Y-105122200D01*
X145709384Y-105122200D02*
X145804622Y-105169819D01*
X145804622Y-105169819D02*
X145899860Y-105169819D01*
X145899860Y-105169819D02*
X145995098Y-105122200D01*
X145995098Y-105122200D02*
X146042717Y-105074581D01*
X146042717Y-105074581D02*
X146090336Y-104979343D01*
X146090336Y-104979343D02*
X146090336Y-104741248D01*
X146090336Y-104741248D02*
X146042717Y-104598391D01*
X146090336Y-103979343D02*
X146090336Y-103788867D01*
X146090336Y-103788867D02*
X146042717Y-103693629D01*
X146042717Y-103693629D02*
X145947479Y-103598391D01*
X145947479Y-103598391D02*
X145757003Y-103550772D01*
X145757003Y-103550772D02*
X145423670Y-103550772D01*
X145423670Y-103550772D02*
X145233194Y-103598391D01*
X145233194Y-103598391D02*
X145137956Y-103693629D01*
X145137956Y-103693629D02*
X145090336Y-103788867D01*
X145090336Y-103788867D02*
X145090336Y-103979343D01*
X145090336Y-103979343D02*
X145137956Y-104074581D01*
X145137956Y-104074581D02*
X145233194Y-104169819D01*
X145233194Y-104169819D02*
X145423670Y-104217438D01*
X145423670Y-104217438D02*
X145757003Y-104217438D01*
X145757003Y-104217438D02*
X145947479Y-104169819D01*
X145947479Y-104169819D02*
X146042717Y-104074581D01*
X146042717Y-104074581D02*
X146090336Y-103979343D01*
X143167956Y-106788866D02*
X143120336Y-106646009D01*
X143120336Y-106646009D02*
X143120336Y-106407914D01*
X143120336Y-106407914D02*
X143167956Y-106312676D01*
X143167956Y-106312676D02*
X143215575Y-106265057D01*
X143215575Y-106265057D02*
X143310813Y-106217438D01*
X143310813Y-106217438D02*
X143406051Y-106217438D01*
X143406051Y-106217438D02*
X143501289Y-106265057D01*
X143501289Y-106265057D02*
X143548908Y-106312676D01*
X143548908Y-106312676D02*
X143596527Y-106407914D01*
X143596527Y-106407914D02*
X143644146Y-106598390D01*
X143644146Y-106598390D02*
X143691765Y-106693628D01*
X143691765Y-106693628D02*
X143739384Y-106741247D01*
X143739384Y-106741247D02*
X143834622Y-106788866D01*
X143834622Y-106788866D02*
X143929860Y-106788866D01*
X143929860Y-106788866D02*
X144025098Y-106741247D01*
X144025098Y-106741247D02*
X144072717Y-106693628D01*
X144072717Y-106693628D02*
X144120336Y-106598390D01*
X144120336Y-106598390D02*
X144120336Y-106360295D01*
X144120336Y-106360295D02*
X144072717Y-106217438D01*
X143215575Y-105217438D02*
X143167956Y-105265057D01*
X143167956Y-105265057D02*
X143120336Y-105407914D01*
X143120336Y-105407914D02*
X143120336Y-105503152D01*
X143120336Y-105503152D02*
X143167956Y-105646009D01*
X143167956Y-105646009D02*
X143263194Y-105741247D01*
X143263194Y-105741247D02*
X143358432Y-105788866D01*
X143358432Y-105788866D02*
X143548908Y-105836485D01*
X143548908Y-105836485D02*
X143691765Y-105836485D01*
X143691765Y-105836485D02*
X143882241Y-105788866D01*
X143882241Y-105788866D02*
X143977479Y-105741247D01*
X143977479Y-105741247D02*
X144072717Y-105646009D01*
X144072717Y-105646009D02*
X144120336Y-105503152D01*
X144120336Y-105503152D02*
X144120336Y-105407914D01*
X144120336Y-105407914D02*
X144072717Y-105265057D01*
X144072717Y-105265057D02*
X144025098Y-105217438D01*
X143120336Y-104788866D02*
X144120336Y-104788866D01*
X143120336Y-104217438D02*
X143691765Y-104646009D01*
X144120336Y-104217438D02*
X143548908Y-104788866D01*
X142870771Y-70759663D02*
X142775533Y-70759663D01*
X142775533Y-70759663D02*
X142680295Y-70807282D01*
X142680295Y-70807282D02*
X142632676Y-70854901D01*
X142632676Y-70854901D02*
X142585057Y-70950139D01*
X142585057Y-70950139D02*
X142537438Y-71140615D01*
X142537438Y-71140615D02*
X142537438Y-71378710D01*
X142537438Y-71378710D02*
X142585057Y-71569186D01*
X142585057Y-71569186D02*
X142632676Y-71664424D01*
X142632676Y-71664424D02*
X142680295Y-71712044D01*
X142680295Y-71712044D02*
X142775533Y-71759663D01*
X142775533Y-71759663D02*
X142870771Y-71759663D01*
X142870771Y-71759663D02*
X142966009Y-71712044D01*
X142966009Y-71712044D02*
X143013628Y-71664424D01*
X143013628Y-71664424D02*
X143061247Y-71569186D01*
X143061247Y-71569186D02*
X143108866Y-71378710D01*
X143108866Y-71378710D02*
X143108866Y-71140615D01*
X143108866Y-71140615D02*
X143061247Y-70950139D01*
X143061247Y-70950139D02*
X143013628Y-70854901D01*
X143013628Y-70854901D02*
X142966009Y-70807282D01*
X142966009Y-70807282D02*
X142870771Y-70759663D01*
X142204104Y-70759663D02*
X141585057Y-70759663D01*
X141585057Y-70759663D02*
X141918390Y-71140615D01*
X141918390Y-71140615D02*
X141775533Y-71140615D01*
X141775533Y-71140615D02*
X141680295Y-71188234D01*
X141680295Y-71188234D02*
X141632676Y-71235853D01*
X141632676Y-71235853D02*
X141585057Y-71331091D01*
X141585057Y-71331091D02*
X141585057Y-71569186D01*
X141585057Y-71569186D02*
X141632676Y-71664424D01*
X141632676Y-71664424D02*
X141680295Y-71712044D01*
X141680295Y-71712044D02*
X141775533Y-71759663D01*
X141775533Y-71759663D02*
X142061247Y-71759663D01*
X142061247Y-71759663D02*
X142156485Y-71712044D01*
X142156485Y-71712044D02*
X142204104Y-71664424D01*
X140442200Y-70712044D02*
X141299342Y-71997758D01*
X140156485Y-70854901D02*
X140108866Y-70807282D01*
X140108866Y-70807282D02*
X140013628Y-70759663D01*
X140013628Y-70759663D02*
X139775533Y-70759663D01*
X139775533Y-70759663D02*
X139680295Y-70807282D01*
X139680295Y-70807282D02*
X139632676Y-70854901D01*
X139632676Y-70854901D02*
X139585057Y-70950139D01*
X139585057Y-70950139D02*
X139585057Y-71045377D01*
X139585057Y-71045377D02*
X139632676Y-71188234D01*
X139632676Y-71188234D02*
X140204104Y-71759663D01*
X140204104Y-71759663D02*
X139585057Y-71759663D01*
X138966009Y-70759663D02*
X138870771Y-70759663D01*
X138870771Y-70759663D02*
X138775533Y-70807282D01*
X138775533Y-70807282D02*
X138727914Y-70854901D01*
X138727914Y-70854901D02*
X138680295Y-70950139D01*
X138680295Y-70950139D02*
X138632676Y-71140615D01*
X138632676Y-71140615D02*
X138632676Y-71378710D01*
X138632676Y-71378710D02*
X138680295Y-71569186D01*
X138680295Y-71569186D02*
X138727914Y-71664424D01*
X138727914Y-71664424D02*
X138775533Y-71712044D01*
X138775533Y-71712044D02*
X138870771Y-71759663D01*
X138870771Y-71759663D02*
X138966009Y-71759663D01*
X138966009Y-71759663D02*
X139061247Y-71712044D01*
X139061247Y-71712044D02*
X139108866Y-71664424D01*
X139108866Y-71664424D02*
X139156485Y-71569186D01*
X139156485Y-71569186D02*
X139204104Y-71378710D01*
X139204104Y-71378710D02*
X139204104Y-71140615D01*
X139204104Y-71140615D02*
X139156485Y-70950139D01*
X139156485Y-70950139D02*
X139108866Y-70854901D01*
X139108866Y-70854901D02*
X139061247Y-70807282D01*
X139061247Y-70807282D02*
X138966009Y-70759663D01*
X138251723Y-70854901D02*
X138204104Y-70807282D01*
X138204104Y-70807282D02*
X138108866Y-70759663D01*
X138108866Y-70759663D02*
X137870771Y-70759663D01*
X137870771Y-70759663D02*
X137775533Y-70807282D01*
X137775533Y-70807282D02*
X137727914Y-70854901D01*
X137727914Y-70854901D02*
X137680295Y-70950139D01*
X137680295Y-70950139D02*
X137680295Y-71045377D01*
X137680295Y-71045377D02*
X137727914Y-71188234D01*
X137727914Y-71188234D02*
X138299342Y-71759663D01*
X138299342Y-71759663D02*
X137680295Y-71759663D01*
X136823152Y-71092996D02*
X136823152Y-71759663D01*
X137061247Y-70712044D02*
X137299342Y-71426329D01*
X137299342Y-71426329D02*
X136680295Y-71426329D01*
X149140336Y-106751247D02*
X150140336Y-106751247D01*
X149140336Y-105703629D02*
X149616527Y-106036962D01*
X149140336Y-106275057D02*
X150140336Y-106275057D01*
X150140336Y-106275057D02*
X150140336Y-105894105D01*
X150140336Y-105894105D02*
X150092717Y-105798867D01*
X150092717Y-105798867D02*
X150045098Y-105751248D01*
X150045098Y-105751248D02*
X149949860Y-105703629D01*
X149949860Y-105703629D02*
X149807003Y-105703629D01*
X149807003Y-105703629D02*
X149711765Y-105751248D01*
X149711765Y-105751248D02*
X149664146Y-105798867D01*
X149664146Y-105798867D02*
X149616527Y-105894105D01*
X149616527Y-105894105D02*
X149616527Y-106275057D01*
X149045098Y-104608391D02*
X149092717Y-104703629D01*
X149092717Y-104703629D02*
X149187956Y-104798867D01*
X149187956Y-104798867D02*
X149330813Y-104941724D01*
X149330813Y-104941724D02*
X149378432Y-105036962D01*
X149378432Y-105036962D02*
X149378432Y-105132200D01*
X149140336Y-105084581D02*
X149187956Y-105179819D01*
X149187956Y-105179819D02*
X149283194Y-105275057D01*
X149283194Y-105275057D02*
X149473670Y-105322676D01*
X149473670Y-105322676D02*
X149807003Y-105322676D01*
X149807003Y-105322676D02*
X149997479Y-105275057D01*
X149997479Y-105275057D02*
X150092717Y-105179819D01*
X150092717Y-105179819D02*
X150140336Y-105084581D01*
X150140336Y-105084581D02*
X150140336Y-104894105D01*
X150140336Y-104894105D02*
X150092717Y-104798867D01*
X150092717Y-104798867D02*
X149997479Y-104703629D01*
X149997479Y-104703629D02*
X149807003Y-104656010D01*
X149807003Y-104656010D02*
X149473670Y-104656010D01*
X149473670Y-104656010D02*
X149283194Y-104703629D01*
X149283194Y-104703629D02*
X149187956Y-104798867D01*
X149187956Y-104798867D02*
X149140336Y-104894105D01*
X149140336Y-104894105D02*
X149140336Y-105084581D01*
%LPC*%
D11*
X124080000Y-58640000D03*
X156120000Y-58640000D03*
D12*
X128530000Y-103060000D03*
D13*
X130530000Y-103060000D03*
D11*
X124060000Y-88020000D03*
D12*
X137670000Y-107810000D03*
D13*
X139670000Y-107810000D03*
X141670000Y-107810000D03*
X143670000Y-107810000D03*
X145670000Y-107810000D03*
X147670000Y-107810000D03*
X149670000Y-107810000D03*
X151670000Y-107810000D03*
D11*
X156110000Y-88020000D03*
%LPD*%
M02*
