G04 #@! TF.GenerationSoftware,KiCad,Pcbnew,7.0.9*
G04 #@! TF.CreationDate,2024-04-03T14:30:27+02:00*
G04 #@! TF.ProjectId,NFC_Programmer,4e46435f-5072-46f6-9772-616d6d65722e,3.0*
G04 #@! TF.SameCoordinates,Original*
G04 #@! TF.FileFunction,Paste,Top*
G04 #@! TF.FilePolarity,Positive*
%FSLAX46Y46*%
G04 Gerber Fmt 4.6, Leading zero omitted, Abs format (unit mm)*
G04 Created by KiCad (PCBNEW 7.0.9) date 2024-04-03 14:30:27*
%MOMM*%
%LPD*%
G01*
G04 APERTURE LIST*
G04 Aperture macros list*
%AMRoundRect*
0 Rectangle with rounded corners*
0 $1 Rounding radius*
0 $2 $3 $4 $5 $6 $7 $8 $9 X,Y pos of 4 corners*
0 Add a 4 corners polygon primitive as box body*
4,1,4,$2,$3,$4,$5,$6,$7,$8,$9,$2,$3,0*
0 Add four circle primitives for the rounded corners*
1,1,$1+$1,$2,$3*
1,1,$1+$1,$4,$5*
1,1,$1+$1,$6,$7*
1,1,$1+$1,$8,$9*
0 Add four rect primitives between the rounded corners*
20,1,$1+$1,$2,$3,$4,$5,0*
20,1,$1+$1,$4,$5,$6,$7,0*
20,1,$1+$1,$6,$7,$8,$9,0*
20,1,$1+$1,$8,$9,$2,$3,0*%
G04 Aperture macros list end*
%ADD10RoundRect,0.237500X-0.237500X0.250000X-0.237500X-0.250000X0.237500X-0.250000X0.237500X0.250000X0*%
%ADD11RoundRect,0.237500X0.300000X0.237500X-0.300000X0.237500X-0.300000X-0.237500X0.300000X-0.237500X0*%
%ADD12RoundRect,0.237500X0.237500X-0.250000X0.237500X0.250000X-0.237500X0.250000X-0.237500X-0.250000X0*%
%ADD13RoundRect,0.237500X0.237500X-0.287500X0.237500X0.287500X-0.237500X0.287500X-0.237500X-0.287500X0*%
%ADD14R,0.900000X0.800000*%
%ADD15RoundRect,0.237500X0.237500X-0.300000X0.237500X0.300000X-0.237500X0.300000X-0.237500X-0.300000X0*%
%ADD16RoundRect,0.237500X-0.237500X0.300000X-0.237500X-0.300000X0.237500X-0.300000X0.237500X0.300000X0*%
%ADD17R,0.850000X0.300000*%
%ADD18R,0.300000X0.850000*%
%ADD19R,3.250000X3.250000*%
%ADD20RoundRect,0.237500X-0.300000X-0.237500X0.300000X-0.237500X0.300000X0.237500X-0.300000X0.237500X0*%
%ADD21RoundRect,0.237500X-0.250000X-0.237500X0.250000X-0.237500X0.250000X0.237500X-0.250000X0.237500X0*%
%ADD22RoundRect,0.237500X-0.287500X-0.237500X0.287500X-0.237500X0.287500X0.237500X-0.287500X0.237500X0*%
%ADD23RoundRect,0.237500X0.250000X0.237500X-0.250000X0.237500X-0.250000X-0.237500X0.250000X-0.237500X0*%
G04 APERTURE END LIST*
D10*
X150813750Y-94545000D03*
X150813750Y-96370000D03*
D11*
X147696750Y-96380000D03*
X145971750Y-96380000D03*
D12*
X145994250Y-94742500D03*
X145994250Y-92917500D03*
D11*
X137886750Y-97110000D03*
X136161750Y-97110000D03*
D13*
X140994250Y-96385000D03*
X140994250Y-94635000D03*
D11*
X136462500Y-93970000D03*
X134737500Y-93970000D03*
D14*
X139571750Y-100230000D03*
X138171750Y-100230000D03*
X138171750Y-101330000D03*
X139571750Y-101330000D03*
D15*
X139504250Y-98602500D03*
X139504250Y-96877500D03*
D16*
X139464250Y-93467500D03*
X139464250Y-95192500D03*
D17*
X145914250Y-102820000D03*
X145914250Y-102320000D03*
X145914250Y-101820000D03*
X145914250Y-101320000D03*
X145914250Y-100820000D03*
X145914250Y-100320000D03*
X145914250Y-99820000D03*
X145914250Y-99320000D03*
D18*
X145214250Y-98620000D03*
X144714250Y-98620000D03*
X144214250Y-98620000D03*
X143714250Y-98620000D03*
X143214250Y-98620000D03*
X142714250Y-98620000D03*
X142214250Y-98620000D03*
X141714250Y-98620000D03*
D17*
X141014250Y-99320000D03*
X141014250Y-99820000D03*
X141014250Y-100320000D03*
X141014250Y-100820000D03*
X141014250Y-101320000D03*
X141014250Y-101820000D03*
X141014250Y-102320000D03*
X141014250Y-102820000D03*
D18*
X141714250Y-103520000D03*
X142214250Y-103520000D03*
X142714250Y-103520000D03*
X143214250Y-103520000D03*
X143714250Y-103520000D03*
X144214250Y-103520000D03*
X144714250Y-103520000D03*
X145214250Y-103520000D03*
D19*
X143464250Y-101070000D03*
D10*
X130835000Y-93800000D03*
X130835000Y-95625000D03*
D15*
X152344250Y-96320000D03*
X152344250Y-94595000D03*
D11*
X136462500Y-92400000D03*
X134737500Y-92400000D03*
D20*
X147445000Y-98700000D03*
X149170000Y-98700000D03*
X147445000Y-100220000D03*
X149170000Y-100220000D03*
D12*
X149283250Y-96370000D03*
X149283250Y-94545000D03*
D16*
X153904250Y-94587500D03*
X153904250Y-96312500D03*
D20*
X147445000Y-101740000D03*
X149170000Y-101740000D03*
D10*
X129285000Y-93800000D03*
X129285000Y-95625000D03*
D21*
X150522500Y-92990000D03*
X152347500Y-92990000D03*
D16*
X132385000Y-93850000D03*
X132385000Y-95575000D03*
D15*
X127725000Y-95575000D03*
X127725000Y-93850000D03*
D11*
X137420000Y-102890000D03*
X135695000Y-102890000D03*
D22*
X142544250Y-96400000D03*
X144294250Y-96400000D03*
D23*
X137458250Y-104420000D03*
X135633250Y-104420000D03*
D20*
X142609250Y-94790000D03*
X144334250Y-94790000D03*
D11*
X137926750Y-98680000D03*
X136201750Y-98680000D03*
D20*
X147445000Y-103260000D03*
X149170000Y-103260000D03*
M02*
