%TF.GenerationSoftware,KiCad,Pcbnew,7.0.9*%
%TF.CreationDate,2024-04-03T14:32:01+02:00*%
%TF.ProjectId,NFC_Programmer,4e46435f-5072-46f6-9772-616d6d65722e,3.0*%
%TF.SameCoordinates,Original*%
%TF.FileFunction,Drillmap*%
%TF.FilePolarity,Positive*%
%FSLAX45Y45*%
G04 Gerber Fmt 4.5, Leading zero omitted, Abs format (unit mm)*
G04 Created by KiCad (PCBNEW 7.0.9) date 2024-04-03 14:32:01*
%MOMM*%
%LPD*%
G01*
G04 APERTURE LIST*
%ADD10C,0.100000*%
%ADD11C,0.200000*%
%ADD12C,0.300000*%
G04 APERTURE END LIST*
D10*
X16022000Y-11011000D02*
X15866000Y-11011000D01*
X12019000Y-11011000D01*
X12019000Y-5401000D01*
X16022000Y-5401000D01*
X16022000Y-11011000D01*
D11*
D12*
X12256000Y-8652000D02*
X12556000Y-8952000D01*
X12556000Y-8652000D02*
X12256000Y-8952000D01*
X12258000Y-5714000D02*
X12558000Y-6014000D01*
X12558000Y-5714000D02*
X12258000Y-6014000D01*
X15461000Y-8652000D02*
X15761000Y-8952000D01*
X15761000Y-8652000D02*
X15461000Y-8952000D01*
X15462000Y-5714000D02*
X15762000Y-6014000D01*
X15762000Y-5714000D02*
X15462000Y-6014000D01*
D11*
X12274777Y-11327484D02*
X12274777Y-11127484D01*
X12274777Y-11127484D02*
X12322396Y-11127484D01*
X12322396Y-11127484D02*
X12350967Y-11137008D01*
X12350967Y-11137008D02*
X12370015Y-11156055D01*
X12370015Y-11156055D02*
X12379539Y-11175103D01*
X12379539Y-11175103D02*
X12389062Y-11213198D01*
X12389062Y-11213198D02*
X12389062Y-11241769D01*
X12389062Y-11241769D02*
X12379539Y-11279865D01*
X12379539Y-11279865D02*
X12370015Y-11298912D01*
X12370015Y-11298912D02*
X12350967Y-11317960D01*
X12350967Y-11317960D02*
X12322396Y-11327484D01*
X12322396Y-11327484D02*
X12274777Y-11327484D01*
X12474777Y-11327484D02*
X12474777Y-11194150D01*
X12474777Y-11232246D02*
X12484301Y-11213198D01*
X12484301Y-11213198D02*
X12493824Y-11203674D01*
X12493824Y-11203674D02*
X12512872Y-11194150D01*
X12512872Y-11194150D02*
X12531920Y-11194150D01*
X12598586Y-11327484D02*
X12598586Y-11194150D01*
X12598586Y-11127484D02*
X12589062Y-11137008D01*
X12589062Y-11137008D02*
X12598586Y-11146531D01*
X12598586Y-11146531D02*
X12608110Y-11137008D01*
X12608110Y-11137008D02*
X12598586Y-11127484D01*
X12598586Y-11127484D02*
X12598586Y-11146531D01*
X12722396Y-11327484D02*
X12703348Y-11317960D01*
X12703348Y-11317960D02*
X12693824Y-11298912D01*
X12693824Y-11298912D02*
X12693824Y-11127484D01*
X12827158Y-11327484D02*
X12808110Y-11317960D01*
X12808110Y-11317960D02*
X12798586Y-11298912D01*
X12798586Y-11298912D02*
X12798586Y-11127484D01*
X13055729Y-11327484D02*
X13055729Y-11127484D01*
X13055729Y-11127484D02*
X13122396Y-11270341D01*
X13122396Y-11270341D02*
X13189062Y-11127484D01*
X13189062Y-11127484D02*
X13189062Y-11327484D01*
X13370015Y-11327484D02*
X13370015Y-11222722D01*
X13370015Y-11222722D02*
X13360491Y-11203674D01*
X13360491Y-11203674D02*
X13341443Y-11194150D01*
X13341443Y-11194150D02*
X13303348Y-11194150D01*
X13303348Y-11194150D02*
X13284301Y-11203674D01*
X13370015Y-11317960D02*
X13350967Y-11327484D01*
X13350967Y-11327484D02*
X13303348Y-11327484D01*
X13303348Y-11327484D02*
X13284301Y-11317960D01*
X13284301Y-11317960D02*
X13274777Y-11298912D01*
X13274777Y-11298912D02*
X13274777Y-11279865D01*
X13274777Y-11279865D02*
X13284301Y-11260817D01*
X13284301Y-11260817D02*
X13303348Y-11251293D01*
X13303348Y-11251293D02*
X13350967Y-11251293D01*
X13350967Y-11251293D02*
X13370015Y-11241769D01*
X13465253Y-11194150D02*
X13465253Y-11394150D01*
X13465253Y-11203674D02*
X13484301Y-11194150D01*
X13484301Y-11194150D02*
X13522396Y-11194150D01*
X13522396Y-11194150D02*
X13541443Y-11203674D01*
X13541443Y-11203674D02*
X13550967Y-11213198D01*
X13550967Y-11213198D02*
X13560491Y-11232246D01*
X13560491Y-11232246D02*
X13560491Y-11289388D01*
X13560491Y-11289388D02*
X13550967Y-11308436D01*
X13550967Y-11308436D02*
X13541443Y-11317960D01*
X13541443Y-11317960D02*
X13522396Y-11327484D01*
X13522396Y-11327484D02*
X13484301Y-11327484D01*
X13484301Y-11327484D02*
X13465253Y-11317960D01*
X13646205Y-11308436D02*
X13655729Y-11317960D01*
X13655729Y-11317960D02*
X13646205Y-11327484D01*
X13646205Y-11327484D02*
X13636682Y-11317960D01*
X13636682Y-11317960D02*
X13646205Y-11308436D01*
X13646205Y-11308436D02*
X13646205Y-11327484D01*
X13646205Y-11203674D02*
X13655729Y-11213198D01*
X13655729Y-11213198D02*
X13646205Y-11222722D01*
X13646205Y-11222722D02*
X13636682Y-11213198D01*
X13636682Y-11213198D02*
X13646205Y-11203674D01*
X13646205Y-11203674D02*
X13646205Y-11222722D01*
X11814000Y-11556000D02*
X12014000Y-11756000D01*
X12014000Y-11556000D02*
X11814000Y-11756000D01*
X12255729Y-11547484D02*
X12379539Y-11547484D01*
X12379539Y-11547484D02*
X12312872Y-11623674D01*
X12312872Y-11623674D02*
X12341443Y-11623674D01*
X12341443Y-11623674D02*
X12360491Y-11633198D01*
X12360491Y-11633198D02*
X12370015Y-11642722D01*
X12370015Y-11642722D02*
X12379539Y-11661769D01*
X12379539Y-11661769D02*
X12379539Y-11709388D01*
X12379539Y-11709388D02*
X12370015Y-11728436D01*
X12370015Y-11728436D02*
X12360491Y-11737960D01*
X12360491Y-11737960D02*
X12341443Y-11747484D01*
X12341443Y-11747484D02*
X12284301Y-11747484D01*
X12284301Y-11747484D02*
X12265253Y-11737960D01*
X12265253Y-11737960D02*
X12255729Y-11728436D01*
X12465253Y-11728436D02*
X12474777Y-11737960D01*
X12474777Y-11737960D02*
X12465253Y-11747484D01*
X12465253Y-11747484D02*
X12455729Y-11737960D01*
X12455729Y-11737960D02*
X12465253Y-11728436D01*
X12465253Y-11728436D02*
X12465253Y-11747484D01*
X12598586Y-11547484D02*
X12617634Y-11547484D01*
X12617634Y-11547484D02*
X12636682Y-11557008D01*
X12636682Y-11557008D02*
X12646205Y-11566531D01*
X12646205Y-11566531D02*
X12655729Y-11585579D01*
X12655729Y-11585579D02*
X12665253Y-11623674D01*
X12665253Y-11623674D02*
X12665253Y-11671293D01*
X12665253Y-11671293D02*
X12655729Y-11709388D01*
X12655729Y-11709388D02*
X12646205Y-11728436D01*
X12646205Y-11728436D02*
X12636682Y-11737960D01*
X12636682Y-11737960D02*
X12617634Y-11747484D01*
X12617634Y-11747484D02*
X12598586Y-11747484D01*
X12598586Y-11747484D02*
X12579539Y-11737960D01*
X12579539Y-11737960D02*
X12570015Y-11728436D01*
X12570015Y-11728436D02*
X12560491Y-11709388D01*
X12560491Y-11709388D02*
X12550967Y-11671293D01*
X12550967Y-11671293D02*
X12550967Y-11623674D01*
X12550967Y-11623674D02*
X12560491Y-11585579D01*
X12560491Y-11585579D02*
X12570015Y-11566531D01*
X12570015Y-11566531D02*
X12579539Y-11557008D01*
X12579539Y-11557008D02*
X12598586Y-11547484D01*
X12789062Y-11547484D02*
X12808110Y-11547484D01*
X12808110Y-11547484D02*
X12827158Y-11557008D01*
X12827158Y-11557008D02*
X12836682Y-11566531D01*
X12836682Y-11566531D02*
X12846205Y-11585579D01*
X12846205Y-11585579D02*
X12855729Y-11623674D01*
X12855729Y-11623674D02*
X12855729Y-11671293D01*
X12855729Y-11671293D02*
X12846205Y-11709388D01*
X12846205Y-11709388D02*
X12836682Y-11728436D01*
X12836682Y-11728436D02*
X12827158Y-11737960D01*
X12827158Y-11737960D02*
X12808110Y-11747484D01*
X12808110Y-11747484D02*
X12789062Y-11747484D01*
X12789062Y-11747484D02*
X12770015Y-11737960D01*
X12770015Y-11737960D02*
X12760491Y-11728436D01*
X12760491Y-11728436D02*
X12750967Y-11709388D01*
X12750967Y-11709388D02*
X12741443Y-11671293D01*
X12741443Y-11671293D02*
X12741443Y-11623674D01*
X12741443Y-11623674D02*
X12750967Y-11585579D01*
X12750967Y-11585579D02*
X12760491Y-11566531D01*
X12760491Y-11566531D02*
X12770015Y-11557008D01*
X12770015Y-11557008D02*
X12789062Y-11547484D01*
X12979539Y-11547484D02*
X12998586Y-11547484D01*
X12998586Y-11547484D02*
X13017634Y-11557008D01*
X13017634Y-11557008D02*
X13027158Y-11566531D01*
X13027158Y-11566531D02*
X13036682Y-11585579D01*
X13036682Y-11585579D02*
X13046205Y-11623674D01*
X13046205Y-11623674D02*
X13046205Y-11671293D01*
X13046205Y-11671293D02*
X13036682Y-11709388D01*
X13036682Y-11709388D02*
X13027158Y-11728436D01*
X13027158Y-11728436D02*
X13017634Y-11737960D01*
X13017634Y-11737960D02*
X12998586Y-11747484D01*
X12998586Y-11747484D02*
X12979539Y-11747484D01*
X12979539Y-11747484D02*
X12960491Y-11737960D01*
X12960491Y-11737960D02*
X12950967Y-11728436D01*
X12950967Y-11728436D02*
X12941443Y-11709388D01*
X12941443Y-11709388D02*
X12931920Y-11671293D01*
X12931920Y-11671293D02*
X12931920Y-11623674D01*
X12931920Y-11623674D02*
X12941443Y-11585579D01*
X12941443Y-11585579D02*
X12950967Y-11566531D01*
X12950967Y-11566531D02*
X12960491Y-11557008D01*
X12960491Y-11557008D02*
X12979539Y-11547484D01*
X13131920Y-11747484D02*
X13131920Y-11614150D01*
X13131920Y-11633198D02*
X13141443Y-11623674D01*
X13141443Y-11623674D02*
X13160491Y-11614150D01*
X13160491Y-11614150D02*
X13189063Y-11614150D01*
X13189063Y-11614150D02*
X13208110Y-11623674D01*
X13208110Y-11623674D02*
X13217634Y-11642722D01*
X13217634Y-11642722D02*
X13217634Y-11747484D01*
X13217634Y-11642722D02*
X13227158Y-11623674D01*
X13227158Y-11623674D02*
X13246205Y-11614150D01*
X13246205Y-11614150D02*
X13274777Y-11614150D01*
X13274777Y-11614150D02*
X13293824Y-11623674D01*
X13293824Y-11623674D02*
X13303348Y-11642722D01*
X13303348Y-11642722D02*
X13303348Y-11747484D01*
X13398586Y-11747484D02*
X13398586Y-11614150D01*
X13398586Y-11633198D02*
X13408110Y-11623674D01*
X13408110Y-11623674D02*
X13427158Y-11614150D01*
X13427158Y-11614150D02*
X13455729Y-11614150D01*
X13455729Y-11614150D02*
X13474777Y-11623674D01*
X13474777Y-11623674D02*
X13484301Y-11642722D01*
X13484301Y-11642722D02*
X13484301Y-11747484D01*
X13484301Y-11642722D02*
X13493824Y-11623674D01*
X13493824Y-11623674D02*
X13512872Y-11614150D01*
X13512872Y-11614150D02*
X13541443Y-11614150D01*
X13541443Y-11614150D02*
X13560491Y-11623674D01*
X13560491Y-11623674D02*
X13570015Y-11642722D01*
X13570015Y-11642722D02*
X13570015Y-11747484D01*
X13960491Y-11537960D02*
X13789063Y-11795103D01*
X14217634Y-11547484D02*
X14236682Y-11547484D01*
X14236682Y-11547484D02*
X14255729Y-11557008D01*
X14255729Y-11557008D02*
X14265253Y-11566531D01*
X14265253Y-11566531D02*
X14274777Y-11585579D01*
X14274777Y-11585579D02*
X14284301Y-11623674D01*
X14284301Y-11623674D02*
X14284301Y-11671293D01*
X14284301Y-11671293D02*
X14274777Y-11709388D01*
X14274777Y-11709388D02*
X14265253Y-11728436D01*
X14265253Y-11728436D02*
X14255729Y-11737960D01*
X14255729Y-11737960D02*
X14236682Y-11747484D01*
X14236682Y-11747484D02*
X14217634Y-11747484D01*
X14217634Y-11747484D02*
X14198586Y-11737960D01*
X14198586Y-11737960D02*
X14189063Y-11728436D01*
X14189063Y-11728436D02*
X14179539Y-11709388D01*
X14179539Y-11709388D02*
X14170015Y-11671293D01*
X14170015Y-11671293D02*
X14170015Y-11623674D01*
X14170015Y-11623674D02*
X14179539Y-11585579D01*
X14179539Y-11585579D02*
X14189063Y-11566531D01*
X14189063Y-11566531D02*
X14198586Y-11557008D01*
X14198586Y-11557008D02*
X14217634Y-11547484D01*
X14370015Y-11728436D02*
X14379539Y-11737960D01*
X14379539Y-11737960D02*
X14370015Y-11747484D01*
X14370015Y-11747484D02*
X14360491Y-11737960D01*
X14360491Y-11737960D02*
X14370015Y-11728436D01*
X14370015Y-11728436D02*
X14370015Y-11747484D01*
X14570015Y-11747484D02*
X14455729Y-11747484D01*
X14512872Y-11747484D02*
X14512872Y-11547484D01*
X14512872Y-11547484D02*
X14493825Y-11576055D01*
X14493825Y-11576055D02*
X14474777Y-11595103D01*
X14474777Y-11595103D02*
X14455729Y-11604627D01*
X14760491Y-11747484D02*
X14646206Y-11747484D01*
X14703348Y-11747484D02*
X14703348Y-11547484D01*
X14703348Y-11547484D02*
X14684301Y-11576055D01*
X14684301Y-11576055D02*
X14665253Y-11595103D01*
X14665253Y-11595103D02*
X14646206Y-11604627D01*
X14874777Y-11633198D02*
X14855729Y-11623674D01*
X14855729Y-11623674D02*
X14846206Y-11614150D01*
X14846206Y-11614150D02*
X14836682Y-11595103D01*
X14836682Y-11595103D02*
X14836682Y-11585579D01*
X14836682Y-11585579D02*
X14846206Y-11566531D01*
X14846206Y-11566531D02*
X14855729Y-11557008D01*
X14855729Y-11557008D02*
X14874777Y-11547484D01*
X14874777Y-11547484D02*
X14912872Y-11547484D01*
X14912872Y-11547484D02*
X14931920Y-11557008D01*
X14931920Y-11557008D02*
X14941444Y-11566531D01*
X14941444Y-11566531D02*
X14950967Y-11585579D01*
X14950967Y-11585579D02*
X14950967Y-11595103D01*
X14950967Y-11595103D02*
X14941444Y-11614150D01*
X14941444Y-11614150D02*
X14931920Y-11623674D01*
X14931920Y-11623674D02*
X14912872Y-11633198D01*
X14912872Y-11633198D02*
X14874777Y-11633198D01*
X14874777Y-11633198D02*
X14855729Y-11642722D01*
X14855729Y-11642722D02*
X14846206Y-11652246D01*
X14846206Y-11652246D02*
X14836682Y-11671293D01*
X14836682Y-11671293D02*
X14836682Y-11709388D01*
X14836682Y-11709388D02*
X14846206Y-11728436D01*
X14846206Y-11728436D02*
X14855729Y-11737960D01*
X14855729Y-11737960D02*
X14874777Y-11747484D01*
X14874777Y-11747484D02*
X14912872Y-11747484D01*
X14912872Y-11747484D02*
X14931920Y-11737960D01*
X14931920Y-11737960D02*
X14941444Y-11728436D01*
X14941444Y-11728436D02*
X14950967Y-11709388D01*
X14950967Y-11709388D02*
X14950967Y-11671293D01*
X14950967Y-11671293D02*
X14941444Y-11652246D01*
X14941444Y-11652246D02*
X14931920Y-11642722D01*
X14931920Y-11642722D02*
X14912872Y-11633198D01*
X15141444Y-11747484D02*
X15027158Y-11747484D01*
X15084301Y-11747484D02*
X15084301Y-11547484D01*
X15084301Y-11547484D02*
X15065253Y-11576055D01*
X15065253Y-11576055D02*
X15046206Y-11595103D01*
X15046206Y-11595103D02*
X15027158Y-11604627D01*
X15217634Y-11547484D02*
X15217634Y-11585579D01*
X15293825Y-11547484D02*
X15293825Y-11585579D01*
X15589063Y-11823674D02*
X15579539Y-11814150D01*
X15579539Y-11814150D02*
X15560491Y-11785579D01*
X15560491Y-11785579D02*
X15550968Y-11766531D01*
X15550968Y-11766531D02*
X15541444Y-11737960D01*
X15541444Y-11737960D02*
X15531920Y-11690341D01*
X15531920Y-11690341D02*
X15531920Y-11652246D01*
X15531920Y-11652246D02*
X15541444Y-11604627D01*
X15541444Y-11604627D02*
X15550968Y-11576055D01*
X15550968Y-11576055D02*
X15560491Y-11557008D01*
X15560491Y-11557008D02*
X15579539Y-11528436D01*
X15579539Y-11528436D02*
X15589063Y-11518912D01*
X15750968Y-11614150D02*
X15750968Y-11747484D01*
X15703348Y-11537960D02*
X15655729Y-11680817D01*
X15655729Y-11680817D02*
X15779539Y-11680817D01*
X16008110Y-11747484D02*
X16008110Y-11547484D01*
X16093825Y-11747484D02*
X16093825Y-11642722D01*
X16093825Y-11642722D02*
X16084301Y-11623674D01*
X16084301Y-11623674D02*
X16065253Y-11614150D01*
X16065253Y-11614150D02*
X16036682Y-11614150D01*
X16036682Y-11614150D02*
X16017634Y-11623674D01*
X16017634Y-11623674D02*
X16008110Y-11633198D01*
X16217634Y-11747484D02*
X16198587Y-11737960D01*
X16198587Y-11737960D02*
X16189063Y-11728436D01*
X16189063Y-11728436D02*
X16179539Y-11709388D01*
X16179539Y-11709388D02*
X16179539Y-11652246D01*
X16179539Y-11652246D02*
X16189063Y-11633198D01*
X16189063Y-11633198D02*
X16198587Y-11623674D01*
X16198587Y-11623674D02*
X16217634Y-11614150D01*
X16217634Y-11614150D02*
X16246206Y-11614150D01*
X16246206Y-11614150D02*
X16265253Y-11623674D01*
X16265253Y-11623674D02*
X16274777Y-11633198D01*
X16274777Y-11633198D02*
X16284301Y-11652246D01*
X16284301Y-11652246D02*
X16284301Y-11709388D01*
X16284301Y-11709388D02*
X16274777Y-11728436D01*
X16274777Y-11728436D02*
X16265253Y-11737960D01*
X16265253Y-11737960D02*
X16246206Y-11747484D01*
X16246206Y-11747484D02*
X16217634Y-11747484D01*
X16398587Y-11747484D02*
X16379539Y-11737960D01*
X16379539Y-11737960D02*
X16370015Y-11718912D01*
X16370015Y-11718912D02*
X16370015Y-11547484D01*
X16550968Y-11737960D02*
X16531920Y-11747484D01*
X16531920Y-11747484D02*
X16493825Y-11747484D01*
X16493825Y-11747484D02*
X16474777Y-11737960D01*
X16474777Y-11737960D02*
X16465253Y-11718912D01*
X16465253Y-11718912D02*
X16465253Y-11642722D01*
X16465253Y-11642722D02*
X16474777Y-11623674D01*
X16474777Y-11623674D02*
X16493825Y-11614150D01*
X16493825Y-11614150D02*
X16531920Y-11614150D01*
X16531920Y-11614150D02*
X16550968Y-11623674D01*
X16550968Y-11623674D02*
X16560491Y-11642722D01*
X16560491Y-11642722D02*
X16560491Y-11661769D01*
X16560491Y-11661769D02*
X16465253Y-11680817D01*
X16636682Y-11737960D02*
X16655730Y-11747484D01*
X16655730Y-11747484D02*
X16693825Y-11747484D01*
X16693825Y-11747484D02*
X16712872Y-11737960D01*
X16712872Y-11737960D02*
X16722396Y-11718912D01*
X16722396Y-11718912D02*
X16722396Y-11709388D01*
X16722396Y-11709388D02*
X16712872Y-11690341D01*
X16712872Y-11690341D02*
X16693825Y-11680817D01*
X16693825Y-11680817D02*
X16665253Y-11680817D01*
X16665253Y-11680817D02*
X16646206Y-11671293D01*
X16646206Y-11671293D02*
X16636682Y-11652246D01*
X16636682Y-11652246D02*
X16636682Y-11642722D01*
X16636682Y-11642722D02*
X16646206Y-11623674D01*
X16646206Y-11623674D02*
X16665253Y-11614150D01*
X16665253Y-11614150D02*
X16693825Y-11614150D01*
X16693825Y-11614150D02*
X16712872Y-11623674D01*
X16789063Y-11823674D02*
X16798587Y-11814150D01*
X16798587Y-11814150D02*
X16817634Y-11785579D01*
X16817634Y-11785579D02*
X16827158Y-11766531D01*
X16827158Y-11766531D02*
X16836682Y-11737960D01*
X16836682Y-11737960D02*
X16846206Y-11690341D01*
X16846206Y-11690341D02*
X16846206Y-11652246D01*
X16846206Y-11652246D02*
X16836682Y-11604627D01*
X16836682Y-11604627D02*
X16827158Y-11576055D01*
X16827158Y-11576055D02*
X16817634Y-11557008D01*
X16817634Y-11557008D02*
X16798587Y-11528436D01*
X16798587Y-11528436D02*
X16789063Y-11518912D01*
X17150968Y-11823674D02*
X17141444Y-11814150D01*
X17141444Y-11814150D02*
X17122396Y-11785579D01*
X17122396Y-11785579D02*
X17112873Y-11766531D01*
X17112873Y-11766531D02*
X17103349Y-11737960D01*
X17103349Y-11737960D02*
X17093825Y-11690341D01*
X17093825Y-11690341D02*
X17093825Y-11652246D01*
X17093825Y-11652246D02*
X17103349Y-11604627D01*
X17103349Y-11604627D02*
X17112873Y-11576055D01*
X17112873Y-11576055D02*
X17122396Y-11557008D01*
X17122396Y-11557008D02*
X17141444Y-11528436D01*
X17141444Y-11528436D02*
X17150968Y-11518912D01*
X17227158Y-11614150D02*
X17227158Y-11747484D01*
X17227158Y-11633198D02*
X17236682Y-11623674D01*
X17236682Y-11623674D02*
X17255730Y-11614150D01*
X17255730Y-11614150D02*
X17284301Y-11614150D01*
X17284301Y-11614150D02*
X17303349Y-11623674D01*
X17303349Y-11623674D02*
X17312873Y-11642722D01*
X17312873Y-11642722D02*
X17312873Y-11747484D01*
X17436682Y-11747484D02*
X17417634Y-11737960D01*
X17417634Y-11737960D02*
X17408111Y-11728436D01*
X17408111Y-11728436D02*
X17398587Y-11709388D01*
X17398587Y-11709388D02*
X17398587Y-11652246D01*
X17398587Y-11652246D02*
X17408111Y-11633198D01*
X17408111Y-11633198D02*
X17417634Y-11623674D01*
X17417634Y-11623674D02*
X17436682Y-11614150D01*
X17436682Y-11614150D02*
X17465254Y-11614150D01*
X17465254Y-11614150D02*
X17484301Y-11623674D01*
X17484301Y-11623674D02*
X17493825Y-11633198D01*
X17493825Y-11633198D02*
X17503349Y-11652246D01*
X17503349Y-11652246D02*
X17503349Y-11709388D01*
X17503349Y-11709388D02*
X17493825Y-11728436D01*
X17493825Y-11728436D02*
X17484301Y-11737960D01*
X17484301Y-11737960D02*
X17465254Y-11747484D01*
X17465254Y-11747484D02*
X17436682Y-11747484D01*
X17560492Y-11614150D02*
X17636682Y-11614150D01*
X17589063Y-11547484D02*
X17589063Y-11718912D01*
X17589063Y-11718912D02*
X17598587Y-11737960D01*
X17598587Y-11737960D02*
X17617634Y-11747484D01*
X17617634Y-11747484D02*
X17636682Y-11747484D01*
X17855730Y-11614150D02*
X17855730Y-11814150D01*
X17855730Y-11623674D02*
X17874777Y-11614150D01*
X17874777Y-11614150D02*
X17912873Y-11614150D01*
X17912873Y-11614150D02*
X17931920Y-11623674D01*
X17931920Y-11623674D02*
X17941444Y-11633198D01*
X17941444Y-11633198D02*
X17950968Y-11652246D01*
X17950968Y-11652246D02*
X17950968Y-11709388D01*
X17950968Y-11709388D02*
X17941444Y-11728436D01*
X17941444Y-11728436D02*
X17931920Y-11737960D01*
X17931920Y-11737960D02*
X17912873Y-11747484D01*
X17912873Y-11747484D02*
X17874777Y-11747484D01*
X17874777Y-11747484D02*
X17855730Y-11737960D01*
X18065254Y-11747484D02*
X18046206Y-11737960D01*
X18046206Y-11737960D02*
X18036682Y-11718912D01*
X18036682Y-11718912D02*
X18036682Y-11547484D01*
X18227158Y-11747484D02*
X18227158Y-11642722D01*
X18227158Y-11642722D02*
X18217635Y-11623674D01*
X18217635Y-11623674D02*
X18198587Y-11614150D01*
X18198587Y-11614150D02*
X18160492Y-11614150D01*
X18160492Y-11614150D02*
X18141444Y-11623674D01*
X18227158Y-11737960D02*
X18208111Y-11747484D01*
X18208111Y-11747484D02*
X18160492Y-11747484D01*
X18160492Y-11747484D02*
X18141444Y-11737960D01*
X18141444Y-11737960D02*
X18131920Y-11718912D01*
X18131920Y-11718912D02*
X18131920Y-11699865D01*
X18131920Y-11699865D02*
X18141444Y-11680817D01*
X18141444Y-11680817D02*
X18160492Y-11671293D01*
X18160492Y-11671293D02*
X18208111Y-11671293D01*
X18208111Y-11671293D02*
X18227158Y-11661769D01*
X18293825Y-11614150D02*
X18370015Y-11614150D01*
X18322396Y-11547484D02*
X18322396Y-11718912D01*
X18322396Y-11718912D02*
X18331920Y-11737960D01*
X18331920Y-11737960D02*
X18350968Y-11747484D01*
X18350968Y-11747484D02*
X18370015Y-11747484D01*
X18512873Y-11737960D02*
X18493825Y-11747484D01*
X18493825Y-11747484D02*
X18455730Y-11747484D01*
X18455730Y-11747484D02*
X18436682Y-11737960D01*
X18436682Y-11737960D02*
X18427158Y-11718912D01*
X18427158Y-11718912D02*
X18427158Y-11642722D01*
X18427158Y-11642722D02*
X18436682Y-11623674D01*
X18436682Y-11623674D02*
X18455730Y-11614150D01*
X18455730Y-11614150D02*
X18493825Y-11614150D01*
X18493825Y-11614150D02*
X18512873Y-11623674D01*
X18512873Y-11623674D02*
X18522396Y-11642722D01*
X18522396Y-11642722D02*
X18522396Y-11661769D01*
X18522396Y-11661769D02*
X18427158Y-11680817D01*
X18693825Y-11747484D02*
X18693825Y-11547484D01*
X18693825Y-11737960D02*
X18674777Y-11747484D01*
X18674777Y-11747484D02*
X18636682Y-11747484D01*
X18636682Y-11747484D02*
X18617635Y-11737960D01*
X18617635Y-11737960D02*
X18608111Y-11728436D01*
X18608111Y-11728436D02*
X18598587Y-11709388D01*
X18598587Y-11709388D02*
X18598587Y-11652246D01*
X18598587Y-11652246D02*
X18608111Y-11633198D01*
X18608111Y-11633198D02*
X18617635Y-11623674D01*
X18617635Y-11623674D02*
X18636682Y-11614150D01*
X18636682Y-11614150D02*
X18674777Y-11614150D01*
X18674777Y-11614150D02*
X18693825Y-11623674D01*
X18770016Y-11823674D02*
X18779539Y-11814150D01*
X18779539Y-11814150D02*
X18798587Y-11785579D01*
X18798587Y-11785579D02*
X18808111Y-11766531D01*
X18808111Y-11766531D02*
X18817635Y-11737960D01*
X18817635Y-11737960D02*
X18827158Y-11690341D01*
X18827158Y-11690341D02*
X18827158Y-11652246D01*
X18827158Y-11652246D02*
X18817635Y-11604627D01*
X18817635Y-11604627D02*
X18808111Y-11576055D01*
X18808111Y-11576055D02*
X18798587Y-11557008D01*
X18798587Y-11557008D02*
X18779539Y-11528436D01*
X18779539Y-11528436D02*
X18770016Y-11518912D01*
M02*
