G04 #@! TF.GenerationSoftware,KiCad,Pcbnew,7.0.9*
G04 #@! TF.CreationDate,2024-04-20T19:10:07+02:00*
G04 #@! TF.ProjectId,NFC_Programmer,4e46435f-5072-46f6-9772-616d6d65722e,3.0*
G04 #@! TF.SameCoordinates,Original*
G04 #@! TF.FileFunction,Legend,Bot*
G04 #@! TF.FilePolarity,Positive*
%FSLAX46Y46*%
G04 Gerber Fmt 4.6, Leading zero omitted, Abs format (unit mm)*
G04 Created by KiCad (PCBNEW 7.0.9) date 2024-04-20 19:10:07*
%MOMM*%
%LPD*%
G01*
G04 APERTURE LIST*
%ADD10C,0.153000*%
%ADD11C,3.000000*%
%ADD12R,1.700000X1.700000*%
%ADD13O,1.700000X1.700000*%
G04 APERTURE END LIST*
D10*
X139610336Y-106811247D02*
X140610336Y-106811247D01*
X140610336Y-106811247D02*
X140610336Y-106430295D01*
X140610336Y-106430295D02*
X140562717Y-106335057D01*
X140562717Y-106335057D02*
X140515098Y-106287438D01*
X140515098Y-106287438D02*
X140419860Y-106239819D01*
X140419860Y-106239819D02*
X140277003Y-106239819D01*
X140277003Y-106239819D02*
X140181765Y-106287438D01*
X140181765Y-106287438D02*
X140134146Y-106335057D01*
X140134146Y-106335057D02*
X140086527Y-106430295D01*
X140086527Y-106430295D02*
X140086527Y-106811247D01*
X139610336Y-105811247D02*
X140610336Y-105811247D01*
X140610336Y-105811247D02*
X140610336Y-105573152D01*
X140610336Y-105573152D02*
X140562717Y-105430295D01*
X140562717Y-105430295D02*
X140467479Y-105335057D01*
X140467479Y-105335057D02*
X140372241Y-105287438D01*
X140372241Y-105287438D02*
X140181765Y-105239819D01*
X140181765Y-105239819D02*
X140038908Y-105239819D01*
X140038908Y-105239819D02*
X139848432Y-105287438D01*
X139848432Y-105287438D02*
X139753194Y-105335057D01*
X139753194Y-105335057D02*
X139657956Y-105430295D01*
X139657956Y-105430295D02*
X139610336Y-105573152D01*
X139610336Y-105573152D02*
X139610336Y-105811247D01*
X140610336Y-104620771D02*
X140610336Y-104430295D01*
X140610336Y-104430295D02*
X140562717Y-104335057D01*
X140562717Y-104335057D02*
X140467479Y-104239819D01*
X140467479Y-104239819D02*
X140277003Y-104192200D01*
X140277003Y-104192200D02*
X139943670Y-104192200D01*
X139943670Y-104192200D02*
X139753194Y-104239819D01*
X139753194Y-104239819D02*
X139657956Y-104335057D01*
X139657956Y-104335057D02*
X139610336Y-104430295D01*
X139610336Y-104430295D02*
X139610336Y-104620771D01*
X139610336Y-104620771D02*
X139657956Y-104716009D01*
X139657956Y-104716009D02*
X139753194Y-104811247D01*
X139753194Y-104811247D02*
X139943670Y-104858866D01*
X139943670Y-104858866D02*
X140277003Y-104858866D01*
X140277003Y-104858866D02*
X140467479Y-104811247D01*
X140467479Y-104811247D02*
X140562717Y-104716009D01*
X140562717Y-104716009D02*
X140610336Y-104620771D01*
X140610336Y-103858866D02*
X139610336Y-103620771D01*
X139610336Y-103620771D02*
X140324622Y-103430295D01*
X140324622Y-103430295D02*
X139610336Y-103239819D01*
X139610336Y-103239819D02*
X140610336Y-103001724D01*
X139610336Y-102620771D02*
X140610336Y-102620771D01*
X140610336Y-102620771D02*
X139610336Y-102049343D01*
X139610336Y-102049343D02*
X140610336Y-102049343D01*
X148921247Y-68929663D02*
X148921247Y-67929663D01*
X148921247Y-67929663D02*
X148540295Y-67929663D01*
X148540295Y-67929663D02*
X148445057Y-67977282D01*
X148445057Y-67977282D02*
X148397438Y-68024901D01*
X148397438Y-68024901D02*
X148349819Y-68120139D01*
X148349819Y-68120139D02*
X148349819Y-68262996D01*
X148349819Y-68262996D02*
X148397438Y-68358234D01*
X148397438Y-68358234D02*
X148445057Y-68405853D01*
X148445057Y-68405853D02*
X148540295Y-68453472D01*
X148540295Y-68453472D02*
X148921247Y-68453472D01*
X147540295Y-68882044D02*
X147635533Y-68929663D01*
X147635533Y-68929663D02*
X147826009Y-68929663D01*
X147826009Y-68929663D02*
X147921247Y-68882044D01*
X147921247Y-68882044D02*
X147968866Y-68786805D01*
X147968866Y-68786805D02*
X147968866Y-68405853D01*
X147968866Y-68405853D02*
X147921247Y-68310615D01*
X147921247Y-68310615D02*
X147826009Y-68262996D01*
X147826009Y-68262996D02*
X147635533Y-68262996D01*
X147635533Y-68262996D02*
X147540295Y-68310615D01*
X147540295Y-68310615D02*
X147492676Y-68405853D01*
X147492676Y-68405853D02*
X147492676Y-68501091D01*
X147492676Y-68501091D02*
X147968866Y-68596329D01*
X146635533Y-68929663D02*
X146635533Y-67929663D01*
X146635533Y-68882044D02*
X146730771Y-68929663D01*
X146730771Y-68929663D02*
X146921247Y-68929663D01*
X146921247Y-68929663D02*
X147016485Y-68882044D01*
X147016485Y-68882044D02*
X147064104Y-68834424D01*
X147064104Y-68834424D02*
X147111723Y-68739186D01*
X147111723Y-68739186D02*
X147111723Y-68453472D01*
X147111723Y-68453472D02*
X147064104Y-68358234D01*
X147064104Y-68358234D02*
X147016485Y-68310615D01*
X147016485Y-68310615D02*
X146921247Y-68262996D01*
X146921247Y-68262996D02*
X146730771Y-68262996D01*
X146730771Y-68262996D02*
X146635533Y-68310615D01*
X146159342Y-68929663D02*
X146159342Y-68262996D01*
X146159342Y-68453472D02*
X146111723Y-68358234D01*
X146111723Y-68358234D02*
X146064104Y-68310615D01*
X146064104Y-68310615D02*
X145968866Y-68262996D01*
X145968866Y-68262996D02*
X145873628Y-68262996D01*
X145397437Y-68929663D02*
X145492675Y-68882044D01*
X145492675Y-68882044D02*
X145540294Y-68834424D01*
X145540294Y-68834424D02*
X145587913Y-68739186D01*
X145587913Y-68739186D02*
X145587913Y-68453472D01*
X145587913Y-68453472D02*
X145540294Y-68358234D01*
X145540294Y-68358234D02*
X145492675Y-68310615D01*
X145492675Y-68310615D02*
X145397437Y-68262996D01*
X145397437Y-68262996D02*
X145254580Y-68262996D01*
X145254580Y-68262996D02*
X145159342Y-68310615D01*
X145159342Y-68310615D02*
X145111723Y-68358234D01*
X145111723Y-68358234D02*
X145064104Y-68453472D01*
X145064104Y-68453472D02*
X145064104Y-68739186D01*
X145064104Y-68739186D02*
X145111723Y-68834424D01*
X145111723Y-68834424D02*
X145159342Y-68882044D01*
X145159342Y-68882044D02*
X145254580Y-68929663D01*
X145254580Y-68929663D02*
X145397437Y-68929663D01*
X144016484Y-67929663D02*
X143445056Y-67929663D01*
X143730770Y-68929663D02*
X143730770Y-67929663D01*
X143111722Y-68929663D02*
X143111722Y-68262996D01*
X143111722Y-68453472D02*
X143064103Y-68358234D01*
X143064103Y-68358234D02*
X143016484Y-68310615D01*
X143016484Y-68310615D02*
X142921246Y-68262996D01*
X142921246Y-68262996D02*
X142826008Y-68262996D01*
X142111722Y-68882044D02*
X142206960Y-68929663D01*
X142206960Y-68929663D02*
X142397436Y-68929663D01*
X142397436Y-68929663D02*
X142492674Y-68882044D01*
X142492674Y-68882044D02*
X142540293Y-68786805D01*
X142540293Y-68786805D02*
X142540293Y-68405853D01*
X142540293Y-68405853D02*
X142492674Y-68310615D01*
X142492674Y-68310615D02*
X142397436Y-68262996D01*
X142397436Y-68262996D02*
X142206960Y-68262996D01*
X142206960Y-68262996D02*
X142111722Y-68310615D01*
X142111722Y-68310615D02*
X142064103Y-68405853D01*
X142064103Y-68405853D02*
X142064103Y-68501091D01*
X142064103Y-68501091D02*
X142540293Y-68596329D01*
X141635531Y-68262996D02*
X141635531Y-68929663D01*
X141635531Y-68358234D02*
X141587912Y-68310615D01*
X141587912Y-68310615D02*
X141492674Y-68262996D01*
X141492674Y-68262996D02*
X141349817Y-68262996D01*
X141349817Y-68262996D02*
X141254579Y-68310615D01*
X141254579Y-68310615D02*
X141206960Y-68405853D01*
X141206960Y-68405853D02*
X141206960Y-68929663D01*
X140302198Y-68929663D02*
X140302198Y-68405853D01*
X140302198Y-68405853D02*
X140349817Y-68310615D01*
X140349817Y-68310615D02*
X140445055Y-68262996D01*
X140445055Y-68262996D02*
X140635531Y-68262996D01*
X140635531Y-68262996D02*
X140730769Y-68310615D01*
X140302198Y-68882044D02*
X140397436Y-68929663D01*
X140397436Y-68929663D02*
X140635531Y-68929663D01*
X140635531Y-68929663D02*
X140730769Y-68882044D01*
X140730769Y-68882044D02*
X140778388Y-68786805D01*
X140778388Y-68786805D02*
X140778388Y-68691567D01*
X140778388Y-68691567D02*
X140730769Y-68596329D01*
X140730769Y-68596329D02*
X140635531Y-68548710D01*
X140635531Y-68548710D02*
X140397436Y-68548710D01*
X140397436Y-68548710D02*
X140302198Y-68501091D01*
X139397436Y-68929663D02*
X139397436Y-67929663D01*
X139397436Y-68882044D02*
X139492674Y-68929663D01*
X139492674Y-68929663D02*
X139683150Y-68929663D01*
X139683150Y-68929663D02*
X139778388Y-68882044D01*
X139778388Y-68882044D02*
X139826007Y-68834424D01*
X139826007Y-68834424D02*
X139873626Y-68739186D01*
X139873626Y-68739186D02*
X139873626Y-68453472D01*
X139873626Y-68453472D02*
X139826007Y-68358234D01*
X139826007Y-68358234D02*
X139778388Y-68310615D01*
X139778388Y-68310615D02*
X139683150Y-68262996D01*
X139683150Y-68262996D02*
X139492674Y-68262996D01*
X139492674Y-68262996D02*
X139397436Y-68310615D01*
X138778388Y-68929663D02*
X138873626Y-68882044D01*
X138873626Y-68882044D02*
X138921245Y-68834424D01*
X138921245Y-68834424D02*
X138968864Y-68739186D01*
X138968864Y-68739186D02*
X138968864Y-68453472D01*
X138968864Y-68453472D02*
X138921245Y-68358234D01*
X138921245Y-68358234D02*
X138873626Y-68310615D01*
X138873626Y-68310615D02*
X138778388Y-68262996D01*
X138778388Y-68262996D02*
X138635531Y-68262996D01*
X138635531Y-68262996D02*
X138540293Y-68310615D01*
X138540293Y-68310615D02*
X138492674Y-68358234D01*
X138492674Y-68358234D02*
X138445055Y-68453472D01*
X138445055Y-68453472D02*
X138445055Y-68739186D01*
X138445055Y-68739186D02*
X138492674Y-68834424D01*
X138492674Y-68834424D02*
X138540293Y-68882044D01*
X138540293Y-68882044D02*
X138635531Y-68929663D01*
X138635531Y-68929663D02*
X138778388Y-68929663D01*
X136921245Y-68405853D02*
X137254578Y-68405853D01*
X137254578Y-68929663D02*
X137254578Y-67929663D01*
X137254578Y-67929663D02*
X136778388Y-67929663D01*
X136397435Y-68929663D02*
X136397435Y-68262996D01*
X136397435Y-67929663D02*
X136445054Y-67977282D01*
X136445054Y-67977282D02*
X136397435Y-68024901D01*
X136397435Y-68024901D02*
X136349816Y-67977282D01*
X136349816Y-67977282D02*
X136397435Y-67929663D01*
X136397435Y-67929663D02*
X136397435Y-68024901D01*
X135492674Y-68262996D02*
X135492674Y-69072520D01*
X135492674Y-69072520D02*
X135540293Y-69167758D01*
X135540293Y-69167758D02*
X135587912Y-69215377D01*
X135587912Y-69215377D02*
X135683150Y-69262996D01*
X135683150Y-69262996D02*
X135826007Y-69262996D01*
X135826007Y-69262996D02*
X135921245Y-69215377D01*
X135492674Y-68882044D02*
X135587912Y-68929663D01*
X135587912Y-68929663D02*
X135778388Y-68929663D01*
X135778388Y-68929663D02*
X135873626Y-68882044D01*
X135873626Y-68882044D02*
X135921245Y-68834424D01*
X135921245Y-68834424D02*
X135968864Y-68739186D01*
X135968864Y-68739186D02*
X135968864Y-68453472D01*
X135968864Y-68453472D02*
X135921245Y-68358234D01*
X135921245Y-68358234D02*
X135873626Y-68310615D01*
X135873626Y-68310615D02*
X135778388Y-68262996D01*
X135778388Y-68262996D02*
X135587912Y-68262996D01*
X135587912Y-68262996D02*
X135492674Y-68310615D01*
X134587912Y-68262996D02*
X134587912Y-68929663D01*
X135016483Y-68262996D02*
X135016483Y-68786805D01*
X135016483Y-68786805D02*
X134968864Y-68882044D01*
X134968864Y-68882044D02*
X134873626Y-68929663D01*
X134873626Y-68929663D02*
X134730769Y-68929663D01*
X134730769Y-68929663D02*
X134635531Y-68882044D01*
X134635531Y-68882044D02*
X134587912Y-68834424D01*
X133730769Y-68882044D02*
X133826007Y-68929663D01*
X133826007Y-68929663D02*
X134016483Y-68929663D01*
X134016483Y-68929663D02*
X134111721Y-68882044D01*
X134111721Y-68882044D02*
X134159340Y-68786805D01*
X134159340Y-68786805D02*
X134159340Y-68405853D01*
X134159340Y-68405853D02*
X134111721Y-68310615D01*
X134111721Y-68310615D02*
X134016483Y-68262996D01*
X134016483Y-68262996D02*
X133826007Y-68262996D01*
X133826007Y-68262996D02*
X133730769Y-68310615D01*
X133730769Y-68310615D02*
X133683150Y-68405853D01*
X133683150Y-68405853D02*
X133683150Y-68501091D01*
X133683150Y-68501091D02*
X134159340Y-68596329D01*
X133254578Y-68929663D02*
X133254578Y-68262996D01*
X133254578Y-68453472D02*
X133206959Y-68358234D01*
X133206959Y-68358234D02*
X133159340Y-68310615D01*
X133159340Y-68310615D02*
X133064102Y-68262996D01*
X133064102Y-68262996D02*
X132968864Y-68262996D01*
X132492673Y-68929663D02*
X132587911Y-68882044D01*
X132587911Y-68882044D02*
X132635530Y-68834424D01*
X132635530Y-68834424D02*
X132683149Y-68739186D01*
X132683149Y-68739186D02*
X132683149Y-68453472D01*
X132683149Y-68453472D02*
X132635530Y-68358234D01*
X132635530Y-68358234D02*
X132587911Y-68310615D01*
X132587911Y-68310615D02*
X132492673Y-68262996D01*
X132492673Y-68262996D02*
X132349816Y-68262996D01*
X132349816Y-68262996D02*
X132254578Y-68310615D01*
X132254578Y-68310615D02*
X132206959Y-68358234D01*
X132206959Y-68358234D02*
X132159340Y-68453472D01*
X132159340Y-68453472D02*
X132159340Y-68739186D01*
X132159340Y-68739186D02*
X132206959Y-68834424D01*
X132206959Y-68834424D02*
X132254578Y-68882044D01*
X132254578Y-68882044D02*
X132349816Y-68929663D01*
X132349816Y-68929663D02*
X132492673Y-68929663D01*
X131302197Y-68929663D02*
X131302197Y-68405853D01*
X131302197Y-68405853D02*
X131349816Y-68310615D01*
X131349816Y-68310615D02*
X131445054Y-68262996D01*
X131445054Y-68262996D02*
X131635530Y-68262996D01*
X131635530Y-68262996D02*
X131730768Y-68310615D01*
X131302197Y-68882044D02*
X131397435Y-68929663D01*
X131397435Y-68929663D02*
X131635530Y-68929663D01*
X131635530Y-68929663D02*
X131730768Y-68882044D01*
X131730768Y-68882044D02*
X131778387Y-68786805D01*
X131778387Y-68786805D02*
X131778387Y-68691567D01*
X131778387Y-68691567D02*
X131730768Y-68596329D01*
X131730768Y-68596329D02*
X131635530Y-68548710D01*
X131635530Y-68548710D02*
X131397435Y-68548710D01*
X131397435Y-68548710D02*
X131302197Y-68501091D01*
X141344104Y-73549663D02*
X141010771Y-74549663D01*
X141010771Y-74549663D02*
X140677438Y-73549663D01*
X139915533Y-73882996D02*
X139915533Y-74549663D01*
X140153628Y-73502044D02*
X140391723Y-74216329D01*
X140391723Y-74216329D02*
X139772676Y-74216329D01*
X139391723Y-74454424D02*
X139344104Y-74502044D01*
X139344104Y-74502044D02*
X139391723Y-74549663D01*
X139391723Y-74549663D02*
X139439342Y-74502044D01*
X139439342Y-74502044D02*
X139391723Y-74454424D01*
X139391723Y-74454424D02*
X139391723Y-74549663D01*
X138725057Y-73549663D02*
X138629819Y-73549663D01*
X138629819Y-73549663D02*
X138534581Y-73597282D01*
X138534581Y-73597282D02*
X138486962Y-73644901D01*
X138486962Y-73644901D02*
X138439343Y-73740139D01*
X138439343Y-73740139D02*
X138391724Y-73930615D01*
X138391724Y-73930615D02*
X138391724Y-74168710D01*
X138391724Y-74168710D02*
X138439343Y-74359186D01*
X138439343Y-74359186D02*
X138486962Y-74454424D01*
X138486962Y-74454424D02*
X138534581Y-74502044D01*
X138534581Y-74502044D02*
X138629819Y-74549663D01*
X138629819Y-74549663D02*
X138725057Y-74549663D01*
X138725057Y-74549663D02*
X138820295Y-74502044D01*
X138820295Y-74502044D02*
X138867914Y-74454424D01*
X138867914Y-74454424D02*
X138915533Y-74359186D01*
X138915533Y-74359186D02*
X138963152Y-74168710D01*
X138963152Y-74168710D02*
X138963152Y-73930615D01*
X138963152Y-73930615D02*
X138915533Y-73740139D01*
X138915533Y-73740139D02*
X138867914Y-73644901D01*
X138867914Y-73644901D02*
X138820295Y-73597282D01*
X138820295Y-73597282D02*
X138725057Y-73549663D01*
X138170336Y-106916485D02*
X138170336Y-106297438D01*
X138170336Y-106297438D02*
X137789384Y-106630771D01*
X137789384Y-106630771D02*
X137789384Y-106487914D01*
X137789384Y-106487914D02*
X137741765Y-106392676D01*
X137741765Y-106392676D02*
X137694146Y-106345057D01*
X137694146Y-106345057D02*
X137598908Y-106297438D01*
X137598908Y-106297438D02*
X137360813Y-106297438D01*
X137360813Y-106297438D02*
X137265575Y-106345057D01*
X137265575Y-106345057D02*
X137217956Y-106392676D01*
X137217956Y-106392676D02*
X137170336Y-106487914D01*
X137170336Y-106487914D02*
X137170336Y-106773628D01*
X137170336Y-106773628D02*
X137217956Y-106868866D01*
X137217956Y-106868866D02*
X137265575Y-106916485D01*
X137265575Y-105868866D02*
X137217956Y-105821247D01*
X137217956Y-105821247D02*
X137170336Y-105868866D01*
X137170336Y-105868866D02*
X137217956Y-105916485D01*
X137217956Y-105916485D02*
X137265575Y-105868866D01*
X137265575Y-105868866D02*
X137170336Y-105868866D01*
X138170336Y-105487914D02*
X138170336Y-104868867D01*
X138170336Y-104868867D02*
X137789384Y-105202200D01*
X137789384Y-105202200D02*
X137789384Y-105059343D01*
X137789384Y-105059343D02*
X137741765Y-104964105D01*
X137741765Y-104964105D02*
X137694146Y-104916486D01*
X137694146Y-104916486D02*
X137598908Y-104868867D01*
X137598908Y-104868867D02*
X137360813Y-104868867D01*
X137360813Y-104868867D02*
X137265575Y-104916486D01*
X137265575Y-104916486D02*
X137217956Y-104964105D01*
X137217956Y-104964105D02*
X137170336Y-105059343D01*
X137170336Y-105059343D02*
X137170336Y-105345057D01*
X137170336Y-105345057D02*
X137217956Y-105440295D01*
X137217956Y-105440295D02*
X137265575Y-105487914D01*
X138170336Y-104583152D02*
X137170336Y-104249819D01*
X137170336Y-104249819D02*
X138170336Y-103916486D01*
X149830336Y-106851247D02*
X150830336Y-106851247D01*
X150830336Y-106851247D02*
X149830336Y-106279819D01*
X149830336Y-106279819D02*
X150830336Y-106279819D01*
X149877956Y-105851247D02*
X149830336Y-105708390D01*
X149830336Y-105708390D02*
X149830336Y-105470295D01*
X149830336Y-105470295D02*
X149877956Y-105375057D01*
X149877956Y-105375057D02*
X149925575Y-105327438D01*
X149925575Y-105327438D02*
X150020813Y-105279819D01*
X150020813Y-105279819D02*
X150116051Y-105279819D01*
X150116051Y-105279819D02*
X150211289Y-105327438D01*
X150211289Y-105327438D02*
X150258908Y-105375057D01*
X150258908Y-105375057D02*
X150306527Y-105470295D01*
X150306527Y-105470295D02*
X150354146Y-105660771D01*
X150354146Y-105660771D02*
X150401765Y-105756009D01*
X150401765Y-105756009D02*
X150449384Y-105803628D01*
X150449384Y-105803628D02*
X150544622Y-105851247D01*
X150544622Y-105851247D02*
X150639860Y-105851247D01*
X150639860Y-105851247D02*
X150735098Y-105803628D01*
X150735098Y-105803628D02*
X150782717Y-105756009D01*
X150782717Y-105756009D02*
X150830336Y-105660771D01*
X150830336Y-105660771D02*
X150830336Y-105422676D01*
X150830336Y-105422676D02*
X150782717Y-105279819D01*
X149877956Y-104898866D02*
X149830336Y-104756009D01*
X149830336Y-104756009D02*
X149830336Y-104517914D01*
X149830336Y-104517914D02*
X149877956Y-104422676D01*
X149877956Y-104422676D02*
X149925575Y-104375057D01*
X149925575Y-104375057D02*
X150020813Y-104327438D01*
X150020813Y-104327438D02*
X150116051Y-104327438D01*
X150116051Y-104327438D02*
X150211289Y-104375057D01*
X150211289Y-104375057D02*
X150258908Y-104422676D01*
X150258908Y-104422676D02*
X150306527Y-104517914D01*
X150306527Y-104517914D02*
X150354146Y-104708390D01*
X150354146Y-104708390D02*
X150401765Y-104803628D01*
X150401765Y-104803628D02*
X150449384Y-104851247D01*
X150449384Y-104851247D02*
X150544622Y-104898866D01*
X150544622Y-104898866D02*
X150639860Y-104898866D01*
X150639860Y-104898866D02*
X150735098Y-104851247D01*
X150735098Y-104851247D02*
X150782717Y-104803628D01*
X150782717Y-104803628D02*
X150830336Y-104708390D01*
X150830336Y-104708390D02*
X150830336Y-104470295D01*
X150830336Y-104470295D02*
X150782717Y-104327438D01*
X142160336Y-106811247D02*
X143160336Y-106811247D01*
X143160336Y-106811247D02*
X142446051Y-106477914D01*
X142446051Y-106477914D02*
X143160336Y-106144581D01*
X143160336Y-106144581D02*
X142160336Y-106144581D01*
X143160336Y-105477914D02*
X143160336Y-105287438D01*
X143160336Y-105287438D02*
X143112717Y-105192200D01*
X143112717Y-105192200D02*
X143017479Y-105096962D01*
X143017479Y-105096962D02*
X142827003Y-105049343D01*
X142827003Y-105049343D02*
X142493670Y-105049343D01*
X142493670Y-105049343D02*
X142303194Y-105096962D01*
X142303194Y-105096962D02*
X142207956Y-105192200D01*
X142207956Y-105192200D02*
X142160336Y-105287438D01*
X142160336Y-105287438D02*
X142160336Y-105477914D01*
X142160336Y-105477914D02*
X142207956Y-105573152D01*
X142207956Y-105573152D02*
X142303194Y-105668390D01*
X142303194Y-105668390D02*
X142493670Y-105716009D01*
X142493670Y-105716009D02*
X142827003Y-105716009D01*
X142827003Y-105716009D02*
X143017479Y-105668390D01*
X143017479Y-105668390D02*
X143112717Y-105573152D01*
X143112717Y-105573152D02*
X143160336Y-105477914D01*
X142207956Y-104668390D02*
X142160336Y-104525533D01*
X142160336Y-104525533D02*
X142160336Y-104287438D01*
X142160336Y-104287438D02*
X142207956Y-104192200D01*
X142207956Y-104192200D02*
X142255575Y-104144581D01*
X142255575Y-104144581D02*
X142350813Y-104096962D01*
X142350813Y-104096962D02*
X142446051Y-104096962D01*
X142446051Y-104096962D02*
X142541289Y-104144581D01*
X142541289Y-104144581D02*
X142588908Y-104192200D01*
X142588908Y-104192200D02*
X142636527Y-104287438D01*
X142636527Y-104287438D02*
X142684146Y-104477914D01*
X142684146Y-104477914D02*
X142731765Y-104573152D01*
X142731765Y-104573152D02*
X142779384Y-104620771D01*
X142779384Y-104620771D02*
X142874622Y-104668390D01*
X142874622Y-104668390D02*
X142969860Y-104668390D01*
X142969860Y-104668390D02*
X143065098Y-104620771D01*
X143065098Y-104620771D02*
X143112717Y-104573152D01*
X143112717Y-104573152D02*
X143160336Y-104477914D01*
X143160336Y-104477914D02*
X143160336Y-104239819D01*
X143160336Y-104239819D02*
X143112717Y-104096962D01*
X142160336Y-103668390D02*
X143160336Y-103668390D01*
X155962717Y-106247438D02*
X156010336Y-106342676D01*
X156010336Y-106342676D02*
X156010336Y-106485533D01*
X156010336Y-106485533D02*
X155962717Y-106628390D01*
X155962717Y-106628390D02*
X155867479Y-106723628D01*
X155867479Y-106723628D02*
X155772241Y-106771247D01*
X155772241Y-106771247D02*
X155581765Y-106818866D01*
X155581765Y-106818866D02*
X155438908Y-106818866D01*
X155438908Y-106818866D02*
X155248432Y-106771247D01*
X155248432Y-106771247D02*
X155153194Y-106723628D01*
X155153194Y-106723628D02*
X155057956Y-106628390D01*
X155057956Y-106628390D02*
X155010336Y-106485533D01*
X155010336Y-106485533D02*
X155010336Y-106390295D01*
X155010336Y-106390295D02*
X155057956Y-106247438D01*
X155057956Y-106247438D02*
X155105575Y-106199819D01*
X155105575Y-106199819D02*
X155438908Y-106199819D01*
X155438908Y-106199819D02*
X155438908Y-106390295D01*
X155010336Y-105771247D02*
X156010336Y-105771247D01*
X156010336Y-105771247D02*
X155010336Y-105199819D01*
X155010336Y-105199819D02*
X156010336Y-105199819D01*
X155010336Y-104723628D02*
X156010336Y-104723628D01*
X156010336Y-104723628D02*
X156010336Y-104485533D01*
X156010336Y-104485533D02*
X155962717Y-104342676D01*
X155962717Y-104342676D02*
X155867479Y-104247438D01*
X155867479Y-104247438D02*
X155772241Y-104199819D01*
X155772241Y-104199819D02*
X155581765Y-104152200D01*
X155581765Y-104152200D02*
X155438908Y-104152200D01*
X155438908Y-104152200D02*
X155248432Y-104199819D01*
X155248432Y-104199819D02*
X155153194Y-104247438D01*
X155153194Y-104247438D02*
X155057956Y-104342676D01*
X155057956Y-104342676D02*
X155010336Y-104485533D01*
X155010336Y-104485533D02*
X155010336Y-104723628D01*
X147370336Y-106851247D02*
X148370336Y-106851247D01*
X148370336Y-106851247D02*
X147656051Y-106517914D01*
X147656051Y-106517914D02*
X148370336Y-106184581D01*
X148370336Y-106184581D02*
X147370336Y-106184581D01*
X147370336Y-105708390D02*
X148370336Y-105708390D01*
X147417956Y-105279819D02*
X147370336Y-105136962D01*
X147370336Y-105136962D02*
X147370336Y-104898867D01*
X147370336Y-104898867D02*
X147417956Y-104803629D01*
X147417956Y-104803629D02*
X147465575Y-104756010D01*
X147465575Y-104756010D02*
X147560813Y-104708391D01*
X147560813Y-104708391D02*
X147656051Y-104708391D01*
X147656051Y-104708391D02*
X147751289Y-104756010D01*
X147751289Y-104756010D02*
X147798908Y-104803629D01*
X147798908Y-104803629D02*
X147846527Y-104898867D01*
X147846527Y-104898867D02*
X147894146Y-105089343D01*
X147894146Y-105089343D02*
X147941765Y-105184581D01*
X147941765Y-105184581D02*
X147989384Y-105232200D01*
X147989384Y-105232200D02*
X148084622Y-105279819D01*
X148084622Y-105279819D02*
X148179860Y-105279819D01*
X148179860Y-105279819D02*
X148275098Y-105232200D01*
X148275098Y-105232200D02*
X148322717Y-105184581D01*
X148322717Y-105184581D02*
X148370336Y-105089343D01*
X148370336Y-105089343D02*
X148370336Y-104851248D01*
X148370336Y-104851248D02*
X148322717Y-104708391D01*
X148370336Y-104089343D02*
X148370336Y-103898867D01*
X148370336Y-103898867D02*
X148322717Y-103803629D01*
X148322717Y-103803629D02*
X148227479Y-103708391D01*
X148227479Y-103708391D02*
X148037003Y-103660772D01*
X148037003Y-103660772D02*
X147703670Y-103660772D01*
X147703670Y-103660772D02*
X147513194Y-103708391D01*
X147513194Y-103708391D02*
X147417956Y-103803629D01*
X147417956Y-103803629D02*
X147370336Y-103898867D01*
X147370336Y-103898867D02*
X147370336Y-104089343D01*
X147370336Y-104089343D02*
X147417956Y-104184581D01*
X147417956Y-104184581D02*
X147513194Y-104279819D01*
X147513194Y-104279819D02*
X147703670Y-104327438D01*
X147703670Y-104327438D02*
X148037003Y-104327438D01*
X148037003Y-104327438D02*
X148227479Y-104279819D01*
X148227479Y-104279819D02*
X148322717Y-104184581D01*
X148322717Y-104184581D02*
X148370336Y-104089343D01*
X144867956Y-106778866D02*
X144820336Y-106636009D01*
X144820336Y-106636009D02*
X144820336Y-106397914D01*
X144820336Y-106397914D02*
X144867956Y-106302676D01*
X144867956Y-106302676D02*
X144915575Y-106255057D01*
X144915575Y-106255057D02*
X145010813Y-106207438D01*
X145010813Y-106207438D02*
X145106051Y-106207438D01*
X145106051Y-106207438D02*
X145201289Y-106255057D01*
X145201289Y-106255057D02*
X145248908Y-106302676D01*
X145248908Y-106302676D02*
X145296527Y-106397914D01*
X145296527Y-106397914D02*
X145344146Y-106588390D01*
X145344146Y-106588390D02*
X145391765Y-106683628D01*
X145391765Y-106683628D02*
X145439384Y-106731247D01*
X145439384Y-106731247D02*
X145534622Y-106778866D01*
X145534622Y-106778866D02*
X145629860Y-106778866D01*
X145629860Y-106778866D02*
X145725098Y-106731247D01*
X145725098Y-106731247D02*
X145772717Y-106683628D01*
X145772717Y-106683628D02*
X145820336Y-106588390D01*
X145820336Y-106588390D02*
X145820336Y-106350295D01*
X145820336Y-106350295D02*
X145772717Y-106207438D01*
X144915575Y-105207438D02*
X144867956Y-105255057D01*
X144867956Y-105255057D02*
X144820336Y-105397914D01*
X144820336Y-105397914D02*
X144820336Y-105493152D01*
X144820336Y-105493152D02*
X144867956Y-105636009D01*
X144867956Y-105636009D02*
X144963194Y-105731247D01*
X144963194Y-105731247D02*
X145058432Y-105778866D01*
X145058432Y-105778866D02*
X145248908Y-105826485D01*
X145248908Y-105826485D02*
X145391765Y-105826485D01*
X145391765Y-105826485D02*
X145582241Y-105778866D01*
X145582241Y-105778866D02*
X145677479Y-105731247D01*
X145677479Y-105731247D02*
X145772717Y-105636009D01*
X145772717Y-105636009D02*
X145820336Y-105493152D01*
X145820336Y-105493152D02*
X145820336Y-105397914D01*
X145820336Y-105397914D02*
X145772717Y-105255057D01*
X145772717Y-105255057D02*
X145725098Y-105207438D01*
X144820336Y-104778866D02*
X145820336Y-104778866D01*
X144820336Y-104207438D02*
X145391765Y-104636009D01*
X145820336Y-104207438D02*
X145248908Y-104778866D01*
X142870771Y-70759663D02*
X142775533Y-70759663D01*
X142775533Y-70759663D02*
X142680295Y-70807282D01*
X142680295Y-70807282D02*
X142632676Y-70854901D01*
X142632676Y-70854901D02*
X142585057Y-70950139D01*
X142585057Y-70950139D02*
X142537438Y-71140615D01*
X142537438Y-71140615D02*
X142537438Y-71378710D01*
X142537438Y-71378710D02*
X142585057Y-71569186D01*
X142585057Y-71569186D02*
X142632676Y-71664424D01*
X142632676Y-71664424D02*
X142680295Y-71712044D01*
X142680295Y-71712044D02*
X142775533Y-71759663D01*
X142775533Y-71759663D02*
X142870771Y-71759663D01*
X142870771Y-71759663D02*
X142966009Y-71712044D01*
X142966009Y-71712044D02*
X143013628Y-71664424D01*
X143013628Y-71664424D02*
X143061247Y-71569186D01*
X143061247Y-71569186D02*
X143108866Y-71378710D01*
X143108866Y-71378710D02*
X143108866Y-71140615D01*
X143108866Y-71140615D02*
X143061247Y-70950139D01*
X143061247Y-70950139D02*
X143013628Y-70854901D01*
X143013628Y-70854901D02*
X142966009Y-70807282D01*
X142966009Y-70807282D02*
X142870771Y-70759663D01*
X142204104Y-70759663D02*
X141585057Y-70759663D01*
X141585057Y-70759663D02*
X141918390Y-71140615D01*
X141918390Y-71140615D02*
X141775533Y-71140615D01*
X141775533Y-71140615D02*
X141680295Y-71188234D01*
X141680295Y-71188234D02*
X141632676Y-71235853D01*
X141632676Y-71235853D02*
X141585057Y-71331091D01*
X141585057Y-71331091D02*
X141585057Y-71569186D01*
X141585057Y-71569186D02*
X141632676Y-71664424D01*
X141632676Y-71664424D02*
X141680295Y-71712044D01*
X141680295Y-71712044D02*
X141775533Y-71759663D01*
X141775533Y-71759663D02*
X142061247Y-71759663D01*
X142061247Y-71759663D02*
X142156485Y-71712044D01*
X142156485Y-71712044D02*
X142204104Y-71664424D01*
X140442200Y-70712044D02*
X141299342Y-71997758D01*
X140156485Y-70854901D02*
X140108866Y-70807282D01*
X140108866Y-70807282D02*
X140013628Y-70759663D01*
X140013628Y-70759663D02*
X139775533Y-70759663D01*
X139775533Y-70759663D02*
X139680295Y-70807282D01*
X139680295Y-70807282D02*
X139632676Y-70854901D01*
X139632676Y-70854901D02*
X139585057Y-70950139D01*
X139585057Y-70950139D02*
X139585057Y-71045377D01*
X139585057Y-71045377D02*
X139632676Y-71188234D01*
X139632676Y-71188234D02*
X140204104Y-71759663D01*
X140204104Y-71759663D02*
X139585057Y-71759663D01*
X138966009Y-70759663D02*
X138870771Y-70759663D01*
X138870771Y-70759663D02*
X138775533Y-70807282D01*
X138775533Y-70807282D02*
X138727914Y-70854901D01*
X138727914Y-70854901D02*
X138680295Y-70950139D01*
X138680295Y-70950139D02*
X138632676Y-71140615D01*
X138632676Y-71140615D02*
X138632676Y-71378710D01*
X138632676Y-71378710D02*
X138680295Y-71569186D01*
X138680295Y-71569186D02*
X138727914Y-71664424D01*
X138727914Y-71664424D02*
X138775533Y-71712044D01*
X138775533Y-71712044D02*
X138870771Y-71759663D01*
X138870771Y-71759663D02*
X138966009Y-71759663D01*
X138966009Y-71759663D02*
X139061247Y-71712044D01*
X139061247Y-71712044D02*
X139108866Y-71664424D01*
X139108866Y-71664424D02*
X139156485Y-71569186D01*
X139156485Y-71569186D02*
X139204104Y-71378710D01*
X139204104Y-71378710D02*
X139204104Y-71140615D01*
X139204104Y-71140615D02*
X139156485Y-70950139D01*
X139156485Y-70950139D02*
X139108866Y-70854901D01*
X139108866Y-70854901D02*
X139061247Y-70807282D01*
X139061247Y-70807282D02*
X138966009Y-70759663D01*
X138251723Y-70854901D02*
X138204104Y-70807282D01*
X138204104Y-70807282D02*
X138108866Y-70759663D01*
X138108866Y-70759663D02*
X137870771Y-70759663D01*
X137870771Y-70759663D02*
X137775533Y-70807282D01*
X137775533Y-70807282D02*
X137727914Y-70854901D01*
X137727914Y-70854901D02*
X137680295Y-70950139D01*
X137680295Y-70950139D02*
X137680295Y-71045377D01*
X137680295Y-71045377D02*
X137727914Y-71188234D01*
X137727914Y-71188234D02*
X138299342Y-71759663D01*
X138299342Y-71759663D02*
X137680295Y-71759663D01*
X136823152Y-71092996D02*
X136823152Y-71759663D01*
X137061247Y-70712044D02*
X137299342Y-71426329D01*
X137299342Y-71426329D02*
X136680295Y-71426329D01*
X152380336Y-106691247D02*
X153380336Y-106691247D01*
X152380336Y-105643629D02*
X152856527Y-105976962D01*
X152380336Y-106215057D02*
X153380336Y-106215057D01*
X153380336Y-106215057D02*
X153380336Y-105834105D01*
X153380336Y-105834105D02*
X153332717Y-105738867D01*
X153332717Y-105738867D02*
X153285098Y-105691248D01*
X153285098Y-105691248D02*
X153189860Y-105643629D01*
X153189860Y-105643629D02*
X153047003Y-105643629D01*
X153047003Y-105643629D02*
X152951765Y-105691248D01*
X152951765Y-105691248D02*
X152904146Y-105738867D01*
X152904146Y-105738867D02*
X152856527Y-105834105D01*
X152856527Y-105834105D02*
X152856527Y-106215057D01*
X152285098Y-104548391D02*
X152332717Y-104643629D01*
X152332717Y-104643629D02*
X152427956Y-104738867D01*
X152427956Y-104738867D02*
X152570813Y-104881724D01*
X152570813Y-104881724D02*
X152618432Y-104976962D01*
X152618432Y-104976962D02*
X152618432Y-105072200D01*
X152380336Y-105024581D02*
X152427956Y-105119819D01*
X152427956Y-105119819D02*
X152523194Y-105215057D01*
X152523194Y-105215057D02*
X152713670Y-105262676D01*
X152713670Y-105262676D02*
X153047003Y-105262676D01*
X153047003Y-105262676D02*
X153237479Y-105215057D01*
X153237479Y-105215057D02*
X153332717Y-105119819D01*
X153332717Y-105119819D02*
X153380336Y-105024581D01*
X153380336Y-105024581D02*
X153380336Y-104834105D01*
X153380336Y-104834105D02*
X153332717Y-104738867D01*
X153332717Y-104738867D02*
X153237479Y-104643629D01*
X153237479Y-104643629D02*
X153047003Y-104596010D01*
X153047003Y-104596010D02*
X152713670Y-104596010D01*
X152713670Y-104596010D02*
X152523194Y-104643629D01*
X152523194Y-104643629D02*
X152427956Y-104738867D01*
X152427956Y-104738867D02*
X152380336Y-104834105D01*
X152380336Y-104834105D02*
X152380336Y-105024581D01*
%LPC*%
D11*
X124080000Y-58640000D03*
X156120000Y-58640000D03*
D12*
X128530000Y-103060000D03*
D13*
X131070000Y-103060000D03*
D11*
X124060000Y-88020000D03*
D12*
X137670000Y-108010000D03*
D13*
X140210000Y-108010000D03*
X142750000Y-108010000D03*
X145290000Y-108010000D03*
X147830000Y-108010000D03*
X150370000Y-108010000D03*
X152910000Y-108010000D03*
X155450000Y-108010000D03*
D11*
X156110000Y-88020000D03*
%LPD*%
M02*
