M48
; DRILL file {KiCad 7.0.9} date Thu Apr 25 16:45:46 2024
; FORMAT={-:-/ absolute / metric / decimal}
; #@! TF.CreationDate,2024-04-25T16:45:46+02:00
; #@! TF.GenerationSoftware,Kicad,Pcbnew,7.0.9
; #@! TF.FileFunction,Plated,1,2,PTH
FMAT,2
METRIC
; #@! TA.AperFunction,Plated,PTH,ViaDrill
T1C0.100
; #@! TA.AperFunction,Plated,PTH,ViaDrill
T2C0.200
; #@! TA.AperFunction,Plated,PTH,ComponentDrill
T3C1.000
%
G90
G05
T1
X121.12Y-102.24
X121.12Y-102.85
X121.12Y-103.42
X121.12Y-104.03
X121.12Y-107.16
X121.12Y-107.77
X121.12Y-108.34
X121.12Y-108.95
X121.13Y-99.75
X121.13Y-100.36
X121.13Y-100.93
X121.13Y-101.54
X121.13Y-104.67
X121.13Y-105.28
X121.13Y-105.85
X121.13Y-106.46
X121.16Y-92.26
X121.16Y-92.87
X121.16Y-93.44
X121.16Y-94.05
X121.16Y-97.18
X121.16Y-97.79
X121.16Y-98.36
X121.16Y-98.97
X121.17Y-91.56
X121.17Y-94.69
X121.17Y-95.3
X121.17Y-95.87
X121.17Y-96.48
X121.69Y-109.15
X121.81Y-91.24
X122.26Y-109.15
X122.42Y-91.24
X122.87Y-109.15
X122.99Y-91.24
X123.41Y-109.15
X123.6Y-91.24
X123.98Y-109.15
X124.3Y-91.25
X124.68Y-109.18
X124.91Y-91.25
X124.91Y-106.41
X124.91Y-106.98
X124.91Y-107.59
X124.91Y-108.13
X124.91Y-108.7
X125.19Y-97.64
X125.19Y-98.21
X125.19Y-98.82
X125.19Y-99.36
X125.19Y-99.93
X125.25Y-109.18
X125.48Y-91.25
X125.67Y-100.35
X125.74Y-97.18
X125.76Y-106.2
X125.86Y-109.18
X126.09Y-91.25
X126.13Y-100.79
X126.4Y-109.18
X126.44Y-93.84
X126.46Y-94.7
X126.54Y-105.87
X126.61Y-96.46
X126.61Y-101.21
X126.67Y-92.87
X126.67Y-97.16
X126.7Y-105.3
X126.73Y-91.24
X126.97Y-109.18
X127.05Y-102.38
X127.05Y-102.95
X127.05Y-103.56
X127.05Y-104.1
X127.05Y-104.67
X127.1Y-101.69
X127.34Y-91.24
X127.52Y-92.5
X127.7Y-104.64
X127.74Y-109.16
X127.91Y-91.24
X128.25Y-105.32
X128.31Y-109.16
X128.33Y-92.55
X128.52Y-91.24
X128.57Y-104.79
X128.8Y-105.57
X128.92Y-109.16
X128.97Y-92.08
X129.22Y-91.25
X129.46Y-109.16
X129.58Y-104.84
X129.83Y-91.25
X129.94Y-105.57
X130.03Y-109.16
X130.4Y-91.25
X130.49Y-104.78
X130.67Y-109.18
X130.87Y-105.57
X131.01Y-91.25
X131.29Y-109.18
X131.37Y-104.79
X131.67Y-91.24
X131.82Y-109.18
X131.87Y-105.55
X132.28Y-91.24
X132.3Y-104.77
X132.8Y-104.28
X132.82Y-105.55
X132.83Y-103.54
X132.85Y-91.24
X132.86Y-102.82
X132.89Y-101.35
X132.95Y-102.06
X133.21Y-96.99
X133.53Y-96.28
X133.54Y-91.24
X133.6Y-101.25
X133.84Y-105.54
X133.98Y-97.19
X134.25Y-100.77
X134.33Y-104.37
X134.35Y-103.27
X134.45Y-102.2
X134.59Y-100.24
X134.65Y-105.36
X134.89Y-97.33
X134.95Y-96.48
X134.95Y-98.24
X134.96Y-99.05
X135.078Y-95.174
X135.12Y-99.77
X135.45Y-101.79
X135.62Y-95.89
X136.1Y-95.14
X136.1Y-99.92
X136.34Y-101.68
X136.54Y-95.87
X136.91Y-99.94
X136.98Y-95.11
X137.0Y-100.65
X137.45Y-95.93
X139.41Y-91.29
X140.02Y-91.29
X140.68Y-91.28
X141.29Y-91.28
X141.86Y-91.28
X142.47Y-91.28
X143.17Y-91.29
X143.78Y-91.29
X144.35Y-91.29
X144.96Y-91.29
X145.6Y-91.28
X146.21Y-91.28
X146.82Y-91.28
X147.2Y-91.9
X147.39Y-91.28
X147.701Y-92.222
X148.0Y-91.28
X148.44Y-92.23
X148.7Y-91.29
X149.28Y-92.22
X149.31Y-91.29
X149.88Y-91.29
X149.88Y-91.89
X150.46Y-100.3
X150.47Y-98.68
X150.48Y-99.51
X150.49Y-91.29
X150.53Y-100.96
X150.57Y-101.75
X150.69Y-91.81
X151.07Y-98.11
X151.07Y-105.06
X151.124Y-102.01
X151.13Y-91.28
X151.364Y-91.97
X151.46Y-104.22
X151.46Y-105.45
X151.74Y-91.28
X151.89Y-97.65
X151.918Y-102.412
X151.93Y-105.83
X152.06Y-103.74
X152.17Y-91.82
X152.22Y-103.02
X152.31Y-91.28
X152.59Y-106.27
X152.66Y-97.67
X152.87Y-91.87
X152.92Y-91.28
X153.28Y-106.32
X153.42Y-92.19
X153.45Y-97.64
X153.54Y-92.73
X153.61Y-93.26
X153.62Y-91.29
X153.96Y-106.44
X154.23Y-91.29
X154.37Y-97.58
X154.39Y-93.37
X154.64Y-106.42
X154.8Y-91.29
X154.96Y-93.78
X155.05Y-97.22
X155.13Y-94.45
X155.13Y-95.29
X155.21Y-96.26
X155.34Y-106.24
X155.41Y-91.29
X155.95Y-106.24
X156.07Y-91.28
X156.49Y-106.24
X156.68Y-91.28
X157.06Y-106.24
X157.25Y-91.28
X157.29Y-108.8
X157.34Y-108.13
X157.37Y-107.32
X157.41Y-106.75
X157.82Y-109.15
X157.94Y-91.28
X158.39Y-109.15
X158.55Y-91.28
X159.08Y-102.23
X159.08Y-102.84
X159.08Y-103.41
X159.08Y-104.02
X159.08Y-107.15
X159.08Y-107.76
X159.08Y-108.33
X159.08Y-108.94
X159.09Y-99.74
X159.09Y-100.35
X159.09Y-100.92
X159.09Y-101.53
X159.09Y-104.66
X159.09Y-105.27
X159.09Y-105.84
X159.09Y-106.45
X159.12Y-92.25
X159.12Y-92.86
X159.12Y-93.43
X159.12Y-94.04
X159.12Y-97.17
X159.12Y-97.78
X159.12Y-98.35
X159.12Y-98.96
X159.13Y-91.55
X159.13Y-94.68
X159.13Y-95.29
X159.13Y-95.86
X159.13Y-96.47
T2
X125.87Y-95.56
X127.55Y-105.99
X129.28Y-96.77
X130.85Y-96.74
X134.252Y-95.602
X136.87Y-101.3
X137.99Y-95.23
X138.4Y-85.18
X140.01Y-58.55
X140.73Y-85.158
X141.5Y-97.57
X141.83Y-60.0
X141.91Y-104.76
X142.62Y-93.28
X150.7Y-104.48
X151.16Y-103.18
T3
X128.53Y-103.06
X131.07Y-103.06
X137.67Y-108.0
X140.21Y-108.0
X142.75Y-108.0
X145.29Y-108.0
X147.83Y-108.0
X150.37Y-108.0
X152.91Y-108.0
X155.45Y-108.0
T0
M30
