G04 #@! TF.GenerationSoftware,KiCad,Pcbnew,7.0.9*
G04 #@! TF.CreationDate,2024-04-25T16:45:35+02:00*
G04 #@! TF.ProjectId,NFC_Programmer,4e46435f-5072-46f6-9772-616d6d65722e,3.0*
G04 #@! TF.SameCoordinates,Original*
G04 #@! TF.FileFunction,Copper,L1,Top*
G04 #@! TF.FilePolarity,Positive*
%FSLAX46Y46*%
G04 Gerber Fmt 4.6, Leading zero omitted, Abs format (unit mm)*
G04 Created by KiCad (PCBNEW 7.0.9) date 2024-04-25 16:45:35*
%MOMM*%
%LPD*%
G01*
G04 APERTURE LIST*
G04 Aperture macros list*
%AMRoundRect*
0 Rectangle with rounded corners*
0 $1 Rounding radius*
0 $2 $3 $4 $5 $6 $7 $8 $9 X,Y pos of 4 corners*
0 Add a 4 corners polygon primitive as box body*
4,1,4,$2,$3,$4,$5,$6,$7,$8,$9,$2,$3,0*
0 Add four circle primitives for the rounded corners*
1,1,$1+$1,$2,$3*
1,1,$1+$1,$4,$5*
1,1,$1+$1,$6,$7*
1,1,$1+$1,$8,$9*
0 Add four rect primitives between the rounded corners*
20,1,$1+$1,$2,$3,$4,$5,0*
20,1,$1+$1,$4,$5,$6,$7,0*
20,1,$1+$1,$6,$7,$8,$9,0*
20,1,$1+$1,$8,$9,$2,$3,0*%
G04 Aperture macros list end*
G04 #@! TA.AperFunction,ComponentPad*
%ADD10R,1.700000X1.700000*%
G04 #@! TD*
G04 #@! TA.AperFunction,ComponentPad*
%ADD11O,1.700000X1.700000*%
G04 #@! TD*
G04 #@! TA.AperFunction,SMDPad,CuDef*
%ADD12RoundRect,0.237500X-0.237500X0.250000X-0.237500X-0.250000X0.237500X-0.250000X0.237500X0.250000X0*%
G04 #@! TD*
G04 #@! TA.AperFunction,SMDPad,CuDef*
%ADD13RoundRect,0.237500X0.300000X0.237500X-0.300000X0.237500X-0.300000X-0.237500X0.300000X-0.237500X0*%
G04 #@! TD*
G04 #@! TA.AperFunction,SMDPad,CuDef*
%ADD14RoundRect,0.237500X0.237500X-0.250000X0.237500X0.250000X-0.237500X0.250000X-0.237500X-0.250000X0*%
G04 #@! TD*
G04 #@! TA.AperFunction,SMDPad,CuDef*
%ADD15R,1.000000X1.500000*%
G04 #@! TD*
G04 #@! TA.AperFunction,SMDPad,CuDef*
%ADD16R,1.000000X1.000000*%
G04 #@! TD*
G04 #@! TA.AperFunction,SMDPad,CuDef*
%ADD17RoundRect,0.237500X0.237500X-0.287500X0.237500X0.287500X-0.237500X0.287500X-0.237500X-0.287500X0*%
G04 #@! TD*
G04 #@! TA.AperFunction,SMDPad,CuDef*
%ADD18R,0.900000X0.800000*%
G04 #@! TD*
G04 #@! TA.AperFunction,SMDPad,CuDef*
%ADD19RoundRect,0.237500X0.237500X-0.300000X0.237500X0.300000X-0.237500X0.300000X-0.237500X-0.300000X0*%
G04 #@! TD*
G04 #@! TA.AperFunction,SMDPad,CuDef*
%ADD20RoundRect,0.237500X-0.237500X0.300000X-0.237500X-0.300000X0.237500X-0.300000X0.237500X0.300000X0*%
G04 #@! TD*
G04 #@! TA.AperFunction,SMDPad,CuDef*
%ADD21R,0.850000X0.300000*%
G04 #@! TD*
G04 #@! TA.AperFunction,SMDPad,CuDef*
%ADD22R,0.300000X0.850000*%
G04 #@! TD*
G04 #@! TA.AperFunction,SMDPad,CuDef*
%ADD23R,3.250000X3.250000*%
G04 #@! TD*
G04 #@! TA.AperFunction,SMDPad,CuDef*
%ADD24RoundRect,0.237500X-0.300000X-0.237500X0.300000X-0.237500X0.300000X0.237500X-0.300000X0.237500X0*%
G04 #@! TD*
G04 #@! TA.AperFunction,SMDPad,CuDef*
%ADD25RoundRect,0.237500X-0.250000X-0.237500X0.250000X-0.237500X0.250000X0.237500X-0.250000X0.237500X0*%
G04 #@! TD*
G04 #@! TA.AperFunction,SMDPad,CuDef*
%ADD26RoundRect,0.237500X-0.287500X-0.237500X0.287500X-0.237500X0.287500X0.237500X-0.287500X0.237500X0*%
G04 #@! TD*
G04 #@! TA.AperFunction,SMDPad,CuDef*
%ADD27RoundRect,0.237500X0.250000X0.237500X-0.250000X0.237500X-0.250000X-0.237500X0.250000X-0.237500X0*%
G04 #@! TD*
G04 #@! TA.AperFunction,ViaPad*
%ADD28C,0.360000*%
G04 #@! TD*
G04 #@! TA.AperFunction,ViaPad*
%ADD29C,0.500000*%
G04 #@! TD*
G04 #@! TA.AperFunction,Conductor*
%ADD30C,0.100000*%
G04 #@! TD*
G04 #@! TA.AperFunction,Conductor*
%ADD31C,0.250000*%
G04 #@! TD*
G04 APERTURE END LIST*
G04 #@! TA.AperFunction,EtchedComponent*
G36*
X132035000Y-99000000D02*
G01*
X131535000Y-99000000D01*
X131535000Y-98400000D01*
X132035000Y-98400000D01*
X132035000Y-99000000D01*
G37*
G04 #@! TD.AperFunction*
G04 #@! TA.AperFunction,EtchedComponent*
G36*
X128675000Y-98990000D02*
G01*
X128175000Y-98990000D01*
X128175000Y-98390000D01*
X128675000Y-98390000D01*
X128675000Y-98990000D01*
G37*
G04 #@! TD.AperFunction*
G04 #@! TA.AperFunction,EtchedComponent*
G36*
X133910000Y-107970000D02*
G01*
X133410000Y-107970000D01*
X133410000Y-107370000D01*
X133910000Y-107370000D01*
X133910000Y-107970000D01*
G37*
G04 #@! TD.AperFunction*
G04 #@! TA.AperFunction,EtchedComponent*
G36*
X127070000Y-107970000D02*
G01*
X126570000Y-107970000D01*
X126570000Y-107370000D01*
X127070000Y-107370000D01*
X127070000Y-107970000D01*
G37*
G04 #@! TD.AperFunction*
D10*
X128530000Y-103060000D03*
D11*
X131070000Y-103060000D03*
X155450000Y-108000000D03*
X152910000Y-108000000D03*
X150370000Y-108000000D03*
X147830000Y-108000000D03*
X145290000Y-108000000D03*
X142750000Y-108000000D03*
X140210000Y-108000000D03*
D10*
X137670000Y-108000000D03*
D12*
X150813750Y-94545000D03*
X150813750Y-96370000D03*
D13*
X147696750Y-96380000D03*
X145971750Y-96380000D03*
D14*
X145994250Y-94742500D03*
X145994250Y-92917500D03*
D15*
X131135000Y-98700000D03*
X132435000Y-98700000D03*
X133735000Y-98700000D03*
D16*
X139270000Y-103140000D03*
D13*
X137886750Y-97110000D03*
X136161750Y-97110000D03*
D17*
X140994250Y-96385000D03*
X140994250Y-94635000D03*
D13*
X136462500Y-93970000D03*
X134737500Y-93970000D03*
D18*
X139571750Y-100230000D03*
X138171750Y-100230000D03*
X138171750Y-101330000D03*
X139571750Y-101330000D03*
D19*
X139504250Y-98602500D03*
X139504250Y-96877500D03*
D20*
X139464250Y-93467500D03*
X139464250Y-95192500D03*
D21*
X145914250Y-102820000D03*
X145914250Y-102320000D03*
X145914250Y-101820000D03*
X145914250Y-101320000D03*
X145914250Y-100820000D03*
X145914250Y-100320000D03*
X145914250Y-99820000D03*
X145914250Y-99320000D03*
D22*
X145214250Y-98620000D03*
X144714250Y-98620000D03*
X144214250Y-98620000D03*
X143714250Y-98620000D03*
X143214250Y-98620000D03*
X142714250Y-98620000D03*
X142214250Y-98620000D03*
X141714250Y-98620000D03*
D21*
X141014250Y-99320000D03*
X141014250Y-99820000D03*
X141014250Y-100320000D03*
X141014250Y-100820000D03*
X141014250Y-101320000D03*
X141014250Y-101820000D03*
X141014250Y-102320000D03*
X141014250Y-102820000D03*
D22*
X141714250Y-103520000D03*
X142214250Y-103520000D03*
X142714250Y-103520000D03*
X143214250Y-103520000D03*
X143714250Y-103520000D03*
X144214250Y-103520000D03*
X144714250Y-103520000D03*
X145214250Y-103520000D03*
D23*
X143464250Y-101070000D03*
D12*
X130835000Y-93800000D03*
X130835000Y-95625000D03*
D19*
X152344250Y-96320000D03*
X152344250Y-94595000D03*
D13*
X136462500Y-92400000D03*
X134737500Y-92400000D03*
D24*
X147445000Y-98700000D03*
X149170000Y-98700000D03*
X147445000Y-100220000D03*
X149170000Y-100220000D03*
D14*
X149283250Y-96370000D03*
X149283250Y-94545000D03*
D20*
X153904250Y-94587500D03*
X153904250Y-96312500D03*
D24*
X147445000Y-101740000D03*
X149170000Y-101740000D03*
D12*
X129285000Y-93800000D03*
X129285000Y-95625000D03*
D25*
X150522500Y-92990000D03*
X152347500Y-92990000D03*
D20*
X132385000Y-93850000D03*
X132385000Y-95575000D03*
D19*
X127725000Y-95575000D03*
X127725000Y-93850000D03*
D13*
X137405000Y-102870000D03*
X135680000Y-102870000D03*
D26*
X142544250Y-96400000D03*
X144294250Y-96400000D03*
D27*
X137452500Y-104400000D03*
X135627500Y-104400000D03*
D15*
X129075000Y-98690000D03*
X127775000Y-98690000D03*
X126475000Y-98690000D03*
X134310000Y-107670000D03*
X133010000Y-107670000D03*
X131710000Y-107670000D03*
X126170000Y-107670000D03*
X127470000Y-107670000D03*
X128770000Y-107670000D03*
D24*
X142609250Y-94790000D03*
X144334250Y-94790000D03*
D13*
X137926750Y-98680000D03*
X136201750Y-98680000D03*
D16*
X139270000Y-105200000D03*
D24*
X147445000Y-103260000D03*
X149170000Y-103260000D03*
D28*
X157290000Y-108800000D03*
X157410000Y-106750000D03*
X157370000Y-107320000D03*
X157340000Y-108130000D03*
X156490000Y-106240000D03*
X157060000Y-106240000D03*
X155340000Y-106240000D03*
X155950000Y-106240000D03*
X132950000Y-102060000D03*
X132860000Y-102820000D03*
X132830000Y-103540000D03*
X132800000Y-104280000D03*
X132300000Y-104770000D03*
X131370000Y-104790000D03*
X130490000Y-104780000D03*
X129580000Y-104840000D03*
X128570000Y-104790000D03*
X154640000Y-106420000D03*
X151930000Y-105830000D03*
X153960000Y-106440000D03*
X151460000Y-105450000D03*
X153280000Y-106320000D03*
X152590000Y-106270000D03*
X159130000Y-95860000D03*
X157940000Y-91280000D03*
X131870000Y-105550000D03*
X124300000Y-91250000D03*
X125190000Y-98820000D03*
X127340000Y-91240000D03*
X157250000Y-91280000D03*
X129940000Y-105570000D03*
X135120000Y-99770000D03*
X121160000Y-98970000D03*
X122870000Y-109150000D03*
D29*
X134251582Y-95601582D03*
D28*
X126460000Y-94700000D03*
X144350000Y-91290000D03*
X159080000Y-104020000D03*
X155130000Y-94450000D03*
X129220000Y-91250000D03*
X125190000Y-98210000D03*
X130030000Y-109160000D03*
X134590000Y-100240000D03*
X148440000Y-92230000D03*
X150480000Y-99510000D03*
X154370000Y-97580000D03*
X123600000Y-91240000D03*
X133980000Y-97190000D03*
X159130000Y-96470000D03*
X121160000Y-92260000D03*
X152660000Y-97670000D03*
X134450000Y-102200000D03*
X154960000Y-93780000D03*
X125860000Y-109180000D03*
X121170000Y-91560000D03*
X141860000Y-91280000D03*
X121120000Y-108950000D03*
X148700000Y-91290000D03*
X158550000Y-91280000D03*
X125740000Y-97180000D03*
X121130000Y-106460000D03*
X137450000Y-95930000D03*
X159120000Y-92860000D03*
X127700000Y-104640000D03*
X143780000Y-91290000D03*
X124910000Y-108130000D03*
X148000000Y-91280000D03*
X121160000Y-92870000D03*
X151917606Y-102411550D03*
X152920000Y-91280000D03*
X147701096Y-92221952D03*
X149280000Y-92220000D03*
X159090000Y-99740000D03*
X139410000Y-91290000D03*
X159090000Y-101530000D03*
X132820000Y-105550000D03*
X131290000Y-109180000D03*
X133600000Y-101250000D03*
X151890000Y-97650000D03*
X159130000Y-95290000D03*
X130870000Y-105570000D03*
X134350000Y-103270000D03*
X125250000Y-109180000D03*
X127520000Y-92500000D03*
X127740000Y-109160000D03*
X159120000Y-98960000D03*
X126610000Y-96460000D03*
X134330000Y-104370000D03*
X158390000Y-109150000D03*
X121130000Y-104670000D03*
X134650000Y-105360000D03*
X152310000Y-91280000D03*
X126670000Y-92870000D03*
X126440000Y-93840000D03*
X140680000Y-91280000D03*
X156070000Y-91280000D03*
X136910000Y-99940000D03*
X150460000Y-100300000D03*
X140020000Y-91290000D03*
X153450000Y-97640000D03*
X134950000Y-98240000D03*
X151364342Y-91970000D03*
X135077887Y-95174346D03*
X155410000Y-91290000D03*
X159080000Y-107150000D03*
X123410000Y-109150000D03*
X159090000Y-105270000D03*
X136980000Y-95110000D03*
X128330000Y-92550000D03*
X150470000Y-98680000D03*
X121160000Y-94050000D03*
X121810000Y-91240000D03*
D29*
X142620000Y-93280000D03*
D28*
X131010000Y-91250000D03*
X121690000Y-109150000D03*
X149880000Y-91290000D03*
X125480000Y-91250000D03*
X128310000Y-109160000D03*
X127050000Y-102380000D03*
X127910000Y-91240000D03*
X131820000Y-109180000D03*
X151460000Y-104220000D03*
X124910000Y-107590000D03*
X150530000Y-100960000D03*
X134950000Y-96480000D03*
X136540000Y-95870000D03*
X153540000Y-92730000D03*
X121130000Y-105850000D03*
X155130000Y-95290000D03*
X126400000Y-109180000D03*
X125760000Y-106200000D03*
X159080000Y-107760000D03*
X124910000Y-106980000D03*
X127050000Y-104100000D03*
X124910000Y-106410000D03*
X133540000Y-91240000D03*
X159090000Y-104660000D03*
X152060000Y-103740000D03*
X128800000Y-105570000D03*
X121120000Y-107160000D03*
X121120000Y-108340000D03*
X135620000Y-95890000D03*
X132850000Y-91240000D03*
X159130000Y-94680000D03*
X127050000Y-102950000D03*
X121130000Y-100360000D03*
X152220000Y-103020000D03*
X121120000Y-102240000D03*
X121160000Y-93440000D03*
X126970000Y-109180000D03*
X151740000Y-91280000D03*
X125190000Y-99360000D03*
X121130000Y-101540000D03*
X159120000Y-93430000D03*
X159090000Y-100920000D03*
X126670000Y-97160000D03*
X128970000Y-92080000D03*
D29*
X150700000Y-104480000D03*
D28*
X159080000Y-108330000D03*
X129460000Y-109160000D03*
X122420000Y-91240000D03*
X159120000Y-97780000D03*
X126540000Y-105870000D03*
X121160000Y-98360000D03*
X133530000Y-96280000D03*
X159090000Y-106450000D03*
X121130000Y-105280000D03*
X121120000Y-104030000D03*
X146820000Y-91280000D03*
X159130000Y-91550000D03*
X132280000Y-91240000D03*
X136340000Y-101680000D03*
X130400000Y-91250000D03*
X128520000Y-91240000D03*
X125670000Y-100350000D03*
X159080000Y-108940000D03*
X159120000Y-97170000D03*
X133210000Y-96990000D03*
X142470000Y-91280000D03*
X154800000Y-91290000D03*
X147200000Y-91900000D03*
X122990000Y-91240000D03*
X125190000Y-99930000D03*
X145600000Y-91280000D03*
X128920000Y-109160000D03*
X151070000Y-98110000D03*
X149310000Y-91290000D03*
X121130000Y-99750000D03*
X124910000Y-91250000D03*
X152170000Y-91820000D03*
X157820000Y-109150000D03*
X154230000Y-91290000D03*
X151130000Y-91280000D03*
X159090000Y-105840000D03*
X129830000Y-91250000D03*
X146210000Y-91280000D03*
X123980000Y-109150000D03*
X137000000Y-100650000D03*
X134960000Y-99050000D03*
D29*
X136870000Y-101300000D03*
D28*
X159090000Y-100350000D03*
X131670000Y-91240000D03*
X127100000Y-101690000D03*
X136100000Y-95140000D03*
X122260000Y-109150000D03*
X127050000Y-103560000D03*
X126090000Y-91250000D03*
X159120000Y-98350000D03*
X147390000Y-91280000D03*
X121170000Y-95300000D03*
X126130000Y-100790000D03*
X134890000Y-97330000D03*
X136100000Y-99920000D03*
X121160000Y-97180000D03*
X130670000Y-109180000D03*
X126610000Y-101210000D03*
X121120000Y-107770000D03*
X121170000Y-95870000D03*
X149880000Y-91890000D03*
X144960000Y-91290000D03*
X121120000Y-102850000D03*
X151124464Y-102010199D03*
X159080000Y-102230000D03*
X121120000Y-103420000D03*
X143170000Y-91290000D03*
X124910000Y-108700000D03*
X159120000Y-94040000D03*
X134250000Y-100770000D03*
X121130000Y-100930000D03*
X153420000Y-92190000D03*
X155210000Y-96260000D03*
D29*
X137990000Y-95230000D03*
D28*
X121170000Y-96480000D03*
X150570000Y-101750000D03*
X156680000Y-91280000D03*
X125190000Y-97640000D03*
X135450000Y-101790000D03*
X126700000Y-105300000D03*
X159080000Y-102840000D03*
X154390000Y-93370000D03*
X153620000Y-91290000D03*
X159120000Y-92250000D03*
X151070000Y-105060000D03*
D29*
X125870000Y-95560000D03*
D28*
X121160000Y-97790000D03*
X121170000Y-94690000D03*
D29*
X141500000Y-97570000D03*
D28*
X127050000Y-104670000D03*
X155050000Y-97220000D03*
X128250000Y-105320000D03*
X124680000Y-109180000D03*
X159080000Y-103410000D03*
X141290000Y-91280000D03*
X153610000Y-93260000D03*
X133840000Y-105540000D03*
X132890000Y-101350000D03*
X152870000Y-91870000D03*
X150690000Y-91810000D03*
X150490000Y-91290000D03*
X126730000Y-91240000D03*
D29*
X151160000Y-103180000D03*
X127550000Y-105990000D03*
X141910000Y-104760000D03*
X141830000Y-60000000D03*
X140730000Y-85158500D03*
X140010000Y-58550000D03*
X138400000Y-85180000D03*
X130850000Y-96740000D03*
X129280000Y-96770000D03*
D30*
X129060000Y-106280000D02*
X136950000Y-106280000D01*
X136950000Y-106280000D02*
X137670000Y-107000000D01*
X128770000Y-106570000D02*
X129060000Y-106280000D01*
X128770000Y-107670000D02*
X128770000Y-106570000D01*
X137670000Y-107000000D02*
X137670000Y-108000000D01*
X141237000Y-103633000D02*
X141237000Y-108573000D01*
X141237000Y-108573000D02*
X140730000Y-109080000D01*
X140730000Y-109080000D02*
X138750000Y-109080000D01*
X141350000Y-103520000D02*
X141237000Y-103633000D01*
X141714250Y-103520000D02*
X141350000Y-103520000D01*
X138750000Y-109080000D02*
X137670000Y-108000000D01*
X133340000Y-100430000D02*
X131850000Y-100430000D01*
X131850000Y-100430000D02*
X131070000Y-101210000D01*
X131070000Y-101210000D02*
X131070000Y-103060000D01*
X131070000Y-103060000D02*
X130530000Y-103060000D01*
X133735000Y-100035000D02*
X133340000Y-100430000D01*
X133735000Y-98700000D02*
X133735000Y-100035000D01*
X150230000Y-105320000D02*
X152910000Y-108000000D01*
X145590000Y-103520000D02*
X147390000Y-105320000D01*
X147390000Y-105320000D02*
X150230000Y-105320000D01*
X145214250Y-103520000D02*
X145590000Y-103520000D01*
X149343000Y-106973000D02*
X150370000Y-108000000D01*
X147642250Y-106973000D02*
X149343000Y-106973000D01*
X144714250Y-104045000D02*
X147642250Y-106973000D01*
X144714250Y-103520000D02*
X144714250Y-104045000D01*
X144214250Y-103520000D02*
X144214250Y-104384250D01*
X144214250Y-104384250D02*
X147830000Y-108000000D01*
X143714250Y-106424250D02*
X145290000Y-108000000D01*
X143714250Y-103520000D02*
X143714250Y-106424250D01*
X143214250Y-104795750D02*
X143214250Y-103520000D01*
X142750000Y-105260000D02*
X143214250Y-104795750D01*
X142750000Y-108000000D02*
X142750000Y-105260000D01*
X139930000Y-106400000D02*
X140210000Y-106680000D01*
X137970000Y-106400000D02*
X139930000Y-106400000D01*
X137452500Y-105882500D02*
X137970000Y-106400000D01*
X137452500Y-104400000D02*
X137452500Y-105882500D01*
X140210000Y-106680000D02*
X140210000Y-108000000D01*
X142714250Y-104565750D02*
X142714250Y-103520000D01*
X141700000Y-105580000D02*
X142714250Y-104565750D01*
X133315000Y-109385000D02*
X141425000Y-109385000D01*
X141425000Y-109385000D02*
X141700000Y-109110000D01*
X133010000Y-109080000D02*
X133315000Y-109385000D01*
X141700000Y-109110000D02*
X141700000Y-105580000D01*
X133010000Y-107670000D02*
X133010000Y-109080000D01*
X135640000Y-107670000D02*
X134310000Y-107670000D01*
X135970000Y-108000000D02*
X135640000Y-107670000D01*
X137670000Y-108000000D02*
X135970000Y-108000000D01*
X146610000Y-99990750D02*
X146610000Y-103040000D01*
X146439250Y-99820000D02*
X146610000Y-99990750D01*
X146830000Y-103260000D02*
X147445000Y-103260000D01*
X146610000Y-103040000D02*
X146830000Y-103260000D01*
X145914250Y-99820000D02*
X146439250Y-99820000D01*
X138171750Y-101330000D02*
X136900000Y-101330000D01*
X134225000Y-95575000D02*
X134251582Y-95601582D01*
X142609250Y-94790000D02*
X142609250Y-93290750D01*
X138027500Y-95192500D02*
X137990000Y-95230000D01*
X125885000Y-95575000D02*
X125870000Y-95560000D01*
X136900000Y-101330000D02*
X136870000Y-101300000D01*
X139464250Y-95192500D02*
X138027500Y-95192500D01*
X142609250Y-93290750D02*
X142620000Y-93280000D01*
X143464250Y-101070000D02*
X141714250Y-99320000D01*
X149480000Y-103260000D02*
X150700000Y-104480000D01*
X149170000Y-103260000D02*
X149480000Y-103260000D01*
X141714250Y-97784250D02*
X141500000Y-97570000D01*
X132385000Y-95575000D02*
X134225000Y-95575000D01*
X127725000Y-95575000D02*
X125885000Y-95575000D01*
X141714250Y-98620000D02*
X141714250Y-97784250D01*
X141714250Y-99320000D02*
X141714250Y-98620000D01*
X147365000Y-98620000D02*
X147445000Y-98700000D01*
X145214250Y-98620000D02*
X147365000Y-98620000D01*
X139504250Y-98602500D02*
X140056750Y-98602500D01*
X138824250Y-98510000D02*
X138916750Y-98602500D01*
X137886750Y-97732500D02*
X138134250Y-97980000D01*
X140204250Y-98750000D02*
X140204250Y-99700000D01*
X137886750Y-97110000D02*
X137886750Y-97732500D01*
X138134250Y-97980000D02*
X138684250Y-97980000D01*
X138684250Y-97980000D02*
X138824250Y-98120000D01*
X140324250Y-99820000D02*
X141014250Y-99820000D01*
X140204250Y-99700000D02*
X140324250Y-99820000D01*
X138916750Y-98602500D02*
X139504250Y-98602500D01*
X140056750Y-98602500D02*
X140204250Y-98750000D01*
X138824250Y-98120000D02*
X138824250Y-98510000D01*
X140064250Y-101330000D02*
X139571750Y-101330000D01*
X141014250Y-100820000D02*
X140574250Y-100820000D01*
X137405000Y-102365000D02*
X137690000Y-102080000D01*
X138900000Y-101830000D02*
X138900000Y-101430000D01*
X139000000Y-101330000D02*
X139571750Y-101330000D01*
X140574250Y-100820000D02*
X140064250Y-101330000D01*
X138900000Y-101430000D02*
X139000000Y-101330000D01*
X138650000Y-102080000D02*
X138900000Y-101830000D01*
X137690000Y-102080000D02*
X138650000Y-102080000D01*
X137405000Y-102870000D02*
X137405000Y-102365000D01*
X143714250Y-98095000D02*
X144212250Y-97597000D01*
X150813750Y-97140500D02*
X150813750Y-96370000D01*
X150813750Y-96370000D02*
X152294250Y-96370000D01*
X144212250Y-97597000D02*
X150357250Y-97597000D01*
X150357250Y-97597000D02*
X150813750Y-97140500D01*
X143714250Y-98620000D02*
X143714250Y-98095000D01*
X152294250Y-96370000D02*
X152344250Y-96320000D01*
X152347500Y-94591750D02*
X152344250Y-94595000D01*
X152347500Y-92990000D02*
X152347500Y-94591750D01*
X145050000Y-94790000D02*
X144334250Y-94790000D01*
X136462500Y-92400000D02*
X137430000Y-92400000D01*
X144294250Y-94830000D02*
X144334250Y-94790000D01*
X145170000Y-94670000D02*
X145050000Y-94790000D01*
X146410022Y-92253000D02*
X146750000Y-92592978D01*
X145350000Y-94000000D02*
X145170000Y-94180000D01*
X146570000Y-94000000D02*
X145350000Y-94000000D01*
X150522500Y-92990000D02*
X147580000Y-92990000D01*
X144334250Y-94135750D02*
X144334250Y-94790000D01*
X145170000Y-94180000D02*
X145170000Y-94670000D01*
X137577000Y-92253000D02*
X146410022Y-92253000D01*
X146750000Y-93420000D02*
X146550000Y-93620000D01*
X137430000Y-92400000D02*
X137577000Y-92253000D01*
X144294250Y-96400000D02*
X144294250Y-94830000D01*
X146750000Y-92592978D02*
X146750000Y-93420000D01*
X147580000Y-92990000D02*
X146570000Y-94000000D01*
X144850000Y-93620000D02*
X144334250Y-94135750D01*
X146550000Y-93620000D02*
X144850000Y-93620000D01*
X140994250Y-95284250D02*
X140994250Y-94635000D01*
X145076478Y-92917500D02*
X143480000Y-94513978D01*
X140067500Y-93467500D02*
X140270000Y-93670000D01*
X143480000Y-94513978D02*
X143480000Y-95290000D01*
X143280000Y-95490000D02*
X141200000Y-95490000D01*
X139464250Y-93467500D02*
X140067500Y-93467500D01*
X140445000Y-94635000D02*
X140994250Y-94635000D01*
X145994250Y-92917500D02*
X145076478Y-92917500D01*
X143480000Y-95290000D02*
X143280000Y-95490000D01*
X136462500Y-93970000D02*
X138120000Y-93970000D01*
X140270000Y-94460000D02*
X140445000Y-94635000D01*
X140270000Y-93670000D02*
X140270000Y-94460000D01*
X141200000Y-95490000D02*
X140994250Y-95284250D01*
X138120000Y-93970000D02*
X138622500Y-93467500D01*
X138622500Y-93467500D02*
X139464250Y-93467500D01*
X130835000Y-93800000D02*
X132335000Y-93800000D01*
X132505000Y-93970000D02*
X132385000Y-93850000D01*
X134737500Y-93970000D02*
X132505000Y-93970000D01*
X132335000Y-93800000D02*
X132385000Y-93850000D01*
X127725000Y-93850000D02*
X129235000Y-93850000D01*
X129235000Y-93850000D02*
X129285000Y-93800000D01*
X129870000Y-92400000D02*
X129285000Y-92985000D01*
X129285000Y-92985000D02*
X129285000Y-93800000D01*
X134737500Y-92400000D02*
X129870000Y-92400000D01*
X153904250Y-95145750D02*
X153740500Y-95309500D01*
X143757250Y-97052000D02*
X146532250Y-97052000D01*
X150979500Y-95309500D02*
X150813750Y-95143750D01*
X150813750Y-95143750D02*
X150813750Y-94545000D01*
X146532250Y-97052000D02*
X146954250Y-96630000D01*
X153740500Y-95309500D02*
X150979500Y-95309500D01*
X142714250Y-98095000D02*
X143757250Y-97052000D01*
X149283250Y-94545000D02*
X150813750Y-94545000D01*
X148369250Y-94545000D02*
X149283250Y-94545000D01*
X146954250Y-96630000D02*
X146954250Y-95960000D01*
X153904250Y-94587500D02*
X153904250Y-95145750D01*
X146954250Y-95960000D02*
X148369250Y-94545000D01*
X142714250Y-98620000D02*
X142714250Y-98095000D01*
X143939250Y-97370000D02*
X147474250Y-97370000D01*
X143214250Y-98620000D02*
X143214250Y-98095000D01*
X149273250Y-96380000D02*
X149283250Y-96370000D01*
X143214250Y-98095000D02*
X143939250Y-97370000D01*
X147474250Y-97370000D02*
X147696750Y-97147500D01*
X147696750Y-97147500D02*
X147696750Y-96380000D01*
X147696750Y-96380000D02*
X149273250Y-96380000D01*
X145971750Y-94765000D02*
X145994250Y-94742500D01*
X145971750Y-96380000D02*
X145971750Y-94765000D01*
X140994250Y-99300000D02*
X141014250Y-99320000D01*
X140994250Y-96385000D02*
X140994250Y-99300000D01*
X142214250Y-98620000D02*
X142214250Y-97510000D01*
X142544250Y-97180000D02*
X142544250Y-96400000D01*
X142214250Y-97510000D02*
X142544250Y-97180000D01*
X139270000Y-102540000D02*
X139490000Y-102320000D01*
X139270000Y-103140000D02*
X139270000Y-102540000D01*
X139490000Y-102320000D02*
X141014250Y-102320000D01*
X140035750Y-102070000D02*
X140198750Y-101907000D01*
X137452500Y-104400000D02*
X138593000Y-103259500D01*
X138593000Y-102547000D02*
X139070000Y-102070000D01*
X140489250Y-101320000D02*
X141014250Y-101320000D01*
X138593000Y-103259500D02*
X138593000Y-102547000D01*
X140198750Y-101907000D02*
X140198750Y-101610500D01*
X140198750Y-101610500D02*
X140489250Y-101320000D01*
X139070000Y-102070000D02*
X140035750Y-102070000D01*
X145914250Y-99320000D02*
X146439250Y-99320000D01*
X147445000Y-101740000D02*
X147445000Y-102365000D01*
X147380000Y-99510000D02*
X147445000Y-99575000D01*
X151170000Y-103220000D02*
X151170000Y-103190000D01*
X147445000Y-99575000D02*
X147445000Y-100220000D01*
X147688000Y-102608000D02*
X150558000Y-102608000D01*
X147445000Y-102365000D02*
X147688000Y-102608000D01*
X146629250Y-99510000D02*
X147380000Y-99510000D01*
X150558000Y-102608000D02*
X151170000Y-103220000D01*
X147445000Y-100220000D02*
X147445000Y-101740000D01*
X146439250Y-99320000D02*
X146629250Y-99510000D01*
X140354250Y-100320000D02*
X141014249Y-100320000D01*
X137926750Y-98680000D02*
X137926750Y-99262500D01*
X138154250Y-99490000D02*
X139454250Y-99490000D01*
X139584250Y-99620000D02*
X139571750Y-99632500D01*
X137926750Y-99262500D02*
X138154250Y-99490000D01*
X139571750Y-99632500D02*
X139571750Y-100230000D01*
X140244250Y-100230000D02*
X140344250Y-100330000D01*
X139454250Y-99490000D02*
X139584250Y-99620000D01*
X139571750Y-100230000D02*
X140244250Y-100230000D01*
X140344250Y-100330000D02*
X140354250Y-100320000D01*
X127470000Y-106070000D02*
X127470000Y-107670000D01*
X142214250Y-103520000D02*
X142214250Y-104455750D01*
X142214250Y-104455750D02*
X141910000Y-104760000D01*
X127550000Y-105990000D02*
X127470000Y-106070000D01*
D31*
X130110000Y-84750000D02*
X130540000Y-85180000D01*
X149680000Y-59520000D02*
X141520000Y-59520000D01*
X150250000Y-86620000D02*
X151200000Y-85670000D01*
X140890000Y-58560000D02*
X140410000Y-59040000D01*
D30*
X132435000Y-97435000D02*
X132435000Y-98700000D01*
D31*
X149760000Y-60440000D02*
X149320000Y-60000000D01*
D30*
X129285000Y-95625000D02*
X129285000Y-96765000D01*
D31*
X130220000Y-59520000D02*
X129630000Y-60110000D01*
X140740000Y-85180000D02*
X140740000Y-85168500D01*
D30*
X130835000Y-95625000D02*
X130835000Y-96725000D01*
X128715000Y-95625000D02*
X128590000Y-95750000D01*
D31*
X129630000Y-85070000D02*
X130220000Y-85660000D01*
D30*
X130835000Y-95625000D02*
X131375000Y-95625000D01*
X131590000Y-96590000D02*
X132435000Y-97435000D01*
D31*
X129150000Y-85290000D02*
X130000000Y-86140000D01*
X128670000Y-59520000D02*
X128670000Y-85670000D01*
X140740000Y-85180000D02*
X149420000Y-85180000D01*
X129630000Y-60110000D02*
X129630000Y-85070000D01*
X130000000Y-86140000D02*
X150030000Y-86140000D01*
X130540000Y-85180000D02*
X138400000Y-85180000D01*
X130110000Y-60400000D02*
X130110000Y-84750000D01*
D30*
X129285000Y-96765000D02*
X129280000Y-96770000D01*
D31*
X150240000Y-85190000D02*
X150240000Y-60080000D01*
X140670000Y-59520000D02*
X130220000Y-59520000D01*
X150030000Y-86140000D02*
X150720000Y-85450000D01*
D30*
X131375000Y-95625000D02*
X131590000Y-95840000D01*
D31*
X128670000Y-85670000D02*
X129620000Y-86620000D01*
X150030000Y-59040000D02*
X141150000Y-59040000D01*
X140410000Y-59040000D02*
X129880000Y-59040000D01*
D30*
X128590000Y-95750000D02*
X128590000Y-96670000D01*
D31*
X149320000Y-60000000D02*
X141830000Y-60000000D01*
D30*
X129285000Y-95625000D02*
X128715000Y-95625000D01*
D31*
X129150000Y-59770000D02*
X129150000Y-85290000D01*
X149420000Y-85180000D02*
X149760000Y-84840000D01*
X130510000Y-60000000D02*
X130110000Y-60400000D01*
X151200000Y-59520000D02*
X150240000Y-58560000D01*
X129880000Y-59040000D02*
X129150000Y-59770000D01*
X141150000Y-59040000D02*
X140670000Y-59520000D01*
X140740000Y-85168500D02*
X140730000Y-85158500D01*
X140010000Y-58560000D02*
X129630000Y-58560000D01*
X149760000Y-84840000D02*
X149760000Y-60440000D01*
X130220000Y-85660000D02*
X149770000Y-85660000D01*
D30*
X128590000Y-96670000D02*
X127775000Y-97485000D01*
D31*
X149770000Y-85660000D02*
X150240000Y-85190000D01*
X151200000Y-85670000D02*
X151200000Y-59520000D01*
X129630000Y-58560000D02*
X128670000Y-59520000D01*
X140010000Y-58560000D02*
X140010000Y-58550000D01*
D30*
X131590000Y-95840000D02*
X131590000Y-96590000D01*
D31*
X150240000Y-58560000D02*
X140890000Y-58560000D01*
X150240000Y-60080000D02*
X149680000Y-59520000D01*
X141040000Y-60000000D02*
X130510000Y-60000000D01*
X129620000Y-86620000D02*
X150250000Y-86620000D01*
D30*
X127775000Y-97485000D02*
X127775000Y-98690000D01*
D31*
X150720000Y-85450000D02*
X150720000Y-59730000D01*
X141520000Y-59520000D02*
X141040000Y-60000000D01*
X150720000Y-59730000D02*
X150030000Y-59040000D01*
D30*
X130835000Y-96725000D02*
X130850000Y-96740000D01*
X126475000Y-99775000D02*
X128530000Y-101830000D01*
X128530000Y-101830000D02*
X128530000Y-103060000D01*
X126475000Y-98690000D02*
X126475000Y-99775000D01*
X139270000Y-105200000D02*
X139920000Y-105200000D01*
X140440000Y-104680000D02*
X140440000Y-104030000D01*
X140440000Y-104030000D02*
X141014250Y-103455750D01*
X139920000Y-105200000D02*
X140440000Y-104680000D01*
X141014250Y-103455750D02*
X141014250Y-102820000D01*
G04 #@! TA.AperFunction,Conductor*
G36*
X159457539Y-90979685D02*
G01*
X159503294Y-91032489D01*
X159514500Y-91084000D01*
X159514500Y-109310500D01*
X159494815Y-109377539D01*
X159442011Y-109423294D01*
X159390500Y-109434500D01*
X156127404Y-109434500D01*
X156060365Y-109414815D01*
X156014610Y-109362011D01*
X156004666Y-109292853D01*
X156033691Y-109229297D01*
X156075000Y-109198118D01*
X156127575Y-109173601D01*
X156127577Y-109173600D01*
X156321082Y-109038105D01*
X156488105Y-108871082D01*
X156623600Y-108677578D01*
X156723429Y-108463492D01*
X156723432Y-108463486D01*
X156780636Y-108250000D01*
X155883686Y-108250000D01*
X155909493Y-108209844D01*
X155950000Y-108071889D01*
X155950000Y-107928111D01*
X155909493Y-107790156D01*
X155883686Y-107750000D01*
X156780636Y-107750000D01*
X156780635Y-107749999D01*
X156723432Y-107536513D01*
X156723429Y-107536507D01*
X156623600Y-107322422D01*
X156623599Y-107322420D01*
X156488113Y-107128926D01*
X156488108Y-107128920D01*
X156321082Y-106961894D01*
X156127578Y-106826399D01*
X155913492Y-106726570D01*
X155913486Y-106726567D01*
X155700000Y-106669364D01*
X155700000Y-107564498D01*
X155592315Y-107515320D01*
X155485763Y-107500000D01*
X155414237Y-107500000D01*
X155307685Y-107515320D01*
X155200000Y-107564498D01*
X155200000Y-106669364D01*
X155199999Y-106669364D01*
X154986513Y-106726567D01*
X154986507Y-106726570D01*
X154772422Y-106826399D01*
X154772420Y-106826400D01*
X154578926Y-106961886D01*
X154578920Y-106961891D01*
X154411891Y-107128920D01*
X154411890Y-107128922D01*
X154281880Y-107314595D01*
X154227303Y-107358219D01*
X154157804Y-107365412D01*
X154095450Y-107333890D01*
X154078730Y-107314594D01*
X153948494Y-107128597D01*
X153781402Y-106961506D01*
X153781395Y-106961501D01*
X153587834Y-106825967D01*
X153587830Y-106825965D01*
X153373663Y-106726097D01*
X153373659Y-106726096D01*
X153373655Y-106726094D01*
X153145413Y-106664938D01*
X153145403Y-106664936D01*
X152910001Y-106644341D01*
X152909999Y-106644341D01*
X152674596Y-106664936D01*
X152674586Y-106664938D01*
X152490474Y-106714270D01*
X152420624Y-106712607D01*
X152370700Y-106682176D01*
X151516960Y-105828436D01*
X150625907Y-104937382D01*
X150580680Y-104888956D01*
X150568264Y-104881405D01*
X150542861Y-104865957D01*
X150537610Y-104862383D01*
X150502341Y-104835638D01*
X150502342Y-104835638D01*
X150485642Y-104829052D01*
X150466716Y-104819652D01*
X150451380Y-104810327D01*
X150408758Y-104798384D01*
X150402740Y-104796360D01*
X150361565Y-104780124D01*
X150361556Y-104780122D01*
X150343716Y-104778288D01*
X150322951Y-104774342D01*
X150305669Y-104769500D01*
X150305665Y-104769500D01*
X150261406Y-104769500D01*
X150255064Y-104769175D01*
X150227427Y-104766333D01*
X150211029Y-104764648D01*
X150211024Y-104764648D01*
X150193344Y-104767697D01*
X150172276Y-104769500D01*
X147669386Y-104769500D01*
X147602347Y-104749815D01*
X147581705Y-104733181D01*
X147295704Y-104447180D01*
X147262219Y-104385857D01*
X147267203Y-104316165D01*
X147309075Y-104260232D01*
X147374539Y-104235815D01*
X147383368Y-104235499D01*
X147794176Y-104235499D01*
X147794184Y-104235498D01*
X147794187Y-104235498D01*
X147849530Y-104229844D01*
X147895253Y-104225174D01*
X148059016Y-104170908D01*
X148205850Y-104080340D01*
X148220171Y-104066018D01*
X148281489Y-104032533D01*
X148351181Y-104037514D01*
X148395534Y-104066017D01*
X148409461Y-104079944D01*
X148409465Y-104079947D01*
X148556188Y-104170448D01*
X148556199Y-104170453D01*
X148719847Y-104224680D01*
X148820851Y-104234999D01*
X148920000Y-104234998D01*
X148920000Y-103282500D01*
X148939685Y-103215461D01*
X148992489Y-103169706D01*
X149044000Y-103158500D01*
X149296000Y-103158500D01*
X149363039Y-103178185D01*
X149408794Y-103230989D01*
X149420000Y-103282500D01*
X149420000Y-104234999D01*
X149519140Y-104234999D01*
X149519154Y-104234998D01*
X149620152Y-104224680D01*
X149783800Y-104170453D01*
X149783811Y-104170448D01*
X149930534Y-104079947D01*
X149930538Y-104079944D01*
X150052444Y-103958038D01*
X150052447Y-103958034D01*
X150142948Y-103811311D01*
X150142953Y-103811300D01*
X150197180Y-103647652D01*
X150207499Y-103546654D01*
X150207499Y-103460045D01*
X150227183Y-103393006D01*
X150279986Y-103347250D01*
X150349145Y-103337306D01*
X150412701Y-103366330D01*
X150448540Y-103419089D01*
X150479542Y-103507686D01*
X150479547Y-103507697D01*
X150569518Y-103650884D01*
X150569523Y-103650890D01*
X150689109Y-103770476D01*
X150689115Y-103770481D01*
X150832302Y-103860452D01*
X150832305Y-103860454D01*
X150832309Y-103860455D01*
X150832310Y-103860456D01*
X150902453Y-103885000D01*
X150991943Y-103916314D01*
X151159997Y-103935249D01*
X151160000Y-103935249D01*
X151160003Y-103935249D01*
X151328056Y-103916314D01*
X151328059Y-103916313D01*
X151487690Y-103860456D01*
X151487692Y-103860454D01*
X151487694Y-103860454D01*
X151487697Y-103860452D01*
X151630884Y-103770481D01*
X151630885Y-103770480D01*
X151630890Y-103770477D01*
X151750477Y-103650890D01*
X151802341Y-103568350D01*
X151840452Y-103507697D01*
X151840454Y-103507694D01*
X151840454Y-103507692D01*
X151840456Y-103507690D01*
X151896313Y-103348059D01*
X151896313Y-103348058D01*
X151896314Y-103348056D01*
X151915249Y-103180002D01*
X151915249Y-103179997D01*
X151896314Y-103011943D01*
X151840454Y-102852305D01*
X151840452Y-102852302D01*
X151750481Y-102709115D01*
X151750476Y-102709109D01*
X151630890Y-102589523D01*
X151630884Y-102589518D01*
X151487697Y-102499547D01*
X151487694Y-102499545D01*
X151328055Y-102443685D01*
X151195539Y-102428755D01*
X151131125Y-102401689D01*
X151121741Y-102393216D01*
X150953906Y-102225381D01*
X150908680Y-102176956D01*
X150896264Y-102169405D01*
X150870861Y-102153957D01*
X150865610Y-102150383D01*
X150830341Y-102123638D01*
X150830342Y-102123638D01*
X150813642Y-102117052D01*
X150794716Y-102107652D01*
X150779380Y-102098327D01*
X150736758Y-102086384D01*
X150730740Y-102084360D01*
X150689565Y-102068124D01*
X150689556Y-102068122D01*
X150671716Y-102066288D01*
X150650951Y-102062342D01*
X150633669Y-102057500D01*
X150633665Y-102057500D01*
X150589406Y-102057500D01*
X150583064Y-102057175D01*
X150555427Y-102054333D01*
X150539029Y-102052648D01*
X150539024Y-102052648D01*
X150521344Y-102055697D01*
X150500276Y-102057500D01*
X150326362Y-102057500D01*
X150259323Y-102037815D01*
X150238681Y-102021181D01*
X150207500Y-101990000D01*
X149420000Y-101990000D01*
X149388819Y-102021181D01*
X149327496Y-102054666D01*
X149301138Y-102057500D01*
X149044000Y-102057500D01*
X148976961Y-102037815D01*
X148931206Y-101985011D01*
X148920000Y-101933500D01*
X148920000Y-100470000D01*
X149420000Y-100470000D01*
X149420000Y-101490000D01*
X150207499Y-101490000D01*
X150207499Y-101453360D01*
X150207498Y-101453345D01*
X150197180Y-101352347D01*
X150142953Y-101188699D01*
X150142948Y-101188688D01*
X150054379Y-101045097D01*
X150035938Y-100977705D01*
X150054379Y-100914903D01*
X150142948Y-100771311D01*
X150142953Y-100771300D01*
X150197180Y-100607652D01*
X150207499Y-100506654D01*
X150207500Y-100506641D01*
X150207500Y-100470000D01*
X149420000Y-100470000D01*
X148920000Y-100470000D01*
X148920000Y-98950000D01*
X149420000Y-98950000D01*
X149420000Y-99970000D01*
X150207499Y-99970000D01*
X150207499Y-99933360D01*
X150207498Y-99933345D01*
X150197180Y-99832347D01*
X150142953Y-99668699D01*
X150142948Y-99668688D01*
X150054379Y-99525097D01*
X150035938Y-99457705D01*
X150054379Y-99394903D01*
X150142948Y-99251311D01*
X150142953Y-99251300D01*
X150197180Y-99087652D01*
X150207499Y-98986654D01*
X150207500Y-98986641D01*
X150207500Y-98950000D01*
X149420000Y-98950000D01*
X148920000Y-98950000D01*
X148920000Y-98574000D01*
X148939685Y-98506961D01*
X148992489Y-98461206D01*
X149044000Y-98450000D01*
X150207499Y-98450000D01*
X150207499Y-98413360D01*
X150207498Y-98413345D01*
X150197180Y-98312346D01*
X150196570Y-98310503D01*
X150196528Y-98309297D01*
X150195764Y-98305726D01*
X150196401Y-98305589D01*
X150194169Y-98240675D01*
X150229901Y-98180633D01*
X150292421Y-98149441D01*
X150314276Y-98147500D01*
X150347853Y-98147500D01*
X150414076Y-98149762D01*
X150457082Y-98139280D01*
X150463301Y-98138098D01*
X150507170Y-98132070D01*
X150523633Y-98124918D01*
X150543666Y-98118181D01*
X150561102Y-98113933D01*
X150599715Y-98092221D01*
X150605340Y-98089427D01*
X150645970Y-98071780D01*
X150659882Y-98060460D01*
X150677373Y-98048557D01*
X150693005Y-98039768D01*
X150693003Y-98039768D01*
X150693009Y-98039766D01*
X150724309Y-98008464D01*
X150729019Y-98004213D01*
X150763358Y-97976278D01*
X150773706Y-97961616D01*
X150787324Y-97945449D01*
X151196353Y-97536420D01*
X151244794Y-97491180D01*
X151265738Y-97456738D01*
X151267789Y-97453366D01*
X151271364Y-97448112D01*
X151273035Y-97445909D01*
X151298111Y-97412843D01*
X151304693Y-97396150D01*
X151314098Y-97377213D01*
X151323422Y-97361882D01*
X151324802Y-97356953D01*
X151361844Y-97297712D01*
X151379100Y-97284874D01*
X151512100Y-97202840D01*
X151512102Y-97202837D01*
X151513903Y-97201727D01*
X151581296Y-97183287D01*
X151644097Y-97201727D01*
X151645897Y-97202837D01*
X151645900Y-97202840D01*
X151792734Y-97293408D01*
X151956497Y-97347674D01*
X152057573Y-97358000D01*
X152630926Y-97357999D01*
X152630934Y-97357998D01*
X152630937Y-97357998D01*
X152709252Y-97349998D01*
X152732003Y-97347674D01*
X152895766Y-97293408D01*
X153042600Y-97202840D01*
X153042602Y-97202837D01*
X153042605Y-97202836D01*
X153048268Y-97198359D01*
X153049380Y-97199766D01*
X153102531Y-97170734D01*
X153172223Y-97175709D01*
X153199955Y-97191331D01*
X153200065Y-97191154D01*
X153204530Y-97193908D01*
X153205824Y-97194637D01*
X153206221Y-97194951D01*
X153352938Y-97285448D01*
X153352949Y-97285453D01*
X153516597Y-97339680D01*
X153617602Y-97349999D01*
X153654250Y-97349999D01*
X153654250Y-96562500D01*
X154154250Y-96562500D01*
X154154250Y-97349999D01*
X154190890Y-97349999D01*
X154190904Y-97349998D01*
X154291902Y-97339680D01*
X154455550Y-97285453D01*
X154455561Y-97285448D01*
X154602284Y-97194947D01*
X154602288Y-97194944D01*
X154724194Y-97073038D01*
X154724197Y-97073034D01*
X154814698Y-96926311D01*
X154814703Y-96926300D01*
X154868930Y-96762652D01*
X154879249Y-96661654D01*
X154879250Y-96661641D01*
X154879250Y-96562500D01*
X154154250Y-96562500D01*
X153654250Y-96562500D01*
X153654250Y-96186500D01*
X153673935Y-96119461D01*
X153726739Y-96073706D01*
X153778250Y-96062500D01*
X154879249Y-96062500D01*
X154879249Y-95963360D01*
X154879248Y-95963345D01*
X154868930Y-95862347D01*
X154814703Y-95698699D01*
X154814698Y-95698688D01*
X154724197Y-95551965D01*
X154724194Y-95551961D01*
X154710267Y-95538034D01*
X154676782Y-95476711D01*
X154681766Y-95407019D01*
X154710267Y-95362672D01*
X154724590Y-95348350D01*
X154815158Y-95201516D01*
X154869424Y-95037753D01*
X154879750Y-94936677D01*
X154879749Y-94238324D01*
X154876225Y-94203830D01*
X154869424Y-94137247D01*
X154847213Y-94070220D01*
X154815158Y-93973484D01*
X154724590Y-93826650D01*
X154602600Y-93704660D01*
X154490563Y-93635555D01*
X154455768Y-93614093D01*
X154455763Y-93614091D01*
X154441908Y-93609500D01*
X154292003Y-93559826D01*
X154292001Y-93559825D01*
X154190928Y-93549500D01*
X153617580Y-93549500D01*
X153617562Y-93549501D01*
X153516497Y-93559825D01*
X153516494Y-93559826D01*
X153468172Y-93575839D01*
X153398343Y-93578241D01*
X153338302Y-93542509D01*
X153307109Y-93479989D01*
X153311462Y-93419130D01*
X153325174Y-93377753D01*
X153335500Y-93276677D01*
X153335499Y-92703324D01*
X153332313Y-92672139D01*
X153325174Y-92602247D01*
X153290072Y-92496318D01*
X153270908Y-92438484D01*
X153180340Y-92291650D01*
X153058350Y-92169660D01*
X152911516Y-92079092D01*
X152747753Y-92024826D01*
X152747751Y-92024825D01*
X152646678Y-92014500D01*
X152048330Y-92014500D01*
X152048312Y-92014501D01*
X151947247Y-92024825D01*
X151783484Y-92079092D01*
X151783481Y-92079093D01*
X151636648Y-92169661D01*
X151522681Y-92283629D01*
X151461358Y-92317114D01*
X151391666Y-92312130D01*
X151347319Y-92283629D01*
X151233351Y-92169661D01*
X151233350Y-92169660D01*
X151086516Y-92079092D01*
X150922753Y-92024826D01*
X150922751Y-92024825D01*
X150821678Y-92014500D01*
X150223330Y-92014500D01*
X150223312Y-92014501D01*
X150122247Y-92024825D01*
X149958484Y-92079092D01*
X149958481Y-92079093D01*
X149811648Y-92169661D01*
X149689659Y-92291650D01*
X149634798Y-92380596D01*
X149582850Y-92427321D01*
X149529259Y-92439500D01*
X147589415Y-92439500D01*
X147523175Y-92437237D01*
X147523174Y-92437237D01*
X147480165Y-92447717D01*
X147473931Y-92448902D01*
X147430078Y-92454930D01*
X147421913Y-92457218D01*
X147421523Y-92455828D01*
X147361294Y-92463343D01*
X147298291Y-92433136D01*
X147272370Y-92395797D01*
X147271089Y-92396518D01*
X147245239Y-92350542D01*
X147242414Y-92344854D01*
X147228199Y-92312130D01*
X147224780Y-92304258D01*
X147213454Y-92290337D01*
X147201556Y-92272855D01*
X147192764Y-92257218D01*
X147161472Y-92225926D01*
X147157215Y-92221209D01*
X147129278Y-92186870D01*
X147114613Y-92176518D01*
X147098441Y-92162895D01*
X146956263Y-92020717D01*
X146805930Y-91870383D01*
X146760702Y-91821956D01*
X146760699Y-91821954D01*
X146722883Y-91798957D01*
X146717632Y-91795383D01*
X146682363Y-91768638D01*
X146682364Y-91768638D01*
X146665664Y-91762052D01*
X146646738Y-91752652D01*
X146631402Y-91743327D01*
X146588780Y-91731384D01*
X146582762Y-91729360D01*
X146541587Y-91713124D01*
X146541578Y-91713122D01*
X146523738Y-91711288D01*
X146502973Y-91707342D01*
X146485691Y-91702500D01*
X146485687Y-91702500D01*
X146441428Y-91702500D01*
X146435086Y-91702175D01*
X146407449Y-91699333D01*
X146391051Y-91697648D01*
X146391046Y-91697648D01*
X146373366Y-91700697D01*
X146352298Y-91702500D01*
X137586397Y-91702500D01*
X137520174Y-91700238D01*
X137520173Y-91700238D01*
X137520171Y-91700238D01*
X137477169Y-91710717D01*
X137470928Y-91711903D01*
X137430544Y-91717453D01*
X137361449Y-91707080D01*
X137325979Y-91682289D01*
X137223351Y-91579661D01*
X137223350Y-91579660D01*
X137076516Y-91489092D01*
X136912753Y-91434826D01*
X136912751Y-91434825D01*
X136811678Y-91424500D01*
X136113330Y-91424500D01*
X136113312Y-91424501D01*
X136012247Y-91434825D01*
X135848484Y-91489092D01*
X135848481Y-91489093D01*
X135701648Y-91579661D01*
X135687681Y-91593629D01*
X135626358Y-91627114D01*
X135556666Y-91622130D01*
X135512319Y-91593629D01*
X135498351Y-91579661D01*
X135498350Y-91579660D01*
X135351516Y-91489092D01*
X135187753Y-91434826D01*
X135187751Y-91434825D01*
X135086678Y-91424500D01*
X134388330Y-91424500D01*
X134388312Y-91424501D01*
X134287247Y-91434825D01*
X134123484Y-91489092D01*
X134123481Y-91489093D01*
X133976648Y-91579661D01*
X133854659Y-91701650D01*
X133799798Y-91790596D01*
X133747850Y-91837321D01*
X133694259Y-91849500D01*
X129879397Y-91849500D01*
X129813174Y-91847238D01*
X129813173Y-91847238D01*
X129813171Y-91847238D01*
X129770170Y-91857717D01*
X129763930Y-91858902D01*
X129720079Y-91864930D01*
X129703616Y-91872081D01*
X129683575Y-91878820D01*
X129666150Y-91883066D01*
X129666143Y-91883069D01*
X129627566Y-91904759D01*
X129621879Y-91907584D01*
X129581279Y-91925220D01*
X129581276Y-91925221D01*
X129567356Y-91936546D01*
X129549886Y-91948436D01*
X129534241Y-91957233D01*
X129534240Y-91957234D01*
X129502934Y-91988539D01*
X129498221Y-91992792D01*
X129463896Y-92020717D01*
X129463891Y-92020722D01*
X129453542Y-92035383D01*
X129439923Y-92051550D01*
X128902381Y-92589093D01*
X128853957Y-92634317D01*
X128830956Y-92672139D01*
X128827384Y-92677388D01*
X128800639Y-92712658D01*
X128800636Y-92712663D01*
X128794055Y-92729352D01*
X128784653Y-92748283D01*
X128775327Y-92763619D01*
X128763385Y-92806237D01*
X128761362Y-92812253D01*
X128751938Y-92836155D01*
X128709035Y-92891301D01*
X128701678Y-92896209D01*
X128586654Y-92967156D01*
X128581909Y-92970909D01*
X128517113Y-92997048D01*
X128448472Y-92984006D01*
X128428091Y-92970909D01*
X128423351Y-92967161D01*
X128423350Y-92967160D01*
X128276516Y-92876592D01*
X128112753Y-92822326D01*
X128112751Y-92822325D01*
X128011678Y-92812000D01*
X127438330Y-92812000D01*
X127438312Y-92812001D01*
X127337247Y-92822325D01*
X127173484Y-92876592D01*
X127173481Y-92876593D01*
X127026648Y-92967161D01*
X126904661Y-93089148D01*
X126814093Y-93235981D01*
X126814091Y-93235986D01*
X126786719Y-93318588D01*
X126759826Y-93399747D01*
X126759826Y-93399748D01*
X126759825Y-93399748D01*
X126749500Y-93500815D01*
X126749500Y-94199169D01*
X126749501Y-94199187D01*
X126759825Y-94300252D01*
X126789223Y-94388968D01*
X126812469Y-94459119D01*
X126814092Y-94464015D01*
X126814093Y-94464018D01*
X126843131Y-94511095D01*
X126904086Y-94609920D01*
X126904661Y-94610851D01*
X126918982Y-94625172D01*
X126952467Y-94686495D01*
X126947483Y-94756187D01*
X126918985Y-94800532D01*
X126905052Y-94814465D01*
X126814551Y-94961188D01*
X126814546Y-94961199D01*
X126760319Y-95124847D01*
X126750000Y-95225845D01*
X126750000Y-95325000D01*
X127851000Y-95325000D01*
X127918039Y-95344685D01*
X127963794Y-95397489D01*
X127975000Y-95449000D01*
X127975000Y-95701000D01*
X127955315Y-95768039D01*
X127902511Y-95813794D01*
X127851000Y-95825000D01*
X126750001Y-95825000D01*
X126750001Y-95924154D01*
X126760319Y-96025152D01*
X126814546Y-96188800D01*
X126814551Y-96188811D01*
X126905052Y-96335534D01*
X126905055Y-96335538D01*
X127026961Y-96457444D01*
X127026965Y-96457447D01*
X127173688Y-96547948D01*
X127173699Y-96547953D01*
X127337347Y-96602180D01*
X127438351Y-96612499D01*
X127569610Y-96612499D01*
X127636650Y-96632183D01*
X127682405Y-96684987D01*
X127692349Y-96754145D01*
X127663325Y-96817701D01*
X127657292Y-96824180D01*
X127392382Y-97089092D01*
X127343957Y-97134317D01*
X127320956Y-97172139D01*
X127317384Y-97177387D01*
X127310189Y-97186876D01*
X127290639Y-97212658D01*
X127290636Y-97212663D01*
X127284055Y-97229352D01*
X127274653Y-97248283D01*
X127265327Y-97263619D01*
X127253385Y-97306237D01*
X127251362Y-97312255D01*
X127235121Y-97353443D01*
X127234655Y-97355358D01*
X127233751Y-97356918D01*
X127232015Y-97361323D01*
X127231352Y-97361061D01*
X127199650Y-97415826D01*
X127137511Y-97447771D01*
X127085673Y-97446663D01*
X127082479Y-97445908D01*
X127022883Y-97439501D01*
X127022881Y-97439500D01*
X127022873Y-97439500D01*
X127022864Y-97439500D01*
X125927129Y-97439500D01*
X125927123Y-97439501D01*
X125867516Y-97445908D01*
X125732671Y-97496202D01*
X125732664Y-97496206D01*
X125617455Y-97582452D01*
X125617452Y-97582455D01*
X125531206Y-97697664D01*
X125531202Y-97697671D01*
X125480908Y-97832517D01*
X125474501Y-97892116D01*
X125474500Y-97892135D01*
X125474500Y-99487870D01*
X125474501Y-99487876D01*
X125480908Y-99547483D01*
X125531202Y-99682328D01*
X125531206Y-99682335D01*
X125617452Y-99797544D01*
X125617455Y-99797547D01*
X125732664Y-99883793D01*
X125732671Y-99883797D01*
X125867514Y-99934090D01*
X125867517Y-99934091D01*
X125873582Y-99934743D01*
X125938132Y-99961477D01*
X125968416Y-99997259D01*
X125979762Y-100017437D01*
X125982585Y-100023123D01*
X126000005Y-100063224D01*
X126000221Y-100063722D01*
X126011541Y-100077636D01*
X126023439Y-100095117D01*
X126032234Y-100110760D01*
X126032236Y-100110761D01*
X126063532Y-100142057D01*
X126067783Y-100146766D01*
X126095722Y-100181108D01*
X126110381Y-100191455D01*
X126126552Y-100205077D01*
X127483326Y-101561851D01*
X127516811Y-101623174D01*
X127511827Y-101692866D01*
X127469955Y-101748799D01*
X127438992Y-101765709D01*
X127437677Y-101766199D01*
X127437664Y-101766206D01*
X127322455Y-101852452D01*
X127322452Y-101852455D01*
X127236206Y-101967664D01*
X127236202Y-101967671D01*
X127185908Y-102102517D01*
X127179501Y-102162116D01*
X127179500Y-102162135D01*
X127179500Y-103957870D01*
X127179501Y-103957876D01*
X127185908Y-104017483D01*
X127236202Y-104152328D01*
X127236206Y-104152335D01*
X127322452Y-104267544D01*
X127322455Y-104267547D01*
X127437664Y-104353793D01*
X127437671Y-104353797D01*
X127572517Y-104404091D01*
X127572516Y-104404091D01*
X127579444Y-104404835D01*
X127632127Y-104410500D01*
X129427872Y-104410499D01*
X129487483Y-104404091D01*
X129622331Y-104353796D01*
X129737546Y-104267546D01*
X129823796Y-104152331D01*
X129872810Y-104020916D01*
X129914681Y-103964984D01*
X129980145Y-103940566D01*
X130048418Y-103955417D01*
X130076673Y-103976569D01*
X130198599Y-104098495D01*
X130295384Y-104166265D01*
X130392165Y-104234032D01*
X130392167Y-104234033D01*
X130392170Y-104234035D01*
X130606337Y-104333903D01*
X130834592Y-104395063D01*
X131011034Y-104410500D01*
X131069999Y-104415659D01*
X131070000Y-104415659D01*
X131070001Y-104415659D01*
X131128966Y-104410500D01*
X131305408Y-104395063D01*
X131533663Y-104333903D01*
X131747830Y-104234035D01*
X131867844Y-104150000D01*
X134640000Y-104150000D01*
X135377500Y-104150000D01*
X135377500Y-103488862D01*
X135397185Y-103421823D01*
X135413819Y-103401181D01*
X135430000Y-103385000D01*
X135430000Y-103120000D01*
X134642501Y-103120000D01*
X134642501Y-103156654D01*
X134652819Y-103257652D01*
X134707046Y-103421300D01*
X134707051Y-103421311D01*
X134797454Y-103567876D01*
X134815895Y-103635268D01*
X134797455Y-103698070D01*
X134704548Y-103848694D01*
X134704546Y-103848699D01*
X134650319Y-104012347D01*
X134640000Y-104113345D01*
X134640000Y-104150000D01*
X131867844Y-104150000D01*
X131941401Y-104098495D01*
X132108495Y-103931401D01*
X132244035Y-103737830D01*
X132343903Y-103523663D01*
X132405063Y-103295408D01*
X132425659Y-103060000D01*
X132405063Y-102824592D01*
X132350243Y-102620000D01*
X134642500Y-102620000D01*
X135430000Y-102620000D01*
X135430000Y-101894999D01*
X135330860Y-101895000D01*
X135330844Y-101895001D01*
X135229847Y-101905319D01*
X135066199Y-101959546D01*
X135066188Y-101959551D01*
X134919465Y-102050052D01*
X134919461Y-102050055D01*
X134797555Y-102171961D01*
X134797552Y-102171965D01*
X134707051Y-102318688D01*
X134707046Y-102318699D01*
X134652819Y-102482347D01*
X134642500Y-102583345D01*
X134642500Y-102620000D01*
X132350243Y-102620000D01*
X132344912Y-102600104D01*
X132343905Y-102596344D01*
X132343904Y-102596343D01*
X132343903Y-102596337D01*
X132244035Y-102382171D01*
X132108495Y-102188599D01*
X132108494Y-102188597D01*
X131941402Y-102021506D01*
X131941395Y-102021501D01*
X131936212Y-102017872D01*
X131864518Y-101967671D01*
X131747831Y-101885965D01*
X131747824Y-101885961D01*
X131692094Y-101859973D01*
X131639655Y-101813800D01*
X131620500Y-101747592D01*
X131620500Y-101489387D01*
X131640185Y-101422348D01*
X131656819Y-101401706D01*
X132041706Y-101016819D01*
X132103029Y-100983334D01*
X132129387Y-100980500D01*
X133330603Y-100980500D01*
X133396826Y-100982762D01*
X133439832Y-100972280D01*
X133446051Y-100971098D01*
X133489920Y-100965070D01*
X133506383Y-100957918D01*
X133526416Y-100951181D01*
X133543852Y-100946933D01*
X133582465Y-100925221D01*
X133588090Y-100922427D01*
X133628720Y-100904780D01*
X133642632Y-100893460D01*
X133660123Y-100881557D01*
X133675755Y-100872768D01*
X133675753Y-100872768D01*
X133675759Y-100872766D01*
X133707059Y-100841464D01*
X133711769Y-100837213D01*
X133746108Y-100809278D01*
X133756459Y-100794611D01*
X133770073Y-100778449D01*
X134068523Y-100480000D01*
X137221750Y-100480000D01*
X137221750Y-100677844D01*
X137228151Y-100737375D01*
X137229936Y-100744927D01*
X137228504Y-100745265D01*
X137232869Y-100806370D01*
X137228382Y-100821649D01*
X137228151Y-100822624D01*
X137221750Y-100882155D01*
X137221750Y-101080000D01*
X137921750Y-101080000D01*
X137921750Y-100480000D01*
X137221750Y-100480000D01*
X134068523Y-100480000D01*
X134117603Y-100430920D01*
X134166044Y-100385680D01*
X134189041Y-100347861D01*
X134192613Y-100342611D01*
X134219361Y-100307342D01*
X134225945Y-100290643D01*
X134235344Y-100271719D01*
X134244672Y-100256382D01*
X134256611Y-100213765D01*
X134258637Y-100207743D01*
X134274876Y-100166566D01*
X134274876Y-100166564D01*
X134276711Y-100148716D01*
X134280658Y-100127944D01*
X134285500Y-100110665D01*
X134285500Y-100066406D01*
X134285825Y-100060063D01*
X134288089Y-100038038D01*
X134314524Y-99973363D01*
X134368107Y-99934534D01*
X134477326Y-99893798D01*
X134477326Y-99893797D01*
X134477331Y-99893796D01*
X134592546Y-99807546D01*
X134678796Y-99692331D01*
X134729091Y-99557483D01*
X134735500Y-99497873D01*
X134735500Y-98930000D01*
X135164251Y-98930000D01*
X135164251Y-98966654D01*
X135174569Y-99067652D01*
X135228796Y-99231300D01*
X135228801Y-99231311D01*
X135319302Y-99378034D01*
X135319305Y-99378038D01*
X135441211Y-99499944D01*
X135441215Y-99499947D01*
X135587938Y-99590448D01*
X135587949Y-99590453D01*
X135751597Y-99644680D01*
X135852601Y-99654999D01*
X135951750Y-99654998D01*
X135951750Y-98930000D01*
X135164251Y-98930000D01*
X134735500Y-98930000D01*
X134735499Y-97902128D01*
X134729091Y-97842517D01*
X134725361Y-97832517D01*
X134678797Y-97707671D01*
X134678793Y-97707664D01*
X134592547Y-97592455D01*
X134592544Y-97592452D01*
X134477335Y-97506206D01*
X134477328Y-97506202D01*
X134342482Y-97455908D01*
X134342483Y-97455908D01*
X134282883Y-97449501D01*
X134282881Y-97449500D01*
X134282873Y-97449500D01*
X134282864Y-97449500D01*
X133187129Y-97449500D01*
X133187123Y-97449501D01*
X133119804Y-97456738D01*
X133119494Y-97453857D01*
X133063332Y-97450838D01*
X133006666Y-97409963D01*
X132984129Y-97363267D01*
X132983333Y-97360000D01*
X135124251Y-97360000D01*
X135124251Y-97396654D01*
X135134569Y-97497652D01*
X135188796Y-97661300D01*
X135188801Y-97661311D01*
X135279302Y-97808034D01*
X135279305Y-97808038D01*
X135301067Y-97829800D01*
X135334552Y-97891123D01*
X135329568Y-97960815D01*
X135318924Y-97982578D01*
X135228801Y-98128688D01*
X135228796Y-98128699D01*
X135174569Y-98292347D01*
X135164250Y-98393345D01*
X135164250Y-98430000D01*
X135951750Y-98430000D01*
X135951750Y-98125000D01*
X135948069Y-98121319D01*
X135914584Y-98059996D01*
X135911750Y-98033638D01*
X135911750Y-97360000D01*
X135124251Y-97360000D01*
X132983333Y-97360000D01*
X132977280Y-97335166D01*
X132976096Y-97328931D01*
X132973804Y-97312255D01*
X132970070Y-97285080D01*
X132962921Y-97268622D01*
X132956180Y-97248578D01*
X132951933Y-97231148D01*
X132942823Y-97214945D01*
X132930239Y-97192564D01*
X132927414Y-97186876D01*
X132920402Y-97170734D01*
X132909780Y-97146280D01*
X132898454Y-97132359D01*
X132886556Y-97114877D01*
X132877765Y-97099241D01*
X132846472Y-97067948D01*
X132842215Y-97063231D01*
X132814278Y-97028892D01*
X132799613Y-97018540D01*
X132783441Y-97004917D01*
X132638525Y-96860000D01*
X135124250Y-96860000D01*
X135911750Y-96860000D01*
X135911750Y-96134999D01*
X135812610Y-96135000D01*
X135812594Y-96135001D01*
X135711597Y-96145319D01*
X135547949Y-96199546D01*
X135547938Y-96199551D01*
X135401215Y-96290052D01*
X135401211Y-96290055D01*
X135279305Y-96411961D01*
X135279302Y-96411965D01*
X135188801Y-96558688D01*
X135188796Y-96558699D01*
X135134569Y-96722347D01*
X135124250Y-96823345D01*
X135124250Y-96860000D01*
X132638525Y-96860000D01*
X132601553Y-96823028D01*
X132568068Y-96761705D01*
X132573052Y-96692013D01*
X132614924Y-96636080D01*
X132676633Y-96611989D01*
X132772652Y-96602180D01*
X132936300Y-96547953D01*
X132936311Y-96547948D01*
X133083034Y-96457447D01*
X133083038Y-96457444D01*
X133204944Y-96335538D01*
X133204947Y-96335534D01*
X133295448Y-96188811D01*
X133295453Y-96188800D01*
X133349680Y-96025152D01*
X133359999Y-95924154D01*
X133360000Y-95924141D01*
X133360000Y-95825000D01*
X132259000Y-95825000D01*
X132191961Y-95805315D01*
X132146206Y-95752511D01*
X132135000Y-95701000D01*
X132135000Y-95449000D01*
X132154685Y-95381961D01*
X132207489Y-95336206D01*
X132259000Y-95325000D01*
X133359999Y-95325000D01*
X133359999Y-95225860D01*
X133359998Y-95225845D01*
X133349680Y-95124847D01*
X133295453Y-94961199D01*
X133295448Y-94961188D01*
X133204947Y-94814465D01*
X133204944Y-94814461D01*
X133191017Y-94800534D01*
X133157532Y-94739211D01*
X133162516Y-94669519D01*
X133191017Y-94625172D01*
X133205340Y-94610850D01*
X133224736Y-94579404D01*
X133276684Y-94532679D01*
X133330275Y-94520500D01*
X133694259Y-94520500D01*
X133761298Y-94540185D01*
X133799797Y-94579402D01*
X133826771Y-94623134D01*
X133851885Y-94663852D01*
X133854660Y-94668350D01*
X133976650Y-94790340D01*
X134123484Y-94880908D01*
X134287247Y-94935174D01*
X134388323Y-94945500D01*
X135086676Y-94945499D01*
X135086684Y-94945498D01*
X135086687Y-94945498D01*
X135145403Y-94939500D01*
X135187753Y-94935174D01*
X135351516Y-94880908D01*
X135498350Y-94790340D01*
X135512319Y-94776371D01*
X135573642Y-94742886D01*
X135643334Y-94747870D01*
X135687681Y-94776371D01*
X135701650Y-94790340D01*
X135848484Y-94880908D01*
X136012247Y-94935174D01*
X136113323Y-94945500D01*
X136811676Y-94945499D01*
X136811684Y-94945498D01*
X136811687Y-94945498D01*
X136870403Y-94939500D01*
X136912753Y-94935174D01*
X137076516Y-94880908D01*
X137223350Y-94790340D01*
X137345340Y-94668350D01*
X137400202Y-94579403D01*
X137452150Y-94532679D01*
X137505741Y-94520500D01*
X138110603Y-94520500D01*
X138176826Y-94522762D01*
X138219832Y-94512280D01*
X138226051Y-94511098D01*
X138269920Y-94505070D01*
X138286383Y-94497918D01*
X138306416Y-94491181D01*
X138323852Y-94486933D01*
X138362465Y-94465221D01*
X138368098Y-94462424D01*
X138375709Y-94459118D01*
X138445036Y-94450468D01*
X138508039Y-94480673D01*
X138544710Y-94540146D01*
X138543407Y-94610003D01*
X138542808Y-94611858D01*
X138499569Y-94742346D01*
X138489250Y-94843345D01*
X138489250Y-94942500D01*
X139590250Y-94942500D01*
X139657289Y-94962185D01*
X139703044Y-95014989D01*
X139714250Y-95066500D01*
X139714250Y-95800000D01*
X139717931Y-95803681D01*
X139751416Y-95865004D01*
X139754250Y-95891362D01*
X139754250Y-97003500D01*
X139734565Y-97070539D01*
X139681761Y-97116294D01*
X139630250Y-97127500D01*
X139378250Y-97127500D01*
X139311211Y-97107815D01*
X139265456Y-97055011D01*
X139254250Y-97003500D01*
X139254250Y-96270000D01*
X139250569Y-96266319D01*
X139217084Y-96204996D01*
X139214250Y-96178638D01*
X139214250Y-95442500D01*
X138489251Y-95442500D01*
X138489251Y-95541654D01*
X138499569Y-95642652D01*
X138553796Y-95806300D01*
X138553801Y-95806311D01*
X138644302Y-95953034D01*
X138644305Y-95953038D01*
X138662252Y-95970985D01*
X138695737Y-96032308D01*
X138690753Y-96102000D01*
X138680107Y-96123766D01*
X138661892Y-96153295D01*
X138609943Y-96200018D01*
X138540980Y-96211238D01*
X138503957Y-96200580D01*
X138500769Y-96199094D01*
X138500766Y-96199092D01*
X138337003Y-96144826D01*
X138337001Y-96144825D01*
X138235928Y-96134500D01*
X137537580Y-96134500D01*
X137537562Y-96134501D01*
X137436497Y-96144825D01*
X137272734Y-96199092D01*
X137272731Y-96199093D01*
X137125898Y-96289661D01*
X137111575Y-96303984D01*
X137050251Y-96337468D01*
X136980559Y-96332482D01*
X136936215Y-96303982D01*
X136922288Y-96290055D01*
X136922284Y-96290052D01*
X136775561Y-96199551D01*
X136775550Y-96199546D01*
X136611902Y-96145319D01*
X136510904Y-96135000D01*
X136411750Y-96135000D01*
X136411750Y-97665000D01*
X136415431Y-97668681D01*
X136448916Y-97730004D01*
X136451750Y-97756362D01*
X136451750Y-99654999D01*
X136550890Y-99654999D01*
X136550904Y-99654998D01*
X136651902Y-99644680D01*
X136815550Y-99590453D01*
X136815561Y-99590448D01*
X136962285Y-99499947D01*
X136976210Y-99486021D01*
X137037532Y-99452533D01*
X137107223Y-99457514D01*
X137151577Y-99486017D01*
X137165900Y-99500340D01*
X137197238Y-99519670D01*
X137243962Y-99571617D01*
X137255185Y-99640580D01*
X137248323Y-99668540D01*
X137228153Y-99722617D01*
X137228151Y-99722627D01*
X137221750Y-99782155D01*
X137221750Y-99980000D01*
X137865776Y-99980000D01*
X137924960Y-99996582D01*
X137925087Y-99996292D01*
X137927203Y-99997211D01*
X137930203Y-99998051D01*
X137932868Y-99999672D01*
X137975497Y-100011616D01*
X137981513Y-100013639D01*
X138022686Y-100029876D01*
X138040537Y-100031711D01*
X138061302Y-100035657D01*
X138078585Y-100040500D01*
X138122844Y-100040500D01*
X138129185Y-100040824D01*
X138173222Y-100045352D01*
X138190906Y-100042303D01*
X138211974Y-100040500D01*
X138297750Y-100040500D01*
X138364789Y-100060185D01*
X138410544Y-100112989D01*
X138421750Y-100164500D01*
X138421750Y-101118594D01*
X138413104Y-101164084D01*
X138409056Y-101174349D01*
X138399653Y-101193283D01*
X138390327Y-101208619D01*
X138378385Y-101251237D01*
X138376362Y-101257255D01*
X138360122Y-101298440D01*
X138358288Y-101316284D01*
X138354342Y-101337048D01*
X138349501Y-101354328D01*
X138349500Y-101354337D01*
X138349500Y-101398593D01*
X138349175Y-101404935D01*
X138347814Y-101418175D01*
X138321380Y-101482851D01*
X138264176Y-101522969D01*
X138224464Y-101529500D01*
X137699397Y-101529500D01*
X137633174Y-101527238D01*
X137633173Y-101527238D01*
X137633171Y-101527238D01*
X137590170Y-101537717D01*
X137583930Y-101538902D01*
X137540079Y-101544930D01*
X137523616Y-101552081D01*
X137503575Y-101558820D01*
X137486150Y-101563066D01*
X137486143Y-101563069D01*
X137484337Y-101564085D01*
X137482045Y-101564685D01*
X137478254Y-101566180D01*
X137478074Y-101565724D01*
X137423562Y-101580000D01*
X137221750Y-101580000D01*
X137221750Y-101718362D01*
X137202065Y-101785401D01*
X137185430Y-101806044D01*
X137132848Y-101858625D01*
X137071525Y-101892109D01*
X137057770Y-101894301D01*
X136954747Y-101904826D01*
X136790984Y-101959092D01*
X136790981Y-101959093D01*
X136644148Y-102049661D01*
X136629825Y-102063984D01*
X136568501Y-102097468D01*
X136498809Y-102092482D01*
X136454465Y-102063982D01*
X136440538Y-102050055D01*
X136440534Y-102050052D01*
X136293811Y-101959551D01*
X136293800Y-101959546D01*
X136130152Y-101905319D01*
X136029154Y-101895000D01*
X135930000Y-101895000D01*
X135930000Y-103781138D01*
X135910315Y-103848177D01*
X135893681Y-103868819D01*
X135877500Y-103885000D01*
X135877500Y-105374999D01*
X135926640Y-105374999D01*
X135926654Y-105374998D01*
X136027652Y-105364680D01*
X136191300Y-105310453D01*
X136191311Y-105310448D01*
X136338033Y-105219948D01*
X136451964Y-105106017D01*
X136513287Y-105072532D01*
X136582979Y-105077516D01*
X136627327Y-105106017D01*
X136741650Y-105220340D01*
X136843096Y-105282912D01*
X136889821Y-105334860D01*
X136902000Y-105388451D01*
X136902000Y-105605500D01*
X136882315Y-105672539D01*
X136829511Y-105718294D01*
X136778000Y-105729500D01*
X129069397Y-105729500D01*
X129003174Y-105727238D01*
X129003173Y-105727238D01*
X129003171Y-105727238D01*
X128960170Y-105737717D01*
X128953930Y-105738902D01*
X128910079Y-105744930D01*
X128893616Y-105752081D01*
X128873575Y-105758820D01*
X128856150Y-105763066D01*
X128856143Y-105763069D01*
X128817566Y-105784759D01*
X128811879Y-105787584D01*
X128771279Y-105805220D01*
X128771276Y-105805221D01*
X128757356Y-105816546D01*
X128739886Y-105828436D01*
X128724241Y-105837233D01*
X128724240Y-105837234D01*
X128692934Y-105868539D01*
X128688221Y-105872792D01*
X128653896Y-105900717D01*
X128653891Y-105900722D01*
X128643542Y-105915383D01*
X128629923Y-105931551D01*
X128514279Y-106047194D01*
X128452956Y-106080678D01*
X128383264Y-106075694D01*
X128327331Y-106033822D01*
X128303378Y-105973395D01*
X128286314Y-105821944D01*
X128273848Y-105786318D01*
X128230456Y-105662310D01*
X128230455Y-105662309D01*
X128230454Y-105662305D01*
X128230452Y-105662302D01*
X128140481Y-105519115D01*
X128140476Y-105519109D01*
X128020890Y-105399523D01*
X128020884Y-105399518D01*
X127877697Y-105309547D01*
X127877694Y-105309545D01*
X127718056Y-105253685D01*
X127550003Y-105234751D01*
X127549997Y-105234751D01*
X127381943Y-105253685D01*
X127222305Y-105309545D01*
X127222302Y-105309547D01*
X127079115Y-105399518D01*
X127079109Y-105399523D01*
X126959523Y-105519109D01*
X126959518Y-105519115D01*
X126869547Y-105662302D01*
X126869545Y-105662305D01*
X126813685Y-105821943D01*
X126794751Y-105989997D01*
X126794751Y-105990002D01*
X126813686Y-106158057D01*
X126847862Y-106255727D01*
X126851423Y-106325505D01*
X126816694Y-106386133D01*
X126754701Y-106418360D01*
X126721172Y-106419818D01*
X126721153Y-106420178D01*
X126717828Y-106420000D01*
X126420000Y-106420000D01*
X126420000Y-108920000D01*
X126717828Y-108920000D01*
X126717844Y-108919999D01*
X126777375Y-108913598D01*
X126784926Y-108911814D01*
X126785315Y-108913462D01*
X126845624Y-108909140D01*
X126862387Y-108914060D01*
X126862512Y-108914089D01*
X126862517Y-108914091D01*
X126922127Y-108920500D01*
X128017872Y-108920499D01*
X128077483Y-108914091D01*
X128077485Y-108914090D01*
X128077487Y-108914090D01*
X128085031Y-108912308D01*
X128085377Y-108913775D01*
X128146342Y-108909408D01*
X128161378Y-108913822D01*
X128162513Y-108914089D01*
X128162517Y-108914091D01*
X128222127Y-108920500D01*
X129317872Y-108920499D01*
X129377483Y-108914091D01*
X129512331Y-108863796D01*
X129627546Y-108777546D01*
X129713796Y-108662331D01*
X129764091Y-108527483D01*
X129770500Y-108467873D01*
X129770500Y-107920000D01*
X130710000Y-107920000D01*
X130710000Y-108467844D01*
X130716401Y-108527372D01*
X130716403Y-108527379D01*
X130766645Y-108662086D01*
X130766649Y-108662093D01*
X130852809Y-108777187D01*
X130852812Y-108777190D01*
X130967906Y-108863350D01*
X130967913Y-108863354D01*
X131102620Y-108913596D01*
X131102627Y-108913598D01*
X131162155Y-108919999D01*
X131162172Y-108920000D01*
X131460000Y-108920000D01*
X131460000Y-107920000D01*
X130710000Y-107920000D01*
X129770500Y-107920000D01*
X129770499Y-106954499D01*
X129790184Y-106887461D01*
X129842987Y-106841706D01*
X129894499Y-106830500D01*
X130586000Y-106830500D01*
X130653039Y-106850185D01*
X130698794Y-106902989D01*
X130710000Y-106954500D01*
X130710000Y-107420000D01*
X131836000Y-107420000D01*
X131903039Y-107439685D01*
X131948794Y-107492489D01*
X131960000Y-107544000D01*
X131960000Y-108920000D01*
X132257828Y-108920000D01*
X132257839Y-108919999D01*
X132322242Y-108913074D01*
X132391002Y-108925478D01*
X132442140Y-108973087D01*
X132459500Y-109036363D01*
X132459500Y-109070602D01*
X132457238Y-109136829D01*
X132467715Y-109179819D01*
X132468901Y-109186061D01*
X132474929Y-109229920D01*
X132482079Y-109246379D01*
X132488819Y-109266422D01*
X132492406Y-109281141D01*
X132489154Y-109350935D01*
X132448685Y-109407891D01*
X132383847Y-109433926D01*
X132371932Y-109434500D01*
X120989500Y-109434500D01*
X120922461Y-109414815D01*
X120876706Y-109362011D01*
X120865500Y-109310500D01*
X120865500Y-107920000D01*
X125170000Y-107920000D01*
X125170000Y-108467844D01*
X125176401Y-108527372D01*
X125176403Y-108527379D01*
X125226645Y-108662086D01*
X125226649Y-108662093D01*
X125312809Y-108777187D01*
X125312812Y-108777190D01*
X125427906Y-108863350D01*
X125427913Y-108863354D01*
X125562620Y-108913596D01*
X125562627Y-108913598D01*
X125622155Y-108919999D01*
X125622172Y-108920000D01*
X125920000Y-108920000D01*
X125920000Y-107920000D01*
X125170000Y-107920000D01*
X120865500Y-107920000D01*
X120865500Y-107420000D01*
X125170000Y-107420000D01*
X125920000Y-107420000D01*
X125920000Y-106420000D01*
X125622155Y-106420000D01*
X125562627Y-106426401D01*
X125562620Y-106426403D01*
X125427913Y-106476645D01*
X125427906Y-106476649D01*
X125312812Y-106562809D01*
X125312809Y-106562812D01*
X125226649Y-106677906D01*
X125226645Y-106677913D01*
X125176403Y-106812620D01*
X125176401Y-106812627D01*
X125170000Y-106872155D01*
X125170000Y-107420000D01*
X120865500Y-107420000D01*
X120865500Y-104650000D01*
X134640001Y-104650000D01*
X134640001Y-104686654D01*
X134650319Y-104787652D01*
X134704546Y-104951300D01*
X134704551Y-104951311D01*
X134795052Y-105098034D01*
X134795055Y-105098038D01*
X134916961Y-105219944D01*
X134916965Y-105219947D01*
X135063688Y-105310448D01*
X135063699Y-105310453D01*
X135227347Y-105364680D01*
X135328351Y-105374999D01*
X135377499Y-105374998D01*
X135377500Y-105374998D01*
X135377500Y-104650000D01*
X134640001Y-104650000D01*
X120865500Y-104650000D01*
X120865500Y-91084000D01*
X120885185Y-91016961D01*
X120937989Y-90971206D01*
X120989500Y-90960000D01*
X159390500Y-90960000D01*
X159457539Y-90979685D01*
G37*
G04 #@! TD.AperFunction*
G04 #@! TA.AperFunction,Conductor*
G36*
X144179630Y-92823185D02*
G01*
X144225385Y-92875989D01*
X144235329Y-92945147D01*
X144206304Y-93008703D01*
X144200272Y-93015181D01*
X143361411Y-93854039D01*
X143300088Y-93887524D01*
X143230396Y-93882540D01*
X143223988Y-93879856D01*
X143059403Y-93825319D01*
X142958404Y-93815000D01*
X142859250Y-93815000D01*
X142859250Y-94815500D01*
X142839565Y-94882539D01*
X142786761Y-94928294D01*
X142735250Y-94939500D01*
X142483250Y-94939500D01*
X142416211Y-94919815D01*
X142370456Y-94867011D01*
X142359250Y-94815500D01*
X142359250Y-93814999D01*
X142260110Y-93815000D01*
X142260094Y-93815001D01*
X142159096Y-93825319D01*
X141995450Y-93879545D01*
X141995445Y-93879547D01*
X141962638Y-93899782D01*
X141895245Y-93918221D01*
X141828582Y-93897297D01*
X141809863Y-93881923D01*
X141692601Y-93764661D01*
X141692600Y-93764660D01*
X141568882Y-93688350D01*
X141545768Y-93674093D01*
X141545763Y-93674091D01*
X141544319Y-93673612D01*
X141382003Y-93619826D01*
X141382001Y-93619825D01*
X141280934Y-93609500D01*
X141280927Y-93609500D01*
X140924156Y-93609500D01*
X140857117Y-93589815D01*
X140811362Y-93537011D01*
X140805678Y-93521480D01*
X140797921Y-93503622D01*
X140791180Y-93483578D01*
X140786933Y-93466148D01*
X140779772Y-93453413D01*
X140765239Y-93427564D01*
X140762414Y-93421876D01*
X140752801Y-93399747D01*
X140744780Y-93381280D01*
X140733454Y-93367359D01*
X140721556Y-93349877D01*
X140719945Y-93347011D01*
X140712765Y-93334241D01*
X140681471Y-93302947D01*
X140677215Y-93298231D01*
X140659679Y-93276677D01*
X140649278Y-93263892D01*
X140634608Y-93253536D01*
X140618450Y-93239925D01*
X140518122Y-93139597D01*
X140463445Y-93084919D01*
X140461569Y-93082914D01*
X140431738Y-93023671D01*
X140430841Y-93023864D01*
X140429426Y-93017253D01*
X140425545Y-93005541D01*
X140412608Y-92966502D01*
X140410207Y-92896677D01*
X140445938Y-92836635D01*
X140508458Y-92805442D01*
X140530315Y-92803500D01*
X144112591Y-92803500D01*
X144179630Y-92823185D01*
G37*
G04 #@! TD.AperFunction*
M02*
