G04 #@! TF.GenerationSoftware,KiCad,Pcbnew,7.0.9*
G04 #@! TF.CreationDate,2024-04-03T14:15:52+02:00*
G04 #@! TF.ProjectId,NFC_Programmer,4e46435f-5072-46f6-9772-616d6d65722e,3.0*
G04 #@! TF.SameCoordinates,Original*
G04 #@! TF.FileFunction,Legend,Bot*
G04 #@! TF.FilePolarity,Positive*
%FSLAX46Y46*%
G04 Gerber Fmt 4.6, Leading zero omitted, Abs format (unit mm)*
G04 Created by KiCad (PCBNEW 7.0.9) date 2024-04-03 14:15:52*
%MOMM*%
%LPD*%
G01*
G04 APERTURE LIST*
%ADD10C,0.153000*%
%ADD11C,3.000000*%
%ADD12R,1.350000X1.350000*%
%ADD13O,1.350000X1.350000*%
G04 APERTURE END LIST*
D10*
X147030336Y-106711247D02*
X148030336Y-106711247D01*
X148030336Y-106711247D02*
X147030336Y-106139819D01*
X147030336Y-106139819D02*
X148030336Y-106139819D01*
X147077956Y-105711247D02*
X147030336Y-105568390D01*
X147030336Y-105568390D02*
X147030336Y-105330295D01*
X147030336Y-105330295D02*
X147077956Y-105235057D01*
X147077956Y-105235057D02*
X147125575Y-105187438D01*
X147125575Y-105187438D02*
X147220813Y-105139819D01*
X147220813Y-105139819D02*
X147316051Y-105139819D01*
X147316051Y-105139819D02*
X147411289Y-105187438D01*
X147411289Y-105187438D02*
X147458908Y-105235057D01*
X147458908Y-105235057D02*
X147506527Y-105330295D01*
X147506527Y-105330295D02*
X147554146Y-105520771D01*
X147554146Y-105520771D02*
X147601765Y-105616009D01*
X147601765Y-105616009D02*
X147649384Y-105663628D01*
X147649384Y-105663628D02*
X147744622Y-105711247D01*
X147744622Y-105711247D02*
X147839860Y-105711247D01*
X147839860Y-105711247D02*
X147935098Y-105663628D01*
X147935098Y-105663628D02*
X147982717Y-105616009D01*
X147982717Y-105616009D02*
X148030336Y-105520771D01*
X148030336Y-105520771D02*
X148030336Y-105282676D01*
X148030336Y-105282676D02*
X147982717Y-105139819D01*
X147077956Y-104758866D02*
X147030336Y-104616009D01*
X147030336Y-104616009D02*
X147030336Y-104377914D01*
X147030336Y-104377914D02*
X147077956Y-104282676D01*
X147077956Y-104282676D02*
X147125575Y-104235057D01*
X147125575Y-104235057D02*
X147220813Y-104187438D01*
X147220813Y-104187438D02*
X147316051Y-104187438D01*
X147316051Y-104187438D02*
X147411289Y-104235057D01*
X147411289Y-104235057D02*
X147458908Y-104282676D01*
X147458908Y-104282676D02*
X147506527Y-104377914D01*
X147506527Y-104377914D02*
X147554146Y-104568390D01*
X147554146Y-104568390D02*
X147601765Y-104663628D01*
X147601765Y-104663628D02*
X147649384Y-104711247D01*
X147649384Y-104711247D02*
X147744622Y-104758866D01*
X147744622Y-104758866D02*
X147839860Y-104758866D01*
X147839860Y-104758866D02*
X147935098Y-104711247D01*
X147935098Y-104711247D02*
X147982717Y-104663628D01*
X147982717Y-104663628D02*
X148030336Y-104568390D01*
X148030336Y-104568390D02*
X148030336Y-104330295D01*
X148030336Y-104330295D02*
X147982717Y-104187438D01*
X139160336Y-106401247D02*
X140160336Y-106401247D01*
X140160336Y-106401247D02*
X140160336Y-106020295D01*
X140160336Y-106020295D02*
X140112717Y-105925057D01*
X140112717Y-105925057D02*
X140065098Y-105877438D01*
X140065098Y-105877438D02*
X139969860Y-105829819D01*
X139969860Y-105829819D02*
X139827003Y-105829819D01*
X139827003Y-105829819D02*
X139731765Y-105877438D01*
X139731765Y-105877438D02*
X139684146Y-105925057D01*
X139684146Y-105925057D02*
X139636527Y-106020295D01*
X139636527Y-106020295D02*
X139636527Y-106401247D01*
X139160336Y-105401247D02*
X140160336Y-105401247D01*
X140160336Y-105401247D02*
X140160336Y-105163152D01*
X140160336Y-105163152D02*
X140112717Y-105020295D01*
X140112717Y-105020295D02*
X140017479Y-104925057D01*
X140017479Y-104925057D02*
X139922241Y-104877438D01*
X139922241Y-104877438D02*
X139731765Y-104829819D01*
X139731765Y-104829819D02*
X139588908Y-104829819D01*
X139588908Y-104829819D02*
X139398432Y-104877438D01*
X139398432Y-104877438D02*
X139303194Y-104925057D01*
X139303194Y-104925057D02*
X139207956Y-105020295D01*
X139207956Y-105020295D02*
X139160336Y-105163152D01*
X139160336Y-105163152D02*
X139160336Y-105401247D01*
X140160336Y-104210771D02*
X140160336Y-104020295D01*
X140160336Y-104020295D02*
X140112717Y-103925057D01*
X140112717Y-103925057D02*
X140017479Y-103829819D01*
X140017479Y-103829819D02*
X139827003Y-103782200D01*
X139827003Y-103782200D02*
X139493670Y-103782200D01*
X139493670Y-103782200D02*
X139303194Y-103829819D01*
X139303194Y-103829819D02*
X139207956Y-103925057D01*
X139207956Y-103925057D02*
X139160336Y-104020295D01*
X139160336Y-104020295D02*
X139160336Y-104210771D01*
X139160336Y-104210771D02*
X139207956Y-104306009D01*
X139207956Y-104306009D02*
X139303194Y-104401247D01*
X139303194Y-104401247D02*
X139493670Y-104448866D01*
X139493670Y-104448866D02*
X139827003Y-104448866D01*
X139827003Y-104448866D02*
X140017479Y-104401247D01*
X140017479Y-104401247D02*
X140112717Y-104306009D01*
X140112717Y-104306009D02*
X140160336Y-104210771D01*
X140160336Y-103448866D02*
X139160336Y-103210771D01*
X139160336Y-103210771D02*
X139874622Y-103020295D01*
X139874622Y-103020295D02*
X139160336Y-102829819D01*
X139160336Y-102829819D02*
X140160336Y-102591724D01*
X139160336Y-102210771D02*
X140160336Y-102210771D01*
X140160336Y-102210771D02*
X139160336Y-101639343D01*
X139160336Y-101639343D02*
X140160336Y-101639343D01*
X152042717Y-106187438D02*
X152090336Y-106282676D01*
X152090336Y-106282676D02*
X152090336Y-106425533D01*
X152090336Y-106425533D02*
X152042717Y-106568390D01*
X152042717Y-106568390D02*
X151947479Y-106663628D01*
X151947479Y-106663628D02*
X151852241Y-106711247D01*
X151852241Y-106711247D02*
X151661765Y-106758866D01*
X151661765Y-106758866D02*
X151518908Y-106758866D01*
X151518908Y-106758866D02*
X151328432Y-106711247D01*
X151328432Y-106711247D02*
X151233194Y-106663628D01*
X151233194Y-106663628D02*
X151137956Y-106568390D01*
X151137956Y-106568390D02*
X151090336Y-106425533D01*
X151090336Y-106425533D02*
X151090336Y-106330295D01*
X151090336Y-106330295D02*
X151137956Y-106187438D01*
X151137956Y-106187438D02*
X151185575Y-106139819D01*
X151185575Y-106139819D02*
X151518908Y-106139819D01*
X151518908Y-106139819D02*
X151518908Y-106330295D01*
X151090336Y-105711247D02*
X152090336Y-105711247D01*
X152090336Y-105711247D02*
X151090336Y-105139819D01*
X151090336Y-105139819D02*
X152090336Y-105139819D01*
X151090336Y-104663628D02*
X152090336Y-104663628D01*
X152090336Y-104663628D02*
X152090336Y-104425533D01*
X152090336Y-104425533D02*
X152042717Y-104282676D01*
X152042717Y-104282676D02*
X151947479Y-104187438D01*
X151947479Y-104187438D02*
X151852241Y-104139819D01*
X151852241Y-104139819D02*
X151661765Y-104092200D01*
X151661765Y-104092200D02*
X151518908Y-104092200D01*
X151518908Y-104092200D02*
X151328432Y-104139819D01*
X151328432Y-104139819D02*
X151233194Y-104187438D01*
X151233194Y-104187438D02*
X151137956Y-104282676D01*
X151137956Y-104282676D02*
X151090336Y-104425533D01*
X151090336Y-104425533D02*
X151090336Y-104663628D01*
X143037956Y-106728866D02*
X142990336Y-106586009D01*
X142990336Y-106586009D02*
X142990336Y-106347914D01*
X142990336Y-106347914D02*
X143037956Y-106252676D01*
X143037956Y-106252676D02*
X143085575Y-106205057D01*
X143085575Y-106205057D02*
X143180813Y-106157438D01*
X143180813Y-106157438D02*
X143276051Y-106157438D01*
X143276051Y-106157438D02*
X143371289Y-106205057D01*
X143371289Y-106205057D02*
X143418908Y-106252676D01*
X143418908Y-106252676D02*
X143466527Y-106347914D01*
X143466527Y-106347914D02*
X143514146Y-106538390D01*
X143514146Y-106538390D02*
X143561765Y-106633628D01*
X143561765Y-106633628D02*
X143609384Y-106681247D01*
X143609384Y-106681247D02*
X143704622Y-106728866D01*
X143704622Y-106728866D02*
X143799860Y-106728866D01*
X143799860Y-106728866D02*
X143895098Y-106681247D01*
X143895098Y-106681247D02*
X143942717Y-106633628D01*
X143942717Y-106633628D02*
X143990336Y-106538390D01*
X143990336Y-106538390D02*
X143990336Y-106300295D01*
X143990336Y-106300295D02*
X143942717Y-106157438D01*
X143085575Y-105157438D02*
X143037956Y-105205057D01*
X143037956Y-105205057D02*
X142990336Y-105347914D01*
X142990336Y-105347914D02*
X142990336Y-105443152D01*
X142990336Y-105443152D02*
X143037956Y-105586009D01*
X143037956Y-105586009D02*
X143133194Y-105681247D01*
X143133194Y-105681247D02*
X143228432Y-105728866D01*
X143228432Y-105728866D02*
X143418908Y-105776485D01*
X143418908Y-105776485D02*
X143561765Y-105776485D01*
X143561765Y-105776485D02*
X143752241Y-105728866D01*
X143752241Y-105728866D02*
X143847479Y-105681247D01*
X143847479Y-105681247D02*
X143942717Y-105586009D01*
X143942717Y-105586009D02*
X143990336Y-105443152D01*
X143990336Y-105443152D02*
X143990336Y-105347914D01*
X143990336Y-105347914D02*
X143942717Y-105205057D01*
X143942717Y-105205057D02*
X143895098Y-105157438D01*
X142990336Y-104728866D02*
X143990336Y-104728866D01*
X142990336Y-104157438D02*
X143561765Y-104586009D01*
X143990336Y-104157438D02*
X143418908Y-104728866D01*
X141090336Y-106631247D02*
X142090336Y-106631247D01*
X142090336Y-106631247D02*
X141376051Y-106297914D01*
X141376051Y-106297914D02*
X142090336Y-105964581D01*
X142090336Y-105964581D02*
X141090336Y-105964581D01*
X142090336Y-105297914D02*
X142090336Y-105107438D01*
X142090336Y-105107438D02*
X142042717Y-105012200D01*
X142042717Y-105012200D02*
X141947479Y-104916962D01*
X141947479Y-104916962D02*
X141757003Y-104869343D01*
X141757003Y-104869343D02*
X141423670Y-104869343D01*
X141423670Y-104869343D02*
X141233194Y-104916962D01*
X141233194Y-104916962D02*
X141137956Y-105012200D01*
X141137956Y-105012200D02*
X141090336Y-105107438D01*
X141090336Y-105107438D02*
X141090336Y-105297914D01*
X141090336Y-105297914D02*
X141137956Y-105393152D01*
X141137956Y-105393152D02*
X141233194Y-105488390D01*
X141233194Y-105488390D02*
X141423670Y-105536009D01*
X141423670Y-105536009D02*
X141757003Y-105536009D01*
X141757003Y-105536009D02*
X141947479Y-105488390D01*
X141947479Y-105488390D02*
X142042717Y-105393152D01*
X142042717Y-105393152D02*
X142090336Y-105297914D01*
X141137956Y-104488390D02*
X141090336Y-104345533D01*
X141090336Y-104345533D02*
X141090336Y-104107438D01*
X141090336Y-104107438D02*
X141137956Y-104012200D01*
X141137956Y-104012200D02*
X141185575Y-103964581D01*
X141185575Y-103964581D02*
X141280813Y-103916962D01*
X141280813Y-103916962D02*
X141376051Y-103916962D01*
X141376051Y-103916962D02*
X141471289Y-103964581D01*
X141471289Y-103964581D02*
X141518908Y-104012200D01*
X141518908Y-104012200D02*
X141566527Y-104107438D01*
X141566527Y-104107438D02*
X141614146Y-104297914D01*
X141614146Y-104297914D02*
X141661765Y-104393152D01*
X141661765Y-104393152D02*
X141709384Y-104440771D01*
X141709384Y-104440771D02*
X141804622Y-104488390D01*
X141804622Y-104488390D02*
X141899860Y-104488390D01*
X141899860Y-104488390D02*
X141995098Y-104440771D01*
X141995098Y-104440771D02*
X142042717Y-104393152D01*
X142042717Y-104393152D02*
X142090336Y-104297914D01*
X142090336Y-104297914D02*
X142090336Y-104059819D01*
X142090336Y-104059819D02*
X142042717Y-103916962D01*
X141090336Y-103488390D02*
X142090336Y-103488390D01*
X142700771Y-72009663D02*
X142605533Y-72009663D01*
X142605533Y-72009663D02*
X142510295Y-72057282D01*
X142510295Y-72057282D02*
X142462676Y-72104901D01*
X142462676Y-72104901D02*
X142415057Y-72200139D01*
X142415057Y-72200139D02*
X142367438Y-72390615D01*
X142367438Y-72390615D02*
X142367438Y-72628710D01*
X142367438Y-72628710D02*
X142415057Y-72819186D01*
X142415057Y-72819186D02*
X142462676Y-72914424D01*
X142462676Y-72914424D02*
X142510295Y-72962044D01*
X142510295Y-72962044D02*
X142605533Y-73009663D01*
X142605533Y-73009663D02*
X142700771Y-73009663D01*
X142700771Y-73009663D02*
X142796009Y-72962044D01*
X142796009Y-72962044D02*
X142843628Y-72914424D01*
X142843628Y-72914424D02*
X142891247Y-72819186D01*
X142891247Y-72819186D02*
X142938866Y-72628710D01*
X142938866Y-72628710D02*
X142938866Y-72390615D01*
X142938866Y-72390615D02*
X142891247Y-72200139D01*
X142891247Y-72200139D02*
X142843628Y-72104901D01*
X142843628Y-72104901D02*
X142796009Y-72057282D01*
X142796009Y-72057282D02*
X142700771Y-72009663D01*
X142034104Y-72009663D02*
X141415057Y-72009663D01*
X141415057Y-72009663D02*
X141748390Y-72390615D01*
X141748390Y-72390615D02*
X141605533Y-72390615D01*
X141605533Y-72390615D02*
X141510295Y-72438234D01*
X141510295Y-72438234D02*
X141462676Y-72485853D01*
X141462676Y-72485853D02*
X141415057Y-72581091D01*
X141415057Y-72581091D02*
X141415057Y-72819186D01*
X141415057Y-72819186D02*
X141462676Y-72914424D01*
X141462676Y-72914424D02*
X141510295Y-72962044D01*
X141510295Y-72962044D02*
X141605533Y-73009663D01*
X141605533Y-73009663D02*
X141891247Y-73009663D01*
X141891247Y-73009663D02*
X141986485Y-72962044D01*
X141986485Y-72962044D02*
X142034104Y-72914424D01*
X140272200Y-71962044D02*
X141129342Y-73247758D01*
X139986485Y-72104901D02*
X139938866Y-72057282D01*
X139938866Y-72057282D02*
X139843628Y-72009663D01*
X139843628Y-72009663D02*
X139605533Y-72009663D01*
X139605533Y-72009663D02*
X139510295Y-72057282D01*
X139510295Y-72057282D02*
X139462676Y-72104901D01*
X139462676Y-72104901D02*
X139415057Y-72200139D01*
X139415057Y-72200139D02*
X139415057Y-72295377D01*
X139415057Y-72295377D02*
X139462676Y-72438234D01*
X139462676Y-72438234D02*
X140034104Y-73009663D01*
X140034104Y-73009663D02*
X139415057Y-73009663D01*
X138796009Y-72009663D02*
X138700771Y-72009663D01*
X138700771Y-72009663D02*
X138605533Y-72057282D01*
X138605533Y-72057282D02*
X138557914Y-72104901D01*
X138557914Y-72104901D02*
X138510295Y-72200139D01*
X138510295Y-72200139D02*
X138462676Y-72390615D01*
X138462676Y-72390615D02*
X138462676Y-72628710D01*
X138462676Y-72628710D02*
X138510295Y-72819186D01*
X138510295Y-72819186D02*
X138557914Y-72914424D01*
X138557914Y-72914424D02*
X138605533Y-72962044D01*
X138605533Y-72962044D02*
X138700771Y-73009663D01*
X138700771Y-73009663D02*
X138796009Y-73009663D01*
X138796009Y-73009663D02*
X138891247Y-72962044D01*
X138891247Y-72962044D02*
X138938866Y-72914424D01*
X138938866Y-72914424D02*
X138986485Y-72819186D01*
X138986485Y-72819186D02*
X139034104Y-72628710D01*
X139034104Y-72628710D02*
X139034104Y-72390615D01*
X139034104Y-72390615D02*
X138986485Y-72200139D01*
X138986485Y-72200139D02*
X138938866Y-72104901D01*
X138938866Y-72104901D02*
X138891247Y-72057282D01*
X138891247Y-72057282D02*
X138796009Y-72009663D01*
X138081723Y-72104901D02*
X138034104Y-72057282D01*
X138034104Y-72057282D02*
X137938866Y-72009663D01*
X137938866Y-72009663D02*
X137700771Y-72009663D01*
X137700771Y-72009663D02*
X137605533Y-72057282D01*
X137605533Y-72057282D02*
X137557914Y-72104901D01*
X137557914Y-72104901D02*
X137510295Y-72200139D01*
X137510295Y-72200139D02*
X137510295Y-72295377D01*
X137510295Y-72295377D02*
X137557914Y-72438234D01*
X137557914Y-72438234D02*
X138129342Y-73009663D01*
X138129342Y-73009663D02*
X137510295Y-73009663D01*
X136653152Y-72342996D02*
X136653152Y-73009663D01*
X136891247Y-71962044D02*
X137129342Y-72676329D01*
X137129342Y-72676329D02*
X136510295Y-72676329D01*
X138170336Y-106526485D02*
X138170336Y-105907438D01*
X138170336Y-105907438D02*
X137789384Y-106240771D01*
X137789384Y-106240771D02*
X137789384Y-106097914D01*
X137789384Y-106097914D02*
X137741765Y-106002676D01*
X137741765Y-106002676D02*
X137694146Y-105955057D01*
X137694146Y-105955057D02*
X137598908Y-105907438D01*
X137598908Y-105907438D02*
X137360813Y-105907438D01*
X137360813Y-105907438D02*
X137265575Y-105955057D01*
X137265575Y-105955057D02*
X137217956Y-106002676D01*
X137217956Y-106002676D02*
X137170336Y-106097914D01*
X137170336Y-106097914D02*
X137170336Y-106383628D01*
X137170336Y-106383628D02*
X137217956Y-106478866D01*
X137217956Y-106478866D02*
X137265575Y-106526485D01*
X137265575Y-105478866D02*
X137217956Y-105431247D01*
X137217956Y-105431247D02*
X137170336Y-105478866D01*
X137170336Y-105478866D02*
X137217956Y-105526485D01*
X137217956Y-105526485D02*
X137265575Y-105478866D01*
X137265575Y-105478866D02*
X137170336Y-105478866D01*
X138170336Y-105097914D02*
X138170336Y-104478867D01*
X138170336Y-104478867D02*
X137789384Y-104812200D01*
X137789384Y-104812200D02*
X137789384Y-104669343D01*
X137789384Y-104669343D02*
X137741765Y-104574105D01*
X137741765Y-104574105D02*
X137694146Y-104526486D01*
X137694146Y-104526486D02*
X137598908Y-104478867D01*
X137598908Y-104478867D02*
X137360813Y-104478867D01*
X137360813Y-104478867D02*
X137265575Y-104526486D01*
X137265575Y-104526486D02*
X137217956Y-104574105D01*
X137217956Y-104574105D02*
X137170336Y-104669343D01*
X137170336Y-104669343D02*
X137170336Y-104955057D01*
X137170336Y-104955057D02*
X137217956Y-105050295D01*
X137217956Y-105050295D02*
X137265575Y-105097914D01*
X138170336Y-104193152D02*
X137170336Y-103859819D01*
X137170336Y-103859819D02*
X138170336Y-103526486D01*
X149100336Y-106711247D02*
X150100336Y-106711247D01*
X149100336Y-105663629D02*
X149576527Y-105996962D01*
X149100336Y-106235057D02*
X150100336Y-106235057D01*
X150100336Y-106235057D02*
X150100336Y-105854105D01*
X150100336Y-105854105D02*
X150052717Y-105758867D01*
X150052717Y-105758867D02*
X150005098Y-105711248D01*
X150005098Y-105711248D02*
X149909860Y-105663629D01*
X149909860Y-105663629D02*
X149767003Y-105663629D01*
X149767003Y-105663629D02*
X149671765Y-105711248D01*
X149671765Y-105711248D02*
X149624146Y-105758867D01*
X149624146Y-105758867D02*
X149576527Y-105854105D01*
X149576527Y-105854105D02*
X149576527Y-106235057D01*
X149005098Y-104568391D02*
X149052717Y-104663629D01*
X149052717Y-104663629D02*
X149147956Y-104758867D01*
X149147956Y-104758867D02*
X149290813Y-104901724D01*
X149290813Y-104901724D02*
X149338432Y-104996962D01*
X149338432Y-104996962D02*
X149338432Y-105092200D01*
X149100336Y-105044581D02*
X149147956Y-105139819D01*
X149147956Y-105139819D02*
X149243194Y-105235057D01*
X149243194Y-105235057D02*
X149433670Y-105282676D01*
X149433670Y-105282676D02*
X149767003Y-105282676D01*
X149767003Y-105282676D02*
X149957479Y-105235057D01*
X149957479Y-105235057D02*
X150052717Y-105139819D01*
X150052717Y-105139819D02*
X150100336Y-105044581D01*
X150100336Y-105044581D02*
X150100336Y-104854105D01*
X150100336Y-104854105D02*
X150052717Y-104758867D01*
X150052717Y-104758867D02*
X149957479Y-104663629D01*
X149957479Y-104663629D02*
X149767003Y-104616010D01*
X149767003Y-104616010D02*
X149433670Y-104616010D01*
X149433670Y-104616010D02*
X149243194Y-104663629D01*
X149243194Y-104663629D02*
X149147956Y-104758867D01*
X149147956Y-104758867D02*
X149100336Y-104854105D01*
X149100336Y-104854105D02*
X149100336Y-105044581D01*
X141404104Y-74699663D02*
X141070771Y-75699663D01*
X141070771Y-75699663D02*
X140737438Y-74699663D01*
X140499342Y-74699663D02*
X139880295Y-74699663D01*
X139880295Y-74699663D02*
X140213628Y-75080615D01*
X140213628Y-75080615D02*
X140070771Y-75080615D01*
X140070771Y-75080615D02*
X139975533Y-75128234D01*
X139975533Y-75128234D02*
X139927914Y-75175853D01*
X139927914Y-75175853D02*
X139880295Y-75271091D01*
X139880295Y-75271091D02*
X139880295Y-75509186D01*
X139880295Y-75509186D02*
X139927914Y-75604424D01*
X139927914Y-75604424D02*
X139975533Y-75652044D01*
X139975533Y-75652044D02*
X140070771Y-75699663D01*
X140070771Y-75699663D02*
X140356485Y-75699663D01*
X140356485Y-75699663D02*
X140451723Y-75652044D01*
X140451723Y-75652044D02*
X140499342Y-75604424D01*
X139451723Y-75604424D02*
X139404104Y-75652044D01*
X139404104Y-75652044D02*
X139451723Y-75699663D01*
X139451723Y-75699663D02*
X139499342Y-75652044D01*
X139499342Y-75652044D02*
X139451723Y-75604424D01*
X139451723Y-75604424D02*
X139451723Y-75699663D01*
X138785057Y-74699663D02*
X138689819Y-74699663D01*
X138689819Y-74699663D02*
X138594581Y-74747282D01*
X138594581Y-74747282D02*
X138546962Y-74794901D01*
X138546962Y-74794901D02*
X138499343Y-74890139D01*
X138499343Y-74890139D02*
X138451724Y-75080615D01*
X138451724Y-75080615D02*
X138451724Y-75318710D01*
X138451724Y-75318710D02*
X138499343Y-75509186D01*
X138499343Y-75509186D02*
X138546962Y-75604424D01*
X138546962Y-75604424D02*
X138594581Y-75652044D01*
X138594581Y-75652044D02*
X138689819Y-75699663D01*
X138689819Y-75699663D02*
X138785057Y-75699663D01*
X138785057Y-75699663D02*
X138880295Y-75652044D01*
X138880295Y-75652044D02*
X138927914Y-75604424D01*
X138927914Y-75604424D02*
X138975533Y-75509186D01*
X138975533Y-75509186D02*
X139023152Y-75318710D01*
X139023152Y-75318710D02*
X139023152Y-75080615D01*
X139023152Y-75080615D02*
X138975533Y-74890139D01*
X138975533Y-74890139D02*
X138927914Y-74794901D01*
X138927914Y-74794901D02*
X138880295Y-74747282D01*
X138880295Y-74747282D02*
X138785057Y-74699663D01*
X144950336Y-106571247D02*
X145950336Y-106571247D01*
X145950336Y-106571247D02*
X145236051Y-106237914D01*
X145236051Y-106237914D02*
X145950336Y-105904581D01*
X145950336Y-105904581D02*
X144950336Y-105904581D01*
X144950336Y-105428390D02*
X145950336Y-105428390D01*
X144997956Y-104999819D02*
X144950336Y-104856962D01*
X144950336Y-104856962D02*
X144950336Y-104618867D01*
X144950336Y-104618867D02*
X144997956Y-104523629D01*
X144997956Y-104523629D02*
X145045575Y-104476010D01*
X145045575Y-104476010D02*
X145140813Y-104428391D01*
X145140813Y-104428391D02*
X145236051Y-104428391D01*
X145236051Y-104428391D02*
X145331289Y-104476010D01*
X145331289Y-104476010D02*
X145378908Y-104523629D01*
X145378908Y-104523629D02*
X145426527Y-104618867D01*
X145426527Y-104618867D02*
X145474146Y-104809343D01*
X145474146Y-104809343D02*
X145521765Y-104904581D01*
X145521765Y-104904581D02*
X145569384Y-104952200D01*
X145569384Y-104952200D02*
X145664622Y-104999819D01*
X145664622Y-104999819D02*
X145759860Y-104999819D01*
X145759860Y-104999819D02*
X145855098Y-104952200D01*
X145855098Y-104952200D02*
X145902717Y-104904581D01*
X145902717Y-104904581D02*
X145950336Y-104809343D01*
X145950336Y-104809343D02*
X145950336Y-104571248D01*
X145950336Y-104571248D02*
X145902717Y-104428391D01*
X145950336Y-103809343D02*
X145950336Y-103618867D01*
X145950336Y-103618867D02*
X145902717Y-103523629D01*
X145902717Y-103523629D02*
X145807479Y-103428391D01*
X145807479Y-103428391D02*
X145617003Y-103380772D01*
X145617003Y-103380772D02*
X145283670Y-103380772D01*
X145283670Y-103380772D02*
X145093194Y-103428391D01*
X145093194Y-103428391D02*
X144997956Y-103523629D01*
X144997956Y-103523629D02*
X144950336Y-103618867D01*
X144950336Y-103618867D02*
X144950336Y-103809343D01*
X144950336Y-103809343D02*
X144997956Y-103904581D01*
X144997956Y-103904581D02*
X145093194Y-103999819D01*
X145093194Y-103999819D02*
X145283670Y-104047438D01*
X145283670Y-104047438D02*
X145617003Y-104047438D01*
X145617003Y-104047438D02*
X145807479Y-103999819D01*
X145807479Y-103999819D02*
X145902717Y-103904581D01*
X145902717Y-103904581D02*
X145950336Y-103809343D01*
X148531247Y-69999663D02*
X148531247Y-68999663D01*
X148531247Y-68999663D02*
X148150295Y-68999663D01*
X148150295Y-68999663D02*
X148055057Y-69047282D01*
X148055057Y-69047282D02*
X148007438Y-69094901D01*
X148007438Y-69094901D02*
X147959819Y-69190139D01*
X147959819Y-69190139D02*
X147959819Y-69332996D01*
X147959819Y-69332996D02*
X148007438Y-69428234D01*
X148007438Y-69428234D02*
X148055057Y-69475853D01*
X148055057Y-69475853D02*
X148150295Y-69523472D01*
X148150295Y-69523472D02*
X148531247Y-69523472D01*
X147150295Y-69952044D02*
X147245533Y-69999663D01*
X147245533Y-69999663D02*
X147436009Y-69999663D01*
X147436009Y-69999663D02*
X147531247Y-69952044D01*
X147531247Y-69952044D02*
X147578866Y-69856805D01*
X147578866Y-69856805D02*
X147578866Y-69475853D01*
X147578866Y-69475853D02*
X147531247Y-69380615D01*
X147531247Y-69380615D02*
X147436009Y-69332996D01*
X147436009Y-69332996D02*
X147245533Y-69332996D01*
X147245533Y-69332996D02*
X147150295Y-69380615D01*
X147150295Y-69380615D02*
X147102676Y-69475853D01*
X147102676Y-69475853D02*
X147102676Y-69571091D01*
X147102676Y-69571091D02*
X147578866Y-69666329D01*
X146245533Y-69999663D02*
X146245533Y-68999663D01*
X146245533Y-69952044D02*
X146340771Y-69999663D01*
X146340771Y-69999663D02*
X146531247Y-69999663D01*
X146531247Y-69999663D02*
X146626485Y-69952044D01*
X146626485Y-69952044D02*
X146674104Y-69904424D01*
X146674104Y-69904424D02*
X146721723Y-69809186D01*
X146721723Y-69809186D02*
X146721723Y-69523472D01*
X146721723Y-69523472D02*
X146674104Y-69428234D01*
X146674104Y-69428234D02*
X146626485Y-69380615D01*
X146626485Y-69380615D02*
X146531247Y-69332996D01*
X146531247Y-69332996D02*
X146340771Y-69332996D01*
X146340771Y-69332996D02*
X146245533Y-69380615D01*
X145769342Y-69999663D02*
X145769342Y-69332996D01*
X145769342Y-69523472D02*
X145721723Y-69428234D01*
X145721723Y-69428234D02*
X145674104Y-69380615D01*
X145674104Y-69380615D02*
X145578866Y-69332996D01*
X145578866Y-69332996D02*
X145483628Y-69332996D01*
X145007437Y-69999663D02*
X145102675Y-69952044D01*
X145102675Y-69952044D02*
X145150294Y-69904424D01*
X145150294Y-69904424D02*
X145197913Y-69809186D01*
X145197913Y-69809186D02*
X145197913Y-69523472D01*
X145197913Y-69523472D02*
X145150294Y-69428234D01*
X145150294Y-69428234D02*
X145102675Y-69380615D01*
X145102675Y-69380615D02*
X145007437Y-69332996D01*
X145007437Y-69332996D02*
X144864580Y-69332996D01*
X144864580Y-69332996D02*
X144769342Y-69380615D01*
X144769342Y-69380615D02*
X144721723Y-69428234D01*
X144721723Y-69428234D02*
X144674104Y-69523472D01*
X144674104Y-69523472D02*
X144674104Y-69809186D01*
X144674104Y-69809186D02*
X144721723Y-69904424D01*
X144721723Y-69904424D02*
X144769342Y-69952044D01*
X144769342Y-69952044D02*
X144864580Y-69999663D01*
X144864580Y-69999663D02*
X145007437Y-69999663D01*
X143626484Y-68999663D02*
X143055056Y-68999663D01*
X143340770Y-69999663D02*
X143340770Y-68999663D01*
X142721722Y-69999663D02*
X142721722Y-69332996D01*
X142721722Y-69523472D02*
X142674103Y-69428234D01*
X142674103Y-69428234D02*
X142626484Y-69380615D01*
X142626484Y-69380615D02*
X142531246Y-69332996D01*
X142531246Y-69332996D02*
X142436008Y-69332996D01*
X141721722Y-69952044D02*
X141816960Y-69999663D01*
X141816960Y-69999663D02*
X142007436Y-69999663D01*
X142007436Y-69999663D02*
X142102674Y-69952044D01*
X142102674Y-69952044D02*
X142150293Y-69856805D01*
X142150293Y-69856805D02*
X142150293Y-69475853D01*
X142150293Y-69475853D02*
X142102674Y-69380615D01*
X142102674Y-69380615D02*
X142007436Y-69332996D01*
X142007436Y-69332996D02*
X141816960Y-69332996D01*
X141816960Y-69332996D02*
X141721722Y-69380615D01*
X141721722Y-69380615D02*
X141674103Y-69475853D01*
X141674103Y-69475853D02*
X141674103Y-69571091D01*
X141674103Y-69571091D02*
X142150293Y-69666329D01*
X141245531Y-69332996D02*
X141245531Y-69999663D01*
X141245531Y-69428234D02*
X141197912Y-69380615D01*
X141197912Y-69380615D02*
X141102674Y-69332996D01*
X141102674Y-69332996D02*
X140959817Y-69332996D01*
X140959817Y-69332996D02*
X140864579Y-69380615D01*
X140864579Y-69380615D02*
X140816960Y-69475853D01*
X140816960Y-69475853D02*
X140816960Y-69999663D01*
X139912198Y-69999663D02*
X139912198Y-69475853D01*
X139912198Y-69475853D02*
X139959817Y-69380615D01*
X139959817Y-69380615D02*
X140055055Y-69332996D01*
X140055055Y-69332996D02*
X140245531Y-69332996D01*
X140245531Y-69332996D02*
X140340769Y-69380615D01*
X139912198Y-69952044D02*
X140007436Y-69999663D01*
X140007436Y-69999663D02*
X140245531Y-69999663D01*
X140245531Y-69999663D02*
X140340769Y-69952044D01*
X140340769Y-69952044D02*
X140388388Y-69856805D01*
X140388388Y-69856805D02*
X140388388Y-69761567D01*
X140388388Y-69761567D02*
X140340769Y-69666329D01*
X140340769Y-69666329D02*
X140245531Y-69618710D01*
X140245531Y-69618710D02*
X140007436Y-69618710D01*
X140007436Y-69618710D02*
X139912198Y-69571091D01*
X139007436Y-69999663D02*
X139007436Y-68999663D01*
X139007436Y-69952044D02*
X139102674Y-69999663D01*
X139102674Y-69999663D02*
X139293150Y-69999663D01*
X139293150Y-69999663D02*
X139388388Y-69952044D01*
X139388388Y-69952044D02*
X139436007Y-69904424D01*
X139436007Y-69904424D02*
X139483626Y-69809186D01*
X139483626Y-69809186D02*
X139483626Y-69523472D01*
X139483626Y-69523472D02*
X139436007Y-69428234D01*
X139436007Y-69428234D02*
X139388388Y-69380615D01*
X139388388Y-69380615D02*
X139293150Y-69332996D01*
X139293150Y-69332996D02*
X139102674Y-69332996D01*
X139102674Y-69332996D02*
X139007436Y-69380615D01*
X138388388Y-69999663D02*
X138483626Y-69952044D01*
X138483626Y-69952044D02*
X138531245Y-69904424D01*
X138531245Y-69904424D02*
X138578864Y-69809186D01*
X138578864Y-69809186D02*
X138578864Y-69523472D01*
X138578864Y-69523472D02*
X138531245Y-69428234D01*
X138531245Y-69428234D02*
X138483626Y-69380615D01*
X138483626Y-69380615D02*
X138388388Y-69332996D01*
X138388388Y-69332996D02*
X138245531Y-69332996D01*
X138245531Y-69332996D02*
X138150293Y-69380615D01*
X138150293Y-69380615D02*
X138102674Y-69428234D01*
X138102674Y-69428234D02*
X138055055Y-69523472D01*
X138055055Y-69523472D02*
X138055055Y-69809186D01*
X138055055Y-69809186D02*
X138102674Y-69904424D01*
X138102674Y-69904424D02*
X138150293Y-69952044D01*
X138150293Y-69952044D02*
X138245531Y-69999663D01*
X138245531Y-69999663D02*
X138388388Y-69999663D01*
X136531245Y-69475853D02*
X136864578Y-69475853D01*
X136864578Y-69999663D02*
X136864578Y-68999663D01*
X136864578Y-68999663D02*
X136388388Y-68999663D01*
X136007435Y-69999663D02*
X136007435Y-69332996D01*
X136007435Y-68999663D02*
X136055054Y-69047282D01*
X136055054Y-69047282D02*
X136007435Y-69094901D01*
X136007435Y-69094901D02*
X135959816Y-69047282D01*
X135959816Y-69047282D02*
X136007435Y-68999663D01*
X136007435Y-68999663D02*
X136007435Y-69094901D01*
X135102674Y-69332996D02*
X135102674Y-70142520D01*
X135102674Y-70142520D02*
X135150293Y-70237758D01*
X135150293Y-70237758D02*
X135197912Y-70285377D01*
X135197912Y-70285377D02*
X135293150Y-70332996D01*
X135293150Y-70332996D02*
X135436007Y-70332996D01*
X135436007Y-70332996D02*
X135531245Y-70285377D01*
X135102674Y-69952044D02*
X135197912Y-69999663D01*
X135197912Y-69999663D02*
X135388388Y-69999663D01*
X135388388Y-69999663D02*
X135483626Y-69952044D01*
X135483626Y-69952044D02*
X135531245Y-69904424D01*
X135531245Y-69904424D02*
X135578864Y-69809186D01*
X135578864Y-69809186D02*
X135578864Y-69523472D01*
X135578864Y-69523472D02*
X135531245Y-69428234D01*
X135531245Y-69428234D02*
X135483626Y-69380615D01*
X135483626Y-69380615D02*
X135388388Y-69332996D01*
X135388388Y-69332996D02*
X135197912Y-69332996D01*
X135197912Y-69332996D02*
X135102674Y-69380615D01*
X134197912Y-69332996D02*
X134197912Y-69999663D01*
X134626483Y-69332996D02*
X134626483Y-69856805D01*
X134626483Y-69856805D02*
X134578864Y-69952044D01*
X134578864Y-69952044D02*
X134483626Y-69999663D01*
X134483626Y-69999663D02*
X134340769Y-69999663D01*
X134340769Y-69999663D02*
X134245531Y-69952044D01*
X134245531Y-69952044D02*
X134197912Y-69904424D01*
X133340769Y-69952044D02*
X133436007Y-69999663D01*
X133436007Y-69999663D02*
X133626483Y-69999663D01*
X133626483Y-69999663D02*
X133721721Y-69952044D01*
X133721721Y-69952044D02*
X133769340Y-69856805D01*
X133769340Y-69856805D02*
X133769340Y-69475853D01*
X133769340Y-69475853D02*
X133721721Y-69380615D01*
X133721721Y-69380615D02*
X133626483Y-69332996D01*
X133626483Y-69332996D02*
X133436007Y-69332996D01*
X133436007Y-69332996D02*
X133340769Y-69380615D01*
X133340769Y-69380615D02*
X133293150Y-69475853D01*
X133293150Y-69475853D02*
X133293150Y-69571091D01*
X133293150Y-69571091D02*
X133769340Y-69666329D01*
X132864578Y-69999663D02*
X132864578Y-69332996D01*
X132864578Y-69523472D02*
X132816959Y-69428234D01*
X132816959Y-69428234D02*
X132769340Y-69380615D01*
X132769340Y-69380615D02*
X132674102Y-69332996D01*
X132674102Y-69332996D02*
X132578864Y-69332996D01*
X132102673Y-69999663D02*
X132197911Y-69952044D01*
X132197911Y-69952044D02*
X132245530Y-69904424D01*
X132245530Y-69904424D02*
X132293149Y-69809186D01*
X132293149Y-69809186D02*
X132293149Y-69523472D01*
X132293149Y-69523472D02*
X132245530Y-69428234D01*
X132245530Y-69428234D02*
X132197911Y-69380615D01*
X132197911Y-69380615D02*
X132102673Y-69332996D01*
X132102673Y-69332996D02*
X131959816Y-69332996D01*
X131959816Y-69332996D02*
X131864578Y-69380615D01*
X131864578Y-69380615D02*
X131816959Y-69428234D01*
X131816959Y-69428234D02*
X131769340Y-69523472D01*
X131769340Y-69523472D02*
X131769340Y-69809186D01*
X131769340Y-69809186D02*
X131816959Y-69904424D01*
X131816959Y-69904424D02*
X131864578Y-69952044D01*
X131864578Y-69952044D02*
X131959816Y-69999663D01*
X131959816Y-69999663D02*
X132102673Y-69999663D01*
X130912197Y-69999663D02*
X130912197Y-69475853D01*
X130912197Y-69475853D02*
X130959816Y-69380615D01*
X130959816Y-69380615D02*
X131055054Y-69332996D01*
X131055054Y-69332996D02*
X131245530Y-69332996D01*
X131245530Y-69332996D02*
X131340768Y-69380615D01*
X130912197Y-69952044D02*
X131007435Y-69999663D01*
X131007435Y-69999663D02*
X131245530Y-69999663D01*
X131245530Y-69999663D02*
X131340768Y-69952044D01*
X131340768Y-69952044D02*
X131388387Y-69856805D01*
X131388387Y-69856805D02*
X131388387Y-69761567D01*
X131388387Y-69761567D02*
X131340768Y-69666329D01*
X131340768Y-69666329D02*
X131245530Y-69618710D01*
X131245530Y-69618710D02*
X131007435Y-69618710D01*
X131007435Y-69618710D02*
X130912197Y-69571091D01*
%LPC*%
D11*
X124080000Y-58640000D03*
X156120000Y-58640000D03*
D12*
X128530000Y-103060000D03*
D13*
X130530000Y-103060000D03*
D11*
X124060000Y-88020000D03*
D12*
X137670000Y-107810000D03*
D13*
X139670000Y-107810000D03*
X141670000Y-107810000D03*
X143670000Y-107810000D03*
X145670000Y-107810000D03*
X147670000Y-107810000D03*
X149670000Y-107810000D03*
X151670000Y-107810000D03*
D11*
X156110000Y-88020000D03*
%LPD*%
M02*
