%TF.GenerationSoftware,KiCad,Pcbnew,7.0.9*%
%TF.CreationDate,2024-04-20T19:07:23+02:00*%
%TF.ProjectId,NFC_Programmer,4e46435f-5072-46f6-9772-616d6d65722e,3.0*%
%TF.SameCoordinates,Original*%
%TF.FileFunction,Drillmap*%
%TF.FilePolarity,Positive*%
%FSLAX45Y45*%
G04 Gerber Fmt 4.5, Leading zero omitted, Abs format (unit mm)*
G04 Created by KiCad (PCBNEW 7.0.9) date 2024-04-20 19:07:23*
%MOMM*%
%LPD*%
G01*
G04 APERTURE LIST*
%ADD10C,0.100000*%
%ADD11C,0.200000*%
%ADD12C,0.300000*%
G04 APERTURE END LIST*
D10*
X16020000Y-11009000D02*
X15864000Y-11009000D01*
X12017000Y-11009000D01*
X12017000Y-5399000D01*
X16020000Y-5399000D01*
X16020000Y-11009000D01*
D11*
D12*
X12256000Y-8652000D02*
X12556000Y-8952000D01*
X12556000Y-8652000D02*
X12256000Y-8952000D01*
X12258000Y-5714000D02*
X12558000Y-6014000D01*
X12558000Y-5714000D02*
X12258000Y-6014000D01*
X15461000Y-8652000D02*
X15761000Y-8952000D01*
X15761000Y-8652000D02*
X15461000Y-8952000D01*
X15462000Y-5714000D02*
X15762000Y-6014000D01*
X15762000Y-5714000D02*
X15462000Y-6014000D01*
D11*
X12272777Y-11325484D02*
X12272777Y-11125484D01*
X12272777Y-11125484D02*
X12320396Y-11125484D01*
X12320396Y-11125484D02*
X12348967Y-11135008D01*
X12348967Y-11135008D02*
X12368015Y-11154055D01*
X12368015Y-11154055D02*
X12377539Y-11173103D01*
X12377539Y-11173103D02*
X12387062Y-11211198D01*
X12387062Y-11211198D02*
X12387062Y-11239769D01*
X12387062Y-11239769D02*
X12377539Y-11277865D01*
X12377539Y-11277865D02*
X12368015Y-11296912D01*
X12368015Y-11296912D02*
X12348967Y-11315960D01*
X12348967Y-11315960D02*
X12320396Y-11325484D01*
X12320396Y-11325484D02*
X12272777Y-11325484D01*
X12472777Y-11325484D02*
X12472777Y-11192150D01*
X12472777Y-11230246D02*
X12482301Y-11211198D01*
X12482301Y-11211198D02*
X12491824Y-11201674D01*
X12491824Y-11201674D02*
X12510872Y-11192150D01*
X12510872Y-11192150D02*
X12529920Y-11192150D01*
X12596586Y-11325484D02*
X12596586Y-11192150D01*
X12596586Y-11125484D02*
X12587062Y-11135008D01*
X12587062Y-11135008D02*
X12596586Y-11144531D01*
X12596586Y-11144531D02*
X12606110Y-11135008D01*
X12606110Y-11135008D02*
X12596586Y-11125484D01*
X12596586Y-11125484D02*
X12596586Y-11144531D01*
X12720396Y-11325484D02*
X12701348Y-11315960D01*
X12701348Y-11315960D02*
X12691824Y-11296912D01*
X12691824Y-11296912D02*
X12691824Y-11125484D01*
X12825158Y-11325484D02*
X12806110Y-11315960D01*
X12806110Y-11315960D02*
X12796586Y-11296912D01*
X12796586Y-11296912D02*
X12796586Y-11125484D01*
X13053729Y-11325484D02*
X13053729Y-11125484D01*
X13053729Y-11125484D02*
X13120396Y-11268341D01*
X13120396Y-11268341D02*
X13187062Y-11125484D01*
X13187062Y-11125484D02*
X13187062Y-11325484D01*
X13368015Y-11325484D02*
X13368015Y-11220722D01*
X13368015Y-11220722D02*
X13358491Y-11201674D01*
X13358491Y-11201674D02*
X13339443Y-11192150D01*
X13339443Y-11192150D02*
X13301348Y-11192150D01*
X13301348Y-11192150D02*
X13282301Y-11201674D01*
X13368015Y-11315960D02*
X13348967Y-11325484D01*
X13348967Y-11325484D02*
X13301348Y-11325484D01*
X13301348Y-11325484D02*
X13282301Y-11315960D01*
X13282301Y-11315960D02*
X13272777Y-11296912D01*
X13272777Y-11296912D02*
X13272777Y-11277865D01*
X13272777Y-11277865D02*
X13282301Y-11258817D01*
X13282301Y-11258817D02*
X13301348Y-11249293D01*
X13301348Y-11249293D02*
X13348967Y-11249293D01*
X13348967Y-11249293D02*
X13368015Y-11239769D01*
X13463253Y-11192150D02*
X13463253Y-11392150D01*
X13463253Y-11201674D02*
X13482301Y-11192150D01*
X13482301Y-11192150D02*
X13520396Y-11192150D01*
X13520396Y-11192150D02*
X13539443Y-11201674D01*
X13539443Y-11201674D02*
X13548967Y-11211198D01*
X13548967Y-11211198D02*
X13558491Y-11230246D01*
X13558491Y-11230246D02*
X13558491Y-11287388D01*
X13558491Y-11287388D02*
X13548967Y-11306436D01*
X13548967Y-11306436D02*
X13539443Y-11315960D01*
X13539443Y-11315960D02*
X13520396Y-11325484D01*
X13520396Y-11325484D02*
X13482301Y-11325484D01*
X13482301Y-11325484D02*
X13463253Y-11315960D01*
X13644205Y-11306436D02*
X13653729Y-11315960D01*
X13653729Y-11315960D02*
X13644205Y-11325484D01*
X13644205Y-11325484D02*
X13634682Y-11315960D01*
X13634682Y-11315960D02*
X13644205Y-11306436D01*
X13644205Y-11306436D02*
X13644205Y-11325484D01*
X13644205Y-11201674D02*
X13653729Y-11211198D01*
X13653729Y-11211198D02*
X13644205Y-11220722D01*
X13644205Y-11220722D02*
X13634682Y-11211198D01*
X13634682Y-11211198D02*
X13644205Y-11201674D01*
X13644205Y-11201674D02*
X13644205Y-11220722D01*
X11812000Y-11554000D02*
X12012000Y-11754000D01*
X12012000Y-11554000D02*
X11812000Y-11754000D01*
X12253729Y-11545484D02*
X12377539Y-11545484D01*
X12377539Y-11545484D02*
X12310872Y-11621674D01*
X12310872Y-11621674D02*
X12339443Y-11621674D01*
X12339443Y-11621674D02*
X12358491Y-11631198D01*
X12358491Y-11631198D02*
X12368015Y-11640722D01*
X12368015Y-11640722D02*
X12377539Y-11659769D01*
X12377539Y-11659769D02*
X12377539Y-11707388D01*
X12377539Y-11707388D02*
X12368015Y-11726436D01*
X12368015Y-11726436D02*
X12358491Y-11735960D01*
X12358491Y-11735960D02*
X12339443Y-11745484D01*
X12339443Y-11745484D02*
X12282301Y-11745484D01*
X12282301Y-11745484D02*
X12263253Y-11735960D01*
X12263253Y-11735960D02*
X12253729Y-11726436D01*
X12463253Y-11726436D02*
X12472777Y-11735960D01*
X12472777Y-11735960D02*
X12463253Y-11745484D01*
X12463253Y-11745484D02*
X12453729Y-11735960D01*
X12453729Y-11735960D02*
X12463253Y-11726436D01*
X12463253Y-11726436D02*
X12463253Y-11745484D01*
X12596586Y-11545484D02*
X12615634Y-11545484D01*
X12615634Y-11545484D02*
X12634682Y-11555008D01*
X12634682Y-11555008D02*
X12644205Y-11564531D01*
X12644205Y-11564531D02*
X12653729Y-11583579D01*
X12653729Y-11583579D02*
X12663253Y-11621674D01*
X12663253Y-11621674D02*
X12663253Y-11669293D01*
X12663253Y-11669293D02*
X12653729Y-11707388D01*
X12653729Y-11707388D02*
X12644205Y-11726436D01*
X12644205Y-11726436D02*
X12634682Y-11735960D01*
X12634682Y-11735960D02*
X12615634Y-11745484D01*
X12615634Y-11745484D02*
X12596586Y-11745484D01*
X12596586Y-11745484D02*
X12577539Y-11735960D01*
X12577539Y-11735960D02*
X12568015Y-11726436D01*
X12568015Y-11726436D02*
X12558491Y-11707388D01*
X12558491Y-11707388D02*
X12548967Y-11669293D01*
X12548967Y-11669293D02*
X12548967Y-11621674D01*
X12548967Y-11621674D02*
X12558491Y-11583579D01*
X12558491Y-11583579D02*
X12568015Y-11564531D01*
X12568015Y-11564531D02*
X12577539Y-11555008D01*
X12577539Y-11555008D02*
X12596586Y-11545484D01*
X12787062Y-11545484D02*
X12806110Y-11545484D01*
X12806110Y-11545484D02*
X12825158Y-11555008D01*
X12825158Y-11555008D02*
X12834682Y-11564531D01*
X12834682Y-11564531D02*
X12844205Y-11583579D01*
X12844205Y-11583579D02*
X12853729Y-11621674D01*
X12853729Y-11621674D02*
X12853729Y-11669293D01*
X12853729Y-11669293D02*
X12844205Y-11707388D01*
X12844205Y-11707388D02*
X12834682Y-11726436D01*
X12834682Y-11726436D02*
X12825158Y-11735960D01*
X12825158Y-11735960D02*
X12806110Y-11745484D01*
X12806110Y-11745484D02*
X12787062Y-11745484D01*
X12787062Y-11745484D02*
X12768015Y-11735960D01*
X12768015Y-11735960D02*
X12758491Y-11726436D01*
X12758491Y-11726436D02*
X12748967Y-11707388D01*
X12748967Y-11707388D02*
X12739443Y-11669293D01*
X12739443Y-11669293D02*
X12739443Y-11621674D01*
X12739443Y-11621674D02*
X12748967Y-11583579D01*
X12748967Y-11583579D02*
X12758491Y-11564531D01*
X12758491Y-11564531D02*
X12768015Y-11555008D01*
X12768015Y-11555008D02*
X12787062Y-11545484D01*
X12977539Y-11545484D02*
X12996586Y-11545484D01*
X12996586Y-11545484D02*
X13015634Y-11555008D01*
X13015634Y-11555008D02*
X13025158Y-11564531D01*
X13025158Y-11564531D02*
X13034682Y-11583579D01*
X13034682Y-11583579D02*
X13044205Y-11621674D01*
X13044205Y-11621674D02*
X13044205Y-11669293D01*
X13044205Y-11669293D02*
X13034682Y-11707388D01*
X13034682Y-11707388D02*
X13025158Y-11726436D01*
X13025158Y-11726436D02*
X13015634Y-11735960D01*
X13015634Y-11735960D02*
X12996586Y-11745484D01*
X12996586Y-11745484D02*
X12977539Y-11745484D01*
X12977539Y-11745484D02*
X12958491Y-11735960D01*
X12958491Y-11735960D02*
X12948967Y-11726436D01*
X12948967Y-11726436D02*
X12939443Y-11707388D01*
X12939443Y-11707388D02*
X12929920Y-11669293D01*
X12929920Y-11669293D02*
X12929920Y-11621674D01*
X12929920Y-11621674D02*
X12939443Y-11583579D01*
X12939443Y-11583579D02*
X12948967Y-11564531D01*
X12948967Y-11564531D02*
X12958491Y-11555008D01*
X12958491Y-11555008D02*
X12977539Y-11545484D01*
X13129920Y-11745484D02*
X13129920Y-11612150D01*
X13129920Y-11631198D02*
X13139443Y-11621674D01*
X13139443Y-11621674D02*
X13158491Y-11612150D01*
X13158491Y-11612150D02*
X13187063Y-11612150D01*
X13187063Y-11612150D02*
X13206110Y-11621674D01*
X13206110Y-11621674D02*
X13215634Y-11640722D01*
X13215634Y-11640722D02*
X13215634Y-11745484D01*
X13215634Y-11640722D02*
X13225158Y-11621674D01*
X13225158Y-11621674D02*
X13244205Y-11612150D01*
X13244205Y-11612150D02*
X13272777Y-11612150D01*
X13272777Y-11612150D02*
X13291824Y-11621674D01*
X13291824Y-11621674D02*
X13301348Y-11640722D01*
X13301348Y-11640722D02*
X13301348Y-11745484D01*
X13396586Y-11745484D02*
X13396586Y-11612150D01*
X13396586Y-11631198D02*
X13406110Y-11621674D01*
X13406110Y-11621674D02*
X13425158Y-11612150D01*
X13425158Y-11612150D02*
X13453729Y-11612150D01*
X13453729Y-11612150D02*
X13472777Y-11621674D01*
X13472777Y-11621674D02*
X13482301Y-11640722D01*
X13482301Y-11640722D02*
X13482301Y-11745484D01*
X13482301Y-11640722D02*
X13491824Y-11621674D01*
X13491824Y-11621674D02*
X13510872Y-11612150D01*
X13510872Y-11612150D02*
X13539443Y-11612150D01*
X13539443Y-11612150D02*
X13558491Y-11621674D01*
X13558491Y-11621674D02*
X13568015Y-11640722D01*
X13568015Y-11640722D02*
X13568015Y-11745484D01*
X13958491Y-11535960D02*
X13787063Y-11793103D01*
X14215634Y-11545484D02*
X14234682Y-11545484D01*
X14234682Y-11545484D02*
X14253729Y-11555008D01*
X14253729Y-11555008D02*
X14263253Y-11564531D01*
X14263253Y-11564531D02*
X14272777Y-11583579D01*
X14272777Y-11583579D02*
X14282301Y-11621674D01*
X14282301Y-11621674D02*
X14282301Y-11669293D01*
X14282301Y-11669293D02*
X14272777Y-11707388D01*
X14272777Y-11707388D02*
X14263253Y-11726436D01*
X14263253Y-11726436D02*
X14253729Y-11735960D01*
X14253729Y-11735960D02*
X14234682Y-11745484D01*
X14234682Y-11745484D02*
X14215634Y-11745484D01*
X14215634Y-11745484D02*
X14196586Y-11735960D01*
X14196586Y-11735960D02*
X14187063Y-11726436D01*
X14187063Y-11726436D02*
X14177539Y-11707388D01*
X14177539Y-11707388D02*
X14168015Y-11669293D01*
X14168015Y-11669293D02*
X14168015Y-11621674D01*
X14168015Y-11621674D02*
X14177539Y-11583579D01*
X14177539Y-11583579D02*
X14187063Y-11564531D01*
X14187063Y-11564531D02*
X14196586Y-11555008D01*
X14196586Y-11555008D02*
X14215634Y-11545484D01*
X14368015Y-11726436D02*
X14377539Y-11735960D01*
X14377539Y-11735960D02*
X14368015Y-11745484D01*
X14368015Y-11745484D02*
X14358491Y-11735960D01*
X14358491Y-11735960D02*
X14368015Y-11726436D01*
X14368015Y-11726436D02*
X14368015Y-11745484D01*
X14568015Y-11745484D02*
X14453729Y-11745484D01*
X14510872Y-11745484D02*
X14510872Y-11545484D01*
X14510872Y-11545484D02*
X14491825Y-11574055D01*
X14491825Y-11574055D02*
X14472777Y-11593103D01*
X14472777Y-11593103D02*
X14453729Y-11602627D01*
X14758491Y-11745484D02*
X14644206Y-11745484D01*
X14701348Y-11745484D02*
X14701348Y-11545484D01*
X14701348Y-11545484D02*
X14682301Y-11574055D01*
X14682301Y-11574055D02*
X14663253Y-11593103D01*
X14663253Y-11593103D02*
X14644206Y-11602627D01*
X14872777Y-11631198D02*
X14853729Y-11621674D01*
X14853729Y-11621674D02*
X14844206Y-11612150D01*
X14844206Y-11612150D02*
X14834682Y-11593103D01*
X14834682Y-11593103D02*
X14834682Y-11583579D01*
X14834682Y-11583579D02*
X14844206Y-11564531D01*
X14844206Y-11564531D02*
X14853729Y-11555008D01*
X14853729Y-11555008D02*
X14872777Y-11545484D01*
X14872777Y-11545484D02*
X14910872Y-11545484D01*
X14910872Y-11545484D02*
X14929920Y-11555008D01*
X14929920Y-11555008D02*
X14939444Y-11564531D01*
X14939444Y-11564531D02*
X14948967Y-11583579D01*
X14948967Y-11583579D02*
X14948967Y-11593103D01*
X14948967Y-11593103D02*
X14939444Y-11612150D01*
X14939444Y-11612150D02*
X14929920Y-11621674D01*
X14929920Y-11621674D02*
X14910872Y-11631198D01*
X14910872Y-11631198D02*
X14872777Y-11631198D01*
X14872777Y-11631198D02*
X14853729Y-11640722D01*
X14853729Y-11640722D02*
X14844206Y-11650246D01*
X14844206Y-11650246D02*
X14834682Y-11669293D01*
X14834682Y-11669293D02*
X14834682Y-11707388D01*
X14834682Y-11707388D02*
X14844206Y-11726436D01*
X14844206Y-11726436D02*
X14853729Y-11735960D01*
X14853729Y-11735960D02*
X14872777Y-11745484D01*
X14872777Y-11745484D02*
X14910872Y-11745484D01*
X14910872Y-11745484D02*
X14929920Y-11735960D01*
X14929920Y-11735960D02*
X14939444Y-11726436D01*
X14939444Y-11726436D02*
X14948967Y-11707388D01*
X14948967Y-11707388D02*
X14948967Y-11669293D01*
X14948967Y-11669293D02*
X14939444Y-11650246D01*
X14939444Y-11650246D02*
X14929920Y-11640722D01*
X14929920Y-11640722D02*
X14910872Y-11631198D01*
X15139444Y-11745484D02*
X15025158Y-11745484D01*
X15082301Y-11745484D02*
X15082301Y-11545484D01*
X15082301Y-11545484D02*
X15063253Y-11574055D01*
X15063253Y-11574055D02*
X15044206Y-11593103D01*
X15044206Y-11593103D02*
X15025158Y-11602627D01*
X15215634Y-11545484D02*
X15215634Y-11583579D01*
X15291825Y-11545484D02*
X15291825Y-11583579D01*
X15587063Y-11821674D02*
X15577539Y-11812150D01*
X15577539Y-11812150D02*
X15558491Y-11783579D01*
X15558491Y-11783579D02*
X15548968Y-11764531D01*
X15548968Y-11764531D02*
X15539444Y-11735960D01*
X15539444Y-11735960D02*
X15529920Y-11688341D01*
X15529920Y-11688341D02*
X15529920Y-11650246D01*
X15529920Y-11650246D02*
X15539444Y-11602627D01*
X15539444Y-11602627D02*
X15548968Y-11574055D01*
X15548968Y-11574055D02*
X15558491Y-11555008D01*
X15558491Y-11555008D02*
X15577539Y-11526436D01*
X15577539Y-11526436D02*
X15587063Y-11516912D01*
X15748968Y-11612150D02*
X15748968Y-11745484D01*
X15701348Y-11535960D02*
X15653729Y-11678817D01*
X15653729Y-11678817D02*
X15777539Y-11678817D01*
X16006110Y-11745484D02*
X16006110Y-11545484D01*
X16091825Y-11745484D02*
X16091825Y-11640722D01*
X16091825Y-11640722D02*
X16082301Y-11621674D01*
X16082301Y-11621674D02*
X16063253Y-11612150D01*
X16063253Y-11612150D02*
X16034682Y-11612150D01*
X16034682Y-11612150D02*
X16015634Y-11621674D01*
X16015634Y-11621674D02*
X16006110Y-11631198D01*
X16215634Y-11745484D02*
X16196587Y-11735960D01*
X16196587Y-11735960D02*
X16187063Y-11726436D01*
X16187063Y-11726436D02*
X16177539Y-11707388D01*
X16177539Y-11707388D02*
X16177539Y-11650246D01*
X16177539Y-11650246D02*
X16187063Y-11631198D01*
X16187063Y-11631198D02*
X16196587Y-11621674D01*
X16196587Y-11621674D02*
X16215634Y-11612150D01*
X16215634Y-11612150D02*
X16244206Y-11612150D01*
X16244206Y-11612150D02*
X16263253Y-11621674D01*
X16263253Y-11621674D02*
X16272777Y-11631198D01*
X16272777Y-11631198D02*
X16282301Y-11650246D01*
X16282301Y-11650246D02*
X16282301Y-11707388D01*
X16282301Y-11707388D02*
X16272777Y-11726436D01*
X16272777Y-11726436D02*
X16263253Y-11735960D01*
X16263253Y-11735960D02*
X16244206Y-11745484D01*
X16244206Y-11745484D02*
X16215634Y-11745484D01*
X16396587Y-11745484D02*
X16377539Y-11735960D01*
X16377539Y-11735960D02*
X16368015Y-11716912D01*
X16368015Y-11716912D02*
X16368015Y-11545484D01*
X16548968Y-11735960D02*
X16529920Y-11745484D01*
X16529920Y-11745484D02*
X16491825Y-11745484D01*
X16491825Y-11745484D02*
X16472777Y-11735960D01*
X16472777Y-11735960D02*
X16463253Y-11716912D01*
X16463253Y-11716912D02*
X16463253Y-11640722D01*
X16463253Y-11640722D02*
X16472777Y-11621674D01*
X16472777Y-11621674D02*
X16491825Y-11612150D01*
X16491825Y-11612150D02*
X16529920Y-11612150D01*
X16529920Y-11612150D02*
X16548968Y-11621674D01*
X16548968Y-11621674D02*
X16558491Y-11640722D01*
X16558491Y-11640722D02*
X16558491Y-11659769D01*
X16558491Y-11659769D02*
X16463253Y-11678817D01*
X16634682Y-11735960D02*
X16653730Y-11745484D01*
X16653730Y-11745484D02*
X16691825Y-11745484D01*
X16691825Y-11745484D02*
X16710872Y-11735960D01*
X16710872Y-11735960D02*
X16720396Y-11716912D01*
X16720396Y-11716912D02*
X16720396Y-11707388D01*
X16720396Y-11707388D02*
X16710872Y-11688341D01*
X16710872Y-11688341D02*
X16691825Y-11678817D01*
X16691825Y-11678817D02*
X16663253Y-11678817D01*
X16663253Y-11678817D02*
X16644206Y-11669293D01*
X16644206Y-11669293D02*
X16634682Y-11650246D01*
X16634682Y-11650246D02*
X16634682Y-11640722D01*
X16634682Y-11640722D02*
X16644206Y-11621674D01*
X16644206Y-11621674D02*
X16663253Y-11612150D01*
X16663253Y-11612150D02*
X16691825Y-11612150D01*
X16691825Y-11612150D02*
X16710872Y-11621674D01*
X16787063Y-11821674D02*
X16796587Y-11812150D01*
X16796587Y-11812150D02*
X16815634Y-11783579D01*
X16815634Y-11783579D02*
X16825158Y-11764531D01*
X16825158Y-11764531D02*
X16834682Y-11735960D01*
X16834682Y-11735960D02*
X16844206Y-11688341D01*
X16844206Y-11688341D02*
X16844206Y-11650246D01*
X16844206Y-11650246D02*
X16834682Y-11602627D01*
X16834682Y-11602627D02*
X16825158Y-11574055D01*
X16825158Y-11574055D02*
X16815634Y-11555008D01*
X16815634Y-11555008D02*
X16796587Y-11526436D01*
X16796587Y-11526436D02*
X16787063Y-11516912D01*
X17148968Y-11821674D02*
X17139444Y-11812150D01*
X17139444Y-11812150D02*
X17120396Y-11783579D01*
X17120396Y-11783579D02*
X17110873Y-11764531D01*
X17110873Y-11764531D02*
X17101349Y-11735960D01*
X17101349Y-11735960D02*
X17091825Y-11688341D01*
X17091825Y-11688341D02*
X17091825Y-11650246D01*
X17091825Y-11650246D02*
X17101349Y-11602627D01*
X17101349Y-11602627D02*
X17110873Y-11574055D01*
X17110873Y-11574055D02*
X17120396Y-11555008D01*
X17120396Y-11555008D02*
X17139444Y-11526436D01*
X17139444Y-11526436D02*
X17148968Y-11516912D01*
X17225158Y-11612150D02*
X17225158Y-11745484D01*
X17225158Y-11631198D02*
X17234682Y-11621674D01*
X17234682Y-11621674D02*
X17253730Y-11612150D01*
X17253730Y-11612150D02*
X17282301Y-11612150D01*
X17282301Y-11612150D02*
X17301349Y-11621674D01*
X17301349Y-11621674D02*
X17310873Y-11640722D01*
X17310873Y-11640722D02*
X17310873Y-11745484D01*
X17434682Y-11745484D02*
X17415634Y-11735960D01*
X17415634Y-11735960D02*
X17406111Y-11726436D01*
X17406111Y-11726436D02*
X17396587Y-11707388D01*
X17396587Y-11707388D02*
X17396587Y-11650246D01*
X17396587Y-11650246D02*
X17406111Y-11631198D01*
X17406111Y-11631198D02*
X17415634Y-11621674D01*
X17415634Y-11621674D02*
X17434682Y-11612150D01*
X17434682Y-11612150D02*
X17463254Y-11612150D01*
X17463254Y-11612150D02*
X17482301Y-11621674D01*
X17482301Y-11621674D02*
X17491825Y-11631198D01*
X17491825Y-11631198D02*
X17501349Y-11650246D01*
X17501349Y-11650246D02*
X17501349Y-11707388D01*
X17501349Y-11707388D02*
X17491825Y-11726436D01*
X17491825Y-11726436D02*
X17482301Y-11735960D01*
X17482301Y-11735960D02*
X17463254Y-11745484D01*
X17463254Y-11745484D02*
X17434682Y-11745484D01*
X17558492Y-11612150D02*
X17634682Y-11612150D01*
X17587063Y-11545484D02*
X17587063Y-11716912D01*
X17587063Y-11716912D02*
X17596587Y-11735960D01*
X17596587Y-11735960D02*
X17615634Y-11745484D01*
X17615634Y-11745484D02*
X17634682Y-11745484D01*
X17853730Y-11612150D02*
X17853730Y-11812150D01*
X17853730Y-11621674D02*
X17872777Y-11612150D01*
X17872777Y-11612150D02*
X17910873Y-11612150D01*
X17910873Y-11612150D02*
X17929920Y-11621674D01*
X17929920Y-11621674D02*
X17939444Y-11631198D01*
X17939444Y-11631198D02*
X17948968Y-11650246D01*
X17948968Y-11650246D02*
X17948968Y-11707388D01*
X17948968Y-11707388D02*
X17939444Y-11726436D01*
X17939444Y-11726436D02*
X17929920Y-11735960D01*
X17929920Y-11735960D02*
X17910873Y-11745484D01*
X17910873Y-11745484D02*
X17872777Y-11745484D01*
X17872777Y-11745484D02*
X17853730Y-11735960D01*
X18063254Y-11745484D02*
X18044206Y-11735960D01*
X18044206Y-11735960D02*
X18034682Y-11716912D01*
X18034682Y-11716912D02*
X18034682Y-11545484D01*
X18225158Y-11745484D02*
X18225158Y-11640722D01*
X18225158Y-11640722D02*
X18215635Y-11621674D01*
X18215635Y-11621674D02*
X18196587Y-11612150D01*
X18196587Y-11612150D02*
X18158492Y-11612150D01*
X18158492Y-11612150D02*
X18139444Y-11621674D01*
X18225158Y-11735960D02*
X18206111Y-11745484D01*
X18206111Y-11745484D02*
X18158492Y-11745484D01*
X18158492Y-11745484D02*
X18139444Y-11735960D01*
X18139444Y-11735960D02*
X18129920Y-11716912D01*
X18129920Y-11716912D02*
X18129920Y-11697865D01*
X18129920Y-11697865D02*
X18139444Y-11678817D01*
X18139444Y-11678817D02*
X18158492Y-11669293D01*
X18158492Y-11669293D02*
X18206111Y-11669293D01*
X18206111Y-11669293D02*
X18225158Y-11659769D01*
X18291825Y-11612150D02*
X18368015Y-11612150D01*
X18320396Y-11545484D02*
X18320396Y-11716912D01*
X18320396Y-11716912D02*
X18329920Y-11735960D01*
X18329920Y-11735960D02*
X18348968Y-11745484D01*
X18348968Y-11745484D02*
X18368015Y-11745484D01*
X18510873Y-11735960D02*
X18491825Y-11745484D01*
X18491825Y-11745484D02*
X18453730Y-11745484D01*
X18453730Y-11745484D02*
X18434682Y-11735960D01*
X18434682Y-11735960D02*
X18425158Y-11716912D01*
X18425158Y-11716912D02*
X18425158Y-11640722D01*
X18425158Y-11640722D02*
X18434682Y-11621674D01*
X18434682Y-11621674D02*
X18453730Y-11612150D01*
X18453730Y-11612150D02*
X18491825Y-11612150D01*
X18491825Y-11612150D02*
X18510873Y-11621674D01*
X18510873Y-11621674D02*
X18520396Y-11640722D01*
X18520396Y-11640722D02*
X18520396Y-11659769D01*
X18520396Y-11659769D02*
X18425158Y-11678817D01*
X18691825Y-11745484D02*
X18691825Y-11545484D01*
X18691825Y-11735960D02*
X18672777Y-11745484D01*
X18672777Y-11745484D02*
X18634682Y-11745484D01*
X18634682Y-11745484D02*
X18615635Y-11735960D01*
X18615635Y-11735960D02*
X18606111Y-11726436D01*
X18606111Y-11726436D02*
X18596587Y-11707388D01*
X18596587Y-11707388D02*
X18596587Y-11650246D01*
X18596587Y-11650246D02*
X18606111Y-11631198D01*
X18606111Y-11631198D02*
X18615635Y-11621674D01*
X18615635Y-11621674D02*
X18634682Y-11612150D01*
X18634682Y-11612150D02*
X18672777Y-11612150D01*
X18672777Y-11612150D02*
X18691825Y-11621674D01*
X18768016Y-11821674D02*
X18777539Y-11812150D01*
X18777539Y-11812150D02*
X18796587Y-11783579D01*
X18796587Y-11783579D02*
X18806111Y-11764531D01*
X18806111Y-11764531D02*
X18815635Y-11735960D01*
X18815635Y-11735960D02*
X18825158Y-11688341D01*
X18825158Y-11688341D02*
X18825158Y-11650246D01*
X18825158Y-11650246D02*
X18815635Y-11602627D01*
X18815635Y-11602627D02*
X18806111Y-11574055D01*
X18806111Y-11574055D02*
X18796587Y-11555008D01*
X18796587Y-11555008D02*
X18777539Y-11526436D01*
X18777539Y-11526436D02*
X18768016Y-11516912D01*
M02*
