%TF.GenerationSoftware,KiCad,Pcbnew,7.0.9*%
%TF.CreationDate,2024-04-20T19:07:23+02:00*%
%TF.ProjectId,NFC_Programmer,4e46435f-5072-46f6-9772-616d6d65722e,3.0*%
%TF.SameCoordinates,Original*%
%TF.FileFunction,Drillmap*%
%TF.FilePolarity,Positive*%
%FSLAX45Y45*%
G04 Gerber Fmt 4.5, Leading zero omitted, Abs format (unit mm)*
G04 Created by KiCad (PCBNEW 7.0.9) date 2024-04-20 19:07:23*
%MOMM*%
%LPD*%
G01*
G04 APERTURE LIST*
%ADD10C,0.100000*%
%ADD11C,0.200000*%
G04 APERTURE END LIST*
D10*
X16020000Y-11009000D02*
X15864000Y-11009000D01*
X12017000Y-11009000D01*
X12017000Y-5399000D01*
X16020000Y-5399000D01*
X16020000Y-11009000D01*
D11*
D10*
X12107000Y-10219000D02*
X12117000Y-10229000D01*
X12117000Y-10219000D02*
X12107000Y-10229000D01*
X12107000Y-10280000D02*
X12117000Y-10290000D01*
X12117000Y-10280000D02*
X12107000Y-10290000D01*
X12107000Y-10337000D02*
X12117000Y-10347000D01*
X12117000Y-10337000D02*
X12107000Y-10347000D01*
X12107000Y-10398000D02*
X12117000Y-10408000D01*
X12117000Y-10398000D02*
X12107000Y-10408000D01*
X12107000Y-10711000D02*
X12117000Y-10721000D01*
X12117000Y-10711000D02*
X12107000Y-10721000D01*
X12107000Y-10772000D02*
X12117000Y-10782000D01*
X12117000Y-10772000D02*
X12107000Y-10782000D01*
X12107000Y-10829000D02*
X12117000Y-10839000D01*
X12117000Y-10829000D02*
X12107000Y-10839000D01*
X12107000Y-10890000D02*
X12117000Y-10900000D01*
X12117000Y-10890000D02*
X12107000Y-10900000D01*
X12108000Y-9970000D02*
X12118000Y-9980000D01*
X12118000Y-9970000D02*
X12108000Y-9980000D01*
X12108000Y-10031000D02*
X12118000Y-10041000D01*
X12118000Y-10031000D02*
X12108000Y-10041000D01*
X12108000Y-10088000D02*
X12118000Y-10098000D01*
X12118000Y-10088000D02*
X12108000Y-10098000D01*
X12108000Y-10149000D02*
X12118000Y-10159000D01*
X12118000Y-10149000D02*
X12108000Y-10159000D01*
X12108000Y-10462000D02*
X12118000Y-10472000D01*
X12118000Y-10462000D02*
X12108000Y-10472000D01*
X12108000Y-10523000D02*
X12118000Y-10533000D01*
X12118000Y-10523000D02*
X12108000Y-10533000D01*
X12108000Y-10580000D02*
X12118000Y-10590000D01*
X12118000Y-10580000D02*
X12108000Y-10590000D01*
X12108000Y-10641000D02*
X12118000Y-10651000D01*
X12118000Y-10641000D02*
X12108000Y-10651000D01*
X12111000Y-9221000D02*
X12121000Y-9231000D01*
X12121000Y-9221000D02*
X12111000Y-9231000D01*
X12111000Y-9282000D02*
X12121000Y-9292000D01*
X12121000Y-9282000D02*
X12111000Y-9292000D01*
X12111000Y-9339000D02*
X12121000Y-9349000D01*
X12121000Y-9339000D02*
X12111000Y-9349000D01*
X12111000Y-9400000D02*
X12121000Y-9410000D01*
X12121000Y-9400000D02*
X12111000Y-9410000D01*
X12111000Y-9713000D02*
X12121000Y-9723000D01*
X12121000Y-9713000D02*
X12111000Y-9723000D01*
X12111000Y-9774000D02*
X12121000Y-9784000D01*
X12121000Y-9774000D02*
X12111000Y-9784000D01*
X12111000Y-9831000D02*
X12121000Y-9841000D01*
X12121000Y-9831000D02*
X12111000Y-9841000D01*
X12111000Y-9892000D02*
X12121000Y-9902000D01*
X12121000Y-9892000D02*
X12111000Y-9902000D01*
X12112000Y-9151000D02*
X12122000Y-9161000D01*
X12122000Y-9151000D02*
X12112000Y-9161000D01*
X12112000Y-9464000D02*
X12122000Y-9474000D01*
X12122000Y-9464000D02*
X12112000Y-9474000D01*
X12112000Y-9525000D02*
X12122000Y-9535000D01*
X12122000Y-9525000D02*
X12112000Y-9535000D01*
X12112000Y-9582000D02*
X12122000Y-9592000D01*
X12122000Y-9582000D02*
X12112000Y-9592000D01*
X12112000Y-9643000D02*
X12122000Y-9653000D01*
X12122000Y-9643000D02*
X12112000Y-9653000D01*
X12164000Y-10910000D02*
X12174000Y-10920000D01*
X12174000Y-10910000D02*
X12164000Y-10920000D01*
X12176000Y-9119000D02*
X12186000Y-9129000D01*
X12186000Y-9119000D02*
X12176000Y-9129000D01*
X12221000Y-10910000D02*
X12231000Y-10920000D01*
X12231000Y-10910000D02*
X12221000Y-10920000D01*
X12237000Y-9119000D02*
X12247000Y-9129000D01*
X12247000Y-9119000D02*
X12237000Y-9129000D01*
X12282000Y-10910000D02*
X12292000Y-10920000D01*
X12292000Y-10910000D02*
X12282000Y-10920000D01*
X12294000Y-9119000D02*
X12304000Y-9129000D01*
X12304000Y-9119000D02*
X12294000Y-9129000D01*
X12336000Y-10910000D02*
X12346000Y-10920000D01*
X12346000Y-10910000D02*
X12336000Y-10920000D01*
X12355000Y-9119000D02*
X12365000Y-9129000D01*
X12365000Y-9119000D02*
X12355000Y-9129000D01*
X12393000Y-10910000D02*
X12403000Y-10920000D01*
X12403000Y-10910000D02*
X12393000Y-10920000D01*
X12425000Y-9120000D02*
X12435000Y-9130000D01*
X12435000Y-9120000D02*
X12425000Y-9130000D01*
X12463000Y-10913000D02*
X12473000Y-10923000D01*
X12473000Y-10913000D02*
X12463000Y-10923000D01*
X12486000Y-9120000D02*
X12496000Y-9130000D01*
X12496000Y-9120000D02*
X12486000Y-9130000D01*
X12486000Y-10636000D02*
X12496000Y-10646000D01*
X12496000Y-10636000D02*
X12486000Y-10646000D01*
X12486000Y-10693000D02*
X12496000Y-10703000D01*
X12496000Y-10693000D02*
X12486000Y-10703000D01*
X12486000Y-10754000D02*
X12496000Y-10764000D01*
X12496000Y-10754000D02*
X12486000Y-10764000D01*
X12486000Y-10808000D02*
X12496000Y-10818000D01*
X12496000Y-10808000D02*
X12486000Y-10818000D01*
X12486000Y-10865000D02*
X12496000Y-10875000D01*
X12496000Y-10865000D02*
X12486000Y-10875000D01*
X12514000Y-9759000D02*
X12524000Y-9769000D01*
X12524000Y-9759000D02*
X12514000Y-9769000D01*
X12514000Y-9816000D02*
X12524000Y-9826000D01*
X12524000Y-9816000D02*
X12514000Y-9826000D01*
X12514000Y-9877000D02*
X12524000Y-9887000D01*
X12524000Y-9877000D02*
X12514000Y-9887000D01*
X12514000Y-9931000D02*
X12524000Y-9941000D01*
X12524000Y-9931000D02*
X12514000Y-9941000D01*
X12514000Y-9988000D02*
X12524000Y-9998000D01*
X12524000Y-9988000D02*
X12514000Y-9998000D01*
X12520000Y-10913000D02*
X12530000Y-10923000D01*
X12530000Y-10913000D02*
X12520000Y-10923000D01*
X12543000Y-9120000D02*
X12553000Y-9130000D01*
X12553000Y-9120000D02*
X12543000Y-9130000D01*
X12562000Y-10030000D02*
X12572000Y-10040000D01*
X12572000Y-10030000D02*
X12562000Y-10040000D01*
X12569000Y-9713000D02*
X12579000Y-9723000D01*
X12579000Y-9713000D02*
X12569000Y-9723000D01*
X12571000Y-10615000D02*
X12581000Y-10625000D01*
X12581000Y-10615000D02*
X12571000Y-10625000D01*
X12581000Y-10913000D02*
X12591000Y-10923000D01*
X12591000Y-10913000D02*
X12581000Y-10923000D01*
X12604000Y-9120000D02*
X12614000Y-9130000D01*
X12614000Y-9120000D02*
X12604000Y-9130000D01*
X12608000Y-10074000D02*
X12618000Y-10084000D01*
X12618000Y-10074000D02*
X12608000Y-10084000D01*
X12635000Y-10913000D02*
X12645000Y-10923000D01*
X12645000Y-10913000D02*
X12635000Y-10923000D01*
X12639000Y-9379000D02*
X12649000Y-9389000D01*
X12649000Y-9379000D02*
X12639000Y-9389000D01*
X12641000Y-9465000D02*
X12651000Y-9475000D01*
X12651000Y-9465000D02*
X12641000Y-9475000D01*
X12649000Y-10582000D02*
X12659000Y-10592000D01*
X12659000Y-10582000D02*
X12649000Y-10592000D01*
X12656000Y-9641000D02*
X12666000Y-9651000D01*
X12666000Y-9641000D02*
X12656000Y-9651000D01*
X12656000Y-10116000D02*
X12666000Y-10126000D01*
X12666000Y-10116000D02*
X12656000Y-10126000D01*
X12662000Y-9282000D02*
X12672000Y-9292000D01*
X12672000Y-9282000D02*
X12662000Y-9292000D01*
X12662000Y-9711000D02*
X12672000Y-9721000D01*
X12672000Y-9711000D02*
X12662000Y-9721000D01*
X12665000Y-10525000D02*
X12675000Y-10535000D01*
X12675000Y-10525000D02*
X12665000Y-10535000D01*
X12668000Y-9119000D02*
X12678000Y-9129000D01*
X12678000Y-9119000D02*
X12668000Y-9129000D01*
X12692000Y-10913000D02*
X12702000Y-10923000D01*
X12702000Y-10913000D02*
X12692000Y-10923000D01*
X12700000Y-10233000D02*
X12710000Y-10243000D01*
X12710000Y-10233000D02*
X12700000Y-10243000D01*
X12700000Y-10290000D02*
X12710000Y-10300000D01*
X12710000Y-10290000D02*
X12700000Y-10300000D01*
X12700000Y-10351000D02*
X12710000Y-10361000D01*
X12710000Y-10351000D02*
X12700000Y-10361000D01*
X12700000Y-10405000D02*
X12710000Y-10415000D01*
X12710000Y-10405000D02*
X12700000Y-10415000D01*
X12700000Y-10462000D02*
X12710000Y-10472000D01*
X12710000Y-10462000D02*
X12700000Y-10472000D01*
X12705000Y-10164000D02*
X12715000Y-10174000D01*
X12715000Y-10164000D02*
X12705000Y-10174000D01*
X12729000Y-9119000D02*
X12739000Y-9129000D01*
X12739000Y-9119000D02*
X12729000Y-9129000D01*
X12747000Y-9245000D02*
X12757000Y-9255000D01*
X12757000Y-9245000D02*
X12747000Y-9255000D01*
X12765000Y-10459000D02*
X12775000Y-10469000D01*
X12775000Y-10459000D02*
X12765000Y-10469000D01*
X12769000Y-10911000D02*
X12779000Y-10921000D01*
X12779000Y-10911000D02*
X12769000Y-10921000D01*
X12786000Y-9119000D02*
X12796000Y-9129000D01*
X12796000Y-9119000D02*
X12786000Y-9129000D01*
X12820000Y-10527000D02*
X12830000Y-10537000D01*
X12830000Y-10527000D02*
X12820000Y-10537000D01*
X12826000Y-10911000D02*
X12836000Y-10921000D01*
X12836000Y-10911000D02*
X12826000Y-10921000D01*
X12827000Y-10450000D02*
X12837000Y-10460000D01*
X12837000Y-10450000D02*
X12827000Y-10460000D01*
X12828000Y-9250000D02*
X12838000Y-9260000D01*
X12838000Y-9250000D02*
X12828000Y-9260000D01*
X12847000Y-9119000D02*
X12857000Y-9129000D01*
X12857000Y-9119000D02*
X12847000Y-9129000D01*
X12875000Y-10552000D02*
X12885000Y-10562000D01*
X12885000Y-10552000D02*
X12875000Y-10562000D01*
X12887000Y-10911000D02*
X12897000Y-10921000D01*
X12897000Y-10911000D02*
X12887000Y-10921000D01*
X12892000Y-9203000D02*
X12902000Y-9213000D01*
X12902000Y-9203000D02*
X12892000Y-9213000D01*
X12897000Y-10464000D02*
X12907000Y-10474000D01*
X12907000Y-10464000D02*
X12897000Y-10474000D01*
X12917000Y-9120000D02*
X12927000Y-9130000D01*
X12927000Y-9120000D02*
X12917000Y-9130000D01*
X12941000Y-10911000D02*
X12951000Y-10921000D01*
X12951000Y-10911000D02*
X12941000Y-10921000D01*
X12978000Y-9120000D02*
X12988000Y-9130000D01*
X12988000Y-9120000D02*
X12978000Y-9130000D01*
X12979000Y-10467000D02*
X12989000Y-10477000D01*
X12989000Y-10467000D02*
X12979000Y-10477000D01*
X12989000Y-10552000D02*
X12999000Y-10562000D01*
X12999000Y-10552000D02*
X12989000Y-10562000D01*
X12998000Y-10911000D02*
X13008000Y-10921000D01*
X13008000Y-10911000D02*
X12998000Y-10921000D01*
X13035000Y-9120000D02*
X13045000Y-9130000D01*
X13045000Y-9120000D02*
X13035000Y-9130000D01*
X13062000Y-10913000D02*
X13072000Y-10923000D01*
X13072000Y-10913000D02*
X13062000Y-10923000D01*
X13081000Y-10469000D02*
X13091000Y-10479000D01*
X13091000Y-10469000D02*
X13081000Y-10479000D01*
X13082000Y-10552000D02*
X13092000Y-10562000D01*
X13092000Y-10552000D02*
X13082000Y-10562000D01*
X13096000Y-9120000D02*
X13106000Y-9130000D01*
X13106000Y-9120000D02*
X13096000Y-9130000D01*
X13124000Y-10913000D02*
X13134000Y-10923000D01*
X13134000Y-10913000D02*
X13124000Y-10923000D01*
X13162000Y-9119000D02*
X13172000Y-9129000D01*
X13172000Y-9119000D02*
X13162000Y-9129000D01*
X13177000Y-10913000D02*
X13187000Y-10923000D01*
X13187000Y-10913000D02*
X13177000Y-10923000D01*
X13181000Y-10466000D02*
X13191000Y-10476000D01*
X13191000Y-10466000D02*
X13181000Y-10476000D01*
X13182000Y-10550000D02*
X13192000Y-10560000D01*
X13192000Y-10550000D02*
X13182000Y-10560000D01*
X13223000Y-9119000D02*
X13233000Y-9129000D01*
X13233000Y-9119000D02*
X13223000Y-9129000D01*
X13229000Y-10131000D02*
X13239000Y-10141000D01*
X13239000Y-10131000D02*
X13229000Y-10141000D01*
X13235000Y-10915000D02*
X13245000Y-10925000D01*
X13245000Y-10915000D02*
X13235000Y-10925000D01*
X13265000Y-10448000D02*
X13275000Y-10458000D01*
X13275000Y-10448000D02*
X13265000Y-10458000D01*
X13268000Y-10182000D02*
X13278000Y-10192000D01*
X13278000Y-10182000D02*
X13268000Y-10192000D01*
X13277000Y-10550000D02*
X13287000Y-10560000D01*
X13287000Y-10550000D02*
X13277000Y-10560000D01*
X13280000Y-9119000D02*
X13290000Y-9129000D01*
X13290000Y-9119000D02*
X13280000Y-9129000D01*
X13282000Y-10263000D02*
X13292000Y-10273000D01*
X13292000Y-10263000D02*
X13282000Y-10273000D01*
X13292000Y-10351000D02*
X13302000Y-10361000D01*
X13302000Y-10351000D02*
X13292000Y-10361000D01*
X13308000Y-10121000D02*
X13318000Y-10131000D01*
X13318000Y-10121000D02*
X13308000Y-10131000D01*
X13316000Y-9694000D02*
X13326000Y-9704000D01*
X13326000Y-9694000D02*
X13316000Y-9704000D01*
X13348000Y-9623000D02*
X13358000Y-9633000D01*
X13358000Y-9623000D02*
X13348000Y-9633000D01*
X13349000Y-9119000D02*
X13359000Y-9129000D01*
X13359000Y-9119000D02*
X13349000Y-9129000D01*
X13374000Y-10119000D02*
X13384000Y-10129000D01*
X13384000Y-10119000D02*
X13374000Y-10129000D01*
X13379000Y-10549000D02*
X13389000Y-10559000D01*
X13389000Y-10549000D02*
X13379000Y-10559000D01*
X13393000Y-9714000D02*
X13403000Y-9724000D01*
X13403000Y-9714000D02*
X13393000Y-9724000D01*
X13420000Y-10072000D02*
X13430000Y-10082000D01*
X13430000Y-10072000D02*
X13420000Y-10082000D01*
X13428000Y-10432000D02*
X13438000Y-10442000D01*
X13438000Y-10432000D02*
X13428000Y-10442000D01*
X13430000Y-10322000D02*
X13440000Y-10332000D01*
X13440000Y-10322000D02*
X13430000Y-10332000D01*
X13440000Y-10215000D02*
X13450000Y-10225000D01*
X13450000Y-10215000D02*
X13440000Y-10225000D01*
X13454000Y-10019000D02*
X13464000Y-10029000D01*
X13464000Y-10019000D02*
X13454000Y-10029000D01*
X13460000Y-10531000D02*
X13470000Y-10541000D01*
X13470000Y-10531000D02*
X13460000Y-10541000D01*
X13484000Y-9728000D02*
X13494000Y-9738000D01*
X13494000Y-9728000D02*
X13484000Y-9738000D01*
X13490000Y-9643000D02*
X13500000Y-9653000D01*
X13500000Y-9643000D02*
X13490000Y-9653000D01*
X13490000Y-9819000D02*
X13500000Y-9829000D01*
X13500000Y-9819000D02*
X13490000Y-9829000D01*
X13491000Y-9900000D02*
X13501000Y-9910000D01*
X13501000Y-9900000D02*
X13491000Y-9910000D01*
X13502789Y-9512435D02*
X13512789Y-9522435D01*
X13512789Y-9512435D02*
X13502789Y-9522435D01*
X13507000Y-9972000D02*
X13517000Y-9982000D01*
X13517000Y-9972000D02*
X13507000Y-9982000D01*
X13540000Y-10174000D02*
X13550000Y-10184000D01*
X13550000Y-10174000D02*
X13540000Y-10184000D01*
X13557000Y-9584000D02*
X13567000Y-9594000D01*
X13567000Y-9584000D02*
X13557000Y-9594000D01*
X13605000Y-9509000D02*
X13615000Y-9519000D01*
X13615000Y-9509000D02*
X13605000Y-9519000D01*
X13605000Y-9987000D02*
X13615000Y-9997000D01*
X13615000Y-9987000D02*
X13605000Y-9997000D01*
X13629000Y-10163000D02*
X13639000Y-10173000D01*
X13639000Y-10163000D02*
X13629000Y-10173000D01*
X13649000Y-9582000D02*
X13659000Y-9592000D01*
X13659000Y-9582000D02*
X13649000Y-9592000D01*
X13686000Y-9989000D02*
X13696000Y-9999000D01*
X13696000Y-9989000D02*
X13686000Y-9999000D01*
X13693000Y-9506000D02*
X13703000Y-9516000D01*
X13703000Y-9506000D02*
X13693000Y-9516000D01*
X13695000Y-10060000D02*
X13705000Y-10070000D01*
X13705000Y-10060000D02*
X13695000Y-10070000D01*
X13740000Y-9588000D02*
X13750000Y-9598000D01*
X13750000Y-9588000D02*
X13740000Y-9598000D01*
X13936000Y-9124000D02*
X13946000Y-9134000D01*
X13946000Y-9124000D02*
X13936000Y-9134000D01*
X13997000Y-9124000D02*
X14007000Y-9134000D01*
X14007000Y-9124000D02*
X13997000Y-9134000D01*
X14063000Y-9123000D02*
X14073000Y-9133000D01*
X14073000Y-9123000D02*
X14063000Y-9133000D01*
X14124000Y-9123000D02*
X14134000Y-9133000D01*
X14134000Y-9123000D02*
X14124000Y-9133000D01*
X14181000Y-9123000D02*
X14191000Y-9133000D01*
X14191000Y-9123000D02*
X14181000Y-9133000D01*
X14242000Y-9123000D02*
X14252000Y-9133000D01*
X14252000Y-9123000D02*
X14242000Y-9133000D01*
X14312000Y-9124000D02*
X14322000Y-9134000D01*
X14322000Y-9124000D02*
X14312000Y-9134000D01*
X14373000Y-9124000D02*
X14383000Y-9134000D01*
X14383000Y-9124000D02*
X14373000Y-9134000D01*
X14430000Y-9124000D02*
X14440000Y-9134000D01*
X14440000Y-9124000D02*
X14430000Y-9134000D01*
X14491000Y-9124000D02*
X14501000Y-9134000D01*
X14501000Y-9124000D02*
X14491000Y-9134000D01*
X14555000Y-9123000D02*
X14565000Y-9133000D01*
X14565000Y-9123000D02*
X14555000Y-9133000D01*
X14616000Y-9123000D02*
X14626000Y-9133000D01*
X14626000Y-9123000D02*
X14616000Y-9133000D01*
X14677000Y-9123000D02*
X14687000Y-9133000D01*
X14687000Y-9123000D02*
X14677000Y-9133000D01*
X14715000Y-9185000D02*
X14725000Y-9195000D01*
X14725000Y-9185000D02*
X14715000Y-9195000D01*
X14734000Y-9123000D02*
X14744000Y-9133000D01*
X14744000Y-9123000D02*
X14734000Y-9133000D01*
X14765110Y-9217195D02*
X14775110Y-9227195D01*
X14775110Y-9217195D02*
X14765110Y-9227195D01*
X14795000Y-9123000D02*
X14805000Y-9133000D01*
X14805000Y-9123000D02*
X14795000Y-9133000D01*
X14839000Y-9218000D02*
X14849000Y-9228000D01*
X14849000Y-9218000D02*
X14839000Y-9228000D01*
X14865000Y-9124000D02*
X14875000Y-9134000D01*
X14875000Y-9124000D02*
X14865000Y-9134000D01*
X14923000Y-9217000D02*
X14933000Y-9227000D01*
X14933000Y-9217000D02*
X14923000Y-9227000D01*
X14926000Y-9124000D02*
X14936000Y-9134000D01*
X14936000Y-9124000D02*
X14926000Y-9134000D01*
X14983000Y-9124000D02*
X14993000Y-9134000D01*
X14993000Y-9124000D02*
X14983000Y-9134000D01*
X14983000Y-9184000D02*
X14993000Y-9194000D01*
X14993000Y-9184000D02*
X14983000Y-9194000D01*
X15041000Y-10025000D02*
X15051000Y-10035000D01*
X15051000Y-10025000D02*
X15041000Y-10035000D01*
X15042000Y-9863000D02*
X15052000Y-9873000D01*
X15052000Y-9863000D02*
X15042000Y-9873000D01*
X15043000Y-9946000D02*
X15053000Y-9956000D01*
X15053000Y-9946000D02*
X15043000Y-9956000D01*
X15044000Y-9124000D02*
X15054000Y-9134000D01*
X15054000Y-9124000D02*
X15044000Y-9134000D01*
X15048000Y-10091000D02*
X15058000Y-10101000D01*
X15058000Y-10091000D02*
X15048000Y-10101000D01*
X15052000Y-10170000D02*
X15062000Y-10180000D01*
X15062000Y-10170000D02*
X15052000Y-10180000D01*
X15064000Y-9176000D02*
X15074000Y-9186000D01*
X15074000Y-9176000D02*
X15064000Y-9186000D01*
X15102000Y-9806000D02*
X15112000Y-9816000D01*
X15112000Y-9806000D02*
X15102000Y-9816000D01*
X15107446Y-10196020D02*
X15117446Y-10206020D01*
X15117446Y-10196020D02*
X15107446Y-10206020D01*
X15108000Y-9123000D02*
X15118000Y-9133000D01*
X15118000Y-9123000D02*
X15108000Y-9133000D01*
X15119000Y-10525000D02*
X15129000Y-10535000D01*
X15129000Y-10525000D02*
X15119000Y-10535000D01*
X15131434Y-9192000D02*
X15141434Y-9202000D01*
X15141434Y-9192000D02*
X15131434Y-9202000D01*
X15141000Y-10417000D02*
X15151000Y-10427000D01*
X15151000Y-10417000D02*
X15141000Y-10427000D01*
X15169000Y-9123000D02*
X15179000Y-9133000D01*
X15179000Y-9123000D02*
X15169000Y-9133000D01*
X15181000Y-10588000D02*
X15191000Y-10598000D01*
X15191000Y-10588000D02*
X15181000Y-10598000D01*
X15184000Y-9760000D02*
X15194000Y-9770000D01*
X15194000Y-9760000D02*
X15184000Y-9770000D01*
X15186761Y-10236155D02*
X15196761Y-10246155D01*
X15196761Y-10236155D02*
X15186761Y-10246155D01*
X15201000Y-10369000D02*
X15211000Y-10379000D01*
X15211000Y-10369000D02*
X15201000Y-10379000D01*
X15212000Y-9177000D02*
X15222000Y-9187000D01*
X15222000Y-9177000D02*
X15212000Y-9187000D01*
X15217000Y-10297000D02*
X15227000Y-10307000D01*
X15227000Y-10297000D02*
X15217000Y-10307000D01*
X15226000Y-9123000D02*
X15236000Y-9133000D01*
X15236000Y-9123000D02*
X15226000Y-9133000D01*
X15261000Y-9762000D02*
X15271000Y-9772000D01*
X15271000Y-9762000D02*
X15261000Y-9772000D01*
X15280000Y-10624000D02*
X15290000Y-10634000D01*
X15290000Y-10624000D02*
X15280000Y-10634000D01*
X15282000Y-9182000D02*
X15292000Y-9192000D01*
X15292000Y-9182000D02*
X15282000Y-9192000D01*
X15287000Y-9123000D02*
X15297000Y-9133000D01*
X15297000Y-9123000D02*
X15287000Y-9133000D01*
X15337000Y-9214000D02*
X15347000Y-9224000D01*
X15347000Y-9214000D02*
X15337000Y-9224000D01*
X15340000Y-9759000D02*
X15350000Y-9769000D01*
X15350000Y-9759000D02*
X15340000Y-9769000D01*
X15349000Y-9268000D02*
X15359000Y-9278000D01*
X15359000Y-9268000D02*
X15349000Y-9278000D01*
X15356000Y-9321000D02*
X15366000Y-9331000D01*
X15366000Y-9321000D02*
X15356000Y-9331000D01*
X15357000Y-9124000D02*
X15367000Y-9134000D01*
X15367000Y-9124000D02*
X15357000Y-9134000D01*
X15391000Y-10637000D02*
X15401000Y-10647000D01*
X15401000Y-10637000D02*
X15391000Y-10647000D01*
X15418000Y-9124000D02*
X15428000Y-9134000D01*
X15428000Y-9124000D02*
X15418000Y-9134000D01*
X15432000Y-9753000D02*
X15442000Y-9763000D01*
X15442000Y-9753000D02*
X15432000Y-9763000D01*
X15434000Y-9332000D02*
X15444000Y-9342000D01*
X15444000Y-9332000D02*
X15434000Y-9342000D01*
X15475000Y-9124000D02*
X15485000Y-9134000D01*
X15485000Y-9124000D02*
X15475000Y-9134000D01*
X15491000Y-9373000D02*
X15501000Y-9383000D01*
X15501000Y-9373000D02*
X15491000Y-9383000D01*
X15500000Y-9717000D02*
X15510000Y-9727000D01*
X15510000Y-9717000D02*
X15500000Y-9727000D01*
X15508000Y-9440000D02*
X15518000Y-9450000D01*
X15518000Y-9440000D02*
X15508000Y-9450000D01*
X15508000Y-9524000D02*
X15518000Y-9534000D01*
X15518000Y-9524000D02*
X15508000Y-9534000D01*
X15516000Y-9621000D02*
X15526000Y-9631000D01*
X15526000Y-9621000D02*
X15516000Y-9631000D01*
X15528000Y-10627000D02*
X15538000Y-10637000D01*
X15538000Y-10627000D02*
X15528000Y-10637000D01*
X15536000Y-9124000D02*
X15546000Y-9134000D01*
X15546000Y-9124000D02*
X15536000Y-9134000D01*
X15602000Y-9123000D02*
X15612000Y-9133000D01*
X15612000Y-9123000D02*
X15602000Y-9133000D01*
X15663000Y-9123000D02*
X15673000Y-9133000D01*
X15673000Y-9123000D02*
X15663000Y-9133000D01*
X15666593Y-10628634D02*
X15676593Y-10638634D01*
X15676593Y-10628634D02*
X15666593Y-10638634D01*
X15720000Y-9123000D02*
X15730000Y-9133000D01*
X15730000Y-9123000D02*
X15720000Y-9133000D01*
X15722000Y-10675000D02*
X15732000Y-10685000D01*
X15732000Y-10675000D02*
X15722000Y-10685000D01*
X15738000Y-10765000D02*
X15748000Y-10775000D01*
X15748000Y-10765000D02*
X15738000Y-10775000D01*
X15747000Y-10837000D02*
X15757000Y-10847000D01*
X15757000Y-10837000D02*
X15747000Y-10847000D01*
X15777000Y-10910000D02*
X15787000Y-10920000D01*
X15787000Y-10910000D02*
X15777000Y-10920000D01*
X15789000Y-9123000D02*
X15799000Y-9133000D01*
X15799000Y-9123000D02*
X15789000Y-9133000D01*
X15834000Y-10910000D02*
X15844000Y-10920000D01*
X15844000Y-10910000D02*
X15834000Y-10920000D01*
X15850000Y-9123000D02*
X15860000Y-9133000D01*
X15860000Y-9123000D02*
X15850000Y-9133000D01*
X15903000Y-10218000D02*
X15913000Y-10228000D01*
X15913000Y-10218000D02*
X15903000Y-10228000D01*
X15903000Y-10279000D02*
X15913000Y-10289000D01*
X15913000Y-10279000D02*
X15903000Y-10289000D01*
X15903000Y-10336000D02*
X15913000Y-10346000D01*
X15913000Y-10336000D02*
X15903000Y-10346000D01*
X15903000Y-10397000D02*
X15913000Y-10407000D01*
X15913000Y-10397000D02*
X15903000Y-10407000D01*
X15903000Y-10710000D02*
X15913000Y-10720000D01*
X15913000Y-10710000D02*
X15903000Y-10720000D01*
X15903000Y-10771000D02*
X15913000Y-10781000D01*
X15913000Y-10771000D02*
X15903000Y-10781000D01*
X15903000Y-10828000D02*
X15913000Y-10838000D01*
X15913000Y-10828000D02*
X15903000Y-10838000D01*
X15903000Y-10889000D02*
X15913000Y-10899000D01*
X15913000Y-10889000D02*
X15903000Y-10899000D01*
X15904000Y-9969000D02*
X15914000Y-9979000D01*
X15914000Y-9969000D02*
X15904000Y-9979000D01*
X15904000Y-10030000D02*
X15914000Y-10040000D01*
X15914000Y-10030000D02*
X15904000Y-10040000D01*
X15904000Y-10087000D02*
X15914000Y-10097000D01*
X15914000Y-10087000D02*
X15904000Y-10097000D01*
X15904000Y-10148000D02*
X15914000Y-10158000D01*
X15914000Y-10148000D02*
X15904000Y-10158000D01*
X15904000Y-10461000D02*
X15914000Y-10471000D01*
X15914000Y-10461000D02*
X15904000Y-10471000D01*
X15904000Y-10522000D02*
X15914000Y-10532000D01*
X15914000Y-10522000D02*
X15904000Y-10532000D01*
X15904000Y-10579000D02*
X15914000Y-10589000D01*
X15914000Y-10579000D02*
X15904000Y-10589000D01*
X15904000Y-10640000D02*
X15914000Y-10650000D01*
X15914000Y-10640000D02*
X15904000Y-10650000D01*
X15907000Y-9220000D02*
X15917000Y-9230000D01*
X15917000Y-9220000D02*
X15907000Y-9230000D01*
X15907000Y-9281000D02*
X15917000Y-9291000D01*
X15917000Y-9281000D02*
X15907000Y-9291000D01*
X15907000Y-9338000D02*
X15917000Y-9348000D01*
X15917000Y-9338000D02*
X15907000Y-9348000D01*
X15907000Y-9399000D02*
X15917000Y-9409000D01*
X15917000Y-9399000D02*
X15907000Y-9409000D01*
X15907000Y-9712000D02*
X15917000Y-9722000D01*
X15917000Y-9712000D02*
X15907000Y-9722000D01*
X15907000Y-9773000D02*
X15917000Y-9783000D01*
X15917000Y-9773000D02*
X15907000Y-9783000D01*
X15907000Y-9830000D02*
X15917000Y-9840000D01*
X15917000Y-9830000D02*
X15907000Y-9840000D01*
X15907000Y-9891000D02*
X15917000Y-9901000D01*
X15917000Y-9891000D02*
X15907000Y-9901000D01*
X15908000Y-9150000D02*
X15918000Y-9160000D01*
X15918000Y-9150000D02*
X15908000Y-9160000D01*
X15908000Y-9463000D02*
X15918000Y-9473000D01*
X15918000Y-9463000D02*
X15908000Y-9473000D01*
X15908000Y-9524000D02*
X15918000Y-9534000D01*
X15918000Y-9524000D02*
X15908000Y-9534000D01*
X15908000Y-9581000D02*
X15918000Y-9591000D01*
X15918000Y-9581000D02*
X15908000Y-9591000D01*
X15908000Y-9642000D02*
X15918000Y-9652000D01*
X15918000Y-9642000D02*
X15908000Y-9652000D01*
X12597000Y-9556000D02*
G75*
G03*
X12597000Y-9556000I-10000J0D01*
G01*
X12765000Y-10599000D02*
G75*
G03*
X12765000Y-10599000I-10000J0D01*
G01*
X12938000Y-9677000D02*
G75*
G03*
X12938000Y-9677000I-10000J0D01*
G01*
X13095000Y-9674000D02*
G75*
G03*
X13095000Y-9674000I-10000J0D01*
G01*
X13435158Y-9560158D02*
G75*
G03*
X13435158Y-9560158I-10000J0D01*
G01*
X13697000Y-10130000D02*
G75*
G03*
X13697000Y-10130000I-10000J0D01*
G01*
X13809000Y-9523000D02*
G75*
G03*
X13809000Y-9523000I-10000J0D01*
G01*
X13850000Y-8662000D02*
G75*
G03*
X13850000Y-8662000I-10000J0D01*
G01*
X14011000Y-5855000D02*
G75*
G03*
X14011000Y-5855000I-10000J0D01*
G01*
X14082000Y-8662000D02*
G75*
G03*
X14082000Y-8662000I-10000J0D01*
G01*
X14160000Y-9757000D02*
G75*
G03*
X14160000Y-9757000I-10000J0D01*
G01*
X14201000Y-10476000D02*
G75*
G03*
X14201000Y-10476000I-10000J0D01*
G01*
X14248000Y-6029000D02*
G75*
G03*
X14248000Y-6029000I-10000J0D01*
G01*
X14272000Y-9328000D02*
G75*
G03*
X14272000Y-9328000I-10000J0D01*
G01*
X15080000Y-10448000D02*
G75*
G03*
X15080000Y-10448000I-10000J0D01*
G01*
X15126000Y-10318000D02*
G75*
G03*
X15126000Y-10318000I-10000J0D01*
G01*
X12853000Y-10256000D02*
X12853000Y-10356000D01*
X12803000Y-10306000D02*
X12903000Y-10306000D01*
X13107000Y-10256000D02*
X13107000Y-10356000D01*
X13057000Y-10306000D02*
X13157000Y-10306000D01*
X13767000Y-10750000D02*
X13767000Y-10850000D01*
X13717000Y-10800000D02*
X13817000Y-10800000D01*
X14021000Y-10750000D02*
X14021000Y-10850000D01*
X13971000Y-10800000D02*
X14071000Y-10800000D01*
X14275000Y-10750000D02*
X14275000Y-10850000D01*
X14225000Y-10800000D02*
X14325000Y-10800000D01*
X14529000Y-10750000D02*
X14529000Y-10850000D01*
X14479000Y-10800000D02*
X14579000Y-10800000D01*
X14783000Y-10750000D02*
X14783000Y-10850000D01*
X14733000Y-10800000D02*
X14833000Y-10800000D01*
X15037000Y-10750000D02*
X15037000Y-10850000D01*
X14987000Y-10800000D02*
X15087000Y-10800000D01*
X15291000Y-10750000D02*
X15291000Y-10850000D01*
X15241000Y-10800000D02*
X15341000Y-10800000D01*
X15545000Y-10750000D02*
X15545000Y-10850000D01*
X15495000Y-10800000D02*
X15595000Y-10800000D01*
D11*
X12272777Y-11325484D02*
X12272777Y-11125484D01*
X12272777Y-11125484D02*
X12320396Y-11125484D01*
X12320396Y-11125484D02*
X12348967Y-11135008D01*
X12348967Y-11135008D02*
X12368015Y-11154055D01*
X12368015Y-11154055D02*
X12377539Y-11173103D01*
X12377539Y-11173103D02*
X12387062Y-11211198D01*
X12387062Y-11211198D02*
X12387062Y-11239769D01*
X12387062Y-11239769D02*
X12377539Y-11277865D01*
X12377539Y-11277865D02*
X12368015Y-11296912D01*
X12368015Y-11296912D02*
X12348967Y-11315960D01*
X12348967Y-11315960D02*
X12320396Y-11325484D01*
X12320396Y-11325484D02*
X12272777Y-11325484D01*
X12472777Y-11325484D02*
X12472777Y-11192150D01*
X12472777Y-11230246D02*
X12482301Y-11211198D01*
X12482301Y-11211198D02*
X12491824Y-11201674D01*
X12491824Y-11201674D02*
X12510872Y-11192150D01*
X12510872Y-11192150D02*
X12529920Y-11192150D01*
X12596586Y-11325484D02*
X12596586Y-11192150D01*
X12596586Y-11125484D02*
X12587062Y-11135008D01*
X12587062Y-11135008D02*
X12596586Y-11144531D01*
X12596586Y-11144531D02*
X12606110Y-11135008D01*
X12606110Y-11135008D02*
X12596586Y-11125484D01*
X12596586Y-11125484D02*
X12596586Y-11144531D01*
X12720396Y-11325484D02*
X12701348Y-11315960D01*
X12701348Y-11315960D02*
X12691824Y-11296912D01*
X12691824Y-11296912D02*
X12691824Y-11125484D01*
X12825158Y-11325484D02*
X12806110Y-11315960D01*
X12806110Y-11315960D02*
X12796586Y-11296912D01*
X12796586Y-11296912D02*
X12796586Y-11125484D01*
X13053729Y-11325484D02*
X13053729Y-11125484D01*
X13053729Y-11125484D02*
X13120396Y-11268341D01*
X13120396Y-11268341D02*
X13187062Y-11125484D01*
X13187062Y-11125484D02*
X13187062Y-11325484D01*
X13368015Y-11325484D02*
X13368015Y-11220722D01*
X13368015Y-11220722D02*
X13358491Y-11201674D01*
X13358491Y-11201674D02*
X13339443Y-11192150D01*
X13339443Y-11192150D02*
X13301348Y-11192150D01*
X13301348Y-11192150D02*
X13282301Y-11201674D01*
X13368015Y-11315960D02*
X13348967Y-11325484D01*
X13348967Y-11325484D02*
X13301348Y-11325484D01*
X13301348Y-11325484D02*
X13282301Y-11315960D01*
X13282301Y-11315960D02*
X13272777Y-11296912D01*
X13272777Y-11296912D02*
X13272777Y-11277865D01*
X13272777Y-11277865D02*
X13282301Y-11258817D01*
X13282301Y-11258817D02*
X13301348Y-11249293D01*
X13301348Y-11249293D02*
X13348967Y-11249293D01*
X13348967Y-11249293D02*
X13368015Y-11239769D01*
X13463253Y-11192150D02*
X13463253Y-11392150D01*
X13463253Y-11201674D02*
X13482301Y-11192150D01*
X13482301Y-11192150D02*
X13520396Y-11192150D01*
X13520396Y-11192150D02*
X13539443Y-11201674D01*
X13539443Y-11201674D02*
X13548967Y-11211198D01*
X13548967Y-11211198D02*
X13558491Y-11230246D01*
X13558491Y-11230246D02*
X13558491Y-11287388D01*
X13558491Y-11287388D02*
X13548967Y-11306436D01*
X13548967Y-11306436D02*
X13539443Y-11315960D01*
X13539443Y-11315960D02*
X13520396Y-11325484D01*
X13520396Y-11325484D02*
X13482301Y-11325484D01*
X13482301Y-11325484D02*
X13463253Y-11315960D01*
X13644205Y-11306436D02*
X13653729Y-11315960D01*
X13653729Y-11315960D02*
X13644205Y-11325484D01*
X13644205Y-11325484D02*
X13634682Y-11315960D01*
X13634682Y-11315960D02*
X13644205Y-11306436D01*
X13644205Y-11306436D02*
X13644205Y-11325484D01*
X13644205Y-11201674D02*
X13653729Y-11211198D01*
X13653729Y-11211198D02*
X13644205Y-11220722D01*
X13644205Y-11220722D02*
X13634682Y-11211198D01*
X13634682Y-11211198D02*
X13644205Y-11201674D01*
X13644205Y-11201674D02*
X13644205Y-11220722D01*
D10*
X12002000Y-11649000D02*
X12012000Y-11659000D01*
X12012000Y-11649000D02*
X12002000Y-11659000D01*
D11*
X12310872Y-11545484D02*
X12329920Y-11545484D01*
X12329920Y-11545484D02*
X12348967Y-11555008D01*
X12348967Y-11555008D02*
X12358491Y-11564531D01*
X12358491Y-11564531D02*
X12368015Y-11583579D01*
X12368015Y-11583579D02*
X12377539Y-11621674D01*
X12377539Y-11621674D02*
X12377539Y-11669293D01*
X12377539Y-11669293D02*
X12368015Y-11707388D01*
X12368015Y-11707388D02*
X12358491Y-11726436D01*
X12358491Y-11726436D02*
X12348967Y-11735960D01*
X12348967Y-11735960D02*
X12329920Y-11745484D01*
X12329920Y-11745484D02*
X12310872Y-11745484D01*
X12310872Y-11745484D02*
X12291824Y-11735960D01*
X12291824Y-11735960D02*
X12282301Y-11726436D01*
X12282301Y-11726436D02*
X12272777Y-11707388D01*
X12272777Y-11707388D02*
X12263253Y-11669293D01*
X12263253Y-11669293D02*
X12263253Y-11621674D01*
X12263253Y-11621674D02*
X12272777Y-11583579D01*
X12272777Y-11583579D02*
X12282301Y-11564531D01*
X12282301Y-11564531D02*
X12291824Y-11555008D01*
X12291824Y-11555008D02*
X12310872Y-11545484D01*
X12463253Y-11726436D02*
X12472777Y-11735960D01*
X12472777Y-11735960D02*
X12463253Y-11745484D01*
X12463253Y-11745484D02*
X12453729Y-11735960D01*
X12453729Y-11735960D02*
X12463253Y-11726436D01*
X12463253Y-11726436D02*
X12463253Y-11745484D01*
X12663253Y-11745484D02*
X12548967Y-11745484D01*
X12606110Y-11745484D02*
X12606110Y-11545484D01*
X12606110Y-11545484D02*
X12587062Y-11574055D01*
X12587062Y-11574055D02*
X12568015Y-11593103D01*
X12568015Y-11593103D02*
X12548967Y-11602627D01*
X12787062Y-11545484D02*
X12806110Y-11545484D01*
X12806110Y-11545484D02*
X12825158Y-11555008D01*
X12825158Y-11555008D02*
X12834682Y-11564531D01*
X12834682Y-11564531D02*
X12844205Y-11583579D01*
X12844205Y-11583579D02*
X12853729Y-11621674D01*
X12853729Y-11621674D02*
X12853729Y-11669293D01*
X12853729Y-11669293D02*
X12844205Y-11707388D01*
X12844205Y-11707388D02*
X12834682Y-11726436D01*
X12834682Y-11726436D02*
X12825158Y-11735960D01*
X12825158Y-11735960D02*
X12806110Y-11745484D01*
X12806110Y-11745484D02*
X12787062Y-11745484D01*
X12787062Y-11745484D02*
X12768015Y-11735960D01*
X12768015Y-11735960D02*
X12758491Y-11726436D01*
X12758491Y-11726436D02*
X12748967Y-11707388D01*
X12748967Y-11707388D02*
X12739443Y-11669293D01*
X12739443Y-11669293D02*
X12739443Y-11621674D01*
X12739443Y-11621674D02*
X12748967Y-11583579D01*
X12748967Y-11583579D02*
X12758491Y-11564531D01*
X12758491Y-11564531D02*
X12768015Y-11555008D01*
X12768015Y-11555008D02*
X12787062Y-11545484D01*
X12977539Y-11545484D02*
X12996586Y-11545484D01*
X12996586Y-11545484D02*
X13015634Y-11555008D01*
X13015634Y-11555008D02*
X13025158Y-11564531D01*
X13025158Y-11564531D02*
X13034682Y-11583579D01*
X13034682Y-11583579D02*
X13044205Y-11621674D01*
X13044205Y-11621674D02*
X13044205Y-11669293D01*
X13044205Y-11669293D02*
X13034682Y-11707388D01*
X13034682Y-11707388D02*
X13025158Y-11726436D01*
X13025158Y-11726436D02*
X13015634Y-11735960D01*
X13015634Y-11735960D02*
X12996586Y-11745484D01*
X12996586Y-11745484D02*
X12977539Y-11745484D01*
X12977539Y-11745484D02*
X12958491Y-11735960D01*
X12958491Y-11735960D02*
X12948967Y-11726436D01*
X12948967Y-11726436D02*
X12939443Y-11707388D01*
X12939443Y-11707388D02*
X12929920Y-11669293D01*
X12929920Y-11669293D02*
X12929920Y-11621674D01*
X12929920Y-11621674D02*
X12939443Y-11583579D01*
X12939443Y-11583579D02*
X12948967Y-11564531D01*
X12948967Y-11564531D02*
X12958491Y-11555008D01*
X12958491Y-11555008D02*
X12977539Y-11545484D01*
X13129920Y-11745484D02*
X13129920Y-11612150D01*
X13129920Y-11631198D02*
X13139443Y-11621674D01*
X13139443Y-11621674D02*
X13158491Y-11612150D01*
X13158491Y-11612150D02*
X13187063Y-11612150D01*
X13187063Y-11612150D02*
X13206110Y-11621674D01*
X13206110Y-11621674D02*
X13215634Y-11640722D01*
X13215634Y-11640722D02*
X13215634Y-11745484D01*
X13215634Y-11640722D02*
X13225158Y-11621674D01*
X13225158Y-11621674D02*
X13244205Y-11612150D01*
X13244205Y-11612150D02*
X13272777Y-11612150D01*
X13272777Y-11612150D02*
X13291824Y-11621674D01*
X13291824Y-11621674D02*
X13301348Y-11640722D01*
X13301348Y-11640722D02*
X13301348Y-11745484D01*
X13396586Y-11745484D02*
X13396586Y-11612150D01*
X13396586Y-11631198D02*
X13406110Y-11621674D01*
X13406110Y-11621674D02*
X13425158Y-11612150D01*
X13425158Y-11612150D02*
X13453729Y-11612150D01*
X13453729Y-11612150D02*
X13472777Y-11621674D01*
X13472777Y-11621674D02*
X13482301Y-11640722D01*
X13482301Y-11640722D02*
X13482301Y-11745484D01*
X13482301Y-11640722D02*
X13491824Y-11621674D01*
X13491824Y-11621674D02*
X13510872Y-11612150D01*
X13510872Y-11612150D02*
X13539443Y-11612150D01*
X13539443Y-11612150D02*
X13558491Y-11621674D01*
X13558491Y-11621674D02*
X13568015Y-11640722D01*
X13568015Y-11640722D02*
X13568015Y-11745484D01*
X13958491Y-11535960D02*
X13787063Y-11793103D01*
X14215634Y-11545484D02*
X14234682Y-11545484D01*
X14234682Y-11545484D02*
X14253729Y-11555008D01*
X14253729Y-11555008D02*
X14263253Y-11564531D01*
X14263253Y-11564531D02*
X14272777Y-11583579D01*
X14272777Y-11583579D02*
X14282301Y-11621674D01*
X14282301Y-11621674D02*
X14282301Y-11669293D01*
X14282301Y-11669293D02*
X14272777Y-11707388D01*
X14272777Y-11707388D02*
X14263253Y-11726436D01*
X14263253Y-11726436D02*
X14253729Y-11735960D01*
X14253729Y-11735960D02*
X14234682Y-11745484D01*
X14234682Y-11745484D02*
X14215634Y-11745484D01*
X14215634Y-11745484D02*
X14196586Y-11735960D01*
X14196586Y-11735960D02*
X14187063Y-11726436D01*
X14187063Y-11726436D02*
X14177539Y-11707388D01*
X14177539Y-11707388D02*
X14168015Y-11669293D01*
X14168015Y-11669293D02*
X14168015Y-11621674D01*
X14168015Y-11621674D02*
X14177539Y-11583579D01*
X14177539Y-11583579D02*
X14187063Y-11564531D01*
X14187063Y-11564531D02*
X14196586Y-11555008D01*
X14196586Y-11555008D02*
X14215634Y-11545484D01*
X14368015Y-11726436D02*
X14377539Y-11735960D01*
X14377539Y-11735960D02*
X14368015Y-11745484D01*
X14368015Y-11745484D02*
X14358491Y-11735960D01*
X14358491Y-11735960D02*
X14368015Y-11726436D01*
X14368015Y-11726436D02*
X14368015Y-11745484D01*
X14501348Y-11545484D02*
X14520396Y-11545484D01*
X14520396Y-11545484D02*
X14539444Y-11555008D01*
X14539444Y-11555008D02*
X14548967Y-11564531D01*
X14548967Y-11564531D02*
X14558491Y-11583579D01*
X14558491Y-11583579D02*
X14568015Y-11621674D01*
X14568015Y-11621674D02*
X14568015Y-11669293D01*
X14568015Y-11669293D02*
X14558491Y-11707388D01*
X14558491Y-11707388D02*
X14548967Y-11726436D01*
X14548967Y-11726436D02*
X14539444Y-11735960D01*
X14539444Y-11735960D02*
X14520396Y-11745484D01*
X14520396Y-11745484D02*
X14501348Y-11745484D01*
X14501348Y-11745484D02*
X14482301Y-11735960D01*
X14482301Y-11735960D02*
X14472777Y-11726436D01*
X14472777Y-11726436D02*
X14463253Y-11707388D01*
X14463253Y-11707388D02*
X14453729Y-11669293D01*
X14453729Y-11669293D02*
X14453729Y-11621674D01*
X14453729Y-11621674D02*
X14463253Y-11583579D01*
X14463253Y-11583579D02*
X14472777Y-11564531D01*
X14472777Y-11564531D02*
X14482301Y-11555008D01*
X14482301Y-11555008D02*
X14501348Y-11545484D01*
X14691825Y-11545484D02*
X14710872Y-11545484D01*
X14710872Y-11545484D02*
X14729920Y-11555008D01*
X14729920Y-11555008D02*
X14739444Y-11564531D01*
X14739444Y-11564531D02*
X14748967Y-11583579D01*
X14748967Y-11583579D02*
X14758491Y-11621674D01*
X14758491Y-11621674D02*
X14758491Y-11669293D01*
X14758491Y-11669293D02*
X14748967Y-11707388D01*
X14748967Y-11707388D02*
X14739444Y-11726436D01*
X14739444Y-11726436D02*
X14729920Y-11735960D01*
X14729920Y-11735960D02*
X14710872Y-11745484D01*
X14710872Y-11745484D02*
X14691825Y-11745484D01*
X14691825Y-11745484D02*
X14672777Y-11735960D01*
X14672777Y-11735960D02*
X14663253Y-11726436D01*
X14663253Y-11726436D02*
X14653729Y-11707388D01*
X14653729Y-11707388D02*
X14644206Y-11669293D01*
X14644206Y-11669293D02*
X14644206Y-11621674D01*
X14644206Y-11621674D02*
X14653729Y-11583579D01*
X14653729Y-11583579D02*
X14663253Y-11564531D01*
X14663253Y-11564531D02*
X14672777Y-11555008D01*
X14672777Y-11555008D02*
X14691825Y-11545484D01*
X14825158Y-11545484D02*
X14948967Y-11545484D01*
X14948967Y-11545484D02*
X14882301Y-11621674D01*
X14882301Y-11621674D02*
X14910872Y-11621674D01*
X14910872Y-11621674D02*
X14929920Y-11631198D01*
X14929920Y-11631198D02*
X14939444Y-11640722D01*
X14939444Y-11640722D02*
X14948967Y-11659769D01*
X14948967Y-11659769D02*
X14948967Y-11707388D01*
X14948967Y-11707388D02*
X14939444Y-11726436D01*
X14939444Y-11726436D02*
X14929920Y-11735960D01*
X14929920Y-11735960D02*
X14910872Y-11745484D01*
X14910872Y-11745484D02*
X14853729Y-11745484D01*
X14853729Y-11745484D02*
X14834682Y-11735960D01*
X14834682Y-11735960D02*
X14825158Y-11726436D01*
X15044206Y-11745484D02*
X15082301Y-11745484D01*
X15082301Y-11745484D02*
X15101348Y-11735960D01*
X15101348Y-11735960D02*
X15110872Y-11726436D01*
X15110872Y-11726436D02*
X15129920Y-11697865D01*
X15129920Y-11697865D02*
X15139444Y-11659769D01*
X15139444Y-11659769D02*
X15139444Y-11583579D01*
X15139444Y-11583579D02*
X15129920Y-11564531D01*
X15129920Y-11564531D02*
X15120396Y-11555008D01*
X15120396Y-11555008D02*
X15101348Y-11545484D01*
X15101348Y-11545484D02*
X15063253Y-11545484D01*
X15063253Y-11545484D02*
X15044206Y-11555008D01*
X15044206Y-11555008D02*
X15034682Y-11564531D01*
X15034682Y-11564531D02*
X15025158Y-11583579D01*
X15025158Y-11583579D02*
X15025158Y-11631198D01*
X15025158Y-11631198D02*
X15034682Y-11650246D01*
X15034682Y-11650246D02*
X15044206Y-11659769D01*
X15044206Y-11659769D02*
X15063253Y-11669293D01*
X15063253Y-11669293D02*
X15101348Y-11669293D01*
X15101348Y-11669293D02*
X15120396Y-11659769D01*
X15120396Y-11659769D02*
X15129920Y-11650246D01*
X15129920Y-11650246D02*
X15139444Y-11631198D01*
X15215634Y-11545484D02*
X15215634Y-11583579D01*
X15291825Y-11545484D02*
X15291825Y-11583579D01*
X15587063Y-11821674D02*
X15577539Y-11812150D01*
X15577539Y-11812150D02*
X15558491Y-11783579D01*
X15558491Y-11783579D02*
X15548968Y-11764531D01*
X15548968Y-11764531D02*
X15539444Y-11735960D01*
X15539444Y-11735960D02*
X15529920Y-11688341D01*
X15529920Y-11688341D02*
X15529920Y-11650246D01*
X15529920Y-11650246D02*
X15539444Y-11602627D01*
X15539444Y-11602627D02*
X15548968Y-11574055D01*
X15548968Y-11574055D02*
X15558491Y-11555008D01*
X15558491Y-11555008D02*
X15577539Y-11526436D01*
X15577539Y-11526436D02*
X15587063Y-11516912D01*
X15653729Y-11564531D02*
X15663253Y-11555008D01*
X15663253Y-11555008D02*
X15682301Y-11545484D01*
X15682301Y-11545484D02*
X15729920Y-11545484D01*
X15729920Y-11545484D02*
X15748968Y-11555008D01*
X15748968Y-11555008D02*
X15758491Y-11564531D01*
X15758491Y-11564531D02*
X15768015Y-11583579D01*
X15768015Y-11583579D02*
X15768015Y-11602627D01*
X15768015Y-11602627D02*
X15758491Y-11631198D01*
X15758491Y-11631198D02*
X15644206Y-11745484D01*
X15644206Y-11745484D02*
X15768015Y-11745484D01*
X15939444Y-11612150D02*
X15939444Y-11745484D01*
X15891825Y-11535960D02*
X15844206Y-11678817D01*
X15844206Y-11678817D02*
X15968015Y-11678817D01*
X16053729Y-11745484D02*
X16091825Y-11745484D01*
X16091825Y-11745484D02*
X16110872Y-11735960D01*
X16110872Y-11735960D02*
X16120396Y-11726436D01*
X16120396Y-11726436D02*
X16139444Y-11697865D01*
X16139444Y-11697865D02*
X16148968Y-11659769D01*
X16148968Y-11659769D02*
X16148968Y-11583579D01*
X16148968Y-11583579D02*
X16139444Y-11564531D01*
X16139444Y-11564531D02*
X16129920Y-11555008D01*
X16129920Y-11555008D02*
X16110872Y-11545484D01*
X16110872Y-11545484D02*
X16072777Y-11545484D01*
X16072777Y-11545484D02*
X16053729Y-11555008D01*
X16053729Y-11555008D02*
X16044206Y-11564531D01*
X16044206Y-11564531D02*
X16034682Y-11583579D01*
X16034682Y-11583579D02*
X16034682Y-11631198D01*
X16034682Y-11631198D02*
X16044206Y-11650246D01*
X16044206Y-11650246D02*
X16053729Y-11659769D01*
X16053729Y-11659769D02*
X16072777Y-11669293D01*
X16072777Y-11669293D02*
X16110872Y-11669293D01*
X16110872Y-11669293D02*
X16129920Y-11659769D01*
X16129920Y-11659769D02*
X16139444Y-11650246D01*
X16139444Y-11650246D02*
X16148968Y-11631198D01*
X16387063Y-11745484D02*
X16387063Y-11545484D01*
X16472777Y-11745484D02*
X16472777Y-11640722D01*
X16472777Y-11640722D02*
X16463253Y-11621674D01*
X16463253Y-11621674D02*
X16444206Y-11612150D01*
X16444206Y-11612150D02*
X16415634Y-11612150D01*
X16415634Y-11612150D02*
X16396587Y-11621674D01*
X16396587Y-11621674D02*
X16387063Y-11631198D01*
X16596587Y-11745484D02*
X16577539Y-11735960D01*
X16577539Y-11735960D02*
X16568015Y-11726436D01*
X16568015Y-11726436D02*
X16558491Y-11707388D01*
X16558491Y-11707388D02*
X16558491Y-11650246D01*
X16558491Y-11650246D02*
X16568015Y-11631198D01*
X16568015Y-11631198D02*
X16577539Y-11621674D01*
X16577539Y-11621674D02*
X16596587Y-11612150D01*
X16596587Y-11612150D02*
X16625158Y-11612150D01*
X16625158Y-11612150D02*
X16644206Y-11621674D01*
X16644206Y-11621674D02*
X16653730Y-11631198D01*
X16653730Y-11631198D02*
X16663253Y-11650246D01*
X16663253Y-11650246D02*
X16663253Y-11707388D01*
X16663253Y-11707388D02*
X16653730Y-11726436D01*
X16653730Y-11726436D02*
X16644206Y-11735960D01*
X16644206Y-11735960D02*
X16625158Y-11745484D01*
X16625158Y-11745484D02*
X16596587Y-11745484D01*
X16777539Y-11745484D02*
X16758491Y-11735960D01*
X16758491Y-11735960D02*
X16748968Y-11716912D01*
X16748968Y-11716912D02*
X16748968Y-11545484D01*
X16929920Y-11735960D02*
X16910873Y-11745484D01*
X16910873Y-11745484D02*
X16872777Y-11745484D01*
X16872777Y-11745484D02*
X16853730Y-11735960D01*
X16853730Y-11735960D02*
X16844206Y-11716912D01*
X16844206Y-11716912D02*
X16844206Y-11640722D01*
X16844206Y-11640722D02*
X16853730Y-11621674D01*
X16853730Y-11621674D02*
X16872777Y-11612150D01*
X16872777Y-11612150D02*
X16910873Y-11612150D01*
X16910873Y-11612150D02*
X16929920Y-11621674D01*
X16929920Y-11621674D02*
X16939444Y-11640722D01*
X16939444Y-11640722D02*
X16939444Y-11659769D01*
X16939444Y-11659769D02*
X16844206Y-11678817D01*
X17015634Y-11735960D02*
X17034682Y-11745484D01*
X17034682Y-11745484D02*
X17072777Y-11745484D01*
X17072777Y-11745484D02*
X17091825Y-11735960D01*
X17091825Y-11735960D02*
X17101349Y-11716912D01*
X17101349Y-11716912D02*
X17101349Y-11707388D01*
X17101349Y-11707388D02*
X17091825Y-11688341D01*
X17091825Y-11688341D02*
X17072777Y-11678817D01*
X17072777Y-11678817D02*
X17044206Y-11678817D01*
X17044206Y-11678817D02*
X17025158Y-11669293D01*
X17025158Y-11669293D02*
X17015634Y-11650246D01*
X17015634Y-11650246D02*
X17015634Y-11640722D01*
X17015634Y-11640722D02*
X17025158Y-11621674D01*
X17025158Y-11621674D02*
X17044206Y-11612150D01*
X17044206Y-11612150D02*
X17072777Y-11612150D01*
X17072777Y-11612150D02*
X17091825Y-11621674D01*
X17168015Y-11821674D02*
X17177539Y-11812150D01*
X17177539Y-11812150D02*
X17196587Y-11783579D01*
X17196587Y-11783579D02*
X17206111Y-11764531D01*
X17206111Y-11764531D02*
X17215634Y-11735960D01*
X17215634Y-11735960D02*
X17225158Y-11688341D01*
X17225158Y-11688341D02*
X17225158Y-11650246D01*
X17225158Y-11650246D02*
X17215634Y-11602627D01*
X17215634Y-11602627D02*
X17206111Y-11574055D01*
X17206111Y-11574055D02*
X17196587Y-11555008D01*
X17196587Y-11555008D02*
X17177539Y-11526436D01*
X17177539Y-11526436D02*
X17168015Y-11516912D01*
D10*
X12012000Y-11918000D02*
G75*
G03*
X12012000Y-11918000I-10000J0D01*
G01*
D11*
X12310872Y-11809484D02*
X12329920Y-11809484D01*
X12329920Y-11809484D02*
X12348967Y-11819008D01*
X12348967Y-11819008D02*
X12358491Y-11828531D01*
X12358491Y-11828531D02*
X12368015Y-11847579D01*
X12368015Y-11847579D02*
X12377539Y-11885674D01*
X12377539Y-11885674D02*
X12377539Y-11933293D01*
X12377539Y-11933293D02*
X12368015Y-11971388D01*
X12368015Y-11971388D02*
X12358491Y-11990436D01*
X12358491Y-11990436D02*
X12348967Y-11999960D01*
X12348967Y-11999960D02*
X12329920Y-12009484D01*
X12329920Y-12009484D02*
X12310872Y-12009484D01*
X12310872Y-12009484D02*
X12291824Y-11999960D01*
X12291824Y-11999960D02*
X12282301Y-11990436D01*
X12282301Y-11990436D02*
X12272777Y-11971388D01*
X12272777Y-11971388D02*
X12263253Y-11933293D01*
X12263253Y-11933293D02*
X12263253Y-11885674D01*
X12263253Y-11885674D02*
X12272777Y-11847579D01*
X12272777Y-11847579D02*
X12282301Y-11828531D01*
X12282301Y-11828531D02*
X12291824Y-11819008D01*
X12291824Y-11819008D02*
X12310872Y-11809484D01*
X12463253Y-11990436D02*
X12472777Y-11999960D01*
X12472777Y-11999960D02*
X12463253Y-12009484D01*
X12463253Y-12009484D02*
X12453729Y-11999960D01*
X12453729Y-11999960D02*
X12463253Y-11990436D01*
X12463253Y-11990436D02*
X12463253Y-12009484D01*
X12548967Y-11828531D02*
X12558491Y-11819008D01*
X12558491Y-11819008D02*
X12577539Y-11809484D01*
X12577539Y-11809484D02*
X12625158Y-11809484D01*
X12625158Y-11809484D02*
X12644205Y-11819008D01*
X12644205Y-11819008D02*
X12653729Y-11828531D01*
X12653729Y-11828531D02*
X12663253Y-11847579D01*
X12663253Y-11847579D02*
X12663253Y-11866627D01*
X12663253Y-11866627D02*
X12653729Y-11895198D01*
X12653729Y-11895198D02*
X12539443Y-12009484D01*
X12539443Y-12009484D02*
X12663253Y-12009484D01*
X12787062Y-11809484D02*
X12806110Y-11809484D01*
X12806110Y-11809484D02*
X12825158Y-11819008D01*
X12825158Y-11819008D02*
X12834682Y-11828531D01*
X12834682Y-11828531D02*
X12844205Y-11847579D01*
X12844205Y-11847579D02*
X12853729Y-11885674D01*
X12853729Y-11885674D02*
X12853729Y-11933293D01*
X12853729Y-11933293D02*
X12844205Y-11971388D01*
X12844205Y-11971388D02*
X12834682Y-11990436D01*
X12834682Y-11990436D02*
X12825158Y-11999960D01*
X12825158Y-11999960D02*
X12806110Y-12009484D01*
X12806110Y-12009484D02*
X12787062Y-12009484D01*
X12787062Y-12009484D02*
X12768015Y-11999960D01*
X12768015Y-11999960D02*
X12758491Y-11990436D01*
X12758491Y-11990436D02*
X12748967Y-11971388D01*
X12748967Y-11971388D02*
X12739443Y-11933293D01*
X12739443Y-11933293D02*
X12739443Y-11885674D01*
X12739443Y-11885674D02*
X12748967Y-11847579D01*
X12748967Y-11847579D02*
X12758491Y-11828531D01*
X12758491Y-11828531D02*
X12768015Y-11819008D01*
X12768015Y-11819008D02*
X12787062Y-11809484D01*
X12977539Y-11809484D02*
X12996586Y-11809484D01*
X12996586Y-11809484D02*
X13015634Y-11819008D01*
X13015634Y-11819008D02*
X13025158Y-11828531D01*
X13025158Y-11828531D02*
X13034682Y-11847579D01*
X13034682Y-11847579D02*
X13044205Y-11885674D01*
X13044205Y-11885674D02*
X13044205Y-11933293D01*
X13044205Y-11933293D02*
X13034682Y-11971388D01*
X13034682Y-11971388D02*
X13025158Y-11990436D01*
X13025158Y-11990436D02*
X13015634Y-11999960D01*
X13015634Y-11999960D02*
X12996586Y-12009484D01*
X12996586Y-12009484D02*
X12977539Y-12009484D01*
X12977539Y-12009484D02*
X12958491Y-11999960D01*
X12958491Y-11999960D02*
X12948967Y-11990436D01*
X12948967Y-11990436D02*
X12939443Y-11971388D01*
X12939443Y-11971388D02*
X12929920Y-11933293D01*
X12929920Y-11933293D02*
X12929920Y-11885674D01*
X12929920Y-11885674D02*
X12939443Y-11847579D01*
X12939443Y-11847579D02*
X12948967Y-11828531D01*
X12948967Y-11828531D02*
X12958491Y-11819008D01*
X12958491Y-11819008D02*
X12977539Y-11809484D01*
X13129920Y-12009484D02*
X13129920Y-11876150D01*
X13129920Y-11895198D02*
X13139443Y-11885674D01*
X13139443Y-11885674D02*
X13158491Y-11876150D01*
X13158491Y-11876150D02*
X13187063Y-11876150D01*
X13187063Y-11876150D02*
X13206110Y-11885674D01*
X13206110Y-11885674D02*
X13215634Y-11904722D01*
X13215634Y-11904722D02*
X13215634Y-12009484D01*
X13215634Y-11904722D02*
X13225158Y-11885674D01*
X13225158Y-11885674D02*
X13244205Y-11876150D01*
X13244205Y-11876150D02*
X13272777Y-11876150D01*
X13272777Y-11876150D02*
X13291824Y-11885674D01*
X13291824Y-11885674D02*
X13301348Y-11904722D01*
X13301348Y-11904722D02*
X13301348Y-12009484D01*
X13396586Y-12009484D02*
X13396586Y-11876150D01*
X13396586Y-11895198D02*
X13406110Y-11885674D01*
X13406110Y-11885674D02*
X13425158Y-11876150D01*
X13425158Y-11876150D02*
X13453729Y-11876150D01*
X13453729Y-11876150D02*
X13472777Y-11885674D01*
X13472777Y-11885674D02*
X13482301Y-11904722D01*
X13482301Y-11904722D02*
X13482301Y-12009484D01*
X13482301Y-11904722D02*
X13491824Y-11885674D01*
X13491824Y-11885674D02*
X13510872Y-11876150D01*
X13510872Y-11876150D02*
X13539443Y-11876150D01*
X13539443Y-11876150D02*
X13558491Y-11885674D01*
X13558491Y-11885674D02*
X13568015Y-11904722D01*
X13568015Y-11904722D02*
X13568015Y-12009484D01*
X13958491Y-11799960D02*
X13787063Y-12057103D01*
X14215634Y-11809484D02*
X14234682Y-11809484D01*
X14234682Y-11809484D02*
X14253729Y-11819008D01*
X14253729Y-11819008D02*
X14263253Y-11828531D01*
X14263253Y-11828531D02*
X14272777Y-11847579D01*
X14272777Y-11847579D02*
X14282301Y-11885674D01*
X14282301Y-11885674D02*
X14282301Y-11933293D01*
X14282301Y-11933293D02*
X14272777Y-11971388D01*
X14272777Y-11971388D02*
X14263253Y-11990436D01*
X14263253Y-11990436D02*
X14253729Y-11999960D01*
X14253729Y-11999960D02*
X14234682Y-12009484D01*
X14234682Y-12009484D02*
X14215634Y-12009484D01*
X14215634Y-12009484D02*
X14196586Y-11999960D01*
X14196586Y-11999960D02*
X14187063Y-11990436D01*
X14187063Y-11990436D02*
X14177539Y-11971388D01*
X14177539Y-11971388D02*
X14168015Y-11933293D01*
X14168015Y-11933293D02*
X14168015Y-11885674D01*
X14168015Y-11885674D02*
X14177539Y-11847579D01*
X14177539Y-11847579D02*
X14187063Y-11828531D01*
X14187063Y-11828531D02*
X14196586Y-11819008D01*
X14196586Y-11819008D02*
X14215634Y-11809484D01*
X14368015Y-11990436D02*
X14377539Y-11999960D01*
X14377539Y-11999960D02*
X14368015Y-12009484D01*
X14368015Y-12009484D02*
X14358491Y-11999960D01*
X14358491Y-11999960D02*
X14368015Y-11990436D01*
X14368015Y-11990436D02*
X14368015Y-12009484D01*
X14501348Y-11809484D02*
X14520396Y-11809484D01*
X14520396Y-11809484D02*
X14539444Y-11819008D01*
X14539444Y-11819008D02*
X14548967Y-11828531D01*
X14548967Y-11828531D02*
X14558491Y-11847579D01*
X14558491Y-11847579D02*
X14568015Y-11885674D01*
X14568015Y-11885674D02*
X14568015Y-11933293D01*
X14568015Y-11933293D02*
X14558491Y-11971388D01*
X14558491Y-11971388D02*
X14548967Y-11990436D01*
X14548967Y-11990436D02*
X14539444Y-11999960D01*
X14539444Y-11999960D02*
X14520396Y-12009484D01*
X14520396Y-12009484D02*
X14501348Y-12009484D01*
X14501348Y-12009484D02*
X14482301Y-11999960D01*
X14482301Y-11999960D02*
X14472777Y-11990436D01*
X14472777Y-11990436D02*
X14463253Y-11971388D01*
X14463253Y-11971388D02*
X14453729Y-11933293D01*
X14453729Y-11933293D02*
X14453729Y-11885674D01*
X14453729Y-11885674D02*
X14463253Y-11847579D01*
X14463253Y-11847579D02*
X14472777Y-11828531D01*
X14472777Y-11828531D02*
X14482301Y-11819008D01*
X14482301Y-11819008D02*
X14501348Y-11809484D01*
X14691825Y-11809484D02*
X14710872Y-11809484D01*
X14710872Y-11809484D02*
X14729920Y-11819008D01*
X14729920Y-11819008D02*
X14739444Y-11828531D01*
X14739444Y-11828531D02*
X14748967Y-11847579D01*
X14748967Y-11847579D02*
X14758491Y-11885674D01*
X14758491Y-11885674D02*
X14758491Y-11933293D01*
X14758491Y-11933293D02*
X14748967Y-11971388D01*
X14748967Y-11971388D02*
X14739444Y-11990436D01*
X14739444Y-11990436D02*
X14729920Y-11999960D01*
X14729920Y-11999960D02*
X14710872Y-12009484D01*
X14710872Y-12009484D02*
X14691825Y-12009484D01*
X14691825Y-12009484D02*
X14672777Y-11999960D01*
X14672777Y-11999960D02*
X14663253Y-11990436D01*
X14663253Y-11990436D02*
X14653729Y-11971388D01*
X14653729Y-11971388D02*
X14644206Y-11933293D01*
X14644206Y-11933293D02*
X14644206Y-11885674D01*
X14644206Y-11885674D02*
X14653729Y-11847579D01*
X14653729Y-11847579D02*
X14663253Y-11828531D01*
X14663253Y-11828531D02*
X14672777Y-11819008D01*
X14672777Y-11819008D02*
X14691825Y-11809484D01*
X14825158Y-11809484D02*
X14958491Y-11809484D01*
X14958491Y-11809484D02*
X14872777Y-12009484D01*
X15044206Y-12009484D02*
X15082301Y-12009484D01*
X15082301Y-12009484D02*
X15101348Y-11999960D01*
X15101348Y-11999960D02*
X15110872Y-11990436D01*
X15110872Y-11990436D02*
X15129920Y-11961865D01*
X15129920Y-11961865D02*
X15139444Y-11923769D01*
X15139444Y-11923769D02*
X15139444Y-11847579D01*
X15139444Y-11847579D02*
X15129920Y-11828531D01*
X15129920Y-11828531D02*
X15120396Y-11819008D01*
X15120396Y-11819008D02*
X15101348Y-11809484D01*
X15101348Y-11809484D02*
X15063253Y-11809484D01*
X15063253Y-11809484D02*
X15044206Y-11819008D01*
X15044206Y-11819008D02*
X15034682Y-11828531D01*
X15034682Y-11828531D02*
X15025158Y-11847579D01*
X15025158Y-11847579D02*
X15025158Y-11895198D01*
X15025158Y-11895198D02*
X15034682Y-11914246D01*
X15034682Y-11914246D02*
X15044206Y-11923769D01*
X15044206Y-11923769D02*
X15063253Y-11933293D01*
X15063253Y-11933293D02*
X15101348Y-11933293D01*
X15101348Y-11933293D02*
X15120396Y-11923769D01*
X15120396Y-11923769D02*
X15129920Y-11914246D01*
X15129920Y-11914246D02*
X15139444Y-11895198D01*
X15215634Y-11809484D02*
X15215634Y-11847579D01*
X15291825Y-11809484D02*
X15291825Y-11847579D01*
X15587063Y-12085674D02*
X15577539Y-12076150D01*
X15577539Y-12076150D02*
X15558491Y-12047579D01*
X15558491Y-12047579D02*
X15548968Y-12028531D01*
X15548968Y-12028531D02*
X15539444Y-11999960D01*
X15539444Y-11999960D02*
X15529920Y-11952341D01*
X15529920Y-11952341D02*
X15529920Y-11914246D01*
X15529920Y-11914246D02*
X15539444Y-11866627D01*
X15539444Y-11866627D02*
X15548968Y-11838055D01*
X15548968Y-11838055D02*
X15558491Y-11819008D01*
X15558491Y-11819008D02*
X15577539Y-11790436D01*
X15577539Y-11790436D02*
X15587063Y-11780912D01*
X15768015Y-12009484D02*
X15653729Y-12009484D01*
X15710872Y-12009484D02*
X15710872Y-11809484D01*
X15710872Y-11809484D02*
X15691825Y-11838055D01*
X15691825Y-11838055D02*
X15672777Y-11857103D01*
X15672777Y-11857103D02*
X15653729Y-11866627D01*
X15939444Y-11809484D02*
X15901348Y-11809484D01*
X15901348Y-11809484D02*
X15882301Y-11819008D01*
X15882301Y-11819008D02*
X15872777Y-11828531D01*
X15872777Y-11828531D02*
X15853729Y-11857103D01*
X15853729Y-11857103D02*
X15844206Y-11895198D01*
X15844206Y-11895198D02*
X15844206Y-11971388D01*
X15844206Y-11971388D02*
X15853729Y-11990436D01*
X15853729Y-11990436D02*
X15863253Y-11999960D01*
X15863253Y-11999960D02*
X15882301Y-12009484D01*
X15882301Y-12009484D02*
X15920396Y-12009484D01*
X15920396Y-12009484D02*
X15939444Y-11999960D01*
X15939444Y-11999960D02*
X15948968Y-11990436D01*
X15948968Y-11990436D02*
X15958491Y-11971388D01*
X15958491Y-11971388D02*
X15958491Y-11923769D01*
X15958491Y-11923769D02*
X15948968Y-11904722D01*
X15948968Y-11904722D02*
X15939444Y-11895198D01*
X15939444Y-11895198D02*
X15920396Y-11885674D01*
X15920396Y-11885674D02*
X15882301Y-11885674D01*
X15882301Y-11885674D02*
X15863253Y-11895198D01*
X15863253Y-11895198D02*
X15853729Y-11904722D01*
X15853729Y-11904722D02*
X15844206Y-11923769D01*
X16196587Y-12009484D02*
X16196587Y-11809484D01*
X16282301Y-12009484D02*
X16282301Y-11904722D01*
X16282301Y-11904722D02*
X16272777Y-11885674D01*
X16272777Y-11885674D02*
X16253730Y-11876150D01*
X16253730Y-11876150D02*
X16225158Y-11876150D01*
X16225158Y-11876150D02*
X16206110Y-11885674D01*
X16206110Y-11885674D02*
X16196587Y-11895198D01*
X16406110Y-12009484D02*
X16387063Y-11999960D01*
X16387063Y-11999960D02*
X16377539Y-11990436D01*
X16377539Y-11990436D02*
X16368015Y-11971388D01*
X16368015Y-11971388D02*
X16368015Y-11914246D01*
X16368015Y-11914246D02*
X16377539Y-11895198D01*
X16377539Y-11895198D02*
X16387063Y-11885674D01*
X16387063Y-11885674D02*
X16406110Y-11876150D01*
X16406110Y-11876150D02*
X16434682Y-11876150D01*
X16434682Y-11876150D02*
X16453730Y-11885674D01*
X16453730Y-11885674D02*
X16463253Y-11895198D01*
X16463253Y-11895198D02*
X16472777Y-11914246D01*
X16472777Y-11914246D02*
X16472777Y-11971388D01*
X16472777Y-11971388D02*
X16463253Y-11990436D01*
X16463253Y-11990436D02*
X16453730Y-11999960D01*
X16453730Y-11999960D02*
X16434682Y-12009484D01*
X16434682Y-12009484D02*
X16406110Y-12009484D01*
X16587063Y-12009484D02*
X16568015Y-11999960D01*
X16568015Y-11999960D02*
X16558491Y-11980912D01*
X16558491Y-11980912D02*
X16558491Y-11809484D01*
X16739444Y-11999960D02*
X16720396Y-12009484D01*
X16720396Y-12009484D02*
X16682301Y-12009484D01*
X16682301Y-12009484D02*
X16663253Y-11999960D01*
X16663253Y-11999960D02*
X16653730Y-11980912D01*
X16653730Y-11980912D02*
X16653730Y-11904722D01*
X16653730Y-11904722D02*
X16663253Y-11885674D01*
X16663253Y-11885674D02*
X16682301Y-11876150D01*
X16682301Y-11876150D02*
X16720396Y-11876150D01*
X16720396Y-11876150D02*
X16739444Y-11885674D01*
X16739444Y-11885674D02*
X16748968Y-11904722D01*
X16748968Y-11904722D02*
X16748968Y-11923769D01*
X16748968Y-11923769D02*
X16653730Y-11942817D01*
X16825158Y-11999960D02*
X16844206Y-12009484D01*
X16844206Y-12009484D02*
X16882301Y-12009484D01*
X16882301Y-12009484D02*
X16901349Y-11999960D01*
X16901349Y-11999960D02*
X16910873Y-11980912D01*
X16910873Y-11980912D02*
X16910873Y-11971388D01*
X16910873Y-11971388D02*
X16901349Y-11952341D01*
X16901349Y-11952341D02*
X16882301Y-11942817D01*
X16882301Y-11942817D02*
X16853730Y-11942817D01*
X16853730Y-11942817D02*
X16834682Y-11933293D01*
X16834682Y-11933293D02*
X16825158Y-11914246D01*
X16825158Y-11914246D02*
X16825158Y-11904722D01*
X16825158Y-11904722D02*
X16834682Y-11885674D01*
X16834682Y-11885674D02*
X16853730Y-11876150D01*
X16853730Y-11876150D02*
X16882301Y-11876150D01*
X16882301Y-11876150D02*
X16901349Y-11885674D01*
X16977539Y-12085674D02*
X16987063Y-12076150D01*
X16987063Y-12076150D02*
X17006111Y-12047579D01*
X17006111Y-12047579D02*
X17015634Y-12028531D01*
X17015634Y-12028531D02*
X17025158Y-11999960D01*
X17025158Y-11999960D02*
X17034682Y-11952341D01*
X17034682Y-11952341D02*
X17034682Y-11914246D01*
X17034682Y-11914246D02*
X17025158Y-11866627D01*
X17025158Y-11866627D02*
X17015634Y-11838055D01*
X17015634Y-11838055D02*
X17006111Y-11819008D01*
X17006111Y-11819008D02*
X16987063Y-11790436D01*
X16987063Y-11790436D02*
X16977539Y-11780912D01*
D10*
X11962000Y-12132000D02*
X11962000Y-12232000D01*
X11912000Y-12182000D02*
X12012000Y-12182000D01*
D11*
X12377539Y-12273484D02*
X12263253Y-12273484D01*
X12320396Y-12273484D02*
X12320396Y-12073484D01*
X12320396Y-12073484D02*
X12301348Y-12102055D01*
X12301348Y-12102055D02*
X12282301Y-12121103D01*
X12282301Y-12121103D02*
X12263253Y-12130627D01*
X12463253Y-12254436D02*
X12472777Y-12263960D01*
X12472777Y-12263960D02*
X12463253Y-12273484D01*
X12463253Y-12273484D02*
X12453729Y-12263960D01*
X12453729Y-12263960D02*
X12463253Y-12254436D01*
X12463253Y-12254436D02*
X12463253Y-12273484D01*
X12596586Y-12073484D02*
X12615634Y-12073484D01*
X12615634Y-12073484D02*
X12634682Y-12083008D01*
X12634682Y-12083008D02*
X12644205Y-12092531D01*
X12644205Y-12092531D02*
X12653729Y-12111579D01*
X12653729Y-12111579D02*
X12663253Y-12149674D01*
X12663253Y-12149674D02*
X12663253Y-12197293D01*
X12663253Y-12197293D02*
X12653729Y-12235388D01*
X12653729Y-12235388D02*
X12644205Y-12254436D01*
X12644205Y-12254436D02*
X12634682Y-12263960D01*
X12634682Y-12263960D02*
X12615634Y-12273484D01*
X12615634Y-12273484D02*
X12596586Y-12273484D01*
X12596586Y-12273484D02*
X12577539Y-12263960D01*
X12577539Y-12263960D02*
X12568015Y-12254436D01*
X12568015Y-12254436D02*
X12558491Y-12235388D01*
X12558491Y-12235388D02*
X12548967Y-12197293D01*
X12548967Y-12197293D02*
X12548967Y-12149674D01*
X12548967Y-12149674D02*
X12558491Y-12111579D01*
X12558491Y-12111579D02*
X12568015Y-12092531D01*
X12568015Y-12092531D02*
X12577539Y-12083008D01*
X12577539Y-12083008D02*
X12596586Y-12073484D01*
X12787062Y-12073484D02*
X12806110Y-12073484D01*
X12806110Y-12073484D02*
X12825158Y-12083008D01*
X12825158Y-12083008D02*
X12834682Y-12092531D01*
X12834682Y-12092531D02*
X12844205Y-12111579D01*
X12844205Y-12111579D02*
X12853729Y-12149674D01*
X12853729Y-12149674D02*
X12853729Y-12197293D01*
X12853729Y-12197293D02*
X12844205Y-12235388D01*
X12844205Y-12235388D02*
X12834682Y-12254436D01*
X12834682Y-12254436D02*
X12825158Y-12263960D01*
X12825158Y-12263960D02*
X12806110Y-12273484D01*
X12806110Y-12273484D02*
X12787062Y-12273484D01*
X12787062Y-12273484D02*
X12768015Y-12263960D01*
X12768015Y-12263960D02*
X12758491Y-12254436D01*
X12758491Y-12254436D02*
X12748967Y-12235388D01*
X12748967Y-12235388D02*
X12739443Y-12197293D01*
X12739443Y-12197293D02*
X12739443Y-12149674D01*
X12739443Y-12149674D02*
X12748967Y-12111579D01*
X12748967Y-12111579D02*
X12758491Y-12092531D01*
X12758491Y-12092531D02*
X12768015Y-12083008D01*
X12768015Y-12083008D02*
X12787062Y-12073484D01*
X12977539Y-12073484D02*
X12996586Y-12073484D01*
X12996586Y-12073484D02*
X13015634Y-12083008D01*
X13015634Y-12083008D02*
X13025158Y-12092531D01*
X13025158Y-12092531D02*
X13034682Y-12111579D01*
X13034682Y-12111579D02*
X13044205Y-12149674D01*
X13044205Y-12149674D02*
X13044205Y-12197293D01*
X13044205Y-12197293D02*
X13034682Y-12235388D01*
X13034682Y-12235388D02*
X13025158Y-12254436D01*
X13025158Y-12254436D02*
X13015634Y-12263960D01*
X13015634Y-12263960D02*
X12996586Y-12273484D01*
X12996586Y-12273484D02*
X12977539Y-12273484D01*
X12977539Y-12273484D02*
X12958491Y-12263960D01*
X12958491Y-12263960D02*
X12948967Y-12254436D01*
X12948967Y-12254436D02*
X12939443Y-12235388D01*
X12939443Y-12235388D02*
X12929920Y-12197293D01*
X12929920Y-12197293D02*
X12929920Y-12149674D01*
X12929920Y-12149674D02*
X12939443Y-12111579D01*
X12939443Y-12111579D02*
X12948967Y-12092531D01*
X12948967Y-12092531D02*
X12958491Y-12083008D01*
X12958491Y-12083008D02*
X12977539Y-12073484D01*
X13129920Y-12273484D02*
X13129920Y-12140150D01*
X13129920Y-12159198D02*
X13139443Y-12149674D01*
X13139443Y-12149674D02*
X13158491Y-12140150D01*
X13158491Y-12140150D02*
X13187063Y-12140150D01*
X13187063Y-12140150D02*
X13206110Y-12149674D01*
X13206110Y-12149674D02*
X13215634Y-12168722D01*
X13215634Y-12168722D02*
X13215634Y-12273484D01*
X13215634Y-12168722D02*
X13225158Y-12149674D01*
X13225158Y-12149674D02*
X13244205Y-12140150D01*
X13244205Y-12140150D02*
X13272777Y-12140150D01*
X13272777Y-12140150D02*
X13291824Y-12149674D01*
X13291824Y-12149674D02*
X13301348Y-12168722D01*
X13301348Y-12168722D02*
X13301348Y-12273484D01*
X13396586Y-12273484D02*
X13396586Y-12140150D01*
X13396586Y-12159198D02*
X13406110Y-12149674D01*
X13406110Y-12149674D02*
X13425158Y-12140150D01*
X13425158Y-12140150D02*
X13453729Y-12140150D01*
X13453729Y-12140150D02*
X13472777Y-12149674D01*
X13472777Y-12149674D02*
X13482301Y-12168722D01*
X13482301Y-12168722D02*
X13482301Y-12273484D01*
X13482301Y-12168722D02*
X13491824Y-12149674D01*
X13491824Y-12149674D02*
X13510872Y-12140150D01*
X13510872Y-12140150D02*
X13539443Y-12140150D01*
X13539443Y-12140150D02*
X13558491Y-12149674D01*
X13558491Y-12149674D02*
X13568015Y-12168722D01*
X13568015Y-12168722D02*
X13568015Y-12273484D01*
X13958491Y-12063960D02*
X13787063Y-12321103D01*
X14215634Y-12073484D02*
X14234682Y-12073484D01*
X14234682Y-12073484D02*
X14253729Y-12083008D01*
X14253729Y-12083008D02*
X14263253Y-12092531D01*
X14263253Y-12092531D02*
X14272777Y-12111579D01*
X14272777Y-12111579D02*
X14282301Y-12149674D01*
X14282301Y-12149674D02*
X14282301Y-12197293D01*
X14282301Y-12197293D02*
X14272777Y-12235388D01*
X14272777Y-12235388D02*
X14263253Y-12254436D01*
X14263253Y-12254436D02*
X14253729Y-12263960D01*
X14253729Y-12263960D02*
X14234682Y-12273484D01*
X14234682Y-12273484D02*
X14215634Y-12273484D01*
X14215634Y-12273484D02*
X14196586Y-12263960D01*
X14196586Y-12263960D02*
X14187063Y-12254436D01*
X14187063Y-12254436D02*
X14177539Y-12235388D01*
X14177539Y-12235388D02*
X14168015Y-12197293D01*
X14168015Y-12197293D02*
X14168015Y-12149674D01*
X14168015Y-12149674D02*
X14177539Y-12111579D01*
X14177539Y-12111579D02*
X14187063Y-12092531D01*
X14187063Y-12092531D02*
X14196586Y-12083008D01*
X14196586Y-12083008D02*
X14215634Y-12073484D01*
X14368015Y-12254436D02*
X14377539Y-12263960D01*
X14377539Y-12263960D02*
X14368015Y-12273484D01*
X14368015Y-12273484D02*
X14358491Y-12263960D01*
X14358491Y-12263960D02*
X14368015Y-12254436D01*
X14368015Y-12254436D02*
X14368015Y-12273484D01*
X14501348Y-12073484D02*
X14520396Y-12073484D01*
X14520396Y-12073484D02*
X14539444Y-12083008D01*
X14539444Y-12083008D02*
X14548967Y-12092531D01*
X14548967Y-12092531D02*
X14558491Y-12111579D01*
X14558491Y-12111579D02*
X14568015Y-12149674D01*
X14568015Y-12149674D02*
X14568015Y-12197293D01*
X14568015Y-12197293D02*
X14558491Y-12235388D01*
X14558491Y-12235388D02*
X14548967Y-12254436D01*
X14548967Y-12254436D02*
X14539444Y-12263960D01*
X14539444Y-12263960D02*
X14520396Y-12273484D01*
X14520396Y-12273484D02*
X14501348Y-12273484D01*
X14501348Y-12273484D02*
X14482301Y-12263960D01*
X14482301Y-12263960D02*
X14472777Y-12254436D01*
X14472777Y-12254436D02*
X14463253Y-12235388D01*
X14463253Y-12235388D02*
X14453729Y-12197293D01*
X14453729Y-12197293D02*
X14453729Y-12149674D01*
X14453729Y-12149674D02*
X14463253Y-12111579D01*
X14463253Y-12111579D02*
X14472777Y-12092531D01*
X14472777Y-12092531D02*
X14482301Y-12083008D01*
X14482301Y-12083008D02*
X14501348Y-12073484D01*
X14634682Y-12073484D02*
X14758491Y-12073484D01*
X14758491Y-12073484D02*
X14691825Y-12149674D01*
X14691825Y-12149674D02*
X14720396Y-12149674D01*
X14720396Y-12149674D02*
X14739444Y-12159198D01*
X14739444Y-12159198D02*
X14748967Y-12168722D01*
X14748967Y-12168722D02*
X14758491Y-12187769D01*
X14758491Y-12187769D02*
X14758491Y-12235388D01*
X14758491Y-12235388D02*
X14748967Y-12254436D01*
X14748967Y-12254436D02*
X14739444Y-12263960D01*
X14739444Y-12263960D02*
X14720396Y-12273484D01*
X14720396Y-12273484D02*
X14663253Y-12273484D01*
X14663253Y-12273484D02*
X14644206Y-12263960D01*
X14644206Y-12263960D02*
X14634682Y-12254436D01*
X14853729Y-12273484D02*
X14891825Y-12273484D01*
X14891825Y-12273484D02*
X14910872Y-12263960D01*
X14910872Y-12263960D02*
X14920396Y-12254436D01*
X14920396Y-12254436D02*
X14939444Y-12225865D01*
X14939444Y-12225865D02*
X14948967Y-12187769D01*
X14948967Y-12187769D02*
X14948967Y-12111579D01*
X14948967Y-12111579D02*
X14939444Y-12092531D01*
X14939444Y-12092531D02*
X14929920Y-12083008D01*
X14929920Y-12083008D02*
X14910872Y-12073484D01*
X14910872Y-12073484D02*
X14872777Y-12073484D01*
X14872777Y-12073484D02*
X14853729Y-12083008D01*
X14853729Y-12083008D02*
X14844206Y-12092531D01*
X14844206Y-12092531D02*
X14834682Y-12111579D01*
X14834682Y-12111579D02*
X14834682Y-12159198D01*
X14834682Y-12159198D02*
X14844206Y-12178246D01*
X14844206Y-12178246D02*
X14853729Y-12187769D01*
X14853729Y-12187769D02*
X14872777Y-12197293D01*
X14872777Y-12197293D02*
X14910872Y-12197293D01*
X14910872Y-12197293D02*
X14929920Y-12187769D01*
X14929920Y-12187769D02*
X14939444Y-12178246D01*
X14939444Y-12178246D02*
X14948967Y-12159198D01*
X15120396Y-12140150D02*
X15120396Y-12273484D01*
X15072777Y-12063960D02*
X15025158Y-12206817D01*
X15025158Y-12206817D02*
X15148967Y-12206817D01*
X15215634Y-12073484D02*
X15215634Y-12111579D01*
X15291825Y-12073484D02*
X15291825Y-12111579D01*
X15587063Y-12349674D02*
X15577539Y-12340150D01*
X15577539Y-12340150D02*
X15558491Y-12311579D01*
X15558491Y-12311579D02*
X15548968Y-12292531D01*
X15548968Y-12292531D02*
X15539444Y-12263960D01*
X15539444Y-12263960D02*
X15529920Y-12216341D01*
X15529920Y-12216341D02*
X15529920Y-12178246D01*
X15529920Y-12178246D02*
X15539444Y-12130627D01*
X15539444Y-12130627D02*
X15548968Y-12102055D01*
X15548968Y-12102055D02*
X15558491Y-12083008D01*
X15558491Y-12083008D02*
X15577539Y-12054436D01*
X15577539Y-12054436D02*
X15587063Y-12044912D01*
X15768015Y-12273484D02*
X15653729Y-12273484D01*
X15710872Y-12273484D02*
X15710872Y-12073484D01*
X15710872Y-12073484D02*
X15691825Y-12102055D01*
X15691825Y-12102055D02*
X15672777Y-12121103D01*
X15672777Y-12121103D02*
X15653729Y-12130627D01*
X15891825Y-12073484D02*
X15910872Y-12073484D01*
X15910872Y-12073484D02*
X15929920Y-12083008D01*
X15929920Y-12083008D02*
X15939444Y-12092531D01*
X15939444Y-12092531D02*
X15948968Y-12111579D01*
X15948968Y-12111579D02*
X15958491Y-12149674D01*
X15958491Y-12149674D02*
X15958491Y-12197293D01*
X15958491Y-12197293D02*
X15948968Y-12235388D01*
X15948968Y-12235388D02*
X15939444Y-12254436D01*
X15939444Y-12254436D02*
X15929920Y-12263960D01*
X15929920Y-12263960D02*
X15910872Y-12273484D01*
X15910872Y-12273484D02*
X15891825Y-12273484D01*
X15891825Y-12273484D02*
X15872777Y-12263960D01*
X15872777Y-12263960D02*
X15863253Y-12254436D01*
X15863253Y-12254436D02*
X15853729Y-12235388D01*
X15853729Y-12235388D02*
X15844206Y-12197293D01*
X15844206Y-12197293D02*
X15844206Y-12149674D01*
X15844206Y-12149674D02*
X15853729Y-12111579D01*
X15853729Y-12111579D02*
X15863253Y-12092531D01*
X15863253Y-12092531D02*
X15872777Y-12083008D01*
X15872777Y-12083008D02*
X15891825Y-12073484D01*
X16196587Y-12273484D02*
X16196587Y-12073484D01*
X16282301Y-12273484D02*
X16282301Y-12168722D01*
X16282301Y-12168722D02*
X16272777Y-12149674D01*
X16272777Y-12149674D02*
X16253730Y-12140150D01*
X16253730Y-12140150D02*
X16225158Y-12140150D01*
X16225158Y-12140150D02*
X16206110Y-12149674D01*
X16206110Y-12149674D02*
X16196587Y-12159198D01*
X16406110Y-12273484D02*
X16387063Y-12263960D01*
X16387063Y-12263960D02*
X16377539Y-12254436D01*
X16377539Y-12254436D02*
X16368015Y-12235388D01*
X16368015Y-12235388D02*
X16368015Y-12178246D01*
X16368015Y-12178246D02*
X16377539Y-12159198D01*
X16377539Y-12159198D02*
X16387063Y-12149674D01*
X16387063Y-12149674D02*
X16406110Y-12140150D01*
X16406110Y-12140150D02*
X16434682Y-12140150D01*
X16434682Y-12140150D02*
X16453730Y-12149674D01*
X16453730Y-12149674D02*
X16463253Y-12159198D01*
X16463253Y-12159198D02*
X16472777Y-12178246D01*
X16472777Y-12178246D02*
X16472777Y-12235388D01*
X16472777Y-12235388D02*
X16463253Y-12254436D01*
X16463253Y-12254436D02*
X16453730Y-12263960D01*
X16453730Y-12263960D02*
X16434682Y-12273484D01*
X16434682Y-12273484D02*
X16406110Y-12273484D01*
X16587063Y-12273484D02*
X16568015Y-12263960D01*
X16568015Y-12263960D02*
X16558491Y-12244912D01*
X16558491Y-12244912D02*
X16558491Y-12073484D01*
X16739444Y-12263960D02*
X16720396Y-12273484D01*
X16720396Y-12273484D02*
X16682301Y-12273484D01*
X16682301Y-12273484D02*
X16663253Y-12263960D01*
X16663253Y-12263960D02*
X16653730Y-12244912D01*
X16653730Y-12244912D02*
X16653730Y-12168722D01*
X16653730Y-12168722D02*
X16663253Y-12149674D01*
X16663253Y-12149674D02*
X16682301Y-12140150D01*
X16682301Y-12140150D02*
X16720396Y-12140150D01*
X16720396Y-12140150D02*
X16739444Y-12149674D01*
X16739444Y-12149674D02*
X16748968Y-12168722D01*
X16748968Y-12168722D02*
X16748968Y-12187769D01*
X16748968Y-12187769D02*
X16653730Y-12206817D01*
X16825158Y-12263960D02*
X16844206Y-12273484D01*
X16844206Y-12273484D02*
X16882301Y-12273484D01*
X16882301Y-12273484D02*
X16901349Y-12263960D01*
X16901349Y-12263960D02*
X16910873Y-12244912D01*
X16910873Y-12244912D02*
X16910873Y-12235388D01*
X16910873Y-12235388D02*
X16901349Y-12216341D01*
X16901349Y-12216341D02*
X16882301Y-12206817D01*
X16882301Y-12206817D02*
X16853730Y-12206817D01*
X16853730Y-12206817D02*
X16834682Y-12197293D01*
X16834682Y-12197293D02*
X16825158Y-12178246D01*
X16825158Y-12178246D02*
X16825158Y-12168722D01*
X16825158Y-12168722D02*
X16834682Y-12149674D01*
X16834682Y-12149674D02*
X16853730Y-12140150D01*
X16853730Y-12140150D02*
X16882301Y-12140150D01*
X16882301Y-12140150D02*
X16901349Y-12149674D01*
X16977539Y-12349674D02*
X16987063Y-12340150D01*
X16987063Y-12340150D02*
X17006111Y-12311579D01*
X17006111Y-12311579D02*
X17015634Y-12292531D01*
X17015634Y-12292531D02*
X17025158Y-12263960D01*
X17025158Y-12263960D02*
X17034682Y-12216341D01*
X17034682Y-12216341D02*
X17034682Y-12178246D01*
X17034682Y-12178246D02*
X17025158Y-12130627D01*
X17025158Y-12130627D02*
X17015634Y-12102055D01*
X17015634Y-12102055D02*
X17006111Y-12083008D01*
X17006111Y-12083008D02*
X16987063Y-12054436D01*
X16987063Y-12054436D02*
X16977539Y-12044912D01*
M02*
