G04 #@! TF.GenerationSoftware,KiCad,Pcbnew,7.0.9*
G04 #@! TF.CreationDate,2024-04-20T19:12:39+02:00*
G04 #@! TF.ProjectId,NFC_Programmer,4e46435f-5072-46f6-9772-616d6d65722e,3.0*
G04 #@! TF.SameCoordinates,Original*
G04 #@! TF.FileFunction,Legend,Bot*
G04 #@! TF.FilePolarity,Positive*
%FSLAX46Y46*%
G04 Gerber Fmt 4.6, Leading zero omitted, Abs format (unit mm)*
G04 Created by KiCad (PCBNEW 7.0.9) date 2024-04-20 19:12:39*
%MOMM*%
%LPD*%
G01*
G04 APERTURE LIST*
%ADD10C,0.153000*%
%ADD11C,3.000000*%
%ADD12R,1.700000X1.700000*%
%ADD13O,1.700000X1.700000*%
G04 APERTURE END LIST*
D10*
X142590771Y-70789663D02*
X142495533Y-70789663D01*
X142495533Y-70789663D02*
X142400295Y-70837282D01*
X142400295Y-70837282D02*
X142352676Y-70884901D01*
X142352676Y-70884901D02*
X142305057Y-70980139D01*
X142305057Y-70980139D02*
X142257438Y-71170615D01*
X142257438Y-71170615D02*
X142257438Y-71408710D01*
X142257438Y-71408710D02*
X142305057Y-71599186D01*
X142305057Y-71599186D02*
X142352676Y-71694424D01*
X142352676Y-71694424D02*
X142400295Y-71742044D01*
X142400295Y-71742044D02*
X142495533Y-71789663D01*
X142495533Y-71789663D02*
X142590771Y-71789663D01*
X142590771Y-71789663D02*
X142686009Y-71742044D01*
X142686009Y-71742044D02*
X142733628Y-71694424D01*
X142733628Y-71694424D02*
X142781247Y-71599186D01*
X142781247Y-71599186D02*
X142828866Y-71408710D01*
X142828866Y-71408710D02*
X142828866Y-71170615D01*
X142828866Y-71170615D02*
X142781247Y-70980139D01*
X142781247Y-70980139D02*
X142733628Y-70884901D01*
X142733628Y-70884901D02*
X142686009Y-70837282D01*
X142686009Y-70837282D02*
X142590771Y-70789663D01*
X141400295Y-71122996D02*
X141400295Y-71789663D01*
X141638390Y-70742044D02*
X141876485Y-71456329D01*
X141876485Y-71456329D02*
X141257438Y-71456329D01*
X140162200Y-70742044D02*
X141019342Y-72027758D01*
X139876485Y-70884901D02*
X139828866Y-70837282D01*
X139828866Y-70837282D02*
X139733628Y-70789663D01*
X139733628Y-70789663D02*
X139495533Y-70789663D01*
X139495533Y-70789663D02*
X139400295Y-70837282D01*
X139400295Y-70837282D02*
X139352676Y-70884901D01*
X139352676Y-70884901D02*
X139305057Y-70980139D01*
X139305057Y-70980139D02*
X139305057Y-71075377D01*
X139305057Y-71075377D02*
X139352676Y-71218234D01*
X139352676Y-71218234D02*
X139924104Y-71789663D01*
X139924104Y-71789663D02*
X139305057Y-71789663D01*
X138686009Y-70789663D02*
X138590771Y-70789663D01*
X138590771Y-70789663D02*
X138495533Y-70837282D01*
X138495533Y-70837282D02*
X138447914Y-70884901D01*
X138447914Y-70884901D02*
X138400295Y-70980139D01*
X138400295Y-70980139D02*
X138352676Y-71170615D01*
X138352676Y-71170615D02*
X138352676Y-71408710D01*
X138352676Y-71408710D02*
X138400295Y-71599186D01*
X138400295Y-71599186D02*
X138447914Y-71694424D01*
X138447914Y-71694424D02*
X138495533Y-71742044D01*
X138495533Y-71742044D02*
X138590771Y-71789663D01*
X138590771Y-71789663D02*
X138686009Y-71789663D01*
X138686009Y-71789663D02*
X138781247Y-71742044D01*
X138781247Y-71742044D02*
X138828866Y-71694424D01*
X138828866Y-71694424D02*
X138876485Y-71599186D01*
X138876485Y-71599186D02*
X138924104Y-71408710D01*
X138924104Y-71408710D02*
X138924104Y-71170615D01*
X138924104Y-71170615D02*
X138876485Y-70980139D01*
X138876485Y-70980139D02*
X138828866Y-70884901D01*
X138828866Y-70884901D02*
X138781247Y-70837282D01*
X138781247Y-70837282D02*
X138686009Y-70789663D01*
X137971723Y-70884901D02*
X137924104Y-70837282D01*
X137924104Y-70837282D02*
X137828866Y-70789663D01*
X137828866Y-70789663D02*
X137590771Y-70789663D01*
X137590771Y-70789663D02*
X137495533Y-70837282D01*
X137495533Y-70837282D02*
X137447914Y-70884901D01*
X137447914Y-70884901D02*
X137400295Y-70980139D01*
X137400295Y-70980139D02*
X137400295Y-71075377D01*
X137400295Y-71075377D02*
X137447914Y-71218234D01*
X137447914Y-71218234D02*
X138019342Y-71789663D01*
X138019342Y-71789663D02*
X137400295Y-71789663D01*
X136543152Y-71122996D02*
X136543152Y-71789663D01*
X136781247Y-70742044D02*
X137019342Y-71456329D01*
X137019342Y-71456329D02*
X136400295Y-71456329D01*
X138200336Y-106946485D02*
X138200336Y-106327438D01*
X138200336Y-106327438D02*
X137819384Y-106660771D01*
X137819384Y-106660771D02*
X137819384Y-106517914D01*
X137819384Y-106517914D02*
X137771765Y-106422676D01*
X137771765Y-106422676D02*
X137724146Y-106375057D01*
X137724146Y-106375057D02*
X137628908Y-106327438D01*
X137628908Y-106327438D02*
X137390813Y-106327438D01*
X137390813Y-106327438D02*
X137295575Y-106375057D01*
X137295575Y-106375057D02*
X137247956Y-106422676D01*
X137247956Y-106422676D02*
X137200336Y-106517914D01*
X137200336Y-106517914D02*
X137200336Y-106803628D01*
X137200336Y-106803628D02*
X137247956Y-106898866D01*
X137247956Y-106898866D02*
X137295575Y-106946485D01*
X137295575Y-105898866D02*
X137247956Y-105851247D01*
X137247956Y-105851247D02*
X137200336Y-105898866D01*
X137200336Y-105898866D02*
X137247956Y-105946485D01*
X137247956Y-105946485D02*
X137295575Y-105898866D01*
X137295575Y-105898866D02*
X137200336Y-105898866D01*
X138200336Y-105517914D02*
X138200336Y-104898867D01*
X138200336Y-104898867D02*
X137819384Y-105232200D01*
X137819384Y-105232200D02*
X137819384Y-105089343D01*
X137819384Y-105089343D02*
X137771765Y-104994105D01*
X137771765Y-104994105D02*
X137724146Y-104946486D01*
X137724146Y-104946486D02*
X137628908Y-104898867D01*
X137628908Y-104898867D02*
X137390813Y-104898867D01*
X137390813Y-104898867D02*
X137295575Y-104946486D01*
X137295575Y-104946486D02*
X137247956Y-104994105D01*
X137247956Y-104994105D02*
X137200336Y-105089343D01*
X137200336Y-105089343D02*
X137200336Y-105375057D01*
X137200336Y-105375057D02*
X137247956Y-105470295D01*
X137247956Y-105470295D02*
X137295575Y-105517914D01*
X138200336Y-104613152D02*
X137200336Y-104279819D01*
X137200336Y-104279819D02*
X138200336Y-103946486D01*
X148471247Y-69369663D02*
X148471247Y-68369663D01*
X148471247Y-68369663D02*
X148090295Y-68369663D01*
X148090295Y-68369663D02*
X147995057Y-68417282D01*
X147995057Y-68417282D02*
X147947438Y-68464901D01*
X147947438Y-68464901D02*
X147899819Y-68560139D01*
X147899819Y-68560139D02*
X147899819Y-68702996D01*
X147899819Y-68702996D02*
X147947438Y-68798234D01*
X147947438Y-68798234D02*
X147995057Y-68845853D01*
X147995057Y-68845853D02*
X148090295Y-68893472D01*
X148090295Y-68893472D02*
X148471247Y-68893472D01*
X147090295Y-69322044D02*
X147185533Y-69369663D01*
X147185533Y-69369663D02*
X147376009Y-69369663D01*
X147376009Y-69369663D02*
X147471247Y-69322044D01*
X147471247Y-69322044D02*
X147518866Y-69226805D01*
X147518866Y-69226805D02*
X147518866Y-68845853D01*
X147518866Y-68845853D02*
X147471247Y-68750615D01*
X147471247Y-68750615D02*
X147376009Y-68702996D01*
X147376009Y-68702996D02*
X147185533Y-68702996D01*
X147185533Y-68702996D02*
X147090295Y-68750615D01*
X147090295Y-68750615D02*
X147042676Y-68845853D01*
X147042676Y-68845853D02*
X147042676Y-68941091D01*
X147042676Y-68941091D02*
X147518866Y-69036329D01*
X146185533Y-69369663D02*
X146185533Y-68369663D01*
X146185533Y-69322044D02*
X146280771Y-69369663D01*
X146280771Y-69369663D02*
X146471247Y-69369663D01*
X146471247Y-69369663D02*
X146566485Y-69322044D01*
X146566485Y-69322044D02*
X146614104Y-69274424D01*
X146614104Y-69274424D02*
X146661723Y-69179186D01*
X146661723Y-69179186D02*
X146661723Y-68893472D01*
X146661723Y-68893472D02*
X146614104Y-68798234D01*
X146614104Y-68798234D02*
X146566485Y-68750615D01*
X146566485Y-68750615D02*
X146471247Y-68702996D01*
X146471247Y-68702996D02*
X146280771Y-68702996D01*
X146280771Y-68702996D02*
X146185533Y-68750615D01*
X145709342Y-69369663D02*
X145709342Y-68702996D01*
X145709342Y-68893472D02*
X145661723Y-68798234D01*
X145661723Y-68798234D02*
X145614104Y-68750615D01*
X145614104Y-68750615D02*
X145518866Y-68702996D01*
X145518866Y-68702996D02*
X145423628Y-68702996D01*
X144947437Y-69369663D02*
X145042675Y-69322044D01*
X145042675Y-69322044D02*
X145090294Y-69274424D01*
X145090294Y-69274424D02*
X145137913Y-69179186D01*
X145137913Y-69179186D02*
X145137913Y-68893472D01*
X145137913Y-68893472D02*
X145090294Y-68798234D01*
X145090294Y-68798234D02*
X145042675Y-68750615D01*
X145042675Y-68750615D02*
X144947437Y-68702996D01*
X144947437Y-68702996D02*
X144804580Y-68702996D01*
X144804580Y-68702996D02*
X144709342Y-68750615D01*
X144709342Y-68750615D02*
X144661723Y-68798234D01*
X144661723Y-68798234D02*
X144614104Y-68893472D01*
X144614104Y-68893472D02*
X144614104Y-69179186D01*
X144614104Y-69179186D02*
X144661723Y-69274424D01*
X144661723Y-69274424D02*
X144709342Y-69322044D01*
X144709342Y-69322044D02*
X144804580Y-69369663D01*
X144804580Y-69369663D02*
X144947437Y-69369663D01*
X143566484Y-68369663D02*
X142995056Y-68369663D01*
X143280770Y-69369663D02*
X143280770Y-68369663D01*
X142661722Y-69369663D02*
X142661722Y-68702996D01*
X142661722Y-68893472D02*
X142614103Y-68798234D01*
X142614103Y-68798234D02*
X142566484Y-68750615D01*
X142566484Y-68750615D02*
X142471246Y-68702996D01*
X142471246Y-68702996D02*
X142376008Y-68702996D01*
X141661722Y-69322044D02*
X141756960Y-69369663D01*
X141756960Y-69369663D02*
X141947436Y-69369663D01*
X141947436Y-69369663D02*
X142042674Y-69322044D01*
X142042674Y-69322044D02*
X142090293Y-69226805D01*
X142090293Y-69226805D02*
X142090293Y-68845853D01*
X142090293Y-68845853D02*
X142042674Y-68750615D01*
X142042674Y-68750615D02*
X141947436Y-68702996D01*
X141947436Y-68702996D02*
X141756960Y-68702996D01*
X141756960Y-68702996D02*
X141661722Y-68750615D01*
X141661722Y-68750615D02*
X141614103Y-68845853D01*
X141614103Y-68845853D02*
X141614103Y-68941091D01*
X141614103Y-68941091D02*
X142090293Y-69036329D01*
X141185531Y-68702996D02*
X141185531Y-69369663D01*
X141185531Y-68798234D02*
X141137912Y-68750615D01*
X141137912Y-68750615D02*
X141042674Y-68702996D01*
X141042674Y-68702996D02*
X140899817Y-68702996D01*
X140899817Y-68702996D02*
X140804579Y-68750615D01*
X140804579Y-68750615D02*
X140756960Y-68845853D01*
X140756960Y-68845853D02*
X140756960Y-69369663D01*
X139852198Y-69369663D02*
X139852198Y-68845853D01*
X139852198Y-68845853D02*
X139899817Y-68750615D01*
X139899817Y-68750615D02*
X139995055Y-68702996D01*
X139995055Y-68702996D02*
X140185531Y-68702996D01*
X140185531Y-68702996D02*
X140280769Y-68750615D01*
X139852198Y-69322044D02*
X139947436Y-69369663D01*
X139947436Y-69369663D02*
X140185531Y-69369663D01*
X140185531Y-69369663D02*
X140280769Y-69322044D01*
X140280769Y-69322044D02*
X140328388Y-69226805D01*
X140328388Y-69226805D02*
X140328388Y-69131567D01*
X140328388Y-69131567D02*
X140280769Y-69036329D01*
X140280769Y-69036329D02*
X140185531Y-68988710D01*
X140185531Y-68988710D02*
X139947436Y-68988710D01*
X139947436Y-68988710D02*
X139852198Y-68941091D01*
X138947436Y-69369663D02*
X138947436Y-68369663D01*
X138947436Y-69322044D02*
X139042674Y-69369663D01*
X139042674Y-69369663D02*
X139233150Y-69369663D01*
X139233150Y-69369663D02*
X139328388Y-69322044D01*
X139328388Y-69322044D02*
X139376007Y-69274424D01*
X139376007Y-69274424D02*
X139423626Y-69179186D01*
X139423626Y-69179186D02*
X139423626Y-68893472D01*
X139423626Y-68893472D02*
X139376007Y-68798234D01*
X139376007Y-68798234D02*
X139328388Y-68750615D01*
X139328388Y-68750615D02*
X139233150Y-68702996D01*
X139233150Y-68702996D02*
X139042674Y-68702996D01*
X139042674Y-68702996D02*
X138947436Y-68750615D01*
X138328388Y-69369663D02*
X138423626Y-69322044D01*
X138423626Y-69322044D02*
X138471245Y-69274424D01*
X138471245Y-69274424D02*
X138518864Y-69179186D01*
X138518864Y-69179186D02*
X138518864Y-68893472D01*
X138518864Y-68893472D02*
X138471245Y-68798234D01*
X138471245Y-68798234D02*
X138423626Y-68750615D01*
X138423626Y-68750615D02*
X138328388Y-68702996D01*
X138328388Y-68702996D02*
X138185531Y-68702996D01*
X138185531Y-68702996D02*
X138090293Y-68750615D01*
X138090293Y-68750615D02*
X138042674Y-68798234D01*
X138042674Y-68798234D02*
X137995055Y-68893472D01*
X137995055Y-68893472D02*
X137995055Y-69179186D01*
X137995055Y-69179186D02*
X138042674Y-69274424D01*
X138042674Y-69274424D02*
X138090293Y-69322044D01*
X138090293Y-69322044D02*
X138185531Y-69369663D01*
X138185531Y-69369663D02*
X138328388Y-69369663D01*
X136471245Y-68845853D02*
X136804578Y-68845853D01*
X136804578Y-69369663D02*
X136804578Y-68369663D01*
X136804578Y-68369663D02*
X136328388Y-68369663D01*
X135947435Y-69369663D02*
X135947435Y-68702996D01*
X135947435Y-68369663D02*
X135995054Y-68417282D01*
X135995054Y-68417282D02*
X135947435Y-68464901D01*
X135947435Y-68464901D02*
X135899816Y-68417282D01*
X135899816Y-68417282D02*
X135947435Y-68369663D01*
X135947435Y-68369663D02*
X135947435Y-68464901D01*
X135042674Y-68702996D02*
X135042674Y-69512520D01*
X135042674Y-69512520D02*
X135090293Y-69607758D01*
X135090293Y-69607758D02*
X135137912Y-69655377D01*
X135137912Y-69655377D02*
X135233150Y-69702996D01*
X135233150Y-69702996D02*
X135376007Y-69702996D01*
X135376007Y-69702996D02*
X135471245Y-69655377D01*
X135042674Y-69322044D02*
X135137912Y-69369663D01*
X135137912Y-69369663D02*
X135328388Y-69369663D01*
X135328388Y-69369663D02*
X135423626Y-69322044D01*
X135423626Y-69322044D02*
X135471245Y-69274424D01*
X135471245Y-69274424D02*
X135518864Y-69179186D01*
X135518864Y-69179186D02*
X135518864Y-68893472D01*
X135518864Y-68893472D02*
X135471245Y-68798234D01*
X135471245Y-68798234D02*
X135423626Y-68750615D01*
X135423626Y-68750615D02*
X135328388Y-68702996D01*
X135328388Y-68702996D02*
X135137912Y-68702996D01*
X135137912Y-68702996D02*
X135042674Y-68750615D01*
X134137912Y-68702996D02*
X134137912Y-69369663D01*
X134566483Y-68702996D02*
X134566483Y-69226805D01*
X134566483Y-69226805D02*
X134518864Y-69322044D01*
X134518864Y-69322044D02*
X134423626Y-69369663D01*
X134423626Y-69369663D02*
X134280769Y-69369663D01*
X134280769Y-69369663D02*
X134185531Y-69322044D01*
X134185531Y-69322044D02*
X134137912Y-69274424D01*
X133280769Y-69322044D02*
X133376007Y-69369663D01*
X133376007Y-69369663D02*
X133566483Y-69369663D01*
X133566483Y-69369663D02*
X133661721Y-69322044D01*
X133661721Y-69322044D02*
X133709340Y-69226805D01*
X133709340Y-69226805D02*
X133709340Y-68845853D01*
X133709340Y-68845853D02*
X133661721Y-68750615D01*
X133661721Y-68750615D02*
X133566483Y-68702996D01*
X133566483Y-68702996D02*
X133376007Y-68702996D01*
X133376007Y-68702996D02*
X133280769Y-68750615D01*
X133280769Y-68750615D02*
X133233150Y-68845853D01*
X133233150Y-68845853D02*
X133233150Y-68941091D01*
X133233150Y-68941091D02*
X133709340Y-69036329D01*
X132804578Y-69369663D02*
X132804578Y-68702996D01*
X132804578Y-68893472D02*
X132756959Y-68798234D01*
X132756959Y-68798234D02*
X132709340Y-68750615D01*
X132709340Y-68750615D02*
X132614102Y-68702996D01*
X132614102Y-68702996D02*
X132518864Y-68702996D01*
X132042673Y-69369663D02*
X132137911Y-69322044D01*
X132137911Y-69322044D02*
X132185530Y-69274424D01*
X132185530Y-69274424D02*
X132233149Y-69179186D01*
X132233149Y-69179186D02*
X132233149Y-68893472D01*
X132233149Y-68893472D02*
X132185530Y-68798234D01*
X132185530Y-68798234D02*
X132137911Y-68750615D01*
X132137911Y-68750615D02*
X132042673Y-68702996D01*
X132042673Y-68702996D02*
X131899816Y-68702996D01*
X131899816Y-68702996D02*
X131804578Y-68750615D01*
X131804578Y-68750615D02*
X131756959Y-68798234D01*
X131756959Y-68798234D02*
X131709340Y-68893472D01*
X131709340Y-68893472D02*
X131709340Y-69179186D01*
X131709340Y-69179186D02*
X131756959Y-69274424D01*
X131756959Y-69274424D02*
X131804578Y-69322044D01*
X131804578Y-69322044D02*
X131899816Y-69369663D01*
X131899816Y-69369663D02*
X132042673Y-69369663D01*
X130852197Y-69369663D02*
X130852197Y-68845853D01*
X130852197Y-68845853D02*
X130899816Y-68750615D01*
X130899816Y-68750615D02*
X130995054Y-68702996D01*
X130995054Y-68702996D02*
X131185530Y-68702996D01*
X131185530Y-68702996D02*
X131280768Y-68750615D01*
X130852197Y-69322044D02*
X130947435Y-69369663D01*
X130947435Y-69369663D02*
X131185530Y-69369663D01*
X131185530Y-69369663D02*
X131280768Y-69322044D01*
X131280768Y-69322044D02*
X131328387Y-69226805D01*
X131328387Y-69226805D02*
X131328387Y-69131567D01*
X131328387Y-69131567D02*
X131280768Y-69036329D01*
X131280768Y-69036329D02*
X131185530Y-68988710D01*
X131185530Y-68988710D02*
X130947435Y-68988710D01*
X130947435Y-68988710D02*
X130852197Y-68941091D01*
X141384104Y-73499663D02*
X141050771Y-74499663D01*
X141050771Y-74499663D02*
X140717438Y-73499663D01*
X139955533Y-73499663D02*
X140146009Y-73499663D01*
X140146009Y-73499663D02*
X140241247Y-73547282D01*
X140241247Y-73547282D02*
X140288866Y-73594901D01*
X140288866Y-73594901D02*
X140384104Y-73737758D01*
X140384104Y-73737758D02*
X140431723Y-73928234D01*
X140431723Y-73928234D02*
X140431723Y-74309186D01*
X140431723Y-74309186D02*
X140384104Y-74404424D01*
X140384104Y-74404424D02*
X140336485Y-74452044D01*
X140336485Y-74452044D02*
X140241247Y-74499663D01*
X140241247Y-74499663D02*
X140050771Y-74499663D01*
X140050771Y-74499663D02*
X139955533Y-74452044D01*
X139955533Y-74452044D02*
X139907914Y-74404424D01*
X139907914Y-74404424D02*
X139860295Y-74309186D01*
X139860295Y-74309186D02*
X139860295Y-74071091D01*
X139860295Y-74071091D02*
X139907914Y-73975853D01*
X139907914Y-73975853D02*
X139955533Y-73928234D01*
X139955533Y-73928234D02*
X140050771Y-73880615D01*
X140050771Y-73880615D02*
X140241247Y-73880615D01*
X140241247Y-73880615D02*
X140336485Y-73928234D01*
X140336485Y-73928234D02*
X140384104Y-73975853D01*
X140384104Y-73975853D02*
X140431723Y-74071091D01*
X139431723Y-74404424D02*
X139384104Y-74452044D01*
X139384104Y-74452044D02*
X139431723Y-74499663D01*
X139431723Y-74499663D02*
X139479342Y-74452044D01*
X139479342Y-74452044D02*
X139431723Y-74404424D01*
X139431723Y-74404424D02*
X139431723Y-74499663D01*
X138765057Y-73499663D02*
X138669819Y-73499663D01*
X138669819Y-73499663D02*
X138574581Y-73547282D01*
X138574581Y-73547282D02*
X138526962Y-73594901D01*
X138526962Y-73594901D02*
X138479343Y-73690139D01*
X138479343Y-73690139D02*
X138431724Y-73880615D01*
X138431724Y-73880615D02*
X138431724Y-74118710D01*
X138431724Y-74118710D02*
X138479343Y-74309186D01*
X138479343Y-74309186D02*
X138526962Y-74404424D01*
X138526962Y-74404424D02*
X138574581Y-74452044D01*
X138574581Y-74452044D02*
X138669819Y-74499663D01*
X138669819Y-74499663D02*
X138765057Y-74499663D01*
X138765057Y-74499663D02*
X138860295Y-74452044D01*
X138860295Y-74452044D02*
X138907914Y-74404424D01*
X138907914Y-74404424D02*
X138955533Y-74309186D01*
X138955533Y-74309186D02*
X139003152Y-74118710D01*
X139003152Y-74118710D02*
X139003152Y-73880615D01*
X139003152Y-73880615D02*
X138955533Y-73690139D01*
X138955533Y-73690139D02*
X138907914Y-73594901D01*
X138907914Y-73594901D02*
X138860295Y-73547282D01*
X138860295Y-73547282D02*
X138765057Y-73499663D01*
X142190336Y-106871247D02*
X143190336Y-106871247D01*
X143190336Y-106871247D02*
X142476051Y-106537914D01*
X142476051Y-106537914D02*
X143190336Y-106204581D01*
X143190336Y-106204581D02*
X142190336Y-106204581D01*
X143190336Y-105537914D02*
X143190336Y-105347438D01*
X143190336Y-105347438D02*
X143142717Y-105252200D01*
X143142717Y-105252200D02*
X143047479Y-105156962D01*
X143047479Y-105156962D02*
X142857003Y-105109343D01*
X142857003Y-105109343D02*
X142523670Y-105109343D01*
X142523670Y-105109343D02*
X142333194Y-105156962D01*
X142333194Y-105156962D02*
X142237956Y-105252200D01*
X142237956Y-105252200D02*
X142190336Y-105347438D01*
X142190336Y-105347438D02*
X142190336Y-105537914D01*
X142190336Y-105537914D02*
X142237956Y-105633152D01*
X142237956Y-105633152D02*
X142333194Y-105728390D01*
X142333194Y-105728390D02*
X142523670Y-105776009D01*
X142523670Y-105776009D02*
X142857003Y-105776009D01*
X142857003Y-105776009D02*
X143047479Y-105728390D01*
X143047479Y-105728390D02*
X143142717Y-105633152D01*
X143142717Y-105633152D02*
X143190336Y-105537914D01*
X142237956Y-104728390D02*
X142190336Y-104585533D01*
X142190336Y-104585533D02*
X142190336Y-104347438D01*
X142190336Y-104347438D02*
X142237956Y-104252200D01*
X142237956Y-104252200D02*
X142285575Y-104204581D01*
X142285575Y-104204581D02*
X142380813Y-104156962D01*
X142380813Y-104156962D02*
X142476051Y-104156962D01*
X142476051Y-104156962D02*
X142571289Y-104204581D01*
X142571289Y-104204581D02*
X142618908Y-104252200D01*
X142618908Y-104252200D02*
X142666527Y-104347438D01*
X142666527Y-104347438D02*
X142714146Y-104537914D01*
X142714146Y-104537914D02*
X142761765Y-104633152D01*
X142761765Y-104633152D02*
X142809384Y-104680771D01*
X142809384Y-104680771D02*
X142904622Y-104728390D01*
X142904622Y-104728390D02*
X142999860Y-104728390D01*
X142999860Y-104728390D02*
X143095098Y-104680771D01*
X143095098Y-104680771D02*
X143142717Y-104633152D01*
X143142717Y-104633152D02*
X143190336Y-104537914D01*
X143190336Y-104537914D02*
X143190336Y-104299819D01*
X143190336Y-104299819D02*
X143142717Y-104156962D01*
X142190336Y-103728390D02*
X143190336Y-103728390D01*
X144897956Y-106948866D02*
X144850336Y-106806009D01*
X144850336Y-106806009D02*
X144850336Y-106567914D01*
X144850336Y-106567914D02*
X144897956Y-106472676D01*
X144897956Y-106472676D02*
X144945575Y-106425057D01*
X144945575Y-106425057D02*
X145040813Y-106377438D01*
X145040813Y-106377438D02*
X145136051Y-106377438D01*
X145136051Y-106377438D02*
X145231289Y-106425057D01*
X145231289Y-106425057D02*
X145278908Y-106472676D01*
X145278908Y-106472676D02*
X145326527Y-106567914D01*
X145326527Y-106567914D02*
X145374146Y-106758390D01*
X145374146Y-106758390D02*
X145421765Y-106853628D01*
X145421765Y-106853628D02*
X145469384Y-106901247D01*
X145469384Y-106901247D02*
X145564622Y-106948866D01*
X145564622Y-106948866D02*
X145659860Y-106948866D01*
X145659860Y-106948866D02*
X145755098Y-106901247D01*
X145755098Y-106901247D02*
X145802717Y-106853628D01*
X145802717Y-106853628D02*
X145850336Y-106758390D01*
X145850336Y-106758390D02*
X145850336Y-106520295D01*
X145850336Y-106520295D02*
X145802717Y-106377438D01*
X144945575Y-105377438D02*
X144897956Y-105425057D01*
X144897956Y-105425057D02*
X144850336Y-105567914D01*
X144850336Y-105567914D02*
X144850336Y-105663152D01*
X144850336Y-105663152D02*
X144897956Y-105806009D01*
X144897956Y-105806009D02*
X144993194Y-105901247D01*
X144993194Y-105901247D02*
X145088432Y-105948866D01*
X145088432Y-105948866D02*
X145278908Y-105996485D01*
X145278908Y-105996485D02*
X145421765Y-105996485D01*
X145421765Y-105996485D02*
X145612241Y-105948866D01*
X145612241Y-105948866D02*
X145707479Y-105901247D01*
X145707479Y-105901247D02*
X145802717Y-105806009D01*
X145802717Y-105806009D02*
X145850336Y-105663152D01*
X145850336Y-105663152D02*
X145850336Y-105567914D01*
X145850336Y-105567914D02*
X145802717Y-105425057D01*
X145802717Y-105425057D02*
X145755098Y-105377438D01*
X144850336Y-104948866D02*
X145850336Y-104948866D01*
X144850336Y-104377438D02*
X145421765Y-104806009D01*
X145850336Y-104377438D02*
X145278908Y-104948866D01*
X147200336Y-106941247D02*
X148200336Y-106941247D01*
X148200336Y-106941247D02*
X147486051Y-106607914D01*
X147486051Y-106607914D02*
X148200336Y-106274581D01*
X148200336Y-106274581D02*
X147200336Y-106274581D01*
X147200336Y-105798390D02*
X148200336Y-105798390D01*
X147247956Y-105369819D02*
X147200336Y-105226962D01*
X147200336Y-105226962D02*
X147200336Y-104988867D01*
X147200336Y-104988867D02*
X147247956Y-104893629D01*
X147247956Y-104893629D02*
X147295575Y-104846010D01*
X147295575Y-104846010D02*
X147390813Y-104798391D01*
X147390813Y-104798391D02*
X147486051Y-104798391D01*
X147486051Y-104798391D02*
X147581289Y-104846010D01*
X147581289Y-104846010D02*
X147628908Y-104893629D01*
X147628908Y-104893629D02*
X147676527Y-104988867D01*
X147676527Y-104988867D02*
X147724146Y-105179343D01*
X147724146Y-105179343D02*
X147771765Y-105274581D01*
X147771765Y-105274581D02*
X147819384Y-105322200D01*
X147819384Y-105322200D02*
X147914622Y-105369819D01*
X147914622Y-105369819D02*
X148009860Y-105369819D01*
X148009860Y-105369819D02*
X148105098Y-105322200D01*
X148105098Y-105322200D02*
X148152717Y-105274581D01*
X148152717Y-105274581D02*
X148200336Y-105179343D01*
X148200336Y-105179343D02*
X148200336Y-104941248D01*
X148200336Y-104941248D02*
X148152717Y-104798391D01*
X148200336Y-104179343D02*
X148200336Y-103988867D01*
X148200336Y-103988867D02*
X148152717Y-103893629D01*
X148152717Y-103893629D02*
X148057479Y-103798391D01*
X148057479Y-103798391D02*
X147867003Y-103750772D01*
X147867003Y-103750772D02*
X147533670Y-103750772D01*
X147533670Y-103750772D02*
X147343194Y-103798391D01*
X147343194Y-103798391D02*
X147247956Y-103893629D01*
X147247956Y-103893629D02*
X147200336Y-103988867D01*
X147200336Y-103988867D02*
X147200336Y-104179343D01*
X147200336Y-104179343D02*
X147247956Y-104274581D01*
X147247956Y-104274581D02*
X147343194Y-104369819D01*
X147343194Y-104369819D02*
X147533670Y-104417438D01*
X147533670Y-104417438D02*
X147867003Y-104417438D01*
X147867003Y-104417438D02*
X148057479Y-104369819D01*
X148057479Y-104369819D02*
X148152717Y-104274581D01*
X148152717Y-104274581D02*
X148200336Y-104179343D01*
X155812717Y-106307438D02*
X155860336Y-106402676D01*
X155860336Y-106402676D02*
X155860336Y-106545533D01*
X155860336Y-106545533D02*
X155812717Y-106688390D01*
X155812717Y-106688390D02*
X155717479Y-106783628D01*
X155717479Y-106783628D02*
X155622241Y-106831247D01*
X155622241Y-106831247D02*
X155431765Y-106878866D01*
X155431765Y-106878866D02*
X155288908Y-106878866D01*
X155288908Y-106878866D02*
X155098432Y-106831247D01*
X155098432Y-106831247D02*
X155003194Y-106783628D01*
X155003194Y-106783628D02*
X154907956Y-106688390D01*
X154907956Y-106688390D02*
X154860336Y-106545533D01*
X154860336Y-106545533D02*
X154860336Y-106450295D01*
X154860336Y-106450295D02*
X154907956Y-106307438D01*
X154907956Y-106307438D02*
X154955575Y-106259819D01*
X154955575Y-106259819D02*
X155288908Y-106259819D01*
X155288908Y-106259819D02*
X155288908Y-106450295D01*
X154860336Y-105831247D02*
X155860336Y-105831247D01*
X155860336Y-105831247D02*
X154860336Y-105259819D01*
X154860336Y-105259819D02*
X155860336Y-105259819D01*
X154860336Y-104783628D02*
X155860336Y-104783628D01*
X155860336Y-104783628D02*
X155860336Y-104545533D01*
X155860336Y-104545533D02*
X155812717Y-104402676D01*
X155812717Y-104402676D02*
X155717479Y-104307438D01*
X155717479Y-104307438D02*
X155622241Y-104259819D01*
X155622241Y-104259819D02*
X155431765Y-104212200D01*
X155431765Y-104212200D02*
X155288908Y-104212200D01*
X155288908Y-104212200D02*
X155098432Y-104259819D01*
X155098432Y-104259819D02*
X155003194Y-104307438D01*
X155003194Y-104307438D02*
X154907956Y-104402676D01*
X154907956Y-104402676D02*
X154860336Y-104545533D01*
X154860336Y-104545533D02*
X154860336Y-104783628D01*
X149820336Y-106731247D02*
X150820336Y-106731247D01*
X150820336Y-106731247D02*
X149820336Y-106159819D01*
X149820336Y-106159819D02*
X150820336Y-106159819D01*
X149867956Y-105731247D02*
X149820336Y-105588390D01*
X149820336Y-105588390D02*
X149820336Y-105350295D01*
X149820336Y-105350295D02*
X149867956Y-105255057D01*
X149867956Y-105255057D02*
X149915575Y-105207438D01*
X149915575Y-105207438D02*
X150010813Y-105159819D01*
X150010813Y-105159819D02*
X150106051Y-105159819D01*
X150106051Y-105159819D02*
X150201289Y-105207438D01*
X150201289Y-105207438D02*
X150248908Y-105255057D01*
X150248908Y-105255057D02*
X150296527Y-105350295D01*
X150296527Y-105350295D02*
X150344146Y-105540771D01*
X150344146Y-105540771D02*
X150391765Y-105636009D01*
X150391765Y-105636009D02*
X150439384Y-105683628D01*
X150439384Y-105683628D02*
X150534622Y-105731247D01*
X150534622Y-105731247D02*
X150629860Y-105731247D01*
X150629860Y-105731247D02*
X150725098Y-105683628D01*
X150725098Y-105683628D02*
X150772717Y-105636009D01*
X150772717Y-105636009D02*
X150820336Y-105540771D01*
X150820336Y-105540771D02*
X150820336Y-105302676D01*
X150820336Y-105302676D02*
X150772717Y-105159819D01*
X149867956Y-104778866D02*
X149820336Y-104636009D01*
X149820336Y-104636009D02*
X149820336Y-104397914D01*
X149820336Y-104397914D02*
X149867956Y-104302676D01*
X149867956Y-104302676D02*
X149915575Y-104255057D01*
X149915575Y-104255057D02*
X150010813Y-104207438D01*
X150010813Y-104207438D02*
X150106051Y-104207438D01*
X150106051Y-104207438D02*
X150201289Y-104255057D01*
X150201289Y-104255057D02*
X150248908Y-104302676D01*
X150248908Y-104302676D02*
X150296527Y-104397914D01*
X150296527Y-104397914D02*
X150344146Y-104588390D01*
X150344146Y-104588390D02*
X150391765Y-104683628D01*
X150391765Y-104683628D02*
X150439384Y-104731247D01*
X150439384Y-104731247D02*
X150534622Y-104778866D01*
X150534622Y-104778866D02*
X150629860Y-104778866D01*
X150629860Y-104778866D02*
X150725098Y-104731247D01*
X150725098Y-104731247D02*
X150772717Y-104683628D01*
X150772717Y-104683628D02*
X150820336Y-104588390D01*
X150820336Y-104588390D02*
X150820336Y-104350295D01*
X150820336Y-104350295D02*
X150772717Y-104207438D01*
X152410336Y-106801247D02*
X153410336Y-106801247D01*
X152410336Y-105753629D02*
X152886527Y-106086962D01*
X152410336Y-106325057D02*
X153410336Y-106325057D01*
X153410336Y-106325057D02*
X153410336Y-105944105D01*
X153410336Y-105944105D02*
X153362717Y-105848867D01*
X153362717Y-105848867D02*
X153315098Y-105801248D01*
X153315098Y-105801248D02*
X153219860Y-105753629D01*
X153219860Y-105753629D02*
X153077003Y-105753629D01*
X153077003Y-105753629D02*
X152981765Y-105801248D01*
X152981765Y-105801248D02*
X152934146Y-105848867D01*
X152934146Y-105848867D02*
X152886527Y-105944105D01*
X152886527Y-105944105D02*
X152886527Y-106325057D01*
X152315098Y-104658391D02*
X152362717Y-104753629D01*
X152362717Y-104753629D02*
X152457956Y-104848867D01*
X152457956Y-104848867D02*
X152600813Y-104991724D01*
X152600813Y-104991724D02*
X152648432Y-105086962D01*
X152648432Y-105086962D02*
X152648432Y-105182200D01*
X152410336Y-105134581D02*
X152457956Y-105229819D01*
X152457956Y-105229819D02*
X152553194Y-105325057D01*
X152553194Y-105325057D02*
X152743670Y-105372676D01*
X152743670Y-105372676D02*
X153077003Y-105372676D01*
X153077003Y-105372676D02*
X153267479Y-105325057D01*
X153267479Y-105325057D02*
X153362717Y-105229819D01*
X153362717Y-105229819D02*
X153410336Y-105134581D01*
X153410336Y-105134581D02*
X153410336Y-104944105D01*
X153410336Y-104944105D02*
X153362717Y-104848867D01*
X153362717Y-104848867D02*
X153267479Y-104753629D01*
X153267479Y-104753629D02*
X153077003Y-104706010D01*
X153077003Y-104706010D02*
X152743670Y-104706010D01*
X152743670Y-104706010D02*
X152553194Y-104753629D01*
X152553194Y-104753629D02*
X152457956Y-104848867D01*
X152457956Y-104848867D02*
X152410336Y-104944105D01*
X152410336Y-104944105D02*
X152410336Y-105134581D01*
X139680336Y-106871247D02*
X140680336Y-106871247D01*
X140680336Y-106871247D02*
X140680336Y-106490295D01*
X140680336Y-106490295D02*
X140632717Y-106395057D01*
X140632717Y-106395057D02*
X140585098Y-106347438D01*
X140585098Y-106347438D02*
X140489860Y-106299819D01*
X140489860Y-106299819D02*
X140347003Y-106299819D01*
X140347003Y-106299819D02*
X140251765Y-106347438D01*
X140251765Y-106347438D02*
X140204146Y-106395057D01*
X140204146Y-106395057D02*
X140156527Y-106490295D01*
X140156527Y-106490295D02*
X140156527Y-106871247D01*
X139680336Y-105871247D02*
X140680336Y-105871247D01*
X140680336Y-105871247D02*
X140680336Y-105633152D01*
X140680336Y-105633152D02*
X140632717Y-105490295D01*
X140632717Y-105490295D02*
X140537479Y-105395057D01*
X140537479Y-105395057D02*
X140442241Y-105347438D01*
X140442241Y-105347438D02*
X140251765Y-105299819D01*
X140251765Y-105299819D02*
X140108908Y-105299819D01*
X140108908Y-105299819D02*
X139918432Y-105347438D01*
X139918432Y-105347438D02*
X139823194Y-105395057D01*
X139823194Y-105395057D02*
X139727956Y-105490295D01*
X139727956Y-105490295D02*
X139680336Y-105633152D01*
X139680336Y-105633152D02*
X139680336Y-105871247D01*
X140680336Y-104680771D02*
X140680336Y-104490295D01*
X140680336Y-104490295D02*
X140632717Y-104395057D01*
X140632717Y-104395057D02*
X140537479Y-104299819D01*
X140537479Y-104299819D02*
X140347003Y-104252200D01*
X140347003Y-104252200D02*
X140013670Y-104252200D01*
X140013670Y-104252200D02*
X139823194Y-104299819D01*
X139823194Y-104299819D02*
X139727956Y-104395057D01*
X139727956Y-104395057D02*
X139680336Y-104490295D01*
X139680336Y-104490295D02*
X139680336Y-104680771D01*
X139680336Y-104680771D02*
X139727956Y-104776009D01*
X139727956Y-104776009D02*
X139823194Y-104871247D01*
X139823194Y-104871247D02*
X140013670Y-104918866D01*
X140013670Y-104918866D02*
X140347003Y-104918866D01*
X140347003Y-104918866D02*
X140537479Y-104871247D01*
X140537479Y-104871247D02*
X140632717Y-104776009D01*
X140632717Y-104776009D02*
X140680336Y-104680771D01*
X140680336Y-103918866D02*
X139680336Y-103680771D01*
X139680336Y-103680771D02*
X140394622Y-103490295D01*
X140394622Y-103490295D02*
X139680336Y-103299819D01*
X139680336Y-103299819D02*
X140680336Y-103061724D01*
X139680336Y-102680771D02*
X140680336Y-102680771D01*
X140680336Y-102680771D02*
X139680336Y-102109343D01*
X139680336Y-102109343D02*
X140680336Y-102109343D01*
%LPC*%
D11*
X124080000Y-58640000D03*
X156120000Y-58640000D03*
D12*
X128530000Y-103060000D03*
D13*
X131070000Y-103060000D03*
D11*
X124060000Y-88020000D03*
D12*
X137670000Y-108020000D03*
D13*
X140210000Y-108020000D03*
X142750000Y-108020000D03*
X145290000Y-108020000D03*
X147830000Y-108020000D03*
X150370000Y-108020000D03*
X152910000Y-108020000D03*
X155450000Y-108020000D03*
D11*
X156110000Y-88020000D03*
%LPD*%
M02*
