G04 #@! TF.GenerationSoftware,KiCad,Pcbnew,7.0.9*
G04 #@! TF.CreationDate,2024-04-03T14:27:43+02:00*
G04 #@! TF.ProjectId,NFC_Programmer,4e46435f-5072-46f6-9772-616d6d65722e,3.0*
G04 #@! TF.SameCoordinates,Original*
G04 #@! TF.FileFunction,Legend,Top*
G04 #@! TF.FilePolarity,Positive*
%FSLAX46Y46*%
G04 Gerber Fmt 4.6, Leading zero omitted, Abs format (unit mm)*
G04 Created by KiCad (PCBNEW 7.0.9) date 2024-04-03 14:27:43*
%MOMM*%
%LPD*%
G01*
G04 APERTURE LIST*
G04 Aperture macros list*
%AMRoundRect*
0 Rectangle with rounded corners*
0 $1 Rounding radius*
0 $2 $3 $4 $5 $6 $7 $8 $9 X,Y pos of 4 corners*
0 Add a 4 corners polygon primitive as box body*
4,1,4,$2,$3,$4,$5,$6,$7,$8,$9,$2,$3,0*
0 Add four circle primitives for the rounded corners*
1,1,$1+$1,$2,$3*
1,1,$1+$1,$4,$5*
1,1,$1+$1,$6,$7*
1,1,$1+$1,$8,$9*
0 Add four rect primitives between the rounded corners*
20,1,$1+$1,$2,$3,$4,$5,0*
20,1,$1+$1,$4,$5,$6,$7,0*
20,1,$1+$1,$6,$7,$8,$9,0*
20,1,$1+$1,$8,$9,$2,$3,0*%
G04 Aperture macros list end*
%ADD10C,0.153000*%
%ADD11C,0.120000*%
%ADD12C,0.250000*%
%ADD13RoundRect,0.237500X-0.237500X0.250000X-0.237500X-0.250000X0.237500X-0.250000X0.237500X0.250000X0*%
%ADD14RoundRect,0.237500X0.300000X0.237500X-0.300000X0.237500X-0.300000X-0.237500X0.300000X-0.237500X0*%
%ADD15R,1.000000X1.000000*%
%ADD16RoundRect,0.237500X0.237500X-0.250000X0.237500X0.250000X-0.237500X0.250000X-0.237500X-0.250000X0*%
%ADD17R,1.000000X1.500000*%
%ADD18C,3.000000*%
%ADD19R,1.350000X1.350000*%
%ADD20O,1.350000X1.350000*%
%ADD21RoundRect,0.237500X0.237500X-0.287500X0.237500X0.287500X-0.237500X0.287500X-0.237500X-0.287500X0*%
%ADD22R,0.900000X0.800000*%
%ADD23RoundRect,0.237500X0.237500X-0.300000X0.237500X0.300000X-0.237500X0.300000X-0.237500X-0.300000X0*%
%ADD24RoundRect,0.237500X-0.237500X0.300000X-0.237500X-0.300000X0.237500X-0.300000X0.237500X0.300000X0*%
%ADD25R,0.850000X0.300000*%
%ADD26R,0.300000X0.850000*%
%ADD27R,3.250000X3.250000*%
%ADD28RoundRect,0.237500X-0.300000X-0.237500X0.300000X-0.237500X0.300000X0.237500X-0.300000X0.237500X0*%
%ADD29RoundRect,0.237500X-0.250000X-0.237500X0.250000X-0.237500X0.250000X0.237500X-0.250000X0.237500X0*%
%ADD30RoundRect,0.237500X-0.287500X-0.237500X0.287500X-0.237500X0.287500X0.237500X-0.287500X0.237500X0*%
%ADD31RoundRect,0.237500X0.250000X0.237500X-0.250000X0.237500X-0.250000X-0.237500X0.250000X-0.237500X0*%
G04 APERTURE END LIST*
D10*
X134381133Y-71574901D02*
X134428752Y-71527282D01*
X134428752Y-71527282D02*
X134523990Y-71479663D01*
X134523990Y-71479663D02*
X134762085Y-71479663D01*
X134762085Y-71479663D02*
X134857323Y-71527282D01*
X134857323Y-71527282D02*
X134904942Y-71574901D01*
X134904942Y-71574901D02*
X134952561Y-71670139D01*
X134952561Y-71670139D02*
X134952561Y-71765377D01*
X134952561Y-71765377D02*
X134904942Y-71908234D01*
X134904942Y-71908234D02*
X134333514Y-72479663D01*
X134333514Y-72479663D02*
X134952561Y-72479663D01*
X135523990Y-71908234D02*
X135428752Y-71860615D01*
X135428752Y-71860615D02*
X135381133Y-71812996D01*
X135381133Y-71812996D02*
X135333514Y-71717758D01*
X135333514Y-71717758D02*
X135333514Y-71670139D01*
X135333514Y-71670139D02*
X135381133Y-71574901D01*
X135381133Y-71574901D02*
X135428752Y-71527282D01*
X135428752Y-71527282D02*
X135523990Y-71479663D01*
X135523990Y-71479663D02*
X135714466Y-71479663D01*
X135714466Y-71479663D02*
X135809704Y-71527282D01*
X135809704Y-71527282D02*
X135857323Y-71574901D01*
X135857323Y-71574901D02*
X135904942Y-71670139D01*
X135904942Y-71670139D02*
X135904942Y-71717758D01*
X135904942Y-71717758D02*
X135857323Y-71812996D01*
X135857323Y-71812996D02*
X135809704Y-71860615D01*
X135809704Y-71860615D02*
X135714466Y-71908234D01*
X135714466Y-71908234D02*
X135523990Y-71908234D01*
X135523990Y-71908234D02*
X135428752Y-71955853D01*
X135428752Y-71955853D02*
X135381133Y-72003472D01*
X135381133Y-72003472D02*
X135333514Y-72098710D01*
X135333514Y-72098710D02*
X135333514Y-72289186D01*
X135333514Y-72289186D02*
X135381133Y-72384424D01*
X135381133Y-72384424D02*
X135428752Y-72432044D01*
X135428752Y-72432044D02*
X135523990Y-72479663D01*
X135523990Y-72479663D02*
X135714466Y-72479663D01*
X135714466Y-72479663D02*
X135809704Y-72432044D01*
X135809704Y-72432044D02*
X135857323Y-72384424D01*
X135857323Y-72384424D02*
X135904942Y-72289186D01*
X135904942Y-72289186D02*
X135904942Y-72098710D01*
X135904942Y-72098710D02*
X135857323Y-72003472D01*
X135857323Y-72003472D02*
X135809704Y-71955853D01*
X135809704Y-71955853D02*
X135714466Y-71908234D01*
X136381133Y-72432044D02*
X136381133Y-72479663D01*
X136381133Y-72479663D02*
X136333514Y-72574901D01*
X136333514Y-72574901D02*
X136285895Y-72622520D01*
X136714466Y-71479663D02*
X137333513Y-71479663D01*
X137333513Y-71479663D02*
X137000180Y-71860615D01*
X137000180Y-71860615D02*
X137143037Y-71860615D01*
X137143037Y-71860615D02*
X137238275Y-71908234D01*
X137238275Y-71908234D02*
X137285894Y-71955853D01*
X137285894Y-71955853D02*
X137333513Y-72051091D01*
X137333513Y-72051091D02*
X137333513Y-72289186D01*
X137333513Y-72289186D02*
X137285894Y-72384424D01*
X137285894Y-72384424D02*
X137238275Y-72432044D01*
X137238275Y-72432044D02*
X137143037Y-72479663D01*
X137143037Y-72479663D02*
X136857323Y-72479663D01*
X136857323Y-72479663D02*
X136762085Y-72432044D01*
X136762085Y-72432044D02*
X136714466Y-72384424D01*
X137714466Y-71574901D02*
X137762085Y-71527282D01*
X137762085Y-71527282D02*
X137857323Y-71479663D01*
X137857323Y-71479663D02*
X138095418Y-71479663D01*
X138095418Y-71479663D02*
X138190656Y-71527282D01*
X138190656Y-71527282D02*
X138238275Y-71574901D01*
X138238275Y-71574901D02*
X138285894Y-71670139D01*
X138285894Y-71670139D02*
X138285894Y-71765377D01*
X138285894Y-71765377D02*
X138238275Y-71908234D01*
X138238275Y-71908234D02*
X137666847Y-72479663D01*
X137666847Y-72479663D02*
X138285894Y-72479663D01*
X139381133Y-72479663D02*
X139904942Y-71812996D01*
X139381133Y-71812996D02*
X139904942Y-72479663D01*
X141000181Y-71574901D02*
X141047800Y-71527282D01*
X141047800Y-71527282D02*
X141143038Y-71479663D01*
X141143038Y-71479663D02*
X141381133Y-71479663D01*
X141381133Y-71479663D02*
X141476371Y-71527282D01*
X141476371Y-71527282D02*
X141523990Y-71574901D01*
X141523990Y-71574901D02*
X141571609Y-71670139D01*
X141571609Y-71670139D02*
X141571609Y-71765377D01*
X141571609Y-71765377D02*
X141523990Y-71908234D01*
X141523990Y-71908234D02*
X140952562Y-72479663D01*
X140952562Y-72479663D02*
X141571609Y-72479663D01*
X141952562Y-71574901D02*
X142000181Y-71527282D01*
X142000181Y-71527282D02*
X142095419Y-71479663D01*
X142095419Y-71479663D02*
X142333514Y-71479663D01*
X142333514Y-71479663D02*
X142428752Y-71527282D01*
X142428752Y-71527282D02*
X142476371Y-71574901D01*
X142476371Y-71574901D02*
X142523990Y-71670139D01*
X142523990Y-71670139D02*
X142523990Y-71765377D01*
X142523990Y-71765377D02*
X142476371Y-71908234D01*
X142476371Y-71908234D02*
X141904943Y-72479663D01*
X141904943Y-72479663D02*
X142523990Y-72479663D01*
X143000181Y-72432044D02*
X143000181Y-72479663D01*
X143000181Y-72479663D02*
X142952562Y-72574901D01*
X142952562Y-72574901D02*
X142904943Y-72622520D01*
X143571609Y-71908234D02*
X143476371Y-71860615D01*
X143476371Y-71860615D02*
X143428752Y-71812996D01*
X143428752Y-71812996D02*
X143381133Y-71717758D01*
X143381133Y-71717758D02*
X143381133Y-71670139D01*
X143381133Y-71670139D02*
X143428752Y-71574901D01*
X143428752Y-71574901D02*
X143476371Y-71527282D01*
X143476371Y-71527282D02*
X143571609Y-71479663D01*
X143571609Y-71479663D02*
X143762085Y-71479663D01*
X143762085Y-71479663D02*
X143857323Y-71527282D01*
X143857323Y-71527282D02*
X143904942Y-71574901D01*
X143904942Y-71574901D02*
X143952561Y-71670139D01*
X143952561Y-71670139D02*
X143952561Y-71717758D01*
X143952561Y-71717758D02*
X143904942Y-71812996D01*
X143904942Y-71812996D02*
X143857323Y-71860615D01*
X143857323Y-71860615D02*
X143762085Y-71908234D01*
X143762085Y-71908234D02*
X143571609Y-71908234D01*
X143571609Y-71908234D02*
X143476371Y-71955853D01*
X143476371Y-71955853D02*
X143428752Y-72003472D01*
X143428752Y-72003472D02*
X143381133Y-72098710D01*
X143381133Y-72098710D02*
X143381133Y-72289186D01*
X143381133Y-72289186D02*
X143428752Y-72384424D01*
X143428752Y-72384424D02*
X143476371Y-72432044D01*
X143476371Y-72432044D02*
X143571609Y-72479663D01*
X143571609Y-72479663D02*
X143762085Y-72479663D01*
X143762085Y-72479663D02*
X143857323Y-72432044D01*
X143857323Y-72432044D02*
X143904942Y-72384424D01*
X143904942Y-72384424D02*
X143952561Y-72289186D01*
X143952561Y-72289186D02*
X143952561Y-72098710D01*
X143952561Y-72098710D02*
X143904942Y-72003472D01*
X143904942Y-72003472D02*
X143857323Y-71955853D01*
X143857323Y-71955853D02*
X143762085Y-71908234D01*
X144285895Y-71479663D02*
X144904942Y-71479663D01*
X144904942Y-71479663D02*
X144571609Y-71860615D01*
X144571609Y-71860615D02*
X144714466Y-71860615D01*
X144714466Y-71860615D02*
X144809704Y-71908234D01*
X144809704Y-71908234D02*
X144857323Y-71955853D01*
X144857323Y-71955853D02*
X144904942Y-72051091D01*
X144904942Y-72051091D02*
X144904942Y-72289186D01*
X144904942Y-72289186D02*
X144857323Y-72384424D01*
X144857323Y-72384424D02*
X144809704Y-72432044D01*
X144809704Y-72432044D02*
X144714466Y-72479663D01*
X144714466Y-72479663D02*
X144428752Y-72479663D01*
X144428752Y-72479663D02*
X144333514Y-72432044D01*
X144333514Y-72432044D02*
X144285895Y-72384424D01*
X133416847Y-69847282D02*
X133416847Y-67847282D01*
X133416847Y-67847282D02*
X134083514Y-69275853D01*
X134083514Y-69275853D02*
X134750180Y-67847282D01*
X134750180Y-67847282D02*
X134750180Y-69847282D01*
X136369228Y-68799663D02*
X135702561Y-68799663D01*
X135702561Y-69847282D02*
X135702561Y-67847282D01*
X135702561Y-67847282D02*
X136654942Y-67847282D01*
X138559704Y-69847282D02*
X137893037Y-68894901D01*
X137416847Y-69847282D02*
X137416847Y-67847282D01*
X137416847Y-67847282D02*
X138178752Y-67847282D01*
X138178752Y-67847282D02*
X138369228Y-67942520D01*
X138369228Y-67942520D02*
X138464466Y-68037758D01*
X138464466Y-68037758D02*
X138559704Y-68228234D01*
X138559704Y-68228234D02*
X138559704Y-68513948D01*
X138559704Y-68513948D02*
X138464466Y-68704424D01*
X138464466Y-68704424D02*
X138369228Y-68799663D01*
X138369228Y-68799663D02*
X138178752Y-68894901D01*
X138178752Y-68894901D02*
X137416847Y-68894901D01*
X140559704Y-69656805D02*
X140464466Y-69752044D01*
X140464466Y-69752044D02*
X140178752Y-69847282D01*
X140178752Y-69847282D02*
X139988276Y-69847282D01*
X139988276Y-69847282D02*
X139702561Y-69752044D01*
X139702561Y-69752044D02*
X139512085Y-69561567D01*
X139512085Y-69561567D02*
X139416847Y-69371091D01*
X139416847Y-69371091D02*
X139321609Y-68990139D01*
X139321609Y-68990139D02*
X139321609Y-68704424D01*
X139321609Y-68704424D02*
X139416847Y-68323472D01*
X139416847Y-68323472D02*
X139512085Y-68132996D01*
X139512085Y-68132996D02*
X139702561Y-67942520D01*
X139702561Y-67942520D02*
X139988276Y-67847282D01*
X139988276Y-67847282D02*
X140178752Y-67847282D01*
X140178752Y-67847282D02*
X140464466Y-67942520D01*
X140464466Y-67942520D02*
X140559704Y-68037758D01*
X142273990Y-67847282D02*
X141893037Y-67847282D01*
X141893037Y-67847282D02*
X141702561Y-67942520D01*
X141702561Y-67942520D02*
X141607323Y-68037758D01*
X141607323Y-68037758D02*
X141416847Y-68323472D01*
X141416847Y-68323472D02*
X141321609Y-68704424D01*
X141321609Y-68704424D02*
X141321609Y-69466329D01*
X141321609Y-69466329D02*
X141416847Y-69656805D01*
X141416847Y-69656805D02*
X141512085Y-69752044D01*
X141512085Y-69752044D02*
X141702561Y-69847282D01*
X141702561Y-69847282D02*
X142083514Y-69847282D01*
X142083514Y-69847282D02*
X142273990Y-69752044D01*
X142273990Y-69752044D02*
X142369228Y-69656805D01*
X142369228Y-69656805D02*
X142464466Y-69466329D01*
X142464466Y-69466329D02*
X142464466Y-68990139D01*
X142464466Y-68990139D02*
X142369228Y-68799663D01*
X142369228Y-68799663D02*
X142273990Y-68704424D01*
X142273990Y-68704424D02*
X142083514Y-68609186D01*
X142083514Y-68609186D02*
X141702561Y-68609186D01*
X141702561Y-68609186D02*
X141512085Y-68704424D01*
X141512085Y-68704424D02*
X141416847Y-68799663D01*
X141416847Y-68799663D02*
X141321609Y-68990139D01*
X143131133Y-67847282D02*
X144369228Y-67847282D01*
X144369228Y-67847282D02*
X143702561Y-68609186D01*
X143702561Y-68609186D02*
X143988276Y-68609186D01*
X143988276Y-68609186D02*
X144178752Y-68704424D01*
X144178752Y-68704424D02*
X144273990Y-68799663D01*
X144273990Y-68799663D02*
X144369228Y-68990139D01*
X144369228Y-68990139D02*
X144369228Y-69466329D01*
X144369228Y-69466329D02*
X144273990Y-69656805D01*
X144273990Y-69656805D02*
X144178752Y-69752044D01*
X144178752Y-69752044D02*
X143988276Y-69847282D01*
X143988276Y-69847282D02*
X143416847Y-69847282D01*
X143416847Y-69847282D02*
X143226371Y-69752044D01*
X143226371Y-69752044D02*
X143131133Y-69656805D01*
X145607323Y-67847282D02*
X145797800Y-67847282D01*
X145797800Y-67847282D02*
X145988276Y-67942520D01*
X145988276Y-67942520D02*
X146083514Y-68037758D01*
X146083514Y-68037758D02*
X146178752Y-68228234D01*
X146178752Y-68228234D02*
X146273990Y-68609186D01*
X146273990Y-68609186D02*
X146273990Y-69085377D01*
X146273990Y-69085377D02*
X146178752Y-69466329D01*
X146178752Y-69466329D02*
X146083514Y-69656805D01*
X146083514Y-69656805D02*
X145988276Y-69752044D01*
X145988276Y-69752044D02*
X145797800Y-69847282D01*
X145797800Y-69847282D02*
X145607323Y-69847282D01*
X145607323Y-69847282D02*
X145416847Y-69752044D01*
X145416847Y-69752044D02*
X145321609Y-69656805D01*
X145321609Y-69656805D02*
X145226371Y-69466329D01*
X145226371Y-69466329D02*
X145131133Y-69085377D01*
X145131133Y-69085377D02*
X145131133Y-68609186D01*
X145131133Y-68609186D02*
X145226371Y-68228234D01*
X145226371Y-68228234D02*
X145321609Y-68037758D01*
X145321609Y-68037758D02*
X145416847Y-67942520D01*
X145416847Y-67942520D02*
X145607323Y-67847282D01*
X150728333Y-98264663D02*
X150395000Y-97788472D01*
X150156905Y-98264663D02*
X150156905Y-97264663D01*
X150156905Y-97264663D02*
X150537857Y-97264663D01*
X150537857Y-97264663D02*
X150633095Y-97312282D01*
X150633095Y-97312282D02*
X150680714Y-97359901D01*
X150680714Y-97359901D02*
X150728333Y-97455139D01*
X150728333Y-97455139D02*
X150728333Y-97597996D01*
X150728333Y-97597996D02*
X150680714Y-97693234D01*
X150680714Y-97693234D02*
X150633095Y-97740853D01*
X150633095Y-97740853D02*
X150537857Y-97788472D01*
X150537857Y-97788472D02*
X150156905Y-97788472D01*
X151109286Y-97359901D02*
X151156905Y-97312282D01*
X151156905Y-97312282D02*
X151252143Y-97264663D01*
X151252143Y-97264663D02*
X151490238Y-97264663D01*
X151490238Y-97264663D02*
X151585476Y-97312282D01*
X151585476Y-97312282D02*
X151633095Y-97359901D01*
X151633095Y-97359901D02*
X151680714Y-97455139D01*
X151680714Y-97455139D02*
X151680714Y-97550377D01*
X151680714Y-97550377D02*
X151633095Y-97693234D01*
X151633095Y-97693234D02*
X151061667Y-98264663D01*
X151061667Y-98264663D02*
X151680714Y-98264663D01*
X147963674Y-94782857D02*
X148011294Y-94830476D01*
X148011294Y-94830476D02*
X148058913Y-94973333D01*
X148058913Y-94973333D02*
X148058913Y-95068571D01*
X148058913Y-95068571D02*
X148011294Y-95211428D01*
X148011294Y-95211428D02*
X147916055Y-95306666D01*
X147916055Y-95306666D02*
X147820817Y-95354285D01*
X147820817Y-95354285D02*
X147630341Y-95401904D01*
X147630341Y-95401904D02*
X147487484Y-95401904D01*
X147487484Y-95401904D02*
X147297008Y-95354285D01*
X147297008Y-95354285D02*
X147201770Y-95306666D01*
X147201770Y-95306666D02*
X147106532Y-95211428D01*
X147106532Y-95211428D02*
X147058913Y-95068571D01*
X147058913Y-95068571D02*
X147058913Y-94973333D01*
X147058913Y-94973333D02*
X147106532Y-94830476D01*
X147106532Y-94830476D02*
X147154151Y-94782857D01*
X148058913Y-93830476D02*
X148058913Y-94401904D01*
X148058913Y-94116190D02*
X147058913Y-94116190D01*
X147058913Y-94116190D02*
X147201770Y-94211428D01*
X147201770Y-94211428D02*
X147297008Y-94306666D01*
X147297008Y-94306666D02*
X147344627Y-94401904D01*
X147058913Y-93497142D02*
X147058913Y-92830476D01*
X147058913Y-92830476D02*
X148058913Y-93259047D01*
X145657583Y-91974663D02*
X145324250Y-91498472D01*
X145086155Y-91974663D02*
X145086155Y-90974663D01*
X145086155Y-90974663D02*
X145467107Y-90974663D01*
X145467107Y-90974663D02*
X145562345Y-91022282D01*
X145562345Y-91022282D02*
X145609964Y-91069901D01*
X145609964Y-91069901D02*
X145657583Y-91165139D01*
X145657583Y-91165139D02*
X145657583Y-91307996D01*
X145657583Y-91307996D02*
X145609964Y-91403234D01*
X145609964Y-91403234D02*
X145562345Y-91450853D01*
X145562345Y-91450853D02*
X145467107Y-91498472D01*
X145467107Y-91498472D02*
X145086155Y-91498472D01*
X146514726Y-90974663D02*
X146324250Y-90974663D01*
X146324250Y-90974663D02*
X146229012Y-91022282D01*
X146229012Y-91022282D02*
X146181393Y-91069901D01*
X146181393Y-91069901D02*
X146086155Y-91212758D01*
X146086155Y-91212758D02*
X146038536Y-91403234D01*
X146038536Y-91403234D02*
X146038536Y-91784186D01*
X146038536Y-91784186D02*
X146086155Y-91879424D01*
X146086155Y-91879424D02*
X146133774Y-91927044D01*
X146133774Y-91927044D02*
X146229012Y-91974663D01*
X146229012Y-91974663D02*
X146419488Y-91974663D01*
X146419488Y-91974663D02*
X146514726Y-91927044D01*
X146514726Y-91927044D02*
X146562345Y-91879424D01*
X146562345Y-91879424D02*
X146609964Y-91784186D01*
X146609964Y-91784186D02*
X146609964Y-91546091D01*
X146609964Y-91546091D02*
X146562345Y-91450853D01*
X146562345Y-91450853D02*
X146514726Y-91403234D01*
X146514726Y-91403234D02*
X146419488Y-91355615D01*
X146419488Y-91355615D02*
X146229012Y-91355615D01*
X146229012Y-91355615D02*
X146133774Y-91403234D01*
X146133774Y-91403234D02*
X146086155Y-91450853D01*
X146086155Y-91450853D02*
X146038536Y-91546091D01*
X130751666Y-100284663D02*
X130751666Y-100998948D01*
X130751666Y-100998948D02*
X130704047Y-101141805D01*
X130704047Y-101141805D02*
X130608809Y-101237044D01*
X130608809Y-101237044D02*
X130465952Y-101284663D01*
X130465952Y-101284663D02*
X130370714Y-101284663D01*
X131227857Y-101284663D02*
X131227857Y-100284663D01*
X131227857Y-100284663D02*
X131608809Y-100284663D01*
X131608809Y-100284663D02*
X131704047Y-100332282D01*
X131704047Y-100332282D02*
X131751666Y-100379901D01*
X131751666Y-100379901D02*
X131799285Y-100475139D01*
X131799285Y-100475139D02*
X131799285Y-100617996D01*
X131799285Y-100617996D02*
X131751666Y-100713234D01*
X131751666Y-100713234D02*
X131704047Y-100760853D01*
X131704047Y-100760853D02*
X131608809Y-100808472D01*
X131608809Y-100808472D02*
X131227857Y-100808472D01*
X132132619Y-100284663D02*
X132751666Y-100284663D01*
X132751666Y-100284663D02*
X132418333Y-100665615D01*
X132418333Y-100665615D02*
X132561190Y-100665615D01*
X132561190Y-100665615D02*
X132656428Y-100713234D01*
X132656428Y-100713234D02*
X132704047Y-100760853D01*
X132704047Y-100760853D02*
X132751666Y-100856091D01*
X132751666Y-100856091D02*
X132751666Y-101094186D01*
X132751666Y-101094186D02*
X132704047Y-101189424D01*
X132704047Y-101189424D02*
X132656428Y-101237044D01*
X132656428Y-101237044D02*
X132561190Y-101284663D01*
X132561190Y-101284663D02*
X132275476Y-101284663D01*
X132275476Y-101284663D02*
X132180238Y-101237044D01*
X132180238Y-101237044D02*
X132132619Y-101189424D01*
X134173333Y-97239424D02*
X134125714Y-97287044D01*
X134125714Y-97287044D02*
X133982857Y-97334663D01*
X133982857Y-97334663D02*
X133887619Y-97334663D01*
X133887619Y-97334663D02*
X133744762Y-97287044D01*
X133744762Y-97287044D02*
X133649524Y-97191805D01*
X133649524Y-97191805D02*
X133601905Y-97096567D01*
X133601905Y-97096567D02*
X133554286Y-96906091D01*
X133554286Y-96906091D02*
X133554286Y-96763234D01*
X133554286Y-96763234D02*
X133601905Y-96572758D01*
X133601905Y-96572758D02*
X133649524Y-96477520D01*
X133649524Y-96477520D02*
X133744762Y-96382282D01*
X133744762Y-96382282D02*
X133887619Y-96334663D01*
X133887619Y-96334663D02*
X133982857Y-96334663D01*
X133982857Y-96334663D02*
X134125714Y-96382282D01*
X134125714Y-96382282D02*
X134173333Y-96429901D01*
X135030476Y-96334663D02*
X134840000Y-96334663D01*
X134840000Y-96334663D02*
X134744762Y-96382282D01*
X134744762Y-96382282D02*
X134697143Y-96429901D01*
X134697143Y-96429901D02*
X134601905Y-96572758D01*
X134601905Y-96572758D02*
X134554286Y-96763234D01*
X134554286Y-96763234D02*
X134554286Y-97144186D01*
X134554286Y-97144186D02*
X134601905Y-97239424D01*
X134601905Y-97239424D02*
X134649524Y-97287044D01*
X134649524Y-97287044D02*
X134744762Y-97334663D01*
X134744762Y-97334663D02*
X134935238Y-97334663D01*
X134935238Y-97334663D02*
X135030476Y-97287044D01*
X135030476Y-97287044D02*
X135078095Y-97239424D01*
X135078095Y-97239424D02*
X135125714Y-97144186D01*
X135125714Y-97144186D02*
X135125714Y-96906091D01*
X135125714Y-96906091D02*
X135078095Y-96810853D01*
X135078095Y-96810853D02*
X135030476Y-96763234D01*
X135030476Y-96763234D02*
X134935238Y-96715615D01*
X134935238Y-96715615D02*
X134744762Y-96715615D01*
X134744762Y-96715615D02*
X134649524Y-96763234D01*
X134649524Y-96763234D02*
X134601905Y-96810853D01*
X134601905Y-96810853D02*
X134554286Y-96906091D01*
X125714663Y-103353333D02*
X126428948Y-103353333D01*
X126428948Y-103353333D02*
X126571805Y-103400952D01*
X126571805Y-103400952D02*
X126667044Y-103496190D01*
X126667044Y-103496190D02*
X126714663Y-103639047D01*
X126714663Y-103639047D02*
X126714663Y-103734285D01*
X125809901Y-102924761D02*
X125762282Y-102877142D01*
X125762282Y-102877142D02*
X125714663Y-102781904D01*
X125714663Y-102781904D02*
X125714663Y-102543809D01*
X125714663Y-102543809D02*
X125762282Y-102448571D01*
X125762282Y-102448571D02*
X125809901Y-102400952D01*
X125809901Y-102400952D02*
X125905139Y-102353333D01*
X125905139Y-102353333D02*
X126000377Y-102353333D01*
X126000377Y-102353333D02*
X126143234Y-102400952D01*
X126143234Y-102400952D02*
X126714663Y-102972380D01*
X126714663Y-102972380D02*
X126714663Y-102353333D01*
X141448913Y-93101666D02*
X141448913Y-93577856D01*
X141448913Y-93577856D02*
X140448913Y-93577856D01*
X141448913Y-92244523D02*
X141448913Y-92815951D01*
X141448913Y-92530237D02*
X140448913Y-92530237D01*
X140448913Y-92530237D02*
X140591770Y-92625475D01*
X140591770Y-92625475D02*
X140687008Y-92720713D01*
X140687008Y-92720713D02*
X140734627Y-92815951D01*
X134827142Y-95809424D02*
X134779523Y-95857044D01*
X134779523Y-95857044D02*
X134636666Y-95904663D01*
X134636666Y-95904663D02*
X134541428Y-95904663D01*
X134541428Y-95904663D02*
X134398571Y-95857044D01*
X134398571Y-95857044D02*
X134303333Y-95761805D01*
X134303333Y-95761805D02*
X134255714Y-95666567D01*
X134255714Y-95666567D02*
X134208095Y-95476091D01*
X134208095Y-95476091D02*
X134208095Y-95333234D01*
X134208095Y-95333234D02*
X134255714Y-95142758D01*
X134255714Y-95142758D02*
X134303333Y-95047520D01*
X134303333Y-95047520D02*
X134398571Y-94952282D01*
X134398571Y-94952282D02*
X134541428Y-94904663D01*
X134541428Y-94904663D02*
X134636666Y-94904663D01*
X134636666Y-94904663D02*
X134779523Y-94952282D01*
X134779523Y-94952282D02*
X134827142Y-94999901D01*
X135779523Y-95904663D02*
X135208095Y-95904663D01*
X135493809Y-95904663D02*
X135493809Y-94904663D01*
X135493809Y-94904663D02*
X135398571Y-95047520D01*
X135398571Y-95047520D02*
X135303333Y-95142758D01*
X135303333Y-95142758D02*
X135208095Y-95190377D01*
X136636666Y-95237996D02*
X136636666Y-95904663D01*
X136398571Y-94857044D02*
X136160476Y-95571329D01*
X136160476Y-95571329D02*
X136779523Y-95571329D01*
X136085559Y-101498472D02*
X136085559Y-101974663D01*
X135752226Y-100974663D02*
X136085559Y-101498472D01*
X136085559Y-101498472D02*
X136418892Y-100974663D01*
X137276035Y-101974663D02*
X136704607Y-101974663D01*
X136990321Y-101974663D02*
X136990321Y-100974663D01*
X136990321Y-100974663D02*
X136895083Y-101117520D01*
X136895083Y-101117520D02*
X136799845Y-101212758D01*
X136799845Y-101212758D02*
X136704607Y-101260377D01*
X138454424Y-95536666D02*
X138502044Y-95584285D01*
X138502044Y-95584285D02*
X138549663Y-95727142D01*
X138549663Y-95727142D02*
X138549663Y-95822380D01*
X138549663Y-95822380D02*
X138502044Y-95965237D01*
X138502044Y-95965237D02*
X138406805Y-96060475D01*
X138406805Y-96060475D02*
X138311567Y-96108094D01*
X138311567Y-96108094D02*
X138121091Y-96155713D01*
X138121091Y-96155713D02*
X137978234Y-96155713D01*
X137978234Y-96155713D02*
X137787758Y-96108094D01*
X137787758Y-96108094D02*
X137692520Y-96060475D01*
X137692520Y-96060475D02*
X137597282Y-95965237D01*
X137597282Y-95965237D02*
X137549663Y-95822380D01*
X137549663Y-95822380D02*
X137549663Y-95727142D01*
X137549663Y-95727142D02*
X137597282Y-95584285D01*
X137597282Y-95584285D02*
X137644901Y-95536666D01*
X137549663Y-94631904D02*
X137549663Y-95108094D01*
X137549663Y-95108094D02*
X138025853Y-95155713D01*
X138025853Y-95155713D02*
X137978234Y-95108094D01*
X137978234Y-95108094D02*
X137930615Y-95012856D01*
X137930615Y-95012856D02*
X137930615Y-94774761D01*
X137930615Y-94774761D02*
X137978234Y-94679523D01*
X137978234Y-94679523D02*
X138025853Y-94631904D01*
X138025853Y-94631904D02*
X138121091Y-94584285D01*
X138121091Y-94584285D02*
X138359186Y-94584285D01*
X138359186Y-94584285D02*
X138454424Y-94631904D01*
X138454424Y-94631904D02*
X138502044Y-94679523D01*
X138502044Y-94679523D02*
X138549663Y-94774761D01*
X138549663Y-94774761D02*
X138549663Y-95012856D01*
X138549663Y-95012856D02*
X138502044Y-95108094D01*
X138502044Y-95108094D02*
X138454424Y-95155713D01*
X138251392Y-92359424D02*
X138203773Y-92407044D01*
X138203773Y-92407044D02*
X138060916Y-92454663D01*
X138060916Y-92454663D02*
X137965678Y-92454663D01*
X137965678Y-92454663D02*
X137822821Y-92407044D01*
X137822821Y-92407044D02*
X137727583Y-92311805D01*
X137727583Y-92311805D02*
X137679964Y-92216567D01*
X137679964Y-92216567D02*
X137632345Y-92026091D01*
X137632345Y-92026091D02*
X137632345Y-91883234D01*
X137632345Y-91883234D02*
X137679964Y-91692758D01*
X137679964Y-91692758D02*
X137727583Y-91597520D01*
X137727583Y-91597520D02*
X137822821Y-91502282D01*
X137822821Y-91502282D02*
X137965678Y-91454663D01*
X137965678Y-91454663D02*
X138060916Y-91454663D01*
X138060916Y-91454663D02*
X138203773Y-91502282D01*
X138203773Y-91502282D02*
X138251392Y-91549901D01*
X139203773Y-92454663D02*
X138632345Y-92454663D01*
X138918059Y-92454663D02*
X138918059Y-91454663D01*
X138918059Y-91454663D02*
X138822821Y-91597520D01*
X138822821Y-91597520D02*
X138727583Y-91692758D01*
X138727583Y-91692758D02*
X138632345Y-91740377D01*
X140156154Y-92454663D02*
X139584726Y-92454663D01*
X139870440Y-92454663D02*
X139870440Y-91454663D01*
X139870440Y-91454663D02*
X139775202Y-91597520D01*
X139775202Y-91597520D02*
X139679964Y-91692758D01*
X139679964Y-91692758D02*
X139584726Y-91740377D01*
X145128095Y-104384663D02*
X145128095Y-105194186D01*
X145128095Y-105194186D02*
X145175714Y-105289424D01*
X145175714Y-105289424D02*
X145223333Y-105337044D01*
X145223333Y-105337044D02*
X145318571Y-105384663D01*
X145318571Y-105384663D02*
X145509047Y-105384663D01*
X145509047Y-105384663D02*
X145604285Y-105337044D01*
X145604285Y-105337044D02*
X145651904Y-105289424D01*
X145651904Y-105289424D02*
X145699523Y-105194186D01*
X145699523Y-105194186D02*
X145699523Y-104384663D01*
X146699523Y-105384663D02*
X146128095Y-105384663D01*
X146413809Y-105384663D02*
X146413809Y-104384663D01*
X146413809Y-104384663D02*
X146318571Y-104527520D01*
X146318571Y-104527520D02*
X146223333Y-104622758D01*
X146223333Y-104622758D02*
X146128095Y-104670377D01*
X152066666Y-105074663D02*
X152066666Y-105788948D01*
X152066666Y-105788948D02*
X152019047Y-105931805D01*
X152019047Y-105931805D02*
X151923809Y-106027044D01*
X151923809Y-106027044D02*
X151780952Y-106074663D01*
X151780952Y-106074663D02*
X151685714Y-106074663D01*
X153066666Y-106074663D02*
X152495238Y-106074663D01*
X152780952Y-106074663D02*
X152780952Y-105074663D01*
X152780952Y-105074663D02*
X152685714Y-105217520D01*
X152685714Y-105217520D02*
X152590476Y-105312758D01*
X152590476Y-105312758D02*
X152495238Y-105360377D01*
X131389663Y-92229166D02*
X130913472Y-92562499D01*
X131389663Y-92800594D02*
X130389663Y-92800594D01*
X130389663Y-92800594D02*
X130389663Y-92419642D01*
X130389663Y-92419642D02*
X130437282Y-92324404D01*
X130437282Y-92324404D02*
X130484901Y-92276785D01*
X130484901Y-92276785D02*
X130580139Y-92229166D01*
X130580139Y-92229166D02*
X130722996Y-92229166D01*
X130722996Y-92229166D02*
X130818234Y-92276785D01*
X130818234Y-92276785D02*
X130865853Y-92324404D01*
X130865853Y-92324404D02*
X130913472Y-92419642D01*
X130913472Y-92419642D02*
X130913472Y-92800594D01*
X130722996Y-91372023D02*
X131389663Y-91372023D01*
X130342044Y-91610118D02*
X131056329Y-91848213D01*
X131056329Y-91848213D02*
X131056329Y-91229166D01*
X152944424Y-98246666D02*
X152992044Y-98294285D01*
X152992044Y-98294285D02*
X153039663Y-98437142D01*
X153039663Y-98437142D02*
X153039663Y-98532380D01*
X153039663Y-98532380D02*
X152992044Y-98675237D01*
X152992044Y-98675237D02*
X152896805Y-98770475D01*
X152896805Y-98770475D02*
X152801567Y-98818094D01*
X152801567Y-98818094D02*
X152611091Y-98865713D01*
X152611091Y-98865713D02*
X152468234Y-98865713D01*
X152468234Y-98865713D02*
X152277758Y-98818094D01*
X152277758Y-98818094D02*
X152182520Y-98770475D01*
X152182520Y-98770475D02*
X152087282Y-98675237D01*
X152087282Y-98675237D02*
X152039663Y-98532380D01*
X152039663Y-98532380D02*
X152039663Y-98437142D01*
X152039663Y-98437142D02*
X152087282Y-98294285D01*
X152087282Y-98294285D02*
X152134901Y-98246666D01*
X153039663Y-97770475D02*
X153039663Y-97579999D01*
X153039663Y-97579999D02*
X152992044Y-97484761D01*
X152992044Y-97484761D02*
X152944424Y-97437142D01*
X152944424Y-97437142D02*
X152801567Y-97341904D01*
X152801567Y-97341904D02*
X152611091Y-97294285D01*
X152611091Y-97294285D02*
X152230139Y-97294285D01*
X152230139Y-97294285D02*
X152134901Y-97341904D01*
X152134901Y-97341904D02*
X152087282Y-97389523D01*
X152087282Y-97389523D02*
X152039663Y-97484761D01*
X152039663Y-97484761D02*
X152039663Y-97675237D01*
X152039663Y-97675237D02*
X152087282Y-97770475D01*
X152087282Y-97770475D02*
X152134901Y-97818094D01*
X152134901Y-97818094D02*
X152230139Y-97865713D01*
X152230139Y-97865713D02*
X152468234Y-97865713D01*
X152468234Y-97865713D02*
X152563472Y-97818094D01*
X152563472Y-97818094D02*
X152611091Y-97770475D01*
X152611091Y-97770475D02*
X152658710Y-97675237D01*
X152658710Y-97675237D02*
X152658710Y-97484761D01*
X152658710Y-97484761D02*
X152611091Y-97389523D01*
X152611091Y-97389523D02*
X152563472Y-97341904D01*
X152563472Y-97341904D02*
X152468234Y-97294285D01*
X134857142Y-91319424D02*
X134809523Y-91367044D01*
X134809523Y-91367044D02*
X134666666Y-91414663D01*
X134666666Y-91414663D02*
X134571428Y-91414663D01*
X134571428Y-91414663D02*
X134428571Y-91367044D01*
X134428571Y-91367044D02*
X134333333Y-91271805D01*
X134333333Y-91271805D02*
X134285714Y-91176567D01*
X134285714Y-91176567D02*
X134238095Y-90986091D01*
X134238095Y-90986091D02*
X134238095Y-90843234D01*
X134238095Y-90843234D02*
X134285714Y-90652758D01*
X134285714Y-90652758D02*
X134333333Y-90557520D01*
X134333333Y-90557520D02*
X134428571Y-90462282D01*
X134428571Y-90462282D02*
X134571428Y-90414663D01*
X134571428Y-90414663D02*
X134666666Y-90414663D01*
X134666666Y-90414663D02*
X134809523Y-90462282D01*
X134809523Y-90462282D02*
X134857142Y-90509901D01*
X135809523Y-91414663D02*
X135238095Y-91414663D01*
X135523809Y-91414663D02*
X135523809Y-90414663D01*
X135523809Y-90414663D02*
X135428571Y-90557520D01*
X135428571Y-90557520D02*
X135333333Y-90652758D01*
X135333333Y-90652758D02*
X135238095Y-90700377D01*
X136714285Y-90414663D02*
X136238095Y-90414663D01*
X136238095Y-90414663D02*
X136190476Y-90890853D01*
X136190476Y-90890853D02*
X136238095Y-90843234D01*
X136238095Y-90843234D02*
X136333333Y-90795615D01*
X136333333Y-90795615D02*
X136571428Y-90795615D01*
X136571428Y-90795615D02*
X136666666Y-90843234D01*
X136666666Y-90843234D02*
X136714285Y-90890853D01*
X136714285Y-90890853D02*
X136761904Y-90986091D01*
X136761904Y-90986091D02*
X136761904Y-91224186D01*
X136761904Y-91224186D02*
X136714285Y-91319424D01*
X136714285Y-91319424D02*
X136666666Y-91367044D01*
X136666666Y-91367044D02*
X136571428Y-91414663D01*
X136571428Y-91414663D02*
X136333333Y-91414663D01*
X136333333Y-91414663D02*
X136238095Y-91367044D01*
X136238095Y-91367044D02*
X136190476Y-91319424D01*
X150773333Y-99539424D02*
X150725714Y-99587044D01*
X150725714Y-99587044D02*
X150582857Y-99634663D01*
X150582857Y-99634663D02*
X150487619Y-99634663D01*
X150487619Y-99634663D02*
X150344762Y-99587044D01*
X150344762Y-99587044D02*
X150249524Y-99491805D01*
X150249524Y-99491805D02*
X150201905Y-99396567D01*
X150201905Y-99396567D02*
X150154286Y-99206091D01*
X150154286Y-99206091D02*
X150154286Y-99063234D01*
X150154286Y-99063234D02*
X150201905Y-98872758D01*
X150201905Y-98872758D02*
X150249524Y-98777520D01*
X150249524Y-98777520D02*
X150344762Y-98682282D01*
X150344762Y-98682282D02*
X150487619Y-98634663D01*
X150487619Y-98634663D02*
X150582857Y-98634663D01*
X150582857Y-98634663D02*
X150725714Y-98682282D01*
X150725714Y-98682282D02*
X150773333Y-98729901D01*
X151106667Y-98634663D02*
X151725714Y-98634663D01*
X151725714Y-98634663D02*
X151392381Y-99015615D01*
X151392381Y-99015615D02*
X151535238Y-99015615D01*
X151535238Y-99015615D02*
X151630476Y-99063234D01*
X151630476Y-99063234D02*
X151678095Y-99110853D01*
X151678095Y-99110853D02*
X151725714Y-99206091D01*
X151725714Y-99206091D02*
X151725714Y-99444186D01*
X151725714Y-99444186D02*
X151678095Y-99539424D01*
X151678095Y-99539424D02*
X151630476Y-99587044D01*
X151630476Y-99587044D02*
X151535238Y-99634663D01*
X151535238Y-99634663D02*
X151249524Y-99634663D01*
X151249524Y-99634663D02*
X151154286Y-99587044D01*
X151154286Y-99587044D02*
X151106667Y-99539424D01*
X150753333Y-101069424D02*
X150705714Y-101117044D01*
X150705714Y-101117044D02*
X150562857Y-101164663D01*
X150562857Y-101164663D02*
X150467619Y-101164663D01*
X150467619Y-101164663D02*
X150324762Y-101117044D01*
X150324762Y-101117044D02*
X150229524Y-101021805D01*
X150229524Y-101021805D02*
X150181905Y-100926567D01*
X150181905Y-100926567D02*
X150134286Y-100736091D01*
X150134286Y-100736091D02*
X150134286Y-100593234D01*
X150134286Y-100593234D02*
X150181905Y-100402758D01*
X150181905Y-100402758D02*
X150229524Y-100307520D01*
X150229524Y-100307520D02*
X150324762Y-100212282D01*
X150324762Y-100212282D02*
X150467619Y-100164663D01*
X150467619Y-100164663D02*
X150562857Y-100164663D01*
X150562857Y-100164663D02*
X150705714Y-100212282D01*
X150705714Y-100212282D02*
X150753333Y-100259901D01*
X151134286Y-100259901D02*
X151181905Y-100212282D01*
X151181905Y-100212282D02*
X151277143Y-100164663D01*
X151277143Y-100164663D02*
X151515238Y-100164663D01*
X151515238Y-100164663D02*
X151610476Y-100212282D01*
X151610476Y-100212282D02*
X151658095Y-100259901D01*
X151658095Y-100259901D02*
X151705714Y-100355139D01*
X151705714Y-100355139D02*
X151705714Y-100450377D01*
X151705714Y-100450377D02*
X151658095Y-100593234D01*
X151658095Y-100593234D02*
X151086667Y-101164663D01*
X151086667Y-101164663D02*
X151705714Y-101164663D01*
X149589663Y-93036666D02*
X149113472Y-93369999D01*
X149589663Y-93608094D02*
X148589663Y-93608094D01*
X148589663Y-93608094D02*
X148589663Y-93227142D01*
X148589663Y-93227142D02*
X148637282Y-93131904D01*
X148637282Y-93131904D02*
X148684901Y-93084285D01*
X148684901Y-93084285D02*
X148780139Y-93036666D01*
X148780139Y-93036666D02*
X148922996Y-93036666D01*
X148922996Y-93036666D02*
X149018234Y-93084285D01*
X149018234Y-93084285D02*
X149065853Y-93131904D01*
X149065853Y-93131904D02*
X149113472Y-93227142D01*
X149113472Y-93227142D02*
X149113472Y-93608094D01*
X148589663Y-92703332D02*
X148589663Y-92036666D01*
X148589663Y-92036666D02*
X149589663Y-92465237D01*
X155854424Y-96082857D02*
X155902044Y-96130476D01*
X155902044Y-96130476D02*
X155949663Y-96273333D01*
X155949663Y-96273333D02*
X155949663Y-96368571D01*
X155949663Y-96368571D02*
X155902044Y-96511428D01*
X155902044Y-96511428D02*
X155806805Y-96606666D01*
X155806805Y-96606666D02*
X155711567Y-96654285D01*
X155711567Y-96654285D02*
X155521091Y-96701904D01*
X155521091Y-96701904D02*
X155378234Y-96701904D01*
X155378234Y-96701904D02*
X155187758Y-96654285D01*
X155187758Y-96654285D02*
X155092520Y-96606666D01*
X155092520Y-96606666D02*
X154997282Y-96511428D01*
X154997282Y-96511428D02*
X154949663Y-96368571D01*
X154949663Y-96368571D02*
X154949663Y-96273333D01*
X154949663Y-96273333D02*
X154997282Y-96130476D01*
X154997282Y-96130476D02*
X155044901Y-96082857D01*
X155949663Y-95130476D02*
X155949663Y-95701904D01*
X155949663Y-95416190D02*
X154949663Y-95416190D01*
X154949663Y-95416190D02*
X155092520Y-95511428D01*
X155092520Y-95511428D02*
X155187758Y-95606666D01*
X155187758Y-95606666D02*
X155235377Y-95701904D01*
X154949663Y-94273333D02*
X154949663Y-94463809D01*
X154949663Y-94463809D02*
X154997282Y-94559047D01*
X154997282Y-94559047D02*
X155044901Y-94606666D01*
X155044901Y-94606666D02*
X155187758Y-94701904D01*
X155187758Y-94701904D02*
X155378234Y-94749523D01*
X155378234Y-94749523D02*
X155759186Y-94749523D01*
X155759186Y-94749523D02*
X155854424Y-94701904D01*
X155854424Y-94701904D02*
X155902044Y-94654285D01*
X155902044Y-94654285D02*
X155949663Y-94559047D01*
X155949663Y-94559047D02*
X155949663Y-94368571D01*
X155949663Y-94368571D02*
X155902044Y-94273333D01*
X155902044Y-94273333D02*
X155854424Y-94225714D01*
X155854424Y-94225714D02*
X155759186Y-94178095D01*
X155759186Y-94178095D02*
X155521091Y-94178095D01*
X155521091Y-94178095D02*
X155425853Y-94225714D01*
X155425853Y-94225714D02*
X155378234Y-94273333D01*
X155378234Y-94273333D02*
X155330615Y-94368571D01*
X155330615Y-94368571D02*
X155330615Y-94559047D01*
X155330615Y-94559047D02*
X155378234Y-94654285D01*
X155378234Y-94654285D02*
X155425853Y-94701904D01*
X155425853Y-94701904D02*
X155521091Y-94749523D01*
X150808333Y-102429424D02*
X150760714Y-102477044D01*
X150760714Y-102477044D02*
X150617857Y-102524663D01*
X150617857Y-102524663D02*
X150522619Y-102524663D01*
X150522619Y-102524663D02*
X150379762Y-102477044D01*
X150379762Y-102477044D02*
X150284524Y-102381805D01*
X150284524Y-102381805D02*
X150236905Y-102286567D01*
X150236905Y-102286567D02*
X150189286Y-102096091D01*
X150189286Y-102096091D02*
X150189286Y-101953234D01*
X150189286Y-101953234D02*
X150236905Y-101762758D01*
X150236905Y-101762758D02*
X150284524Y-101667520D01*
X150284524Y-101667520D02*
X150379762Y-101572282D01*
X150379762Y-101572282D02*
X150522619Y-101524663D01*
X150522619Y-101524663D02*
X150617857Y-101524663D01*
X150617857Y-101524663D02*
X150760714Y-101572282D01*
X150760714Y-101572282D02*
X150808333Y-101619901D01*
X151665476Y-101857996D02*
X151665476Y-102524663D01*
X151427381Y-101477044D02*
X151189286Y-102191329D01*
X151189286Y-102191329D02*
X151808333Y-102191329D01*
X129759663Y-92259166D02*
X129283472Y-92592499D01*
X129759663Y-92830594D02*
X128759663Y-92830594D01*
X128759663Y-92830594D02*
X128759663Y-92449642D01*
X128759663Y-92449642D02*
X128807282Y-92354404D01*
X128807282Y-92354404D02*
X128854901Y-92306785D01*
X128854901Y-92306785D02*
X128950139Y-92259166D01*
X128950139Y-92259166D02*
X129092996Y-92259166D01*
X129092996Y-92259166D02*
X129188234Y-92306785D01*
X129188234Y-92306785D02*
X129235853Y-92354404D01*
X129235853Y-92354404D02*
X129283472Y-92449642D01*
X129283472Y-92449642D02*
X129283472Y-92830594D01*
X128759663Y-91354404D02*
X128759663Y-91830594D01*
X128759663Y-91830594D02*
X129235853Y-91878213D01*
X129235853Y-91878213D02*
X129188234Y-91830594D01*
X129188234Y-91830594D02*
X129140615Y-91735356D01*
X129140615Y-91735356D02*
X129140615Y-91497261D01*
X129140615Y-91497261D02*
X129188234Y-91402023D01*
X129188234Y-91402023D02*
X129235853Y-91354404D01*
X129235853Y-91354404D02*
X129331091Y-91306785D01*
X129331091Y-91306785D02*
X129569186Y-91306785D01*
X129569186Y-91306785D02*
X129664424Y-91354404D01*
X129664424Y-91354404D02*
X129712044Y-91402023D01*
X129712044Y-91402023D02*
X129759663Y-91497261D01*
X129759663Y-91497261D02*
X129759663Y-91735356D01*
X129759663Y-91735356D02*
X129712044Y-91830594D01*
X129712044Y-91830594D02*
X129664424Y-91878213D01*
X151288333Y-91934663D02*
X150955000Y-91458472D01*
X150716905Y-91934663D02*
X150716905Y-90934663D01*
X150716905Y-90934663D02*
X151097857Y-90934663D01*
X151097857Y-90934663D02*
X151193095Y-90982282D01*
X151193095Y-90982282D02*
X151240714Y-91029901D01*
X151240714Y-91029901D02*
X151288333Y-91125139D01*
X151288333Y-91125139D02*
X151288333Y-91267996D01*
X151288333Y-91267996D02*
X151240714Y-91363234D01*
X151240714Y-91363234D02*
X151193095Y-91410853D01*
X151193095Y-91410853D02*
X151097857Y-91458472D01*
X151097857Y-91458472D02*
X150716905Y-91458472D01*
X151621667Y-90934663D02*
X152240714Y-90934663D01*
X152240714Y-90934663D02*
X151907381Y-91315615D01*
X151907381Y-91315615D02*
X152050238Y-91315615D01*
X152050238Y-91315615D02*
X152145476Y-91363234D01*
X152145476Y-91363234D02*
X152193095Y-91410853D01*
X152193095Y-91410853D02*
X152240714Y-91506091D01*
X152240714Y-91506091D02*
X152240714Y-91744186D01*
X152240714Y-91744186D02*
X152193095Y-91839424D01*
X152193095Y-91839424D02*
X152145476Y-91887044D01*
X152145476Y-91887044D02*
X152050238Y-91934663D01*
X152050238Y-91934663D02*
X151764524Y-91934663D01*
X151764524Y-91934663D02*
X151669286Y-91887044D01*
X151669286Y-91887044D02*
X151621667Y-91839424D01*
X132769424Y-92252857D02*
X132817044Y-92300476D01*
X132817044Y-92300476D02*
X132864663Y-92443333D01*
X132864663Y-92443333D02*
X132864663Y-92538571D01*
X132864663Y-92538571D02*
X132817044Y-92681428D01*
X132817044Y-92681428D02*
X132721805Y-92776666D01*
X132721805Y-92776666D02*
X132626567Y-92824285D01*
X132626567Y-92824285D02*
X132436091Y-92871904D01*
X132436091Y-92871904D02*
X132293234Y-92871904D01*
X132293234Y-92871904D02*
X132102758Y-92824285D01*
X132102758Y-92824285D02*
X132007520Y-92776666D01*
X132007520Y-92776666D02*
X131912282Y-92681428D01*
X131912282Y-92681428D02*
X131864663Y-92538571D01*
X131864663Y-92538571D02*
X131864663Y-92443333D01*
X131864663Y-92443333D02*
X131912282Y-92300476D01*
X131912282Y-92300476D02*
X131959901Y-92252857D01*
X132864663Y-91300476D02*
X132864663Y-91871904D01*
X132864663Y-91586190D02*
X131864663Y-91586190D01*
X131864663Y-91586190D02*
X132007520Y-91681428D01*
X132007520Y-91681428D02*
X132102758Y-91776666D01*
X132102758Y-91776666D02*
X132150377Y-91871904D01*
X131959901Y-90919523D02*
X131912282Y-90871904D01*
X131912282Y-90871904D02*
X131864663Y-90776666D01*
X131864663Y-90776666D02*
X131864663Y-90538571D01*
X131864663Y-90538571D02*
X131912282Y-90443333D01*
X131912282Y-90443333D02*
X131959901Y-90395714D01*
X131959901Y-90395714D02*
X132055139Y-90348095D01*
X132055139Y-90348095D02*
X132150377Y-90348095D01*
X132150377Y-90348095D02*
X132293234Y-90395714D01*
X132293234Y-90395714D02*
X132864663Y-90967142D01*
X132864663Y-90967142D02*
X132864663Y-90348095D01*
X128154424Y-92212857D02*
X128202044Y-92260476D01*
X128202044Y-92260476D02*
X128249663Y-92403333D01*
X128249663Y-92403333D02*
X128249663Y-92498571D01*
X128249663Y-92498571D02*
X128202044Y-92641428D01*
X128202044Y-92641428D02*
X128106805Y-92736666D01*
X128106805Y-92736666D02*
X128011567Y-92784285D01*
X128011567Y-92784285D02*
X127821091Y-92831904D01*
X127821091Y-92831904D02*
X127678234Y-92831904D01*
X127678234Y-92831904D02*
X127487758Y-92784285D01*
X127487758Y-92784285D02*
X127392520Y-92736666D01*
X127392520Y-92736666D02*
X127297282Y-92641428D01*
X127297282Y-92641428D02*
X127249663Y-92498571D01*
X127249663Y-92498571D02*
X127249663Y-92403333D01*
X127249663Y-92403333D02*
X127297282Y-92260476D01*
X127297282Y-92260476D02*
X127344901Y-92212857D01*
X128249663Y-91260476D02*
X128249663Y-91831904D01*
X128249663Y-91546190D02*
X127249663Y-91546190D01*
X127249663Y-91546190D02*
X127392520Y-91641428D01*
X127392520Y-91641428D02*
X127487758Y-91736666D01*
X127487758Y-91736666D02*
X127535377Y-91831904D01*
X127249663Y-90927142D02*
X127249663Y-90308095D01*
X127249663Y-90308095D02*
X127630615Y-90641428D01*
X127630615Y-90641428D02*
X127630615Y-90498571D01*
X127630615Y-90498571D02*
X127678234Y-90403333D01*
X127678234Y-90403333D02*
X127725853Y-90355714D01*
X127725853Y-90355714D02*
X127821091Y-90308095D01*
X127821091Y-90308095D02*
X128059186Y-90308095D01*
X128059186Y-90308095D02*
X128154424Y-90355714D01*
X128154424Y-90355714D02*
X128202044Y-90403333D01*
X128202044Y-90403333D02*
X128249663Y-90498571D01*
X128249663Y-90498571D02*
X128249663Y-90784285D01*
X128249663Y-90784285D02*
X128202044Y-90879523D01*
X128202044Y-90879523D02*
X128154424Y-90927142D01*
X135565714Y-106367044D02*
X135708571Y-106414663D01*
X135708571Y-106414663D02*
X135946666Y-106414663D01*
X135946666Y-106414663D02*
X136041904Y-106367044D01*
X136041904Y-106367044D02*
X136089523Y-106319424D01*
X136089523Y-106319424D02*
X136137142Y-106224186D01*
X136137142Y-106224186D02*
X136137142Y-106128948D01*
X136137142Y-106128948D02*
X136089523Y-106033710D01*
X136089523Y-106033710D02*
X136041904Y-105986091D01*
X136041904Y-105986091D02*
X135946666Y-105938472D01*
X135946666Y-105938472D02*
X135756190Y-105890853D01*
X135756190Y-105890853D02*
X135660952Y-105843234D01*
X135660952Y-105843234D02*
X135613333Y-105795615D01*
X135613333Y-105795615D02*
X135565714Y-105700377D01*
X135565714Y-105700377D02*
X135565714Y-105605139D01*
X135565714Y-105605139D02*
X135613333Y-105509901D01*
X135613333Y-105509901D02*
X135660952Y-105462282D01*
X135660952Y-105462282D02*
X135756190Y-105414663D01*
X135756190Y-105414663D02*
X135994285Y-105414663D01*
X135994285Y-105414663D02*
X136137142Y-105462282D01*
X136565714Y-106414663D02*
X136565714Y-105414663D01*
X136565714Y-105414663D02*
X136803809Y-105414663D01*
X136803809Y-105414663D02*
X136946666Y-105462282D01*
X136946666Y-105462282D02*
X137041904Y-105557520D01*
X137041904Y-105557520D02*
X137089523Y-105652758D01*
X137089523Y-105652758D02*
X137137142Y-105843234D01*
X137137142Y-105843234D02*
X137137142Y-105986091D01*
X137137142Y-105986091D02*
X137089523Y-106176567D01*
X137089523Y-106176567D02*
X137041904Y-106271805D01*
X137041904Y-106271805D02*
X136946666Y-106367044D01*
X136946666Y-106367044D02*
X136803809Y-106414663D01*
X136803809Y-106414663D02*
X136565714Y-106414663D01*
X137518095Y-106128948D02*
X137994285Y-106128948D01*
X137422857Y-106414663D02*
X137756190Y-105414663D01*
X137756190Y-105414663D02*
X138089523Y-106414663D01*
X133668333Y-103299424D02*
X133620714Y-103347044D01*
X133620714Y-103347044D02*
X133477857Y-103394663D01*
X133477857Y-103394663D02*
X133382619Y-103394663D01*
X133382619Y-103394663D02*
X133239762Y-103347044D01*
X133239762Y-103347044D02*
X133144524Y-103251805D01*
X133144524Y-103251805D02*
X133096905Y-103156567D01*
X133096905Y-103156567D02*
X133049286Y-102966091D01*
X133049286Y-102966091D02*
X133049286Y-102823234D01*
X133049286Y-102823234D02*
X133096905Y-102632758D01*
X133096905Y-102632758D02*
X133144524Y-102537520D01*
X133144524Y-102537520D02*
X133239762Y-102442282D01*
X133239762Y-102442282D02*
X133382619Y-102394663D01*
X133382619Y-102394663D02*
X133477857Y-102394663D01*
X133477857Y-102394663D02*
X133620714Y-102442282D01*
X133620714Y-102442282D02*
X133668333Y-102489901D01*
X134239762Y-102823234D02*
X134144524Y-102775615D01*
X134144524Y-102775615D02*
X134096905Y-102727996D01*
X134096905Y-102727996D02*
X134049286Y-102632758D01*
X134049286Y-102632758D02*
X134049286Y-102585139D01*
X134049286Y-102585139D02*
X134096905Y-102489901D01*
X134096905Y-102489901D02*
X134144524Y-102442282D01*
X134144524Y-102442282D02*
X134239762Y-102394663D01*
X134239762Y-102394663D02*
X134430238Y-102394663D01*
X134430238Y-102394663D02*
X134525476Y-102442282D01*
X134525476Y-102442282D02*
X134573095Y-102489901D01*
X134573095Y-102489901D02*
X134620714Y-102585139D01*
X134620714Y-102585139D02*
X134620714Y-102632758D01*
X134620714Y-102632758D02*
X134573095Y-102727996D01*
X134573095Y-102727996D02*
X134525476Y-102775615D01*
X134525476Y-102775615D02*
X134430238Y-102823234D01*
X134430238Y-102823234D02*
X134239762Y-102823234D01*
X134239762Y-102823234D02*
X134144524Y-102870853D01*
X134144524Y-102870853D02*
X134096905Y-102918472D01*
X134096905Y-102918472D02*
X134049286Y-103013710D01*
X134049286Y-103013710D02*
X134049286Y-103204186D01*
X134049286Y-103204186D02*
X134096905Y-103299424D01*
X134096905Y-103299424D02*
X134144524Y-103347044D01*
X134144524Y-103347044D02*
X134239762Y-103394663D01*
X134239762Y-103394663D02*
X134430238Y-103394663D01*
X134430238Y-103394663D02*
X134525476Y-103347044D01*
X134525476Y-103347044D02*
X134573095Y-103299424D01*
X134573095Y-103299424D02*
X134620714Y-103204186D01*
X134620714Y-103204186D02*
X134620714Y-103013710D01*
X134620714Y-103013710D02*
X134573095Y-102918472D01*
X134573095Y-102918472D02*
X134525476Y-102870853D01*
X134525476Y-102870853D02*
X134430238Y-102823234D01*
X143202583Y-93704663D02*
X142726393Y-93704663D01*
X142726393Y-93704663D02*
X142726393Y-92704663D01*
X143488298Y-92799901D02*
X143535917Y-92752282D01*
X143535917Y-92752282D02*
X143631155Y-92704663D01*
X143631155Y-92704663D02*
X143869250Y-92704663D01*
X143869250Y-92704663D02*
X143964488Y-92752282D01*
X143964488Y-92752282D02*
X144012107Y-92799901D01*
X144012107Y-92799901D02*
X144059726Y-92895139D01*
X144059726Y-92895139D02*
X144059726Y-92990377D01*
X144059726Y-92990377D02*
X144012107Y-93133234D01*
X144012107Y-93133234D02*
X143440679Y-93704663D01*
X143440679Y-93704663D02*
X144059726Y-93704663D01*
X133790833Y-104850413D02*
X133457500Y-104374222D01*
X133219405Y-104850413D02*
X133219405Y-103850413D01*
X133219405Y-103850413D02*
X133600357Y-103850413D01*
X133600357Y-103850413D02*
X133695595Y-103898032D01*
X133695595Y-103898032D02*
X133743214Y-103945651D01*
X133743214Y-103945651D02*
X133790833Y-104040889D01*
X133790833Y-104040889D02*
X133790833Y-104183746D01*
X133790833Y-104183746D02*
X133743214Y-104278984D01*
X133743214Y-104278984D02*
X133695595Y-104326603D01*
X133695595Y-104326603D02*
X133600357Y-104374222D01*
X133600357Y-104374222D02*
X133219405Y-104374222D01*
X134743214Y-104850413D02*
X134171786Y-104850413D01*
X134457500Y-104850413D02*
X134457500Y-103850413D01*
X134457500Y-103850413D02*
X134362262Y-103993270D01*
X134362262Y-103993270D02*
X134267024Y-104088508D01*
X134267024Y-104088508D02*
X134171786Y-104136127D01*
X126041666Y-100194663D02*
X126041666Y-100908948D01*
X126041666Y-100908948D02*
X125994047Y-101051805D01*
X125994047Y-101051805D02*
X125898809Y-101147044D01*
X125898809Y-101147044D02*
X125755952Y-101194663D01*
X125755952Y-101194663D02*
X125660714Y-101194663D01*
X126517857Y-101194663D02*
X126517857Y-100194663D01*
X126517857Y-100194663D02*
X126898809Y-100194663D01*
X126898809Y-100194663D02*
X126994047Y-100242282D01*
X126994047Y-100242282D02*
X127041666Y-100289901D01*
X127041666Y-100289901D02*
X127089285Y-100385139D01*
X127089285Y-100385139D02*
X127089285Y-100527996D01*
X127089285Y-100527996D02*
X127041666Y-100623234D01*
X127041666Y-100623234D02*
X126994047Y-100670853D01*
X126994047Y-100670853D02*
X126898809Y-100718472D01*
X126898809Y-100718472D02*
X126517857Y-100718472D01*
X127946428Y-100527996D02*
X127946428Y-101194663D01*
X127708333Y-100147044D02*
X127470238Y-100861329D01*
X127470238Y-100861329D02*
X128089285Y-100861329D01*
X131936666Y-105054663D02*
X131936666Y-105768948D01*
X131936666Y-105768948D02*
X131889047Y-105911805D01*
X131889047Y-105911805D02*
X131793809Y-106007044D01*
X131793809Y-106007044D02*
X131650952Y-106054663D01*
X131650952Y-106054663D02*
X131555714Y-106054663D01*
X132412857Y-106054663D02*
X132412857Y-105054663D01*
X132412857Y-105054663D02*
X132793809Y-105054663D01*
X132793809Y-105054663D02*
X132889047Y-105102282D01*
X132889047Y-105102282D02*
X132936666Y-105149901D01*
X132936666Y-105149901D02*
X132984285Y-105245139D01*
X132984285Y-105245139D02*
X132984285Y-105387996D01*
X132984285Y-105387996D02*
X132936666Y-105483234D01*
X132936666Y-105483234D02*
X132889047Y-105530853D01*
X132889047Y-105530853D02*
X132793809Y-105578472D01*
X132793809Y-105578472D02*
X132412857Y-105578472D01*
X133365238Y-105149901D02*
X133412857Y-105102282D01*
X133412857Y-105102282D02*
X133508095Y-105054663D01*
X133508095Y-105054663D02*
X133746190Y-105054663D01*
X133746190Y-105054663D02*
X133841428Y-105102282D01*
X133841428Y-105102282D02*
X133889047Y-105149901D01*
X133889047Y-105149901D02*
X133936666Y-105245139D01*
X133936666Y-105245139D02*
X133936666Y-105340377D01*
X133936666Y-105340377D02*
X133889047Y-105483234D01*
X133889047Y-105483234D02*
X133317619Y-106054663D01*
X133317619Y-106054663D02*
X133936666Y-106054663D01*
X126566666Y-105224663D02*
X126566666Y-105938948D01*
X126566666Y-105938948D02*
X126519047Y-106081805D01*
X126519047Y-106081805D02*
X126423809Y-106177044D01*
X126423809Y-106177044D02*
X126280952Y-106224663D01*
X126280952Y-106224663D02*
X126185714Y-106224663D01*
X127042857Y-106224663D02*
X127042857Y-105224663D01*
X127042857Y-105224663D02*
X127423809Y-105224663D01*
X127423809Y-105224663D02*
X127519047Y-105272282D01*
X127519047Y-105272282D02*
X127566666Y-105319901D01*
X127566666Y-105319901D02*
X127614285Y-105415139D01*
X127614285Y-105415139D02*
X127614285Y-105557996D01*
X127614285Y-105557996D02*
X127566666Y-105653234D01*
X127566666Y-105653234D02*
X127519047Y-105700853D01*
X127519047Y-105700853D02*
X127423809Y-105748472D01*
X127423809Y-105748472D02*
X127042857Y-105748472D01*
X128566666Y-106224663D02*
X127995238Y-106224663D01*
X128280952Y-106224663D02*
X128280952Y-105224663D01*
X128280952Y-105224663D02*
X128185714Y-105367520D01*
X128185714Y-105367520D02*
X128090476Y-105462758D01*
X128090476Y-105462758D02*
X127995238Y-105510377D01*
X142661392Y-92189424D02*
X142613773Y-92237044D01*
X142613773Y-92237044D02*
X142470916Y-92284663D01*
X142470916Y-92284663D02*
X142375678Y-92284663D01*
X142375678Y-92284663D02*
X142232821Y-92237044D01*
X142232821Y-92237044D02*
X142137583Y-92141805D01*
X142137583Y-92141805D02*
X142089964Y-92046567D01*
X142089964Y-92046567D02*
X142042345Y-91856091D01*
X142042345Y-91856091D02*
X142042345Y-91713234D01*
X142042345Y-91713234D02*
X142089964Y-91522758D01*
X142089964Y-91522758D02*
X142137583Y-91427520D01*
X142137583Y-91427520D02*
X142232821Y-91332282D01*
X142232821Y-91332282D02*
X142375678Y-91284663D01*
X142375678Y-91284663D02*
X142470916Y-91284663D01*
X142470916Y-91284663D02*
X142613773Y-91332282D01*
X142613773Y-91332282D02*
X142661392Y-91379901D01*
X143613773Y-92284663D02*
X143042345Y-92284663D01*
X143328059Y-92284663D02*
X143328059Y-91284663D01*
X143328059Y-91284663D02*
X143232821Y-91427520D01*
X143232821Y-91427520D02*
X143137583Y-91522758D01*
X143137583Y-91522758D02*
X143042345Y-91570377D01*
X144232821Y-91284663D02*
X144328059Y-91284663D01*
X144328059Y-91284663D02*
X144423297Y-91332282D01*
X144423297Y-91332282D02*
X144470916Y-91379901D01*
X144470916Y-91379901D02*
X144518535Y-91475139D01*
X144518535Y-91475139D02*
X144566154Y-91665615D01*
X144566154Y-91665615D02*
X144566154Y-91903710D01*
X144566154Y-91903710D02*
X144518535Y-92094186D01*
X144518535Y-92094186D02*
X144470916Y-92189424D01*
X144470916Y-92189424D02*
X144423297Y-92237044D01*
X144423297Y-92237044D02*
X144328059Y-92284663D01*
X144328059Y-92284663D02*
X144232821Y-92284663D01*
X144232821Y-92284663D02*
X144137583Y-92237044D01*
X144137583Y-92237044D02*
X144089964Y-92189424D01*
X144089964Y-92189424D02*
X144042345Y-92094186D01*
X144042345Y-92094186D02*
X143994726Y-91903710D01*
X143994726Y-91903710D02*
X143994726Y-91665615D01*
X143994726Y-91665615D02*
X144042345Y-91475139D01*
X144042345Y-91475139D02*
X144089964Y-91379901D01*
X144089964Y-91379901D02*
X144137583Y-91332282D01*
X144137583Y-91332282D02*
X144232821Y-91284663D01*
X136188333Y-100489424D02*
X136140714Y-100537044D01*
X136140714Y-100537044D02*
X135997857Y-100584663D01*
X135997857Y-100584663D02*
X135902619Y-100584663D01*
X135902619Y-100584663D02*
X135759762Y-100537044D01*
X135759762Y-100537044D02*
X135664524Y-100441805D01*
X135664524Y-100441805D02*
X135616905Y-100346567D01*
X135616905Y-100346567D02*
X135569286Y-100156091D01*
X135569286Y-100156091D02*
X135569286Y-100013234D01*
X135569286Y-100013234D02*
X135616905Y-99822758D01*
X135616905Y-99822758D02*
X135664524Y-99727520D01*
X135664524Y-99727520D02*
X135759762Y-99632282D01*
X135759762Y-99632282D02*
X135902619Y-99584663D01*
X135902619Y-99584663D02*
X135997857Y-99584663D01*
X135997857Y-99584663D02*
X136140714Y-99632282D01*
X136140714Y-99632282D02*
X136188333Y-99679901D01*
X136521667Y-99584663D02*
X137188333Y-99584663D01*
X137188333Y-99584663D02*
X136759762Y-100584663D01*
X148923333Y-105049424D02*
X148875714Y-105097044D01*
X148875714Y-105097044D02*
X148732857Y-105144663D01*
X148732857Y-105144663D02*
X148637619Y-105144663D01*
X148637619Y-105144663D02*
X148494762Y-105097044D01*
X148494762Y-105097044D02*
X148399524Y-105001805D01*
X148399524Y-105001805D02*
X148351905Y-104906567D01*
X148351905Y-104906567D02*
X148304286Y-104716091D01*
X148304286Y-104716091D02*
X148304286Y-104573234D01*
X148304286Y-104573234D02*
X148351905Y-104382758D01*
X148351905Y-104382758D02*
X148399524Y-104287520D01*
X148399524Y-104287520D02*
X148494762Y-104192282D01*
X148494762Y-104192282D02*
X148637619Y-104144663D01*
X148637619Y-104144663D02*
X148732857Y-104144663D01*
X148732857Y-104144663D02*
X148875714Y-104192282D01*
X148875714Y-104192282D02*
X148923333Y-104239901D01*
X149875714Y-105144663D02*
X149304286Y-105144663D01*
X149590000Y-105144663D02*
X149590000Y-104144663D01*
X149590000Y-104144663D02*
X149494762Y-104287520D01*
X149494762Y-104287520D02*
X149399524Y-104382758D01*
X149399524Y-104382758D02*
X149304286Y-104430377D01*
D11*
X151336250Y-95202776D02*
X151336250Y-95712224D01*
X150291250Y-95202776D02*
X150291250Y-95712224D01*
X146980517Y-96890000D02*
X146687983Y-96890000D01*
X146980517Y-95870000D02*
X146687983Y-95870000D01*
X138560000Y-102450000D02*
X139960000Y-102450000D01*
X138560000Y-103850000D02*
X138560000Y-102450000D01*
X139960000Y-102450000D02*
X139960000Y-103850000D01*
X139960000Y-103850000D02*
X138560000Y-103850000D01*
X145471750Y-94084724D02*
X145471750Y-93575276D01*
X146516750Y-94084724D02*
X146516750Y-93575276D01*
X130385000Y-97700000D02*
X134485000Y-97700000D01*
X130385000Y-99700000D02*
X130385000Y-97700000D01*
X134485000Y-97700000D02*
X134485000Y-99700000D01*
X134485000Y-99700000D02*
X130385000Y-99700000D01*
X137170517Y-97620000D02*
X136877983Y-97620000D01*
X137170517Y-96600000D02*
X136877983Y-96600000D01*
X127470000Y-104120000D02*
X127470000Y-103060000D01*
X128530000Y-104120000D02*
X127470000Y-104120000D01*
X129530000Y-104120000D02*
X131590000Y-104120000D01*
X129530000Y-104120000D02*
X129530000Y-102000000D01*
X131590000Y-104120000D02*
X131590000Y-102000000D01*
X129530000Y-102000000D02*
X131590000Y-102000000D01*
X140484250Y-95681267D02*
X140484250Y-95338733D01*
X141504250Y-95681267D02*
X141504250Y-95338733D01*
X135746267Y-94480000D02*
X135453733Y-94480000D01*
X135746267Y-93460000D02*
X135453733Y-93460000D01*
X140221750Y-101930000D02*
X140221750Y-99630000D01*
X140221750Y-99630000D02*
X137521750Y-99630000D01*
X138994250Y-97886267D02*
X138994250Y-97593733D01*
X140014250Y-97886267D02*
X140014250Y-97593733D01*
X139974250Y-94183733D02*
X139974250Y-94476267D01*
X138954250Y-94183733D02*
X138954250Y-94476267D01*
D12*
X146464250Y-103570000D02*
G75*
G03*
X146464250Y-103570000I-125000J0D01*
G01*
D11*
X136610000Y-108870000D02*
X136610000Y-107810000D01*
X137670000Y-108870000D02*
X136610000Y-108870000D01*
X138670000Y-108870000D02*
X152730000Y-108870000D01*
X138670000Y-108870000D02*
X138670000Y-106750000D01*
X152730000Y-108870000D02*
X152730000Y-106750000D01*
X138670000Y-106750000D02*
X152730000Y-106750000D01*
X131357500Y-94457776D02*
X131357500Y-94967224D01*
X130312500Y-94457776D02*
X130312500Y-94967224D01*
X151834250Y-95603767D02*
X151834250Y-95311233D01*
X152854250Y-95603767D02*
X152854250Y-95311233D01*
X135746267Y-92910000D02*
X135453733Y-92910000D01*
X135746267Y-91890000D02*
X135453733Y-91890000D01*
X148161233Y-98190000D02*
X148453767Y-98190000D01*
X148161233Y-99210000D02*
X148453767Y-99210000D01*
X148161233Y-99710000D02*
X148453767Y-99710000D01*
X148161233Y-100730000D02*
X148453767Y-100730000D01*
X148760750Y-95712224D02*
X148760750Y-95202776D01*
X149805750Y-95712224D02*
X149805750Y-95202776D01*
X154414250Y-95303733D02*
X154414250Y-95596267D01*
X153394250Y-95303733D02*
X153394250Y-95596267D01*
X148161233Y-101230000D02*
X148453767Y-101230000D01*
X148161233Y-102250000D02*
X148453767Y-102250000D01*
X129807500Y-94457776D02*
X129807500Y-94967224D01*
X128762500Y-94457776D02*
X128762500Y-94967224D01*
X151180276Y-92467500D02*
X151689724Y-92467500D01*
X151180276Y-93512500D02*
X151689724Y-93512500D01*
X132895000Y-94566233D02*
X132895000Y-94858767D01*
X131875000Y-94566233D02*
X131875000Y-94858767D01*
X127215000Y-94858767D02*
X127215000Y-94566233D01*
X128235000Y-94858767D02*
X128235000Y-94566233D01*
X139960000Y-105920000D02*
X138560000Y-105920000D01*
X139960000Y-104520000D02*
X139960000Y-105920000D01*
X138560000Y-105920000D02*
X138560000Y-104520000D01*
X138560000Y-104520000D02*
X139960000Y-104520000D01*
X136683767Y-103400000D02*
X136391233Y-103400000D01*
X136683767Y-102380000D02*
X136391233Y-102380000D01*
X143247983Y-95890000D02*
X143590517Y-95890000D01*
X143247983Y-96910000D02*
X143590517Y-96910000D01*
X136792224Y-104942500D02*
X136282776Y-104942500D01*
X136792224Y-103897500D02*
X136282776Y-103897500D01*
X129825000Y-99690000D02*
X125725000Y-99690000D01*
X129825000Y-97690000D02*
X129825000Y-99690000D01*
X125725000Y-99690000D02*
X125725000Y-97690000D01*
X125725000Y-97690000D02*
X129825000Y-97690000D01*
X135060000Y-108670000D02*
X130960000Y-108670000D01*
X135060000Y-106670000D02*
X135060000Y-108670000D01*
X130960000Y-108670000D02*
X130960000Y-106670000D01*
X130960000Y-106670000D02*
X135060000Y-106670000D01*
X125420000Y-106670000D02*
X129520000Y-106670000D01*
X125420000Y-108670000D02*
X125420000Y-106670000D01*
X129520000Y-106670000D02*
X129520000Y-108670000D01*
X129520000Y-108670000D02*
X125420000Y-108670000D01*
X143325483Y-94280000D02*
X143618017Y-94280000D01*
X143325483Y-95300000D02*
X143618017Y-95300000D01*
X137210517Y-99190000D02*
X136917983Y-99190000D01*
X137210517Y-98170000D02*
X136917983Y-98170000D01*
X148161233Y-102750000D02*
X148453767Y-102750000D01*
X148161233Y-103770000D02*
X148453767Y-103770000D01*
%LPC*%
D13*
X150813750Y-94545000D03*
X150813750Y-96370000D03*
D14*
X147696750Y-96380000D03*
X145971750Y-96380000D03*
D15*
X139260000Y-103150000D03*
D16*
X145994250Y-94742500D03*
X145994250Y-92917500D03*
D17*
X131135000Y-98700000D03*
X132435000Y-98700000D03*
X133735000Y-98700000D03*
D18*
X124080000Y-58640000D03*
X156120000Y-58640000D03*
D14*
X137886750Y-97110000D03*
X136161750Y-97110000D03*
D19*
X128530000Y-103060000D03*
D20*
X130530000Y-103060000D03*
D21*
X140994250Y-96385000D03*
X140994250Y-94635000D03*
D14*
X136462500Y-93970000D03*
X134737500Y-93970000D03*
D18*
X124060000Y-88020000D03*
D22*
X139571750Y-100230000D03*
X138171750Y-100230000D03*
X138171750Y-101330000D03*
X139571750Y-101330000D03*
D23*
X139504250Y-98602500D03*
X139504250Y-96877500D03*
D24*
X139464250Y-93467500D03*
X139464250Y-95192500D03*
D25*
X145914250Y-102820000D03*
X145914250Y-102320000D03*
X145914250Y-101820000D03*
X145914250Y-101320000D03*
X145914250Y-100820000D03*
X145914250Y-100320000D03*
X145914250Y-99820000D03*
X145914250Y-99320000D03*
D26*
X145214250Y-98620000D03*
X144714250Y-98620000D03*
X144214250Y-98620000D03*
X143714250Y-98620000D03*
X143214250Y-98620000D03*
X142714250Y-98620000D03*
X142214250Y-98620000D03*
X141714250Y-98620000D03*
D25*
X141014250Y-99320000D03*
X141014250Y-99820000D03*
X141014250Y-100320000D03*
X141014250Y-100820000D03*
X141014250Y-101320000D03*
X141014250Y-101820000D03*
X141014250Y-102320000D03*
X141014250Y-102820000D03*
D26*
X141714250Y-103520000D03*
X142214250Y-103520000D03*
X142714250Y-103520000D03*
X143214250Y-103520000D03*
X143714250Y-103520000D03*
X144214250Y-103520000D03*
X144714250Y-103520000D03*
X145214250Y-103520000D03*
D27*
X143464250Y-101070000D03*
D19*
X137670000Y-107810000D03*
D20*
X139670000Y-107810000D03*
X141670000Y-107810000D03*
X143670000Y-107810000D03*
X145670000Y-107810000D03*
X147670000Y-107810000D03*
X149670000Y-107810000D03*
X151670000Y-107810000D03*
D13*
X130835000Y-93800000D03*
X130835000Y-95625000D03*
D23*
X152344250Y-96320000D03*
X152344250Y-94595000D03*
D14*
X136462500Y-92400000D03*
X134737500Y-92400000D03*
D28*
X147445000Y-98700000D03*
X149170000Y-98700000D03*
X147445000Y-100220000D03*
X149170000Y-100220000D03*
D16*
X149283250Y-96370000D03*
X149283250Y-94545000D03*
D24*
X153904250Y-94587500D03*
X153904250Y-96312500D03*
D28*
X147445000Y-101740000D03*
X149170000Y-101740000D03*
D13*
X129285000Y-93800000D03*
X129285000Y-95625000D03*
D29*
X150522500Y-92990000D03*
X152347500Y-92990000D03*
D24*
X132385000Y-93850000D03*
X132385000Y-95575000D03*
D23*
X127725000Y-95575000D03*
X127725000Y-93850000D03*
D15*
X139260000Y-105220000D03*
D14*
X137400000Y-102890000D03*
X135675000Y-102890000D03*
D30*
X142544250Y-96400000D03*
X144294250Y-96400000D03*
D31*
X137450000Y-104420000D03*
X135625000Y-104420000D03*
D17*
X129075000Y-98690000D03*
X127775000Y-98690000D03*
X126475000Y-98690000D03*
X134310000Y-107670000D03*
X133010000Y-107670000D03*
X131710000Y-107670000D03*
X126170000Y-107670000D03*
X127470000Y-107670000D03*
X128770000Y-107670000D03*
D28*
X142609250Y-94790000D03*
X144334250Y-94790000D03*
D14*
X137926750Y-98680000D03*
X136201750Y-98680000D03*
D18*
X156110000Y-88020000D03*
D28*
X147445000Y-103260000D03*
X149170000Y-103260000D03*
%LPD*%
M02*
