G04 #@! TF.GenerationSoftware,KiCad,Pcbnew,7.0.9*
G04 #@! TF.CreationDate,2024-04-16T21:14:58+02:00*
G04 #@! TF.ProjectId,NFC_Programmer,4e46435f-5072-46f6-9772-616d6d65722e,3.0*
G04 #@! TF.SameCoordinates,Original*
G04 #@! TF.FileFunction,Legend,Top*
G04 #@! TF.FilePolarity,Positive*
%FSLAX46Y46*%
G04 Gerber Fmt 4.6, Leading zero omitted, Abs format (unit mm)*
G04 Created by KiCad (PCBNEW 7.0.9) date 2024-04-16 21:14:58*
%MOMM*%
%LPD*%
G01*
G04 APERTURE LIST*
G04 Aperture macros list*
%AMRoundRect*
0 Rectangle with rounded corners*
0 $1 Rounding radius*
0 $2 $3 $4 $5 $6 $7 $8 $9 X,Y pos of 4 corners*
0 Add a 4 corners polygon primitive as box body*
4,1,4,$2,$3,$4,$5,$6,$7,$8,$9,$2,$3,0*
0 Add four circle primitives for the rounded corners*
1,1,$1+$1,$2,$3*
1,1,$1+$1,$4,$5*
1,1,$1+$1,$6,$7*
1,1,$1+$1,$8,$9*
0 Add four rect primitives between the rounded corners*
20,1,$1+$1,$2,$3,$4,$5,0*
20,1,$1+$1,$4,$5,$6,$7,0*
20,1,$1+$1,$6,$7,$8,$9,0*
20,1,$1+$1,$8,$9,$2,$3,0*%
G04 Aperture macros list end*
%ADD10C,0.153000*%
%ADD11C,0.120000*%
%ADD12C,0.250000*%
%ADD13RoundRect,0.237500X-0.237500X0.250000X-0.237500X-0.250000X0.237500X-0.250000X0.237500X0.250000X0*%
%ADD14RoundRect,0.237500X0.300000X0.237500X-0.300000X0.237500X-0.300000X-0.237500X0.300000X-0.237500X0*%
%ADD15RoundRect,0.237500X0.237500X-0.250000X0.237500X0.250000X-0.237500X0.250000X-0.237500X-0.250000X0*%
%ADD16R,1.000000X1.500000*%
%ADD17C,3.000000*%
%ADD18R,1.000000X1.000000*%
%ADD19R,1.350000X1.350000*%
%ADD20O,1.350000X1.350000*%
%ADD21RoundRect,0.237500X0.237500X-0.287500X0.237500X0.287500X-0.237500X0.287500X-0.237500X-0.287500X0*%
%ADD22R,0.900000X0.800000*%
%ADD23RoundRect,0.237500X0.237500X-0.300000X0.237500X0.300000X-0.237500X0.300000X-0.237500X-0.300000X0*%
%ADD24RoundRect,0.237500X-0.237500X0.300000X-0.237500X-0.300000X0.237500X-0.300000X0.237500X0.300000X0*%
%ADD25R,0.850000X0.300000*%
%ADD26R,0.300000X0.850000*%
%ADD27R,3.250000X3.250000*%
%ADD28RoundRect,0.237500X-0.300000X-0.237500X0.300000X-0.237500X0.300000X0.237500X-0.300000X0.237500X0*%
%ADD29RoundRect,0.237500X-0.250000X-0.237500X0.250000X-0.237500X0.250000X0.237500X-0.250000X0.237500X0*%
%ADD30RoundRect,0.237500X-0.287500X-0.237500X0.287500X-0.237500X0.287500X0.237500X-0.287500X0.237500X0*%
%ADD31RoundRect,0.237500X0.250000X0.237500X-0.250000X0.237500X-0.250000X-0.237500X0.250000X-0.237500X0*%
G04 APERTURE END LIST*
D10*
X134711133Y-72684901D02*
X134758752Y-72637282D01*
X134758752Y-72637282D02*
X134853990Y-72589663D01*
X134853990Y-72589663D02*
X135092085Y-72589663D01*
X135092085Y-72589663D02*
X135187323Y-72637282D01*
X135187323Y-72637282D02*
X135234942Y-72684901D01*
X135234942Y-72684901D02*
X135282561Y-72780139D01*
X135282561Y-72780139D02*
X135282561Y-72875377D01*
X135282561Y-72875377D02*
X135234942Y-73018234D01*
X135234942Y-73018234D02*
X134663514Y-73589663D01*
X134663514Y-73589663D02*
X135282561Y-73589663D01*
X135853990Y-73018234D02*
X135758752Y-72970615D01*
X135758752Y-72970615D02*
X135711133Y-72922996D01*
X135711133Y-72922996D02*
X135663514Y-72827758D01*
X135663514Y-72827758D02*
X135663514Y-72780139D01*
X135663514Y-72780139D02*
X135711133Y-72684901D01*
X135711133Y-72684901D02*
X135758752Y-72637282D01*
X135758752Y-72637282D02*
X135853990Y-72589663D01*
X135853990Y-72589663D02*
X136044466Y-72589663D01*
X136044466Y-72589663D02*
X136139704Y-72637282D01*
X136139704Y-72637282D02*
X136187323Y-72684901D01*
X136187323Y-72684901D02*
X136234942Y-72780139D01*
X136234942Y-72780139D02*
X136234942Y-72827758D01*
X136234942Y-72827758D02*
X136187323Y-72922996D01*
X136187323Y-72922996D02*
X136139704Y-72970615D01*
X136139704Y-72970615D02*
X136044466Y-73018234D01*
X136044466Y-73018234D02*
X135853990Y-73018234D01*
X135853990Y-73018234D02*
X135758752Y-73065853D01*
X135758752Y-73065853D02*
X135711133Y-73113472D01*
X135711133Y-73113472D02*
X135663514Y-73208710D01*
X135663514Y-73208710D02*
X135663514Y-73399186D01*
X135663514Y-73399186D02*
X135711133Y-73494424D01*
X135711133Y-73494424D02*
X135758752Y-73542044D01*
X135758752Y-73542044D02*
X135853990Y-73589663D01*
X135853990Y-73589663D02*
X136044466Y-73589663D01*
X136044466Y-73589663D02*
X136139704Y-73542044D01*
X136139704Y-73542044D02*
X136187323Y-73494424D01*
X136187323Y-73494424D02*
X136234942Y-73399186D01*
X136234942Y-73399186D02*
X136234942Y-73208710D01*
X136234942Y-73208710D02*
X136187323Y-73113472D01*
X136187323Y-73113472D02*
X136139704Y-73065853D01*
X136139704Y-73065853D02*
X136044466Y-73018234D01*
X136711133Y-73542044D02*
X136711133Y-73589663D01*
X136711133Y-73589663D02*
X136663514Y-73684901D01*
X136663514Y-73684901D02*
X136615895Y-73732520D01*
X137044466Y-72589663D02*
X137663513Y-72589663D01*
X137663513Y-72589663D02*
X137330180Y-72970615D01*
X137330180Y-72970615D02*
X137473037Y-72970615D01*
X137473037Y-72970615D02*
X137568275Y-73018234D01*
X137568275Y-73018234D02*
X137615894Y-73065853D01*
X137615894Y-73065853D02*
X137663513Y-73161091D01*
X137663513Y-73161091D02*
X137663513Y-73399186D01*
X137663513Y-73399186D02*
X137615894Y-73494424D01*
X137615894Y-73494424D02*
X137568275Y-73542044D01*
X137568275Y-73542044D02*
X137473037Y-73589663D01*
X137473037Y-73589663D02*
X137187323Y-73589663D01*
X137187323Y-73589663D02*
X137092085Y-73542044D01*
X137092085Y-73542044D02*
X137044466Y-73494424D01*
X138044466Y-72684901D02*
X138092085Y-72637282D01*
X138092085Y-72637282D02*
X138187323Y-72589663D01*
X138187323Y-72589663D02*
X138425418Y-72589663D01*
X138425418Y-72589663D02*
X138520656Y-72637282D01*
X138520656Y-72637282D02*
X138568275Y-72684901D01*
X138568275Y-72684901D02*
X138615894Y-72780139D01*
X138615894Y-72780139D02*
X138615894Y-72875377D01*
X138615894Y-72875377D02*
X138568275Y-73018234D01*
X138568275Y-73018234D02*
X137996847Y-73589663D01*
X137996847Y-73589663D02*
X138615894Y-73589663D01*
X139711133Y-73589663D02*
X140234942Y-72922996D01*
X139711133Y-72922996D02*
X140234942Y-73589663D01*
X141330181Y-72684901D02*
X141377800Y-72637282D01*
X141377800Y-72637282D02*
X141473038Y-72589663D01*
X141473038Y-72589663D02*
X141711133Y-72589663D01*
X141711133Y-72589663D02*
X141806371Y-72637282D01*
X141806371Y-72637282D02*
X141853990Y-72684901D01*
X141853990Y-72684901D02*
X141901609Y-72780139D01*
X141901609Y-72780139D02*
X141901609Y-72875377D01*
X141901609Y-72875377D02*
X141853990Y-73018234D01*
X141853990Y-73018234D02*
X141282562Y-73589663D01*
X141282562Y-73589663D02*
X141901609Y-73589663D01*
X142282562Y-72684901D02*
X142330181Y-72637282D01*
X142330181Y-72637282D02*
X142425419Y-72589663D01*
X142425419Y-72589663D02*
X142663514Y-72589663D01*
X142663514Y-72589663D02*
X142758752Y-72637282D01*
X142758752Y-72637282D02*
X142806371Y-72684901D01*
X142806371Y-72684901D02*
X142853990Y-72780139D01*
X142853990Y-72780139D02*
X142853990Y-72875377D01*
X142853990Y-72875377D02*
X142806371Y-73018234D01*
X142806371Y-73018234D02*
X142234943Y-73589663D01*
X142234943Y-73589663D02*
X142853990Y-73589663D01*
X143330181Y-73542044D02*
X143330181Y-73589663D01*
X143330181Y-73589663D02*
X143282562Y-73684901D01*
X143282562Y-73684901D02*
X143234943Y-73732520D01*
X143901609Y-73018234D02*
X143806371Y-72970615D01*
X143806371Y-72970615D02*
X143758752Y-72922996D01*
X143758752Y-72922996D02*
X143711133Y-72827758D01*
X143711133Y-72827758D02*
X143711133Y-72780139D01*
X143711133Y-72780139D02*
X143758752Y-72684901D01*
X143758752Y-72684901D02*
X143806371Y-72637282D01*
X143806371Y-72637282D02*
X143901609Y-72589663D01*
X143901609Y-72589663D02*
X144092085Y-72589663D01*
X144092085Y-72589663D02*
X144187323Y-72637282D01*
X144187323Y-72637282D02*
X144234942Y-72684901D01*
X144234942Y-72684901D02*
X144282561Y-72780139D01*
X144282561Y-72780139D02*
X144282561Y-72827758D01*
X144282561Y-72827758D02*
X144234942Y-72922996D01*
X144234942Y-72922996D02*
X144187323Y-72970615D01*
X144187323Y-72970615D02*
X144092085Y-73018234D01*
X144092085Y-73018234D02*
X143901609Y-73018234D01*
X143901609Y-73018234D02*
X143806371Y-73065853D01*
X143806371Y-73065853D02*
X143758752Y-73113472D01*
X143758752Y-73113472D02*
X143711133Y-73208710D01*
X143711133Y-73208710D02*
X143711133Y-73399186D01*
X143711133Y-73399186D02*
X143758752Y-73494424D01*
X143758752Y-73494424D02*
X143806371Y-73542044D01*
X143806371Y-73542044D02*
X143901609Y-73589663D01*
X143901609Y-73589663D02*
X144092085Y-73589663D01*
X144092085Y-73589663D02*
X144187323Y-73542044D01*
X144187323Y-73542044D02*
X144234942Y-73494424D01*
X144234942Y-73494424D02*
X144282561Y-73399186D01*
X144282561Y-73399186D02*
X144282561Y-73208710D01*
X144282561Y-73208710D02*
X144234942Y-73113472D01*
X144234942Y-73113472D02*
X144187323Y-73065853D01*
X144187323Y-73065853D02*
X144092085Y-73018234D01*
X144615895Y-72589663D02*
X145234942Y-72589663D01*
X145234942Y-72589663D02*
X144901609Y-72970615D01*
X144901609Y-72970615D02*
X145044466Y-72970615D01*
X145044466Y-72970615D02*
X145139704Y-73018234D01*
X145139704Y-73018234D02*
X145187323Y-73065853D01*
X145187323Y-73065853D02*
X145234942Y-73161091D01*
X145234942Y-73161091D02*
X145234942Y-73399186D01*
X145234942Y-73399186D02*
X145187323Y-73494424D01*
X145187323Y-73494424D02*
X145139704Y-73542044D01*
X145139704Y-73542044D02*
X145044466Y-73589663D01*
X145044466Y-73589663D02*
X144758752Y-73589663D01*
X144758752Y-73589663D02*
X144663514Y-73542044D01*
X144663514Y-73542044D02*
X144615895Y-73494424D01*
X133566847Y-71047282D02*
X133566847Y-69047282D01*
X133566847Y-69047282D02*
X134233514Y-70475853D01*
X134233514Y-70475853D02*
X134900180Y-69047282D01*
X134900180Y-69047282D02*
X134900180Y-71047282D01*
X136519228Y-69999663D02*
X135852561Y-69999663D01*
X135852561Y-71047282D02*
X135852561Y-69047282D01*
X135852561Y-69047282D02*
X136804942Y-69047282D01*
X138709704Y-71047282D02*
X138043037Y-70094901D01*
X137566847Y-71047282D02*
X137566847Y-69047282D01*
X137566847Y-69047282D02*
X138328752Y-69047282D01*
X138328752Y-69047282D02*
X138519228Y-69142520D01*
X138519228Y-69142520D02*
X138614466Y-69237758D01*
X138614466Y-69237758D02*
X138709704Y-69428234D01*
X138709704Y-69428234D02*
X138709704Y-69713948D01*
X138709704Y-69713948D02*
X138614466Y-69904424D01*
X138614466Y-69904424D02*
X138519228Y-69999663D01*
X138519228Y-69999663D02*
X138328752Y-70094901D01*
X138328752Y-70094901D02*
X137566847Y-70094901D01*
X140709704Y-70856805D02*
X140614466Y-70952044D01*
X140614466Y-70952044D02*
X140328752Y-71047282D01*
X140328752Y-71047282D02*
X140138276Y-71047282D01*
X140138276Y-71047282D02*
X139852561Y-70952044D01*
X139852561Y-70952044D02*
X139662085Y-70761567D01*
X139662085Y-70761567D02*
X139566847Y-70571091D01*
X139566847Y-70571091D02*
X139471609Y-70190139D01*
X139471609Y-70190139D02*
X139471609Y-69904424D01*
X139471609Y-69904424D02*
X139566847Y-69523472D01*
X139566847Y-69523472D02*
X139662085Y-69332996D01*
X139662085Y-69332996D02*
X139852561Y-69142520D01*
X139852561Y-69142520D02*
X140138276Y-69047282D01*
X140138276Y-69047282D02*
X140328752Y-69047282D01*
X140328752Y-69047282D02*
X140614466Y-69142520D01*
X140614466Y-69142520D02*
X140709704Y-69237758D01*
X142423990Y-69047282D02*
X142043037Y-69047282D01*
X142043037Y-69047282D02*
X141852561Y-69142520D01*
X141852561Y-69142520D02*
X141757323Y-69237758D01*
X141757323Y-69237758D02*
X141566847Y-69523472D01*
X141566847Y-69523472D02*
X141471609Y-69904424D01*
X141471609Y-69904424D02*
X141471609Y-70666329D01*
X141471609Y-70666329D02*
X141566847Y-70856805D01*
X141566847Y-70856805D02*
X141662085Y-70952044D01*
X141662085Y-70952044D02*
X141852561Y-71047282D01*
X141852561Y-71047282D02*
X142233514Y-71047282D01*
X142233514Y-71047282D02*
X142423990Y-70952044D01*
X142423990Y-70952044D02*
X142519228Y-70856805D01*
X142519228Y-70856805D02*
X142614466Y-70666329D01*
X142614466Y-70666329D02*
X142614466Y-70190139D01*
X142614466Y-70190139D02*
X142519228Y-69999663D01*
X142519228Y-69999663D02*
X142423990Y-69904424D01*
X142423990Y-69904424D02*
X142233514Y-69809186D01*
X142233514Y-69809186D02*
X141852561Y-69809186D01*
X141852561Y-69809186D02*
X141662085Y-69904424D01*
X141662085Y-69904424D02*
X141566847Y-69999663D01*
X141566847Y-69999663D02*
X141471609Y-70190139D01*
X143281133Y-69047282D02*
X144519228Y-69047282D01*
X144519228Y-69047282D02*
X143852561Y-69809186D01*
X143852561Y-69809186D02*
X144138276Y-69809186D01*
X144138276Y-69809186D02*
X144328752Y-69904424D01*
X144328752Y-69904424D02*
X144423990Y-69999663D01*
X144423990Y-69999663D02*
X144519228Y-70190139D01*
X144519228Y-70190139D02*
X144519228Y-70666329D01*
X144519228Y-70666329D02*
X144423990Y-70856805D01*
X144423990Y-70856805D02*
X144328752Y-70952044D01*
X144328752Y-70952044D02*
X144138276Y-71047282D01*
X144138276Y-71047282D02*
X143566847Y-71047282D01*
X143566847Y-71047282D02*
X143376371Y-70952044D01*
X143376371Y-70952044D02*
X143281133Y-70856805D01*
X145757323Y-69047282D02*
X145947800Y-69047282D01*
X145947800Y-69047282D02*
X146138276Y-69142520D01*
X146138276Y-69142520D02*
X146233514Y-69237758D01*
X146233514Y-69237758D02*
X146328752Y-69428234D01*
X146328752Y-69428234D02*
X146423990Y-69809186D01*
X146423990Y-69809186D02*
X146423990Y-70285377D01*
X146423990Y-70285377D02*
X146328752Y-70666329D01*
X146328752Y-70666329D02*
X146233514Y-70856805D01*
X146233514Y-70856805D02*
X146138276Y-70952044D01*
X146138276Y-70952044D02*
X145947800Y-71047282D01*
X145947800Y-71047282D02*
X145757323Y-71047282D01*
X145757323Y-71047282D02*
X145566847Y-70952044D01*
X145566847Y-70952044D02*
X145471609Y-70856805D01*
X145471609Y-70856805D02*
X145376371Y-70666329D01*
X145376371Y-70666329D02*
X145281133Y-70285377D01*
X145281133Y-70285377D02*
X145281133Y-69809186D01*
X145281133Y-69809186D02*
X145376371Y-69428234D01*
X145376371Y-69428234D02*
X145471609Y-69237758D01*
X145471609Y-69237758D02*
X145566847Y-69142520D01*
X145566847Y-69142520D02*
X145757323Y-69047282D01*
X150728333Y-98264663D02*
X150395000Y-97788472D01*
X150156905Y-98264663D02*
X150156905Y-97264663D01*
X150156905Y-97264663D02*
X150537857Y-97264663D01*
X150537857Y-97264663D02*
X150633095Y-97312282D01*
X150633095Y-97312282D02*
X150680714Y-97359901D01*
X150680714Y-97359901D02*
X150728333Y-97455139D01*
X150728333Y-97455139D02*
X150728333Y-97597996D01*
X150728333Y-97597996D02*
X150680714Y-97693234D01*
X150680714Y-97693234D02*
X150633095Y-97740853D01*
X150633095Y-97740853D02*
X150537857Y-97788472D01*
X150537857Y-97788472D02*
X150156905Y-97788472D01*
X151109286Y-97359901D02*
X151156905Y-97312282D01*
X151156905Y-97312282D02*
X151252143Y-97264663D01*
X151252143Y-97264663D02*
X151490238Y-97264663D01*
X151490238Y-97264663D02*
X151585476Y-97312282D01*
X151585476Y-97312282D02*
X151633095Y-97359901D01*
X151633095Y-97359901D02*
X151680714Y-97455139D01*
X151680714Y-97455139D02*
X151680714Y-97550377D01*
X151680714Y-97550377D02*
X151633095Y-97693234D01*
X151633095Y-97693234D02*
X151061667Y-98264663D01*
X151061667Y-98264663D02*
X151680714Y-98264663D01*
X147963674Y-94782857D02*
X148011294Y-94830476D01*
X148011294Y-94830476D02*
X148058913Y-94973333D01*
X148058913Y-94973333D02*
X148058913Y-95068571D01*
X148058913Y-95068571D02*
X148011294Y-95211428D01*
X148011294Y-95211428D02*
X147916055Y-95306666D01*
X147916055Y-95306666D02*
X147820817Y-95354285D01*
X147820817Y-95354285D02*
X147630341Y-95401904D01*
X147630341Y-95401904D02*
X147487484Y-95401904D01*
X147487484Y-95401904D02*
X147297008Y-95354285D01*
X147297008Y-95354285D02*
X147201770Y-95306666D01*
X147201770Y-95306666D02*
X147106532Y-95211428D01*
X147106532Y-95211428D02*
X147058913Y-95068571D01*
X147058913Y-95068571D02*
X147058913Y-94973333D01*
X147058913Y-94973333D02*
X147106532Y-94830476D01*
X147106532Y-94830476D02*
X147154151Y-94782857D01*
X148058913Y-93830476D02*
X148058913Y-94401904D01*
X148058913Y-94116190D02*
X147058913Y-94116190D01*
X147058913Y-94116190D02*
X147201770Y-94211428D01*
X147201770Y-94211428D02*
X147297008Y-94306666D01*
X147297008Y-94306666D02*
X147344627Y-94401904D01*
X147058913Y-93497142D02*
X147058913Y-92830476D01*
X147058913Y-92830476D02*
X148058913Y-93259047D01*
X145657583Y-91974663D02*
X145324250Y-91498472D01*
X145086155Y-91974663D02*
X145086155Y-90974663D01*
X145086155Y-90974663D02*
X145467107Y-90974663D01*
X145467107Y-90974663D02*
X145562345Y-91022282D01*
X145562345Y-91022282D02*
X145609964Y-91069901D01*
X145609964Y-91069901D02*
X145657583Y-91165139D01*
X145657583Y-91165139D02*
X145657583Y-91307996D01*
X145657583Y-91307996D02*
X145609964Y-91403234D01*
X145609964Y-91403234D02*
X145562345Y-91450853D01*
X145562345Y-91450853D02*
X145467107Y-91498472D01*
X145467107Y-91498472D02*
X145086155Y-91498472D01*
X146514726Y-90974663D02*
X146324250Y-90974663D01*
X146324250Y-90974663D02*
X146229012Y-91022282D01*
X146229012Y-91022282D02*
X146181393Y-91069901D01*
X146181393Y-91069901D02*
X146086155Y-91212758D01*
X146086155Y-91212758D02*
X146038536Y-91403234D01*
X146038536Y-91403234D02*
X146038536Y-91784186D01*
X146038536Y-91784186D02*
X146086155Y-91879424D01*
X146086155Y-91879424D02*
X146133774Y-91927044D01*
X146133774Y-91927044D02*
X146229012Y-91974663D01*
X146229012Y-91974663D02*
X146419488Y-91974663D01*
X146419488Y-91974663D02*
X146514726Y-91927044D01*
X146514726Y-91927044D02*
X146562345Y-91879424D01*
X146562345Y-91879424D02*
X146609964Y-91784186D01*
X146609964Y-91784186D02*
X146609964Y-91546091D01*
X146609964Y-91546091D02*
X146562345Y-91450853D01*
X146562345Y-91450853D02*
X146514726Y-91403234D01*
X146514726Y-91403234D02*
X146419488Y-91355615D01*
X146419488Y-91355615D02*
X146229012Y-91355615D01*
X146229012Y-91355615D02*
X146133774Y-91403234D01*
X146133774Y-91403234D02*
X146086155Y-91450853D01*
X146086155Y-91450853D02*
X146038536Y-91546091D01*
X130751666Y-100284663D02*
X130751666Y-100998948D01*
X130751666Y-100998948D02*
X130704047Y-101141805D01*
X130704047Y-101141805D02*
X130608809Y-101237044D01*
X130608809Y-101237044D02*
X130465952Y-101284663D01*
X130465952Y-101284663D02*
X130370714Y-101284663D01*
X131227857Y-101284663D02*
X131227857Y-100284663D01*
X131227857Y-100284663D02*
X131608809Y-100284663D01*
X131608809Y-100284663D02*
X131704047Y-100332282D01*
X131704047Y-100332282D02*
X131751666Y-100379901D01*
X131751666Y-100379901D02*
X131799285Y-100475139D01*
X131799285Y-100475139D02*
X131799285Y-100617996D01*
X131799285Y-100617996D02*
X131751666Y-100713234D01*
X131751666Y-100713234D02*
X131704047Y-100760853D01*
X131704047Y-100760853D02*
X131608809Y-100808472D01*
X131608809Y-100808472D02*
X131227857Y-100808472D01*
X132132619Y-100284663D02*
X132751666Y-100284663D01*
X132751666Y-100284663D02*
X132418333Y-100665615D01*
X132418333Y-100665615D02*
X132561190Y-100665615D01*
X132561190Y-100665615D02*
X132656428Y-100713234D01*
X132656428Y-100713234D02*
X132704047Y-100760853D01*
X132704047Y-100760853D02*
X132751666Y-100856091D01*
X132751666Y-100856091D02*
X132751666Y-101094186D01*
X132751666Y-101094186D02*
X132704047Y-101189424D01*
X132704047Y-101189424D02*
X132656428Y-101237044D01*
X132656428Y-101237044D02*
X132561190Y-101284663D01*
X132561190Y-101284663D02*
X132275476Y-101284663D01*
X132275476Y-101284663D02*
X132180238Y-101237044D01*
X132180238Y-101237044D02*
X132132619Y-101189424D01*
X134173333Y-97239424D02*
X134125714Y-97287044D01*
X134125714Y-97287044D02*
X133982857Y-97334663D01*
X133982857Y-97334663D02*
X133887619Y-97334663D01*
X133887619Y-97334663D02*
X133744762Y-97287044D01*
X133744762Y-97287044D02*
X133649524Y-97191805D01*
X133649524Y-97191805D02*
X133601905Y-97096567D01*
X133601905Y-97096567D02*
X133554286Y-96906091D01*
X133554286Y-96906091D02*
X133554286Y-96763234D01*
X133554286Y-96763234D02*
X133601905Y-96572758D01*
X133601905Y-96572758D02*
X133649524Y-96477520D01*
X133649524Y-96477520D02*
X133744762Y-96382282D01*
X133744762Y-96382282D02*
X133887619Y-96334663D01*
X133887619Y-96334663D02*
X133982857Y-96334663D01*
X133982857Y-96334663D02*
X134125714Y-96382282D01*
X134125714Y-96382282D02*
X134173333Y-96429901D01*
X135030476Y-96334663D02*
X134840000Y-96334663D01*
X134840000Y-96334663D02*
X134744762Y-96382282D01*
X134744762Y-96382282D02*
X134697143Y-96429901D01*
X134697143Y-96429901D02*
X134601905Y-96572758D01*
X134601905Y-96572758D02*
X134554286Y-96763234D01*
X134554286Y-96763234D02*
X134554286Y-97144186D01*
X134554286Y-97144186D02*
X134601905Y-97239424D01*
X134601905Y-97239424D02*
X134649524Y-97287044D01*
X134649524Y-97287044D02*
X134744762Y-97334663D01*
X134744762Y-97334663D02*
X134935238Y-97334663D01*
X134935238Y-97334663D02*
X135030476Y-97287044D01*
X135030476Y-97287044D02*
X135078095Y-97239424D01*
X135078095Y-97239424D02*
X135125714Y-97144186D01*
X135125714Y-97144186D02*
X135125714Y-96906091D01*
X135125714Y-96906091D02*
X135078095Y-96810853D01*
X135078095Y-96810853D02*
X135030476Y-96763234D01*
X135030476Y-96763234D02*
X134935238Y-96715615D01*
X134935238Y-96715615D02*
X134744762Y-96715615D01*
X134744762Y-96715615D02*
X134649524Y-96763234D01*
X134649524Y-96763234D02*
X134601905Y-96810853D01*
X134601905Y-96810853D02*
X134554286Y-96906091D01*
X125714663Y-103353333D02*
X126428948Y-103353333D01*
X126428948Y-103353333D02*
X126571805Y-103400952D01*
X126571805Y-103400952D02*
X126667044Y-103496190D01*
X126667044Y-103496190D02*
X126714663Y-103639047D01*
X126714663Y-103639047D02*
X126714663Y-103734285D01*
X125809901Y-102924761D02*
X125762282Y-102877142D01*
X125762282Y-102877142D02*
X125714663Y-102781904D01*
X125714663Y-102781904D02*
X125714663Y-102543809D01*
X125714663Y-102543809D02*
X125762282Y-102448571D01*
X125762282Y-102448571D02*
X125809901Y-102400952D01*
X125809901Y-102400952D02*
X125905139Y-102353333D01*
X125905139Y-102353333D02*
X126000377Y-102353333D01*
X126000377Y-102353333D02*
X126143234Y-102400952D01*
X126143234Y-102400952D02*
X126714663Y-102972380D01*
X126714663Y-102972380D02*
X126714663Y-102353333D01*
X141448913Y-93101666D02*
X141448913Y-93577856D01*
X141448913Y-93577856D02*
X140448913Y-93577856D01*
X141448913Y-92244523D02*
X141448913Y-92815951D01*
X141448913Y-92530237D02*
X140448913Y-92530237D01*
X140448913Y-92530237D02*
X140591770Y-92625475D01*
X140591770Y-92625475D02*
X140687008Y-92720713D01*
X140687008Y-92720713D02*
X140734627Y-92815951D01*
X134827142Y-95809424D02*
X134779523Y-95857044D01*
X134779523Y-95857044D02*
X134636666Y-95904663D01*
X134636666Y-95904663D02*
X134541428Y-95904663D01*
X134541428Y-95904663D02*
X134398571Y-95857044D01*
X134398571Y-95857044D02*
X134303333Y-95761805D01*
X134303333Y-95761805D02*
X134255714Y-95666567D01*
X134255714Y-95666567D02*
X134208095Y-95476091D01*
X134208095Y-95476091D02*
X134208095Y-95333234D01*
X134208095Y-95333234D02*
X134255714Y-95142758D01*
X134255714Y-95142758D02*
X134303333Y-95047520D01*
X134303333Y-95047520D02*
X134398571Y-94952282D01*
X134398571Y-94952282D02*
X134541428Y-94904663D01*
X134541428Y-94904663D02*
X134636666Y-94904663D01*
X134636666Y-94904663D02*
X134779523Y-94952282D01*
X134779523Y-94952282D02*
X134827142Y-94999901D01*
X135779523Y-95904663D02*
X135208095Y-95904663D01*
X135493809Y-95904663D02*
X135493809Y-94904663D01*
X135493809Y-94904663D02*
X135398571Y-95047520D01*
X135398571Y-95047520D02*
X135303333Y-95142758D01*
X135303333Y-95142758D02*
X135208095Y-95190377D01*
X136636666Y-95237996D02*
X136636666Y-95904663D01*
X136398571Y-94857044D02*
X136160476Y-95571329D01*
X136160476Y-95571329D02*
X136779523Y-95571329D01*
X136085559Y-101498472D02*
X136085559Y-101974663D01*
X135752226Y-100974663D02*
X136085559Y-101498472D01*
X136085559Y-101498472D02*
X136418892Y-100974663D01*
X137276035Y-101974663D02*
X136704607Y-101974663D01*
X136990321Y-101974663D02*
X136990321Y-100974663D01*
X136990321Y-100974663D02*
X136895083Y-101117520D01*
X136895083Y-101117520D02*
X136799845Y-101212758D01*
X136799845Y-101212758D02*
X136704607Y-101260377D01*
X138454424Y-95536666D02*
X138502044Y-95584285D01*
X138502044Y-95584285D02*
X138549663Y-95727142D01*
X138549663Y-95727142D02*
X138549663Y-95822380D01*
X138549663Y-95822380D02*
X138502044Y-95965237D01*
X138502044Y-95965237D02*
X138406805Y-96060475D01*
X138406805Y-96060475D02*
X138311567Y-96108094D01*
X138311567Y-96108094D02*
X138121091Y-96155713D01*
X138121091Y-96155713D02*
X137978234Y-96155713D01*
X137978234Y-96155713D02*
X137787758Y-96108094D01*
X137787758Y-96108094D02*
X137692520Y-96060475D01*
X137692520Y-96060475D02*
X137597282Y-95965237D01*
X137597282Y-95965237D02*
X137549663Y-95822380D01*
X137549663Y-95822380D02*
X137549663Y-95727142D01*
X137549663Y-95727142D02*
X137597282Y-95584285D01*
X137597282Y-95584285D02*
X137644901Y-95536666D01*
X137549663Y-94631904D02*
X137549663Y-95108094D01*
X137549663Y-95108094D02*
X138025853Y-95155713D01*
X138025853Y-95155713D02*
X137978234Y-95108094D01*
X137978234Y-95108094D02*
X137930615Y-95012856D01*
X137930615Y-95012856D02*
X137930615Y-94774761D01*
X137930615Y-94774761D02*
X137978234Y-94679523D01*
X137978234Y-94679523D02*
X138025853Y-94631904D01*
X138025853Y-94631904D02*
X138121091Y-94584285D01*
X138121091Y-94584285D02*
X138359186Y-94584285D01*
X138359186Y-94584285D02*
X138454424Y-94631904D01*
X138454424Y-94631904D02*
X138502044Y-94679523D01*
X138502044Y-94679523D02*
X138549663Y-94774761D01*
X138549663Y-94774761D02*
X138549663Y-95012856D01*
X138549663Y-95012856D02*
X138502044Y-95108094D01*
X138502044Y-95108094D02*
X138454424Y-95155713D01*
X138251392Y-92359424D02*
X138203773Y-92407044D01*
X138203773Y-92407044D02*
X138060916Y-92454663D01*
X138060916Y-92454663D02*
X137965678Y-92454663D01*
X137965678Y-92454663D02*
X137822821Y-92407044D01*
X137822821Y-92407044D02*
X137727583Y-92311805D01*
X137727583Y-92311805D02*
X137679964Y-92216567D01*
X137679964Y-92216567D02*
X137632345Y-92026091D01*
X137632345Y-92026091D02*
X137632345Y-91883234D01*
X137632345Y-91883234D02*
X137679964Y-91692758D01*
X137679964Y-91692758D02*
X137727583Y-91597520D01*
X137727583Y-91597520D02*
X137822821Y-91502282D01*
X137822821Y-91502282D02*
X137965678Y-91454663D01*
X137965678Y-91454663D02*
X138060916Y-91454663D01*
X138060916Y-91454663D02*
X138203773Y-91502282D01*
X138203773Y-91502282D02*
X138251392Y-91549901D01*
X139203773Y-92454663D02*
X138632345Y-92454663D01*
X138918059Y-92454663D02*
X138918059Y-91454663D01*
X138918059Y-91454663D02*
X138822821Y-91597520D01*
X138822821Y-91597520D02*
X138727583Y-91692758D01*
X138727583Y-91692758D02*
X138632345Y-91740377D01*
X140156154Y-92454663D02*
X139584726Y-92454663D01*
X139870440Y-92454663D02*
X139870440Y-91454663D01*
X139870440Y-91454663D02*
X139775202Y-91597520D01*
X139775202Y-91597520D02*
X139679964Y-91692758D01*
X139679964Y-91692758D02*
X139584726Y-91740377D01*
X145128095Y-104384663D02*
X145128095Y-105194186D01*
X145128095Y-105194186D02*
X145175714Y-105289424D01*
X145175714Y-105289424D02*
X145223333Y-105337044D01*
X145223333Y-105337044D02*
X145318571Y-105384663D01*
X145318571Y-105384663D02*
X145509047Y-105384663D01*
X145509047Y-105384663D02*
X145604285Y-105337044D01*
X145604285Y-105337044D02*
X145651904Y-105289424D01*
X145651904Y-105289424D02*
X145699523Y-105194186D01*
X145699523Y-105194186D02*
X145699523Y-104384663D01*
X146699523Y-105384663D02*
X146128095Y-105384663D01*
X146413809Y-105384663D02*
X146413809Y-104384663D01*
X146413809Y-104384663D02*
X146318571Y-104527520D01*
X146318571Y-104527520D02*
X146223333Y-104622758D01*
X146223333Y-104622758D02*
X146128095Y-104670377D01*
X152066666Y-105074663D02*
X152066666Y-105788948D01*
X152066666Y-105788948D02*
X152019047Y-105931805D01*
X152019047Y-105931805D02*
X151923809Y-106027044D01*
X151923809Y-106027044D02*
X151780952Y-106074663D01*
X151780952Y-106074663D02*
X151685714Y-106074663D01*
X153066666Y-106074663D02*
X152495238Y-106074663D01*
X152780952Y-106074663D02*
X152780952Y-105074663D01*
X152780952Y-105074663D02*
X152685714Y-105217520D01*
X152685714Y-105217520D02*
X152590476Y-105312758D01*
X152590476Y-105312758D02*
X152495238Y-105360377D01*
X131389663Y-92229166D02*
X130913472Y-92562499D01*
X131389663Y-92800594D02*
X130389663Y-92800594D01*
X130389663Y-92800594D02*
X130389663Y-92419642D01*
X130389663Y-92419642D02*
X130437282Y-92324404D01*
X130437282Y-92324404D02*
X130484901Y-92276785D01*
X130484901Y-92276785D02*
X130580139Y-92229166D01*
X130580139Y-92229166D02*
X130722996Y-92229166D01*
X130722996Y-92229166D02*
X130818234Y-92276785D01*
X130818234Y-92276785D02*
X130865853Y-92324404D01*
X130865853Y-92324404D02*
X130913472Y-92419642D01*
X130913472Y-92419642D02*
X130913472Y-92800594D01*
X130722996Y-91372023D02*
X131389663Y-91372023D01*
X130342044Y-91610118D02*
X131056329Y-91848213D01*
X131056329Y-91848213D02*
X131056329Y-91229166D01*
X152944424Y-98246666D02*
X152992044Y-98294285D01*
X152992044Y-98294285D02*
X153039663Y-98437142D01*
X153039663Y-98437142D02*
X153039663Y-98532380D01*
X153039663Y-98532380D02*
X152992044Y-98675237D01*
X152992044Y-98675237D02*
X152896805Y-98770475D01*
X152896805Y-98770475D02*
X152801567Y-98818094D01*
X152801567Y-98818094D02*
X152611091Y-98865713D01*
X152611091Y-98865713D02*
X152468234Y-98865713D01*
X152468234Y-98865713D02*
X152277758Y-98818094D01*
X152277758Y-98818094D02*
X152182520Y-98770475D01*
X152182520Y-98770475D02*
X152087282Y-98675237D01*
X152087282Y-98675237D02*
X152039663Y-98532380D01*
X152039663Y-98532380D02*
X152039663Y-98437142D01*
X152039663Y-98437142D02*
X152087282Y-98294285D01*
X152087282Y-98294285D02*
X152134901Y-98246666D01*
X153039663Y-97770475D02*
X153039663Y-97579999D01*
X153039663Y-97579999D02*
X152992044Y-97484761D01*
X152992044Y-97484761D02*
X152944424Y-97437142D01*
X152944424Y-97437142D02*
X152801567Y-97341904D01*
X152801567Y-97341904D02*
X152611091Y-97294285D01*
X152611091Y-97294285D02*
X152230139Y-97294285D01*
X152230139Y-97294285D02*
X152134901Y-97341904D01*
X152134901Y-97341904D02*
X152087282Y-97389523D01*
X152087282Y-97389523D02*
X152039663Y-97484761D01*
X152039663Y-97484761D02*
X152039663Y-97675237D01*
X152039663Y-97675237D02*
X152087282Y-97770475D01*
X152087282Y-97770475D02*
X152134901Y-97818094D01*
X152134901Y-97818094D02*
X152230139Y-97865713D01*
X152230139Y-97865713D02*
X152468234Y-97865713D01*
X152468234Y-97865713D02*
X152563472Y-97818094D01*
X152563472Y-97818094D02*
X152611091Y-97770475D01*
X152611091Y-97770475D02*
X152658710Y-97675237D01*
X152658710Y-97675237D02*
X152658710Y-97484761D01*
X152658710Y-97484761D02*
X152611091Y-97389523D01*
X152611091Y-97389523D02*
X152563472Y-97341904D01*
X152563472Y-97341904D02*
X152468234Y-97294285D01*
X134857142Y-91319424D02*
X134809523Y-91367044D01*
X134809523Y-91367044D02*
X134666666Y-91414663D01*
X134666666Y-91414663D02*
X134571428Y-91414663D01*
X134571428Y-91414663D02*
X134428571Y-91367044D01*
X134428571Y-91367044D02*
X134333333Y-91271805D01*
X134333333Y-91271805D02*
X134285714Y-91176567D01*
X134285714Y-91176567D02*
X134238095Y-90986091D01*
X134238095Y-90986091D02*
X134238095Y-90843234D01*
X134238095Y-90843234D02*
X134285714Y-90652758D01*
X134285714Y-90652758D02*
X134333333Y-90557520D01*
X134333333Y-90557520D02*
X134428571Y-90462282D01*
X134428571Y-90462282D02*
X134571428Y-90414663D01*
X134571428Y-90414663D02*
X134666666Y-90414663D01*
X134666666Y-90414663D02*
X134809523Y-90462282D01*
X134809523Y-90462282D02*
X134857142Y-90509901D01*
X135809523Y-91414663D02*
X135238095Y-91414663D01*
X135523809Y-91414663D02*
X135523809Y-90414663D01*
X135523809Y-90414663D02*
X135428571Y-90557520D01*
X135428571Y-90557520D02*
X135333333Y-90652758D01*
X135333333Y-90652758D02*
X135238095Y-90700377D01*
X136714285Y-90414663D02*
X136238095Y-90414663D01*
X136238095Y-90414663D02*
X136190476Y-90890853D01*
X136190476Y-90890853D02*
X136238095Y-90843234D01*
X136238095Y-90843234D02*
X136333333Y-90795615D01*
X136333333Y-90795615D02*
X136571428Y-90795615D01*
X136571428Y-90795615D02*
X136666666Y-90843234D01*
X136666666Y-90843234D02*
X136714285Y-90890853D01*
X136714285Y-90890853D02*
X136761904Y-90986091D01*
X136761904Y-90986091D02*
X136761904Y-91224186D01*
X136761904Y-91224186D02*
X136714285Y-91319424D01*
X136714285Y-91319424D02*
X136666666Y-91367044D01*
X136666666Y-91367044D02*
X136571428Y-91414663D01*
X136571428Y-91414663D02*
X136333333Y-91414663D01*
X136333333Y-91414663D02*
X136238095Y-91367044D01*
X136238095Y-91367044D02*
X136190476Y-91319424D01*
X150773333Y-99539424D02*
X150725714Y-99587044D01*
X150725714Y-99587044D02*
X150582857Y-99634663D01*
X150582857Y-99634663D02*
X150487619Y-99634663D01*
X150487619Y-99634663D02*
X150344762Y-99587044D01*
X150344762Y-99587044D02*
X150249524Y-99491805D01*
X150249524Y-99491805D02*
X150201905Y-99396567D01*
X150201905Y-99396567D02*
X150154286Y-99206091D01*
X150154286Y-99206091D02*
X150154286Y-99063234D01*
X150154286Y-99063234D02*
X150201905Y-98872758D01*
X150201905Y-98872758D02*
X150249524Y-98777520D01*
X150249524Y-98777520D02*
X150344762Y-98682282D01*
X150344762Y-98682282D02*
X150487619Y-98634663D01*
X150487619Y-98634663D02*
X150582857Y-98634663D01*
X150582857Y-98634663D02*
X150725714Y-98682282D01*
X150725714Y-98682282D02*
X150773333Y-98729901D01*
X151106667Y-98634663D02*
X151725714Y-98634663D01*
X151725714Y-98634663D02*
X151392381Y-99015615D01*
X151392381Y-99015615D02*
X151535238Y-99015615D01*
X151535238Y-99015615D02*
X151630476Y-99063234D01*
X151630476Y-99063234D02*
X151678095Y-99110853D01*
X151678095Y-99110853D02*
X151725714Y-99206091D01*
X151725714Y-99206091D02*
X151725714Y-99444186D01*
X151725714Y-99444186D02*
X151678095Y-99539424D01*
X151678095Y-99539424D02*
X151630476Y-99587044D01*
X151630476Y-99587044D02*
X151535238Y-99634663D01*
X151535238Y-99634663D02*
X151249524Y-99634663D01*
X151249524Y-99634663D02*
X151154286Y-99587044D01*
X151154286Y-99587044D02*
X151106667Y-99539424D01*
X150753333Y-101069424D02*
X150705714Y-101117044D01*
X150705714Y-101117044D02*
X150562857Y-101164663D01*
X150562857Y-101164663D02*
X150467619Y-101164663D01*
X150467619Y-101164663D02*
X150324762Y-101117044D01*
X150324762Y-101117044D02*
X150229524Y-101021805D01*
X150229524Y-101021805D02*
X150181905Y-100926567D01*
X150181905Y-100926567D02*
X150134286Y-100736091D01*
X150134286Y-100736091D02*
X150134286Y-100593234D01*
X150134286Y-100593234D02*
X150181905Y-100402758D01*
X150181905Y-100402758D02*
X150229524Y-100307520D01*
X150229524Y-100307520D02*
X150324762Y-100212282D01*
X150324762Y-100212282D02*
X150467619Y-100164663D01*
X150467619Y-100164663D02*
X150562857Y-100164663D01*
X150562857Y-100164663D02*
X150705714Y-100212282D01*
X150705714Y-100212282D02*
X150753333Y-100259901D01*
X151134286Y-100259901D02*
X151181905Y-100212282D01*
X151181905Y-100212282D02*
X151277143Y-100164663D01*
X151277143Y-100164663D02*
X151515238Y-100164663D01*
X151515238Y-100164663D02*
X151610476Y-100212282D01*
X151610476Y-100212282D02*
X151658095Y-100259901D01*
X151658095Y-100259901D02*
X151705714Y-100355139D01*
X151705714Y-100355139D02*
X151705714Y-100450377D01*
X151705714Y-100450377D02*
X151658095Y-100593234D01*
X151658095Y-100593234D02*
X151086667Y-101164663D01*
X151086667Y-101164663D02*
X151705714Y-101164663D01*
X149589663Y-93036666D02*
X149113472Y-93369999D01*
X149589663Y-93608094D02*
X148589663Y-93608094D01*
X148589663Y-93608094D02*
X148589663Y-93227142D01*
X148589663Y-93227142D02*
X148637282Y-93131904D01*
X148637282Y-93131904D02*
X148684901Y-93084285D01*
X148684901Y-93084285D02*
X148780139Y-93036666D01*
X148780139Y-93036666D02*
X148922996Y-93036666D01*
X148922996Y-93036666D02*
X149018234Y-93084285D01*
X149018234Y-93084285D02*
X149065853Y-93131904D01*
X149065853Y-93131904D02*
X149113472Y-93227142D01*
X149113472Y-93227142D02*
X149113472Y-93608094D01*
X148589663Y-92703332D02*
X148589663Y-92036666D01*
X148589663Y-92036666D02*
X149589663Y-92465237D01*
X155854424Y-96082857D02*
X155902044Y-96130476D01*
X155902044Y-96130476D02*
X155949663Y-96273333D01*
X155949663Y-96273333D02*
X155949663Y-96368571D01*
X155949663Y-96368571D02*
X155902044Y-96511428D01*
X155902044Y-96511428D02*
X155806805Y-96606666D01*
X155806805Y-96606666D02*
X155711567Y-96654285D01*
X155711567Y-96654285D02*
X155521091Y-96701904D01*
X155521091Y-96701904D02*
X155378234Y-96701904D01*
X155378234Y-96701904D02*
X155187758Y-96654285D01*
X155187758Y-96654285D02*
X155092520Y-96606666D01*
X155092520Y-96606666D02*
X154997282Y-96511428D01*
X154997282Y-96511428D02*
X154949663Y-96368571D01*
X154949663Y-96368571D02*
X154949663Y-96273333D01*
X154949663Y-96273333D02*
X154997282Y-96130476D01*
X154997282Y-96130476D02*
X155044901Y-96082857D01*
X155949663Y-95130476D02*
X155949663Y-95701904D01*
X155949663Y-95416190D02*
X154949663Y-95416190D01*
X154949663Y-95416190D02*
X155092520Y-95511428D01*
X155092520Y-95511428D02*
X155187758Y-95606666D01*
X155187758Y-95606666D02*
X155235377Y-95701904D01*
X154949663Y-94273333D02*
X154949663Y-94463809D01*
X154949663Y-94463809D02*
X154997282Y-94559047D01*
X154997282Y-94559047D02*
X155044901Y-94606666D01*
X155044901Y-94606666D02*
X155187758Y-94701904D01*
X155187758Y-94701904D02*
X155378234Y-94749523D01*
X155378234Y-94749523D02*
X155759186Y-94749523D01*
X155759186Y-94749523D02*
X155854424Y-94701904D01*
X155854424Y-94701904D02*
X155902044Y-94654285D01*
X155902044Y-94654285D02*
X155949663Y-94559047D01*
X155949663Y-94559047D02*
X155949663Y-94368571D01*
X155949663Y-94368571D02*
X155902044Y-94273333D01*
X155902044Y-94273333D02*
X155854424Y-94225714D01*
X155854424Y-94225714D02*
X155759186Y-94178095D01*
X155759186Y-94178095D02*
X155521091Y-94178095D01*
X155521091Y-94178095D02*
X155425853Y-94225714D01*
X155425853Y-94225714D02*
X155378234Y-94273333D01*
X155378234Y-94273333D02*
X155330615Y-94368571D01*
X155330615Y-94368571D02*
X155330615Y-94559047D01*
X155330615Y-94559047D02*
X155378234Y-94654285D01*
X155378234Y-94654285D02*
X155425853Y-94701904D01*
X155425853Y-94701904D02*
X155521091Y-94749523D01*
X150808333Y-102429424D02*
X150760714Y-102477044D01*
X150760714Y-102477044D02*
X150617857Y-102524663D01*
X150617857Y-102524663D02*
X150522619Y-102524663D01*
X150522619Y-102524663D02*
X150379762Y-102477044D01*
X150379762Y-102477044D02*
X150284524Y-102381805D01*
X150284524Y-102381805D02*
X150236905Y-102286567D01*
X150236905Y-102286567D02*
X150189286Y-102096091D01*
X150189286Y-102096091D02*
X150189286Y-101953234D01*
X150189286Y-101953234D02*
X150236905Y-101762758D01*
X150236905Y-101762758D02*
X150284524Y-101667520D01*
X150284524Y-101667520D02*
X150379762Y-101572282D01*
X150379762Y-101572282D02*
X150522619Y-101524663D01*
X150522619Y-101524663D02*
X150617857Y-101524663D01*
X150617857Y-101524663D02*
X150760714Y-101572282D01*
X150760714Y-101572282D02*
X150808333Y-101619901D01*
X151665476Y-101857996D02*
X151665476Y-102524663D01*
X151427381Y-101477044D02*
X151189286Y-102191329D01*
X151189286Y-102191329D02*
X151808333Y-102191329D01*
X129759663Y-92259166D02*
X129283472Y-92592499D01*
X129759663Y-92830594D02*
X128759663Y-92830594D01*
X128759663Y-92830594D02*
X128759663Y-92449642D01*
X128759663Y-92449642D02*
X128807282Y-92354404D01*
X128807282Y-92354404D02*
X128854901Y-92306785D01*
X128854901Y-92306785D02*
X128950139Y-92259166D01*
X128950139Y-92259166D02*
X129092996Y-92259166D01*
X129092996Y-92259166D02*
X129188234Y-92306785D01*
X129188234Y-92306785D02*
X129235853Y-92354404D01*
X129235853Y-92354404D02*
X129283472Y-92449642D01*
X129283472Y-92449642D02*
X129283472Y-92830594D01*
X128759663Y-91354404D02*
X128759663Y-91830594D01*
X128759663Y-91830594D02*
X129235853Y-91878213D01*
X129235853Y-91878213D02*
X129188234Y-91830594D01*
X129188234Y-91830594D02*
X129140615Y-91735356D01*
X129140615Y-91735356D02*
X129140615Y-91497261D01*
X129140615Y-91497261D02*
X129188234Y-91402023D01*
X129188234Y-91402023D02*
X129235853Y-91354404D01*
X129235853Y-91354404D02*
X129331091Y-91306785D01*
X129331091Y-91306785D02*
X129569186Y-91306785D01*
X129569186Y-91306785D02*
X129664424Y-91354404D01*
X129664424Y-91354404D02*
X129712044Y-91402023D01*
X129712044Y-91402023D02*
X129759663Y-91497261D01*
X129759663Y-91497261D02*
X129759663Y-91735356D01*
X129759663Y-91735356D02*
X129712044Y-91830594D01*
X129712044Y-91830594D02*
X129664424Y-91878213D01*
X151288333Y-91934663D02*
X150955000Y-91458472D01*
X150716905Y-91934663D02*
X150716905Y-90934663D01*
X150716905Y-90934663D02*
X151097857Y-90934663D01*
X151097857Y-90934663D02*
X151193095Y-90982282D01*
X151193095Y-90982282D02*
X151240714Y-91029901D01*
X151240714Y-91029901D02*
X151288333Y-91125139D01*
X151288333Y-91125139D02*
X151288333Y-91267996D01*
X151288333Y-91267996D02*
X151240714Y-91363234D01*
X151240714Y-91363234D02*
X151193095Y-91410853D01*
X151193095Y-91410853D02*
X151097857Y-91458472D01*
X151097857Y-91458472D02*
X150716905Y-91458472D01*
X151621667Y-90934663D02*
X152240714Y-90934663D01*
X152240714Y-90934663D02*
X151907381Y-91315615D01*
X151907381Y-91315615D02*
X152050238Y-91315615D01*
X152050238Y-91315615D02*
X152145476Y-91363234D01*
X152145476Y-91363234D02*
X152193095Y-91410853D01*
X152193095Y-91410853D02*
X152240714Y-91506091D01*
X152240714Y-91506091D02*
X152240714Y-91744186D01*
X152240714Y-91744186D02*
X152193095Y-91839424D01*
X152193095Y-91839424D02*
X152145476Y-91887044D01*
X152145476Y-91887044D02*
X152050238Y-91934663D01*
X152050238Y-91934663D02*
X151764524Y-91934663D01*
X151764524Y-91934663D02*
X151669286Y-91887044D01*
X151669286Y-91887044D02*
X151621667Y-91839424D01*
X132769424Y-92252857D02*
X132817044Y-92300476D01*
X132817044Y-92300476D02*
X132864663Y-92443333D01*
X132864663Y-92443333D02*
X132864663Y-92538571D01*
X132864663Y-92538571D02*
X132817044Y-92681428D01*
X132817044Y-92681428D02*
X132721805Y-92776666D01*
X132721805Y-92776666D02*
X132626567Y-92824285D01*
X132626567Y-92824285D02*
X132436091Y-92871904D01*
X132436091Y-92871904D02*
X132293234Y-92871904D01*
X132293234Y-92871904D02*
X132102758Y-92824285D01*
X132102758Y-92824285D02*
X132007520Y-92776666D01*
X132007520Y-92776666D02*
X131912282Y-92681428D01*
X131912282Y-92681428D02*
X131864663Y-92538571D01*
X131864663Y-92538571D02*
X131864663Y-92443333D01*
X131864663Y-92443333D02*
X131912282Y-92300476D01*
X131912282Y-92300476D02*
X131959901Y-92252857D01*
X132864663Y-91300476D02*
X132864663Y-91871904D01*
X132864663Y-91586190D02*
X131864663Y-91586190D01*
X131864663Y-91586190D02*
X132007520Y-91681428D01*
X132007520Y-91681428D02*
X132102758Y-91776666D01*
X132102758Y-91776666D02*
X132150377Y-91871904D01*
X131959901Y-90919523D02*
X131912282Y-90871904D01*
X131912282Y-90871904D02*
X131864663Y-90776666D01*
X131864663Y-90776666D02*
X131864663Y-90538571D01*
X131864663Y-90538571D02*
X131912282Y-90443333D01*
X131912282Y-90443333D02*
X131959901Y-90395714D01*
X131959901Y-90395714D02*
X132055139Y-90348095D01*
X132055139Y-90348095D02*
X132150377Y-90348095D01*
X132150377Y-90348095D02*
X132293234Y-90395714D01*
X132293234Y-90395714D02*
X132864663Y-90967142D01*
X132864663Y-90967142D02*
X132864663Y-90348095D01*
X128154424Y-92212857D02*
X128202044Y-92260476D01*
X128202044Y-92260476D02*
X128249663Y-92403333D01*
X128249663Y-92403333D02*
X128249663Y-92498571D01*
X128249663Y-92498571D02*
X128202044Y-92641428D01*
X128202044Y-92641428D02*
X128106805Y-92736666D01*
X128106805Y-92736666D02*
X128011567Y-92784285D01*
X128011567Y-92784285D02*
X127821091Y-92831904D01*
X127821091Y-92831904D02*
X127678234Y-92831904D01*
X127678234Y-92831904D02*
X127487758Y-92784285D01*
X127487758Y-92784285D02*
X127392520Y-92736666D01*
X127392520Y-92736666D02*
X127297282Y-92641428D01*
X127297282Y-92641428D02*
X127249663Y-92498571D01*
X127249663Y-92498571D02*
X127249663Y-92403333D01*
X127249663Y-92403333D02*
X127297282Y-92260476D01*
X127297282Y-92260476D02*
X127344901Y-92212857D01*
X128249663Y-91260476D02*
X128249663Y-91831904D01*
X128249663Y-91546190D02*
X127249663Y-91546190D01*
X127249663Y-91546190D02*
X127392520Y-91641428D01*
X127392520Y-91641428D02*
X127487758Y-91736666D01*
X127487758Y-91736666D02*
X127535377Y-91831904D01*
X127249663Y-90927142D02*
X127249663Y-90308095D01*
X127249663Y-90308095D02*
X127630615Y-90641428D01*
X127630615Y-90641428D02*
X127630615Y-90498571D01*
X127630615Y-90498571D02*
X127678234Y-90403333D01*
X127678234Y-90403333D02*
X127725853Y-90355714D01*
X127725853Y-90355714D02*
X127821091Y-90308095D01*
X127821091Y-90308095D02*
X128059186Y-90308095D01*
X128059186Y-90308095D02*
X128154424Y-90355714D01*
X128154424Y-90355714D02*
X128202044Y-90403333D01*
X128202044Y-90403333D02*
X128249663Y-90498571D01*
X128249663Y-90498571D02*
X128249663Y-90784285D01*
X128249663Y-90784285D02*
X128202044Y-90879523D01*
X128202044Y-90879523D02*
X128154424Y-90927142D01*
X133673333Y-103279424D02*
X133625714Y-103327044D01*
X133625714Y-103327044D02*
X133482857Y-103374663D01*
X133482857Y-103374663D02*
X133387619Y-103374663D01*
X133387619Y-103374663D02*
X133244762Y-103327044D01*
X133244762Y-103327044D02*
X133149524Y-103231805D01*
X133149524Y-103231805D02*
X133101905Y-103136567D01*
X133101905Y-103136567D02*
X133054286Y-102946091D01*
X133054286Y-102946091D02*
X133054286Y-102803234D01*
X133054286Y-102803234D02*
X133101905Y-102612758D01*
X133101905Y-102612758D02*
X133149524Y-102517520D01*
X133149524Y-102517520D02*
X133244762Y-102422282D01*
X133244762Y-102422282D02*
X133387619Y-102374663D01*
X133387619Y-102374663D02*
X133482857Y-102374663D01*
X133482857Y-102374663D02*
X133625714Y-102422282D01*
X133625714Y-102422282D02*
X133673333Y-102469901D01*
X134244762Y-102803234D02*
X134149524Y-102755615D01*
X134149524Y-102755615D02*
X134101905Y-102707996D01*
X134101905Y-102707996D02*
X134054286Y-102612758D01*
X134054286Y-102612758D02*
X134054286Y-102565139D01*
X134054286Y-102565139D02*
X134101905Y-102469901D01*
X134101905Y-102469901D02*
X134149524Y-102422282D01*
X134149524Y-102422282D02*
X134244762Y-102374663D01*
X134244762Y-102374663D02*
X134435238Y-102374663D01*
X134435238Y-102374663D02*
X134530476Y-102422282D01*
X134530476Y-102422282D02*
X134578095Y-102469901D01*
X134578095Y-102469901D02*
X134625714Y-102565139D01*
X134625714Y-102565139D02*
X134625714Y-102612758D01*
X134625714Y-102612758D02*
X134578095Y-102707996D01*
X134578095Y-102707996D02*
X134530476Y-102755615D01*
X134530476Y-102755615D02*
X134435238Y-102803234D01*
X134435238Y-102803234D02*
X134244762Y-102803234D01*
X134244762Y-102803234D02*
X134149524Y-102850853D01*
X134149524Y-102850853D02*
X134101905Y-102898472D01*
X134101905Y-102898472D02*
X134054286Y-102993710D01*
X134054286Y-102993710D02*
X134054286Y-103184186D01*
X134054286Y-103184186D02*
X134101905Y-103279424D01*
X134101905Y-103279424D02*
X134149524Y-103327044D01*
X134149524Y-103327044D02*
X134244762Y-103374663D01*
X134244762Y-103374663D02*
X134435238Y-103374663D01*
X134435238Y-103374663D02*
X134530476Y-103327044D01*
X134530476Y-103327044D02*
X134578095Y-103279424D01*
X134578095Y-103279424D02*
X134625714Y-103184186D01*
X134625714Y-103184186D02*
X134625714Y-102993710D01*
X134625714Y-102993710D02*
X134578095Y-102898472D01*
X134578095Y-102898472D02*
X134530476Y-102850853D01*
X134530476Y-102850853D02*
X134435238Y-102803234D01*
X143202583Y-93704663D02*
X142726393Y-93704663D01*
X142726393Y-93704663D02*
X142726393Y-92704663D01*
X143488298Y-92799901D02*
X143535917Y-92752282D01*
X143535917Y-92752282D02*
X143631155Y-92704663D01*
X143631155Y-92704663D02*
X143869250Y-92704663D01*
X143869250Y-92704663D02*
X143964488Y-92752282D01*
X143964488Y-92752282D02*
X144012107Y-92799901D01*
X144012107Y-92799901D02*
X144059726Y-92895139D01*
X144059726Y-92895139D02*
X144059726Y-92990377D01*
X144059726Y-92990377D02*
X144012107Y-93133234D01*
X144012107Y-93133234D02*
X143440679Y-93704663D01*
X143440679Y-93704663D02*
X144059726Y-93704663D01*
X133843333Y-104924663D02*
X133510000Y-104448472D01*
X133271905Y-104924663D02*
X133271905Y-103924663D01*
X133271905Y-103924663D02*
X133652857Y-103924663D01*
X133652857Y-103924663D02*
X133748095Y-103972282D01*
X133748095Y-103972282D02*
X133795714Y-104019901D01*
X133795714Y-104019901D02*
X133843333Y-104115139D01*
X133843333Y-104115139D02*
X133843333Y-104257996D01*
X133843333Y-104257996D02*
X133795714Y-104353234D01*
X133795714Y-104353234D02*
X133748095Y-104400853D01*
X133748095Y-104400853D02*
X133652857Y-104448472D01*
X133652857Y-104448472D02*
X133271905Y-104448472D01*
X134795714Y-104924663D02*
X134224286Y-104924663D01*
X134510000Y-104924663D02*
X134510000Y-103924663D01*
X134510000Y-103924663D02*
X134414762Y-104067520D01*
X134414762Y-104067520D02*
X134319524Y-104162758D01*
X134319524Y-104162758D02*
X134224286Y-104210377D01*
X126041666Y-100194663D02*
X126041666Y-100908948D01*
X126041666Y-100908948D02*
X125994047Y-101051805D01*
X125994047Y-101051805D02*
X125898809Y-101147044D01*
X125898809Y-101147044D02*
X125755952Y-101194663D01*
X125755952Y-101194663D02*
X125660714Y-101194663D01*
X126517857Y-101194663D02*
X126517857Y-100194663D01*
X126517857Y-100194663D02*
X126898809Y-100194663D01*
X126898809Y-100194663D02*
X126994047Y-100242282D01*
X126994047Y-100242282D02*
X127041666Y-100289901D01*
X127041666Y-100289901D02*
X127089285Y-100385139D01*
X127089285Y-100385139D02*
X127089285Y-100527996D01*
X127089285Y-100527996D02*
X127041666Y-100623234D01*
X127041666Y-100623234D02*
X126994047Y-100670853D01*
X126994047Y-100670853D02*
X126898809Y-100718472D01*
X126898809Y-100718472D02*
X126517857Y-100718472D01*
X127946428Y-100527996D02*
X127946428Y-101194663D01*
X127708333Y-100147044D02*
X127470238Y-100861329D01*
X127470238Y-100861329D02*
X128089285Y-100861329D01*
X131226666Y-105194663D02*
X131226666Y-105908948D01*
X131226666Y-105908948D02*
X131179047Y-106051805D01*
X131179047Y-106051805D02*
X131083809Y-106147044D01*
X131083809Y-106147044D02*
X130940952Y-106194663D01*
X130940952Y-106194663D02*
X130845714Y-106194663D01*
X131702857Y-106194663D02*
X131702857Y-105194663D01*
X131702857Y-105194663D02*
X132083809Y-105194663D01*
X132083809Y-105194663D02*
X132179047Y-105242282D01*
X132179047Y-105242282D02*
X132226666Y-105289901D01*
X132226666Y-105289901D02*
X132274285Y-105385139D01*
X132274285Y-105385139D02*
X132274285Y-105527996D01*
X132274285Y-105527996D02*
X132226666Y-105623234D01*
X132226666Y-105623234D02*
X132179047Y-105670853D01*
X132179047Y-105670853D02*
X132083809Y-105718472D01*
X132083809Y-105718472D02*
X131702857Y-105718472D01*
X132655238Y-105289901D02*
X132702857Y-105242282D01*
X132702857Y-105242282D02*
X132798095Y-105194663D01*
X132798095Y-105194663D02*
X133036190Y-105194663D01*
X133036190Y-105194663D02*
X133131428Y-105242282D01*
X133131428Y-105242282D02*
X133179047Y-105289901D01*
X133179047Y-105289901D02*
X133226666Y-105385139D01*
X133226666Y-105385139D02*
X133226666Y-105480377D01*
X133226666Y-105480377D02*
X133179047Y-105623234D01*
X133179047Y-105623234D02*
X132607619Y-106194663D01*
X132607619Y-106194663D02*
X133226666Y-106194663D01*
X126566666Y-105224663D02*
X126566666Y-105938948D01*
X126566666Y-105938948D02*
X126519047Y-106081805D01*
X126519047Y-106081805D02*
X126423809Y-106177044D01*
X126423809Y-106177044D02*
X126280952Y-106224663D01*
X126280952Y-106224663D02*
X126185714Y-106224663D01*
X127042857Y-106224663D02*
X127042857Y-105224663D01*
X127042857Y-105224663D02*
X127423809Y-105224663D01*
X127423809Y-105224663D02*
X127519047Y-105272282D01*
X127519047Y-105272282D02*
X127566666Y-105319901D01*
X127566666Y-105319901D02*
X127614285Y-105415139D01*
X127614285Y-105415139D02*
X127614285Y-105557996D01*
X127614285Y-105557996D02*
X127566666Y-105653234D01*
X127566666Y-105653234D02*
X127519047Y-105700853D01*
X127519047Y-105700853D02*
X127423809Y-105748472D01*
X127423809Y-105748472D02*
X127042857Y-105748472D01*
X128566666Y-106224663D02*
X127995238Y-106224663D01*
X128280952Y-106224663D02*
X128280952Y-105224663D01*
X128280952Y-105224663D02*
X128185714Y-105367520D01*
X128185714Y-105367520D02*
X128090476Y-105462758D01*
X128090476Y-105462758D02*
X127995238Y-105510377D01*
X142661392Y-92189424D02*
X142613773Y-92237044D01*
X142613773Y-92237044D02*
X142470916Y-92284663D01*
X142470916Y-92284663D02*
X142375678Y-92284663D01*
X142375678Y-92284663D02*
X142232821Y-92237044D01*
X142232821Y-92237044D02*
X142137583Y-92141805D01*
X142137583Y-92141805D02*
X142089964Y-92046567D01*
X142089964Y-92046567D02*
X142042345Y-91856091D01*
X142042345Y-91856091D02*
X142042345Y-91713234D01*
X142042345Y-91713234D02*
X142089964Y-91522758D01*
X142089964Y-91522758D02*
X142137583Y-91427520D01*
X142137583Y-91427520D02*
X142232821Y-91332282D01*
X142232821Y-91332282D02*
X142375678Y-91284663D01*
X142375678Y-91284663D02*
X142470916Y-91284663D01*
X142470916Y-91284663D02*
X142613773Y-91332282D01*
X142613773Y-91332282D02*
X142661392Y-91379901D01*
X143613773Y-92284663D02*
X143042345Y-92284663D01*
X143328059Y-92284663D02*
X143328059Y-91284663D01*
X143328059Y-91284663D02*
X143232821Y-91427520D01*
X143232821Y-91427520D02*
X143137583Y-91522758D01*
X143137583Y-91522758D02*
X143042345Y-91570377D01*
X144232821Y-91284663D02*
X144328059Y-91284663D01*
X144328059Y-91284663D02*
X144423297Y-91332282D01*
X144423297Y-91332282D02*
X144470916Y-91379901D01*
X144470916Y-91379901D02*
X144518535Y-91475139D01*
X144518535Y-91475139D02*
X144566154Y-91665615D01*
X144566154Y-91665615D02*
X144566154Y-91903710D01*
X144566154Y-91903710D02*
X144518535Y-92094186D01*
X144518535Y-92094186D02*
X144470916Y-92189424D01*
X144470916Y-92189424D02*
X144423297Y-92237044D01*
X144423297Y-92237044D02*
X144328059Y-92284663D01*
X144328059Y-92284663D02*
X144232821Y-92284663D01*
X144232821Y-92284663D02*
X144137583Y-92237044D01*
X144137583Y-92237044D02*
X144089964Y-92189424D01*
X144089964Y-92189424D02*
X144042345Y-92094186D01*
X144042345Y-92094186D02*
X143994726Y-91903710D01*
X143994726Y-91903710D02*
X143994726Y-91665615D01*
X143994726Y-91665615D02*
X144042345Y-91475139D01*
X144042345Y-91475139D02*
X144089964Y-91379901D01*
X144089964Y-91379901D02*
X144137583Y-91332282D01*
X144137583Y-91332282D02*
X144232821Y-91284663D01*
X136188333Y-100489424D02*
X136140714Y-100537044D01*
X136140714Y-100537044D02*
X135997857Y-100584663D01*
X135997857Y-100584663D02*
X135902619Y-100584663D01*
X135902619Y-100584663D02*
X135759762Y-100537044D01*
X135759762Y-100537044D02*
X135664524Y-100441805D01*
X135664524Y-100441805D02*
X135616905Y-100346567D01*
X135616905Y-100346567D02*
X135569286Y-100156091D01*
X135569286Y-100156091D02*
X135569286Y-100013234D01*
X135569286Y-100013234D02*
X135616905Y-99822758D01*
X135616905Y-99822758D02*
X135664524Y-99727520D01*
X135664524Y-99727520D02*
X135759762Y-99632282D01*
X135759762Y-99632282D02*
X135902619Y-99584663D01*
X135902619Y-99584663D02*
X135997857Y-99584663D01*
X135997857Y-99584663D02*
X136140714Y-99632282D01*
X136140714Y-99632282D02*
X136188333Y-99679901D01*
X136521667Y-99584663D02*
X137188333Y-99584663D01*
X137188333Y-99584663D02*
X136759762Y-100584663D01*
X135615714Y-106287044D02*
X135758571Y-106334663D01*
X135758571Y-106334663D02*
X135996666Y-106334663D01*
X135996666Y-106334663D02*
X136091904Y-106287044D01*
X136091904Y-106287044D02*
X136139523Y-106239424D01*
X136139523Y-106239424D02*
X136187142Y-106144186D01*
X136187142Y-106144186D02*
X136187142Y-106048948D01*
X136187142Y-106048948D02*
X136139523Y-105953710D01*
X136139523Y-105953710D02*
X136091904Y-105906091D01*
X136091904Y-105906091D02*
X135996666Y-105858472D01*
X135996666Y-105858472D02*
X135806190Y-105810853D01*
X135806190Y-105810853D02*
X135710952Y-105763234D01*
X135710952Y-105763234D02*
X135663333Y-105715615D01*
X135663333Y-105715615D02*
X135615714Y-105620377D01*
X135615714Y-105620377D02*
X135615714Y-105525139D01*
X135615714Y-105525139D02*
X135663333Y-105429901D01*
X135663333Y-105429901D02*
X135710952Y-105382282D01*
X135710952Y-105382282D02*
X135806190Y-105334663D01*
X135806190Y-105334663D02*
X136044285Y-105334663D01*
X136044285Y-105334663D02*
X136187142Y-105382282D01*
X136615714Y-106334663D02*
X136615714Y-105334663D01*
X136615714Y-105334663D02*
X136853809Y-105334663D01*
X136853809Y-105334663D02*
X136996666Y-105382282D01*
X136996666Y-105382282D02*
X137091904Y-105477520D01*
X137091904Y-105477520D02*
X137139523Y-105572758D01*
X137139523Y-105572758D02*
X137187142Y-105763234D01*
X137187142Y-105763234D02*
X137187142Y-105906091D01*
X137187142Y-105906091D02*
X137139523Y-106096567D01*
X137139523Y-106096567D02*
X137091904Y-106191805D01*
X137091904Y-106191805D02*
X136996666Y-106287044D01*
X136996666Y-106287044D02*
X136853809Y-106334663D01*
X136853809Y-106334663D02*
X136615714Y-106334663D01*
X137568095Y-106048948D02*
X138044285Y-106048948D01*
X137472857Y-106334663D02*
X137806190Y-105334663D01*
X137806190Y-105334663D02*
X138139523Y-106334663D01*
X148923333Y-105049424D02*
X148875714Y-105097044D01*
X148875714Y-105097044D02*
X148732857Y-105144663D01*
X148732857Y-105144663D02*
X148637619Y-105144663D01*
X148637619Y-105144663D02*
X148494762Y-105097044D01*
X148494762Y-105097044D02*
X148399524Y-105001805D01*
X148399524Y-105001805D02*
X148351905Y-104906567D01*
X148351905Y-104906567D02*
X148304286Y-104716091D01*
X148304286Y-104716091D02*
X148304286Y-104573234D01*
X148304286Y-104573234D02*
X148351905Y-104382758D01*
X148351905Y-104382758D02*
X148399524Y-104287520D01*
X148399524Y-104287520D02*
X148494762Y-104192282D01*
X148494762Y-104192282D02*
X148637619Y-104144663D01*
X148637619Y-104144663D02*
X148732857Y-104144663D01*
X148732857Y-104144663D02*
X148875714Y-104192282D01*
X148875714Y-104192282D02*
X148923333Y-104239901D01*
X149875714Y-105144663D02*
X149304286Y-105144663D01*
X149590000Y-105144663D02*
X149590000Y-104144663D01*
X149590000Y-104144663D02*
X149494762Y-104287520D01*
X149494762Y-104287520D02*
X149399524Y-104382758D01*
X149399524Y-104382758D02*
X149304286Y-104430377D01*
D11*
X151336250Y-95202776D02*
X151336250Y-95712224D01*
X150291250Y-95202776D02*
X150291250Y-95712224D01*
X146980517Y-96890000D02*
X146687983Y-96890000D01*
X146980517Y-95870000D02*
X146687983Y-95870000D01*
X145471750Y-94084724D02*
X145471750Y-93575276D01*
X146516750Y-94084724D02*
X146516750Y-93575276D01*
X130385000Y-97700000D02*
X134485000Y-97700000D01*
X130385000Y-99700000D02*
X130385000Y-97700000D01*
X134485000Y-97700000D02*
X134485000Y-99700000D01*
X134485000Y-99700000D02*
X130385000Y-99700000D01*
X138570000Y-102440000D02*
X139970000Y-102440000D01*
X138570000Y-103840000D02*
X138570000Y-102440000D01*
X139970000Y-102440000D02*
X139970000Y-103840000D01*
X139970000Y-103840000D02*
X138570000Y-103840000D01*
X137170517Y-97620000D02*
X136877983Y-97620000D01*
X137170517Y-96600000D02*
X136877983Y-96600000D01*
X127470000Y-104120000D02*
X127470000Y-103060000D01*
X128530000Y-104120000D02*
X127470000Y-104120000D01*
X129530000Y-104120000D02*
X131590000Y-104120000D01*
X129530000Y-104120000D02*
X129530000Y-102000000D01*
X131590000Y-104120000D02*
X131590000Y-102000000D01*
X129530000Y-102000000D02*
X131590000Y-102000000D01*
X140484250Y-95681267D02*
X140484250Y-95338733D01*
X141504250Y-95681267D02*
X141504250Y-95338733D01*
X135746267Y-94480000D02*
X135453733Y-94480000D01*
X135746267Y-93460000D02*
X135453733Y-93460000D01*
X140221750Y-101930000D02*
X140221750Y-99630000D01*
X140221750Y-99630000D02*
X137521750Y-99630000D01*
X138994250Y-97886267D02*
X138994250Y-97593733D01*
X140014250Y-97886267D02*
X140014250Y-97593733D01*
X139974250Y-94183733D02*
X139974250Y-94476267D01*
X138954250Y-94183733D02*
X138954250Y-94476267D01*
D12*
X146464250Y-103570000D02*
G75*
G03*
X146464250Y-103570000I-125000J0D01*
G01*
D11*
X136610000Y-108870000D02*
X136610000Y-107810000D01*
X137670000Y-108870000D02*
X136610000Y-108870000D01*
X138670000Y-108870000D02*
X152730000Y-108870000D01*
X138670000Y-108870000D02*
X138670000Y-106750000D01*
X152730000Y-108870000D02*
X152730000Y-106750000D01*
X138670000Y-106750000D02*
X152730000Y-106750000D01*
X131357500Y-94457776D02*
X131357500Y-94967224D01*
X130312500Y-94457776D02*
X130312500Y-94967224D01*
X151834250Y-95603767D02*
X151834250Y-95311233D01*
X152854250Y-95603767D02*
X152854250Y-95311233D01*
X135746267Y-92910000D02*
X135453733Y-92910000D01*
X135746267Y-91890000D02*
X135453733Y-91890000D01*
X148161233Y-98190000D02*
X148453767Y-98190000D01*
X148161233Y-99210000D02*
X148453767Y-99210000D01*
X148161233Y-99710000D02*
X148453767Y-99710000D01*
X148161233Y-100730000D02*
X148453767Y-100730000D01*
X148760750Y-95712224D02*
X148760750Y-95202776D01*
X149805750Y-95712224D02*
X149805750Y-95202776D01*
X154414250Y-95303733D02*
X154414250Y-95596267D01*
X153394250Y-95303733D02*
X153394250Y-95596267D01*
X148161233Y-101230000D02*
X148453767Y-101230000D01*
X148161233Y-102250000D02*
X148453767Y-102250000D01*
X129807500Y-94457776D02*
X129807500Y-94967224D01*
X128762500Y-94457776D02*
X128762500Y-94967224D01*
X151180276Y-92467500D02*
X151689724Y-92467500D01*
X151180276Y-93512500D02*
X151689724Y-93512500D01*
X132895000Y-94566233D02*
X132895000Y-94858767D01*
X131875000Y-94566233D02*
X131875000Y-94858767D01*
X127215000Y-94858767D02*
X127215000Y-94566233D01*
X128235000Y-94858767D02*
X128235000Y-94566233D01*
X136688767Y-103380000D02*
X136396233Y-103380000D01*
X136688767Y-102360000D02*
X136396233Y-102360000D01*
X143247983Y-95890000D02*
X143590517Y-95890000D01*
X143247983Y-96910000D02*
X143590517Y-96910000D01*
X136794724Y-104922500D02*
X136285276Y-104922500D01*
X136794724Y-103877500D02*
X136285276Y-103877500D01*
X129825000Y-99690000D02*
X125725000Y-99690000D01*
X129825000Y-97690000D02*
X129825000Y-99690000D01*
X125725000Y-99690000D02*
X125725000Y-97690000D01*
X125725000Y-97690000D02*
X129825000Y-97690000D01*
X135060000Y-108670000D02*
X130960000Y-108670000D01*
X135060000Y-106670000D02*
X135060000Y-108670000D01*
X130960000Y-108670000D02*
X130960000Y-106670000D01*
X130960000Y-106670000D02*
X135060000Y-106670000D01*
X125420000Y-106670000D02*
X129520000Y-106670000D01*
X125420000Y-108670000D02*
X125420000Y-106670000D01*
X129520000Y-106670000D02*
X129520000Y-108670000D01*
X129520000Y-108670000D02*
X125420000Y-108670000D01*
X143325483Y-94280000D02*
X143618017Y-94280000D01*
X143325483Y-95300000D02*
X143618017Y-95300000D01*
X137210517Y-99190000D02*
X136917983Y-99190000D01*
X137210517Y-98170000D02*
X136917983Y-98170000D01*
X139970000Y-105900000D02*
X138570000Y-105900000D01*
X139970000Y-104500000D02*
X139970000Y-105900000D01*
X138570000Y-105900000D02*
X138570000Y-104500000D01*
X138570000Y-104500000D02*
X139970000Y-104500000D01*
X148161233Y-102750000D02*
X148453767Y-102750000D01*
X148161233Y-103770000D02*
X148453767Y-103770000D01*
%LPC*%
D13*
X150813750Y-94545000D03*
X150813750Y-96370000D03*
D14*
X147696750Y-96380000D03*
X145971750Y-96380000D03*
D15*
X145994250Y-94742500D03*
X145994250Y-92917500D03*
D16*
X131135000Y-98700000D03*
X132435000Y-98700000D03*
X133735000Y-98700000D03*
D17*
X124080000Y-58640000D03*
X156120000Y-58640000D03*
D18*
X139270000Y-103140000D03*
D14*
X137886750Y-97110000D03*
X136161750Y-97110000D03*
D19*
X128530000Y-103060000D03*
D20*
X130530000Y-103060000D03*
D21*
X140994250Y-96385000D03*
X140994250Y-94635000D03*
D14*
X136462500Y-93970000D03*
X134737500Y-93970000D03*
D17*
X124060000Y-88020000D03*
D22*
X139571750Y-100230000D03*
X138171750Y-100230000D03*
X138171750Y-101330000D03*
X139571750Y-101330000D03*
D23*
X139504250Y-98602500D03*
X139504250Y-96877500D03*
D24*
X139464250Y-93467500D03*
X139464250Y-95192500D03*
D25*
X145914250Y-102820000D03*
X145914250Y-102320000D03*
X145914250Y-101820000D03*
X145914250Y-101320000D03*
X145914250Y-100820000D03*
X145914250Y-100320000D03*
X145914250Y-99820000D03*
X145914250Y-99320000D03*
D26*
X145214250Y-98620000D03*
X144714250Y-98620000D03*
X144214250Y-98620000D03*
X143714250Y-98620000D03*
X143214250Y-98620000D03*
X142714250Y-98620000D03*
X142214250Y-98620000D03*
X141714250Y-98620000D03*
D25*
X141014250Y-99320000D03*
X141014250Y-99820000D03*
X141014250Y-100320000D03*
X141014250Y-100820000D03*
X141014250Y-101320000D03*
X141014250Y-101820000D03*
X141014250Y-102320000D03*
X141014250Y-102820000D03*
D26*
X141714250Y-103520000D03*
X142214250Y-103520000D03*
X142714250Y-103520000D03*
X143214250Y-103520000D03*
X143714250Y-103520000D03*
X144214250Y-103520000D03*
X144714250Y-103520000D03*
X145214250Y-103520000D03*
D27*
X143464250Y-101070000D03*
D19*
X137670000Y-107810000D03*
D20*
X139670000Y-107810000D03*
X141670000Y-107810000D03*
X143670000Y-107810000D03*
X145670000Y-107810000D03*
X147670000Y-107810000D03*
X149670000Y-107810000D03*
X151670000Y-107810000D03*
D13*
X130835000Y-93800000D03*
X130835000Y-95625000D03*
D23*
X152344250Y-96320000D03*
X152344250Y-94595000D03*
D14*
X136462500Y-92400000D03*
X134737500Y-92400000D03*
D28*
X147445000Y-98700000D03*
X149170000Y-98700000D03*
X147445000Y-100220000D03*
X149170000Y-100220000D03*
D15*
X149283250Y-96370000D03*
X149283250Y-94545000D03*
D24*
X153904250Y-94587500D03*
X153904250Y-96312500D03*
D28*
X147445000Y-101740000D03*
X149170000Y-101740000D03*
D13*
X129285000Y-93800000D03*
X129285000Y-95625000D03*
D29*
X150522500Y-92990000D03*
X152347500Y-92990000D03*
D24*
X132385000Y-93850000D03*
X132385000Y-95575000D03*
D23*
X127725000Y-95575000D03*
X127725000Y-93850000D03*
D14*
X137405000Y-102870000D03*
X135680000Y-102870000D03*
D30*
X142544250Y-96400000D03*
X144294250Y-96400000D03*
D31*
X137452500Y-104400000D03*
X135627500Y-104400000D03*
D16*
X129075000Y-98690000D03*
X127775000Y-98690000D03*
X126475000Y-98690000D03*
X134310000Y-107670000D03*
X133010000Y-107670000D03*
X131710000Y-107670000D03*
X126170000Y-107670000D03*
X127470000Y-107670000D03*
X128770000Y-107670000D03*
D28*
X142609250Y-94790000D03*
X144334250Y-94790000D03*
D14*
X137926750Y-98680000D03*
X136201750Y-98680000D03*
D18*
X139270000Y-105200000D03*
D17*
X156110000Y-88020000D03*
D28*
X147445000Y-103260000D03*
X149170000Y-103260000D03*
%LPD*%
M02*
