G04 #@! TF.GenerationSoftware,KiCad,Pcbnew,7.0.9*
G04 #@! TF.CreationDate,2024-04-03T14:25:17+02:00*
G04 #@! TF.ProjectId,NFC_Programmer,4e46435f-5072-46f6-9772-616d6d65722e,3.0*
G04 #@! TF.SameCoordinates,Original*
G04 #@! TF.FileFunction,Legend,Bot*
G04 #@! TF.FilePolarity,Positive*
%FSLAX46Y46*%
G04 Gerber Fmt 4.6, Leading zero omitted, Abs format (unit mm)*
G04 Created by KiCad (PCBNEW 7.0.9) date 2024-04-03 14:25:17*
%MOMM*%
%LPD*%
G01*
G04 APERTURE LIST*
%ADD10C,0.153000*%
%ADD11C,3.000000*%
%ADD12R,1.350000X1.350000*%
%ADD13O,1.350000X1.350000*%
G04 APERTURE END LIST*
D10*
X138150336Y-106796485D02*
X138150336Y-106177438D01*
X138150336Y-106177438D02*
X137769384Y-106510771D01*
X137769384Y-106510771D02*
X137769384Y-106367914D01*
X137769384Y-106367914D02*
X137721765Y-106272676D01*
X137721765Y-106272676D02*
X137674146Y-106225057D01*
X137674146Y-106225057D02*
X137578908Y-106177438D01*
X137578908Y-106177438D02*
X137340813Y-106177438D01*
X137340813Y-106177438D02*
X137245575Y-106225057D01*
X137245575Y-106225057D02*
X137197956Y-106272676D01*
X137197956Y-106272676D02*
X137150336Y-106367914D01*
X137150336Y-106367914D02*
X137150336Y-106653628D01*
X137150336Y-106653628D02*
X137197956Y-106748866D01*
X137197956Y-106748866D02*
X137245575Y-106796485D01*
X137245575Y-105748866D02*
X137197956Y-105701247D01*
X137197956Y-105701247D02*
X137150336Y-105748866D01*
X137150336Y-105748866D02*
X137197956Y-105796485D01*
X137197956Y-105796485D02*
X137245575Y-105748866D01*
X137245575Y-105748866D02*
X137150336Y-105748866D01*
X138150336Y-105367914D02*
X138150336Y-104748867D01*
X138150336Y-104748867D02*
X137769384Y-105082200D01*
X137769384Y-105082200D02*
X137769384Y-104939343D01*
X137769384Y-104939343D02*
X137721765Y-104844105D01*
X137721765Y-104844105D02*
X137674146Y-104796486D01*
X137674146Y-104796486D02*
X137578908Y-104748867D01*
X137578908Y-104748867D02*
X137340813Y-104748867D01*
X137340813Y-104748867D02*
X137245575Y-104796486D01*
X137245575Y-104796486D02*
X137197956Y-104844105D01*
X137197956Y-104844105D02*
X137150336Y-104939343D01*
X137150336Y-104939343D02*
X137150336Y-105225057D01*
X137150336Y-105225057D02*
X137197956Y-105320295D01*
X137197956Y-105320295D02*
X137245575Y-105367914D01*
X138150336Y-104463152D02*
X137150336Y-104129819D01*
X137150336Y-104129819D02*
X138150336Y-103796486D01*
X141220336Y-106811247D02*
X142220336Y-106811247D01*
X142220336Y-106811247D02*
X141506051Y-106477914D01*
X141506051Y-106477914D02*
X142220336Y-106144581D01*
X142220336Y-106144581D02*
X141220336Y-106144581D01*
X142220336Y-105477914D02*
X142220336Y-105287438D01*
X142220336Y-105287438D02*
X142172717Y-105192200D01*
X142172717Y-105192200D02*
X142077479Y-105096962D01*
X142077479Y-105096962D02*
X141887003Y-105049343D01*
X141887003Y-105049343D02*
X141553670Y-105049343D01*
X141553670Y-105049343D02*
X141363194Y-105096962D01*
X141363194Y-105096962D02*
X141267956Y-105192200D01*
X141267956Y-105192200D02*
X141220336Y-105287438D01*
X141220336Y-105287438D02*
X141220336Y-105477914D01*
X141220336Y-105477914D02*
X141267956Y-105573152D01*
X141267956Y-105573152D02*
X141363194Y-105668390D01*
X141363194Y-105668390D02*
X141553670Y-105716009D01*
X141553670Y-105716009D02*
X141887003Y-105716009D01*
X141887003Y-105716009D02*
X142077479Y-105668390D01*
X142077479Y-105668390D02*
X142172717Y-105573152D01*
X142172717Y-105573152D02*
X142220336Y-105477914D01*
X141267956Y-104668390D02*
X141220336Y-104525533D01*
X141220336Y-104525533D02*
X141220336Y-104287438D01*
X141220336Y-104287438D02*
X141267956Y-104192200D01*
X141267956Y-104192200D02*
X141315575Y-104144581D01*
X141315575Y-104144581D02*
X141410813Y-104096962D01*
X141410813Y-104096962D02*
X141506051Y-104096962D01*
X141506051Y-104096962D02*
X141601289Y-104144581D01*
X141601289Y-104144581D02*
X141648908Y-104192200D01*
X141648908Y-104192200D02*
X141696527Y-104287438D01*
X141696527Y-104287438D02*
X141744146Y-104477914D01*
X141744146Y-104477914D02*
X141791765Y-104573152D01*
X141791765Y-104573152D02*
X141839384Y-104620771D01*
X141839384Y-104620771D02*
X141934622Y-104668390D01*
X141934622Y-104668390D02*
X142029860Y-104668390D01*
X142029860Y-104668390D02*
X142125098Y-104620771D01*
X142125098Y-104620771D02*
X142172717Y-104573152D01*
X142172717Y-104573152D02*
X142220336Y-104477914D01*
X142220336Y-104477914D02*
X142220336Y-104239819D01*
X142220336Y-104239819D02*
X142172717Y-104096962D01*
X141220336Y-103668390D02*
X142220336Y-103668390D01*
X141904104Y-74979663D02*
X141570771Y-75979663D01*
X141570771Y-75979663D02*
X141237438Y-74979663D01*
X140951723Y-75074901D02*
X140904104Y-75027282D01*
X140904104Y-75027282D02*
X140808866Y-74979663D01*
X140808866Y-74979663D02*
X140570771Y-74979663D01*
X140570771Y-74979663D02*
X140475533Y-75027282D01*
X140475533Y-75027282D02*
X140427914Y-75074901D01*
X140427914Y-75074901D02*
X140380295Y-75170139D01*
X140380295Y-75170139D02*
X140380295Y-75265377D01*
X140380295Y-75265377D02*
X140427914Y-75408234D01*
X140427914Y-75408234D02*
X140999342Y-75979663D01*
X140999342Y-75979663D02*
X140380295Y-75979663D01*
X139951723Y-75884424D02*
X139904104Y-75932044D01*
X139904104Y-75932044D02*
X139951723Y-75979663D01*
X139951723Y-75979663D02*
X139999342Y-75932044D01*
X139999342Y-75932044D02*
X139951723Y-75884424D01*
X139951723Y-75884424D02*
X139951723Y-75979663D01*
X139285057Y-74979663D02*
X139189819Y-74979663D01*
X139189819Y-74979663D02*
X139094581Y-75027282D01*
X139094581Y-75027282D02*
X139046962Y-75074901D01*
X139046962Y-75074901D02*
X138999343Y-75170139D01*
X138999343Y-75170139D02*
X138951724Y-75360615D01*
X138951724Y-75360615D02*
X138951724Y-75598710D01*
X138951724Y-75598710D02*
X138999343Y-75789186D01*
X138999343Y-75789186D02*
X139046962Y-75884424D01*
X139046962Y-75884424D02*
X139094581Y-75932044D01*
X139094581Y-75932044D02*
X139189819Y-75979663D01*
X139189819Y-75979663D02*
X139285057Y-75979663D01*
X139285057Y-75979663D02*
X139380295Y-75932044D01*
X139380295Y-75932044D02*
X139427914Y-75884424D01*
X139427914Y-75884424D02*
X139475533Y-75789186D01*
X139475533Y-75789186D02*
X139523152Y-75598710D01*
X139523152Y-75598710D02*
X139523152Y-75360615D01*
X139523152Y-75360615D02*
X139475533Y-75170139D01*
X139475533Y-75170139D02*
X139427914Y-75074901D01*
X139427914Y-75074901D02*
X139380295Y-75027282D01*
X139380295Y-75027282D02*
X139285057Y-74979663D01*
X145358866Y-72214901D02*
X145311247Y-72167282D01*
X145311247Y-72167282D02*
X145216009Y-72119663D01*
X145216009Y-72119663D02*
X144977914Y-72119663D01*
X144977914Y-72119663D02*
X144882676Y-72167282D01*
X144882676Y-72167282D02*
X144835057Y-72214901D01*
X144835057Y-72214901D02*
X144787438Y-72310139D01*
X144787438Y-72310139D02*
X144787438Y-72405377D01*
X144787438Y-72405377D02*
X144835057Y-72548234D01*
X144835057Y-72548234D02*
X145406485Y-73119663D01*
X145406485Y-73119663D02*
X144787438Y-73119663D01*
X143882676Y-72119663D02*
X144358866Y-72119663D01*
X144358866Y-72119663D02*
X144406485Y-72595853D01*
X144406485Y-72595853D02*
X144358866Y-72548234D01*
X144358866Y-72548234D02*
X144263628Y-72500615D01*
X144263628Y-72500615D02*
X144025533Y-72500615D01*
X144025533Y-72500615D02*
X143930295Y-72548234D01*
X143930295Y-72548234D02*
X143882676Y-72595853D01*
X143882676Y-72595853D02*
X143835057Y-72691091D01*
X143835057Y-72691091D02*
X143835057Y-72929186D01*
X143835057Y-72929186D02*
X143882676Y-73024424D01*
X143882676Y-73024424D02*
X143930295Y-73072044D01*
X143930295Y-73072044D02*
X144025533Y-73119663D01*
X144025533Y-73119663D02*
X144263628Y-73119663D01*
X144263628Y-73119663D02*
X144358866Y-73072044D01*
X144358866Y-73072044D02*
X144406485Y-73024424D01*
X142692200Y-72072044D02*
X143549342Y-73357758D01*
X142168390Y-72119663D02*
X142073152Y-72119663D01*
X142073152Y-72119663D02*
X141977914Y-72167282D01*
X141977914Y-72167282D02*
X141930295Y-72214901D01*
X141930295Y-72214901D02*
X141882676Y-72310139D01*
X141882676Y-72310139D02*
X141835057Y-72500615D01*
X141835057Y-72500615D02*
X141835057Y-72738710D01*
X141835057Y-72738710D02*
X141882676Y-72929186D01*
X141882676Y-72929186D02*
X141930295Y-73024424D01*
X141930295Y-73024424D02*
X141977914Y-73072044D01*
X141977914Y-73072044D02*
X142073152Y-73119663D01*
X142073152Y-73119663D02*
X142168390Y-73119663D01*
X142168390Y-73119663D02*
X142263628Y-73072044D01*
X142263628Y-73072044D02*
X142311247Y-73024424D01*
X142311247Y-73024424D02*
X142358866Y-72929186D01*
X142358866Y-72929186D02*
X142406485Y-72738710D01*
X142406485Y-72738710D02*
X142406485Y-72500615D01*
X142406485Y-72500615D02*
X142358866Y-72310139D01*
X142358866Y-72310139D02*
X142311247Y-72214901D01*
X142311247Y-72214901D02*
X142263628Y-72167282D01*
X142263628Y-72167282D02*
X142168390Y-72119663D01*
X141454104Y-72214901D02*
X141406485Y-72167282D01*
X141406485Y-72167282D02*
X141311247Y-72119663D01*
X141311247Y-72119663D02*
X141073152Y-72119663D01*
X141073152Y-72119663D02*
X140977914Y-72167282D01*
X140977914Y-72167282D02*
X140930295Y-72214901D01*
X140930295Y-72214901D02*
X140882676Y-72310139D01*
X140882676Y-72310139D02*
X140882676Y-72405377D01*
X140882676Y-72405377D02*
X140930295Y-72548234D01*
X140930295Y-72548234D02*
X141501723Y-73119663D01*
X141501723Y-73119663D02*
X140882676Y-73119663D01*
X139739819Y-72072044D02*
X140596961Y-73357758D01*
X139454104Y-72214901D02*
X139406485Y-72167282D01*
X139406485Y-72167282D02*
X139311247Y-72119663D01*
X139311247Y-72119663D02*
X139073152Y-72119663D01*
X139073152Y-72119663D02*
X138977914Y-72167282D01*
X138977914Y-72167282D02*
X138930295Y-72214901D01*
X138930295Y-72214901D02*
X138882676Y-72310139D01*
X138882676Y-72310139D02*
X138882676Y-72405377D01*
X138882676Y-72405377D02*
X138930295Y-72548234D01*
X138930295Y-72548234D02*
X139501723Y-73119663D01*
X139501723Y-73119663D02*
X138882676Y-73119663D01*
X138263628Y-72119663D02*
X138168390Y-72119663D01*
X138168390Y-72119663D02*
X138073152Y-72167282D01*
X138073152Y-72167282D02*
X138025533Y-72214901D01*
X138025533Y-72214901D02*
X137977914Y-72310139D01*
X137977914Y-72310139D02*
X137930295Y-72500615D01*
X137930295Y-72500615D02*
X137930295Y-72738710D01*
X137930295Y-72738710D02*
X137977914Y-72929186D01*
X137977914Y-72929186D02*
X138025533Y-73024424D01*
X138025533Y-73024424D02*
X138073152Y-73072044D01*
X138073152Y-73072044D02*
X138168390Y-73119663D01*
X138168390Y-73119663D02*
X138263628Y-73119663D01*
X138263628Y-73119663D02*
X138358866Y-73072044D01*
X138358866Y-73072044D02*
X138406485Y-73024424D01*
X138406485Y-73024424D02*
X138454104Y-72929186D01*
X138454104Y-72929186D02*
X138501723Y-72738710D01*
X138501723Y-72738710D02*
X138501723Y-72500615D01*
X138501723Y-72500615D02*
X138454104Y-72310139D01*
X138454104Y-72310139D02*
X138406485Y-72214901D01*
X138406485Y-72214901D02*
X138358866Y-72167282D01*
X138358866Y-72167282D02*
X138263628Y-72119663D01*
X137549342Y-72214901D02*
X137501723Y-72167282D01*
X137501723Y-72167282D02*
X137406485Y-72119663D01*
X137406485Y-72119663D02*
X137168390Y-72119663D01*
X137168390Y-72119663D02*
X137073152Y-72167282D01*
X137073152Y-72167282D02*
X137025533Y-72214901D01*
X137025533Y-72214901D02*
X136977914Y-72310139D01*
X136977914Y-72310139D02*
X136977914Y-72405377D01*
X136977914Y-72405377D02*
X137025533Y-72548234D01*
X137025533Y-72548234D02*
X137596961Y-73119663D01*
X137596961Y-73119663D02*
X136977914Y-73119663D01*
X136120771Y-72452996D02*
X136120771Y-73119663D01*
X136358866Y-72072044D02*
X136596961Y-72786329D01*
X136596961Y-72786329D02*
X135977914Y-72786329D01*
X152132717Y-106097438D02*
X152180336Y-106192676D01*
X152180336Y-106192676D02*
X152180336Y-106335533D01*
X152180336Y-106335533D02*
X152132717Y-106478390D01*
X152132717Y-106478390D02*
X152037479Y-106573628D01*
X152037479Y-106573628D02*
X151942241Y-106621247D01*
X151942241Y-106621247D02*
X151751765Y-106668866D01*
X151751765Y-106668866D02*
X151608908Y-106668866D01*
X151608908Y-106668866D02*
X151418432Y-106621247D01*
X151418432Y-106621247D02*
X151323194Y-106573628D01*
X151323194Y-106573628D02*
X151227956Y-106478390D01*
X151227956Y-106478390D02*
X151180336Y-106335533D01*
X151180336Y-106335533D02*
X151180336Y-106240295D01*
X151180336Y-106240295D02*
X151227956Y-106097438D01*
X151227956Y-106097438D02*
X151275575Y-106049819D01*
X151275575Y-106049819D02*
X151608908Y-106049819D01*
X151608908Y-106049819D02*
X151608908Y-106240295D01*
X151180336Y-105621247D02*
X152180336Y-105621247D01*
X152180336Y-105621247D02*
X151180336Y-105049819D01*
X151180336Y-105049819D02*
X152180336Y-105049819D01*
X151180336Y-104573628D02*
X152180336Y-104573628D01*
X152180336Y-104573628D02*
X152180336Y-104335533D01*
X152180336Y-104335533D02*
X152132717Y-104192676D01*
X152132717Y-104192676D02*
X152037479Y-104097438D01*
X152037479Y-104097438D02*
X151942241Y-104049819D01*
X151942241Y-104049819D02*
X151751765Y-104002200D01*
X151751765Y-104002200D02*
X151608908Y-104002200D01*
X151608908Y-104002200D02*
X151418432Y-104049819D01*
X151418432Y-104049819D02*
X151323194Y-104097438D01*
X151323194Y-104097438D02*
X151227956Y-104192676D01*
X151227956Y-104192676D02*
X151180336Y-104335533D01*
X151180336Y-104335533D02*
X151180336Y-104573628D01*
X139120336Y-106861247D02*
X140120336Y-106861247D01*
X140120336Y-106861247D02*
X140120336Y-106480295D01*
X140120336Y-106480295D02*
X140072717Y-106385057D01*
X140072717Y-106385057D02*
X140025098Y-106337438D01*
X140025098Y-106337438D02*
X139929860Y-106289819D01*
X139929860Y-106289819D02*
X139787003Y-106289819D01*
X139787003Y-106289819D02*
X139691765Y-106337438D01*
X139691765Y-106337438D02*
X139644146Y-106385057D01*
X139644146Y-106385057D02*
X139596527Y-106480295D01*
X139596527Y-106480295D02*
X139596527Y-106861247D01*
X139120336Y-105861247D02*
X140120336Y-105861247D01*
X140120336Y-105861247D02*
X140120336Y-105623152D01*
X140120336Y-105623152D02*
X140072717Y-105480295D01*
X140072717Y-105480295D02*
X139977479Y-105385057D01*
X139977479Y-105385057D02*
X139882241Y-105337438D01*
X139882241Y-105337438D02*
X139691765Y-105289819D01*
X139691765Y-105289819D02*
X139548908Y-105289819D01*
X139548908Y-105289819D02*
X139358432Y-105337438D01*
X139358432Y-105337438D02*
X139263194Y-105385057D01*
X139263194Y-105385057D02*
X139167956Y-105480295D01*
X139167956Y-105480295D02*
X139120336Y-105623152D01*
X139120336Y-105623152D02*
X139120336Y-105861247D01*
X140120336Y-104670771D02*
X140120336Y-104480295D01*
X140120336Y-104480295D02*
X140072717Y-104385057D01*
X140072717Y-104385057D02*
X139977479Y-104289819D01*
X139977479Y-104289819D02*
X139787003Y-104242200D01*
X139787003Y-104242200D02*
X139453670Y-104242200D01*
X139453670Y-104242200D02*
X139263194Y-104289819D01*
X139263194Y-104289819D02*
X139167956Y-104385057D01*
X139167956Y-104385057D02*
X139120336Y-104480295D01*
X139120336Y-104480295D02*
X139120336Y-104670771D01*
X139120336Y-104670771D02*
X139167956Y-104766009D01*
X139167956Y-104766009D02*
X139263194Y-104861247D01*
X139263194Y-104861247D02*
X139453670Y-104908866D01*
X139453670Y-104908866D02*
X139787003Y-104908866D01*
X139787003Y-104908866D02*
X139977479Y-104861247D01*
X139977479Y-104861247D02*
X140072717Y-104766009D01*
X140072717Y-104766009D02*
X140120336Y-104670771D01*
X140120336Y-103908866D02*
X139120336Y-103670771D01*
X139120336Y-103670771D02*
X139834622Y-103480295D01*
X139834622Y-103480295D02*
X139120336Y-103289819D01*
X139120336Y-103289819D02*
X140120336Y-103051724D01*
X139120336Y-102670771D02*
X140120336Y-102670771D01*
X140120336Y-102670771D02*
X139120336Y-102099343D01*
X139120336Y-102099343D02*
X140120336Y-102099343D01*
X148991247Y-70389663D02*
X148991247Y-69389663D01*
X148991247Y-69389663D02*
X148610295Y-69389663D01*
X148610295Y-69389663D02*
X148515057Y-69437282D01*
X148515057Y-69437282D02*
X148467438Y-69484901D01*
X148467438Y-69484901D02*
X148419819Y-69580139D01*
X148419819Y-69580139D02*
X148419819Y-69722996D01*
X148419819Y-69722996D02*
X148467438Y-69818234D01*
X148467438Y-69818234D02*
X148515057Y-69865853D01*
X148515057Y-69865853D02*
X148610295Y-69913472D01*
X148610295Y-69913472D02*
X148991247Y-69913472D01*
X147610295Y-70342044D02*
X147705533Y-70389663D01*
X147705533Y-70389663D02*
X147896009Y-70389663D01*
X147896009Y-70389663D02*
X147991247Y-70342044D01*
X147991247Y-70342044D02*
X148038866Y-70246805D01*
X148038866Y-70246805D02*
X148038866Y-69865853D01*
X148038866Y-69865853D02*
X147991247Y-69770615D01*
X147991247Y-69770615D02*
X147896009Y-69722996D01*
X147896009Y-69722996D02*
X147705533Y-69722996D01*
X147705533Y-69722996D02*
X147610295Y-69770615D01*
X147610295Y-69770615D02*
X147562676Y-69865853D01*
X147562676Y-69865853D02*
X147562676Y-69961091D01*
X147562676Y-69961091D02*
X148038866Y-70056329D01*
X146705533Y-70389663D02*
X146705533Y-69389663D01*
X146705533Y-70342044D02*
X146800771Y-70389663D01*
X146800771Y-70389663D02*
X146991247Y-70389663D01*
X146991247Y-70389663D02*
X147086485Y-70342044D01*
X147086485Y-70342044D02*
X147134104Y-70294424D01*
X147134104Y-70294424D02*
X147181723Y-70199186D01*
X147181723Y-70199186D02*
X147181723Y-69913472D01*
X147181723Y-69913472D02*
X147134104Y-69818234D01*
X147134104Y-69818234D02*
X147086485Y-69770615D01*
X147086485Y-69770615D02*
X146991247Y-69722996D01*
X146991247Y-69722996D02*
X146800771Y-69722996D01*
X146800771Y-69722996D02*
X146705533Y-69770615D01*
X146229342Y-70389663D02*
X146229342Y-69722996D01*
X146229342Y-69913472D02*
X146181723Y-69818234D01*
X146181723Y-69818234D02*
X146134104Y-69770615D01*
X146134104Y-69770615D02*
X146038866Y-69722996D01*
X146038866Y-69722996D02*
X145943628Y-69722996D01*
X145467437Y-70389663D02*
X145562675Y-70342044D01*
X145562675Y-70342044D02*
X145610294Y-70294424D01*
X145610294Y-70294424D02*
X145657913Y-70199186D01*
X145657913Y-70199186D02*
X145657913Y-69913472D01*
X145657913Y-69913472D02*
X145610294Y-69818234D01*
X145610294Y-69818234D02*
X145562675Y-69770615D01*
X145562675Y-69770615D02*
X145467437Y-69722996D01*
X145467437Y-69722996D02*
X145324580Y-69722996D01*
X145324580Y-69722996D02*
X145229342Y-69770615D01*
X145229342Y-69770615D02*
X145181723Y-69818234D01*
X145181723Y-69818234D02*
X145134104Y-69913472D01*
X145134104Y-69913472D02*
X145134104Y-70199186D01*
X145134104Y-70199186D02*
X145181723Y-70294424D01*
X145181723Y-70294424D02*
X145229342Y-70342044D01*
X145229342Y-70342044D02*
X145324580Y-70389663D01*
X145324580Y-70389663D02*
X145467437Y-70389663D01*
X144086484Y-69389663D02*
X143515056Y-69389663D01*
X143800770Y-70389663D02*
X143800770Y-69389663D01*
X143181722Y-70389663D02*
X143181722Y-69722996D01*
X143181722Y-69913472D02*
X143134103Y-69818234D01*
X143134103Y-69818234D02*
X143086484Y-69770615D01*
X143086484Y-69770615D02*
X142991246Y-69722996D01*
X142991246Y-69722996D02*
X142896008Y-69722996D01*
X142181722Y-70342044D02*
X142276960Y-70389663D01*
X142276960Y-70389663D02*
X142467436Y-70389663D01*
X142467436Y-70389663D02*
X142562674Y-70342044D01*
X142562674Y-70342044D02*
X142610293Y-70246805D01*
X142610293Y-70246805D02*
X142610293Y-69865853D01*
X142610293Y-69865853D02*
X142562674Y-69770615D01*
X142562674Y-69770615D02*
X142467436Y-69722996D01*
X142467436Y-69722996D02*
X142276960Y-69722996D01*
X142276960Y-69722996D02*
X142181722Y-69770615D01*
X142181722Y-69770615D02*
X142134103Y-69865853D01*
X142134103Y-69865853D02*
X142134103Y-69961091D01*
X142134103Y-69961091D02*
X142610293Y-70056329D01*
X141705531Y-69722996D02*
X141705531Y-70389663D01*
X141705531Y-69818234D02*
X141657912Y-69770615D01*
X141657912Y-69770615D02*
X141562674Y-69722996D01*
X141562674Y-69722996D02*
X141419817Y-69722996D01*
X141419817Y-69722996D02*
X141324579Y-69770615D01*
X141324579Y-69770615D02*
X141276960Y-69865853D01*
X141276960Y-69865853D02*
X141276960Y-70389663D01*
X140372198Y-70389663D02*
X140372198Y-69865853D01*
X140372198Y-69865853D02*
X140419817Y-69770615D01*
X140419817Y-69770615D02*
X140515055Y-69722996D01*
X140515055Y-69722996D02*
X140705531Y-69722996D01*
X140705531Y-69722996D02*
X140800769Y-69770615D01*
X140372198Y-70342044D02*
X140467436Y-70389663D01*
X140467436Y-70389663D02*
X140705531Y-70389663D01*
X140705531Y-70389663D02*
X140800769Y-70342044D01*
X140800769Y-70342044D02*
X140848388Y-70246805D01*
X140848388Y-70246805D02*
X140848388Y-70151567D01*
X140848388Y-70151567D02*
X140800769Y-70056329D01*
X140800769Y-70056329D02*
X140705531Y-70008710D01*
X140705531Y-70008710D02*
X140467436Y-70008710D01*
X140467436Y-70008710D02*
X140372198Y-69961091D01*
X139467436Y-70389663D02*
X139467436Y-69389663D01*
X139467436Y-70342044D02*
X139562674Y-70389663D01*
X139562674Y-70389663D02*
X139753150Y-70389663D01*
X139753150Y-70389663D02*
X139848388Y-70342044D01*
X139848388Y-70342044D02*
X139896007Y-70294424D01*
X139896007Y-70294424D02*
X139943626Y-70199186D01*
X139943626Y-70199186D02*
X139943626Y-69913472D01*
X139943626Y-69913472D02*
X139896007Y-69818234D01*
X139896007Y-69818234D02*
X139848388Y-69770615D01*
X139848388Y-69770615D02*
X139753150Y-69722996D01*
X139753150Y-69722996D02*
X139562674Y-69722996D01*
X139562674Y-69722996D02*
X139467436Y-69770615D01*
X138848388Y-70389663D02*
X138943626Y-70342044D01*
X138943626Y-70342044D02*
X138991245Y-70294424D01*
X138991245Y-70294424D02*
X139038864Y-70199186D01*
X139038864Y-70199186D02*
X139038864Y-69913472D01*
X139038864Y-69913472D02*
X138991245Y-69818234D01*
X138991245Y-69818234D02*
X138943626Y-69770615D01*
X138943626Y-69770615D02*
X138848388Y-69722996D01*
X138848388Y-69722996D02*
X138705531Y-69722996D01*
X138705531Y-69722996D02*
X138610293Y-69770615D01*
X138610293Y-69770615D02*
X138562674Y-69818234D01*
X138562674Y-69818234D02*
X138515055Y-69913472D01*
X138515055Y-69913472D02*
X138515055Y-70199186D01*
X138515055Y-70199186D02*
X138562674Y-70294424D01*
X138562674Y-70294424D02*
X138610293Y-70342044D01*
X138610293Y-70342044D02*
X138705531Y-70389663D01*
X138705531Y-70389663D02*
X138848388Y-70389663D01*
X136991245Y-69865853D02*
X137324578Y-69865853D01*
X137324578Y-70389663D02*
X137324578Y-69389663D01*
X137324578Y-69389663D02*
X136848388Y-69389663D01*
X136467435Y-70389663D02*
X136467435Y-69722996D01*
X136467435Y-69389663D02*
X136515054Y-69437282D01*
X136515054Y-69437282D02*
X136467435Y-69484901D01*
X136467435Y-69484901D02*
X136419816Y-69437282D01*
X136419816Y-69437282D02*
X136467435Y-69389663D01*
X136467435Y-69389663D02*
X136467435Y-69484901D01*
X135562674Y-69722996D02*
X135562674Y-70532520D01*
X135562674Y-70532520D02*
X135610293Y-70627758D01*
X135610293Y-70627758D02*
X135657912Y-70675377D01*
X135657912Y-70675377D02*
X135753150Y-70722996D01*
X135753150Y-70722996D02*
X135896007Y-70722996D01*
X135896007Y-70722996D02*
X135991245Y-70675377D01*
X135562674Y-70342044D02*
X135657912Y-70389663D01*
X135657912Y-70389663D02*
X135848388Y-70389663D01*
X135848388Y-70389663D02*
X135943626Y-70342044D01*
X135943626Y-70342044D02*
X135991245Y-70294424D01*
X135991245Y-70294424D02*
X136038864Y-70199186D01*
X136038864Y-70199186D02*
X136038864Y-69913472D01*
X136038864Y-69913472D02*
X135991245Y-69818234D01*
X135991245Y-69818234D02*
X135943626Y-69770615D01*
X135943626Y-69770615D02*
X135848388Y-69722996D01*
X135848388Y-69722996D02*
X135657912Y-69722996D01*
X135657912Y-69722996D02*
X135562674Y-69770615D01*
X134657912Y-69722996D02*
X134657912Y-70389663D01*
X135086483Y-69722996D02*
X135086483Y-70246805D01*
X135086483Y-70246805D02*
X135038864Y-70342044D01*
X135038864Y-70342044D02*
X134943626Y-70389663D01*
X134943626Y-70389663D02*
X134800769Y-70389663D01*
X134800769Y-70389663D02*
X134705531Y-70342044D01*
X134705531Y-70342044D02*
X134657912Y-70294424D01*
X133800769Y-70342044D02*
X133896007Y-70389663D01*
X133896007Y-70389663D02*
X134086483Y-70389663D01*
X134086483Y-70389663D02*
X134181721Y-70342044D01*
X134181721Y-70342044D02*
X134229340Y-70246805D01*
X134229340Y-70246805D02*
X134229340Y-69865853D01*
X134229340Y-69865853D02*
X134181721Y-69770615D01*
X134181721Y-69770615D02*
X134086483Y-69722996D01*
X134086483Y-69722996D02*
X133896007Y-69722996D01*
X133896007Y-69722996D02*
X133800769Y-69770615D01*
X133800769Y-69770615D02*
X133753150Y-69865853D01*
X133753150Y-69865853D02*
X133753150Y-69961091D01*
X133753150Y-69961091D02*
X134229340Y-70056329D01*
X133324578Y-70389663D02*
X133324578Y-69722996D01*
X133324578Y-69913472D02*
X133276959Y-69818234D01*
X133276959Y-69818234D02*
X133229340Y-69770615D01*
X133229340Y-69770615D02*
X133134102Y-69722996D01*
X133134102Y-69722996D02*
X133038864Y-69722996D01*
X132562673Y-70389663D02*
X132657911Y-70342044D01*
X132657911Y-70342044D02*
X132705530Y-70294424D01*
X132705530Y-70294424D02*
X132753149Y-70199186D01*
X132753149Y-70199186D02*
X132753149Y-69913472D01*
X132753149Y-69913472D02*
X132705530Y-69818234D01*
X132705530Y-69818234D02*
X132657911Y-69770615D01*
X132657911Y-69770615D02*
X132562673Y-69722996D01*
X132562673Y-69722996D02*
X132419816Y-69722996D01*
X132419816Y-69722996D02*
X132324578Y-69770615D01*
X132324578Y-69770615D02*
X132276959Y-69818234D01*
X132276959Y-69818234D02*
X132229340Y-69913472D01*
X132229340Y-69913472D02*
X132229340Y-70199186D01*
X132229340Y-70199186D02*
X132276959Y-70294424D01*
X132276959Y-70294424D02*
X132324578Y-70342044D01*
X132324578Y-70342044D02*
X132419816Y-70389663D01*
X132419816Y-70389663D02*
X132562673Y-70389663D01*
X131372197Y-70389663D02*
X131372197Y-69865853D01*
X131372197Y-69865853D02*
X131419816Y-69770615D01*
X131419816Y-69770615D02*
X131515054Y-69722996D01*
X131515054Y-69722996D02*
X131705530Y-69722996D01*
X131705530Y-69722996D02*
X131800768Y-69770615D01*
X131372197Y-70342044D02*
X131467435Y-70389663D01*
X131467435Y-70389663D02*
X131705530Y-70389663D01*
X131705530Y-70389663D02*
X131800768Y-70342044D01*
X131800768Y-70342044D02*
X131848387Y-70246805D01*
X131848387Y-70246805D02*
X131848387Y-70151567D01*
X131848387Y-70151567D02*
X131800768Y-70056329D01*
X131800768Y-70056329D02*
X131705530Y-70008710D01*
X131705530Y-70008710D02*
X131467435Y-70008710D01*
X131467435Y-70008710D02*
X131372197Y-69961091D01*
X147090336Y-106831247D02*
X148090336Y-106831247D01*
X148090336Y-106831247D02*
X147090336Y-106259819D01*
X147090336Y-106259819D02*
X148090336Y-106259819D01*
X147137956Y-105831247D02*
X147090336Y-105688390D01*
X147090336Y-105688390D02*
X147090336Y-105450295D01*
X147090336Y-105450295D02*
X147137956Y-105355057D01*
X147137956Y-105355057D02*
X147185575Y-105307438D01*
X147185575Y-105307438D02*
X147280813Y-105259819D01*
X147280813Y-105259819D02*
X147376051Y-105259819D01*
X147376051Y-105259819D02*
X147471289Y-105307438D01*
X147471289Y-105307438D02*
X147518908Y-105355057D01*
X147518908Y-105355057D02*
X147566527Y-105450295D01*
X147566527Y-105450295D02*
X147614146Y-105640771D01*
X147614146Y-105640771D02*
X147661765Y-105736009D01*
X147661765Y-105736009D02*
X147709384Y-105783628D01*
X147709384Y-105783628D02*
X147804622Y-105831247D01*
X147804622Y-105831247D02*
X147899860Y-105831247D01*
X147899860Y-105831247D02*
X147995098Y-105783628D01*
X147995098Y-105783628D02*
X148042717Y-105736009D01*
X148042717Y-105736009D02*
X148090336Y-105640771D01*
X148090336Y-105640771D02*
X148090336Y-105402676D01*
X148090336Y-105402676D02*
X148042717Y-105259819D01*
X147137956Y-104878866D02*
X147090336Y-104736009D01*
X147090336Y-104736009D02*
X147090336Y-104497914D01*
X147090336Y-104497914D02*
X147137956Y-104402676D01*
X147137956Y-104402676D02*
X147185575Y-104355057D01*
X147185575Y-104355057D02*
X147280813Y-104307438D01*
X147280813Y-104307438D02*
X147376051Y-104307438D01*
X147376051Y-104307438D02*
X147471289Y-104355057D01*
X147471289Y-104355057D02*
X147518908Y-104402676D01*
X147518908Y-104402676D02*
X147566527Y-104497914D01*
X147566527Y-104497914D02*
X147614146Y-104688390D01*
X147614146Y-104688390D02*
X147661765Y-104783628D01*
X147661765Y-104783628D02*
X147709384Y-104831247D01*
X147709384Y-104831247D02*
X147804622Y-104878866D01*
X147804622Y-104878866D02*
X147899860Y-104878866D01*
X147899860Y-104878866D02*
X147995098Y-104831247D01*
X147995098Y-104831247D02*
X148042717Y-104783628D01*
X148042717Y-104783628D02*
X148090336Y-104688390D01*
X148090336Y-104688390D02*
X148090336Y-104450295D01*
X148090336Y-104450295D02*
X148042717Y-104307438D01*
X143257956Y-106828866D02*
X143210336Y-106686009D01*
X143210336Y-106686009D02*
X143210336Y-106447914D01*
X143210336Y-106447914D02*
X143257956Y-106352676D01*
X143257956Y-106352676D02*
X143305575Y-106305057D01*
X143305575Y-106305057D02*
X143400813Y-106257438D01*
X143400813Y-106257438D02*
X143496051Y-106257438D01*
X143496051Y-106257438D02*
X143591289Y-106305057D01*
X143591289Y-106305057D02*
X143638908Y-106352676D01*
X143638908Y-106352676D02*
X143686527Y-106447914D01*
X143686527Y-106447914D02*
X143734146Y-106638390D01*
X143734146Y-106638390D02*
X143781765Y-106733628D01*
X143781765Y-106733628D02*
X143829384Y-106781247D01*
X143829384Y-106781247D02*
X143924622Y-106828866D01*
X143924622Y-106828866D02*
X144019860Y-106828866D01*
X144019860Y-106828866D02*
X144115098Y-106781247D01*
X144115098Y-106781247D02*
X144162717Y-106733628D01*
X144162717Y-106733628D02*
X144210336Y-106638390D01*
X144210336Y-106638390D02*
X144210336Y-106400295D01*
X144210336Y-106400295D02*
X144162717Y-106257438D01*
X143305575Y-105257438D02*
X143257956Y-105305057D01*
X143257956Y-105305057D02*
X143210336Y-105447914D01*
X143210336Y-105447914D02*
X143210336Y-105543152D01*
X143210336Y-105543152D02*
X143257956Y-105686009D01*
X143257956Y-105686009D02*
X143353194Y-105781247D01*
X143353194Y-105781247D02*
X143448432Y-105828866D01*
X143448432Y-105828866D02*
X143638908Y-105876485D01*
X143638908Y-105876485D02*
X143781765Y-105876485D01*
X143781765Y-105876485D02*
X143972241Y-105828866D01*
X143972241Y-105828866D02*
X144067479Y-105781247D01*
X144067479Y-105781247D02*
X144162717Y-105686009D01*
X144162717Y-105686009D02*
X144210336Y-105543152D01*
X144210336Y-105543152D02*
X144210336Y-105447914D01*
X144210336Y-105447914D02*
X144162717Y-105305057D01*
X144162717Y-105305057D02*
X144115098Y-105257438D01*
X143210336Y-104828866D02*
X144210336Y-104828866D01*
X143210336Y-104257438D02*
X143781765Y-104686009D01*
X144210336Y-104257438D02*
X143638908Y-104828866D01*
X149190336Y-106811247D02*
X150190336Y-106811247D01*
X149190336Y-105763629D02*
X149666527Y-106096962D01*
X149190336Y-106335057D02*
X150190336Y-106335057D01*
X150190336Y-106335057D02*
X150190336Y-105954105D01*
X150190336Y-105954105D02*
X150142717Y-105858867D01*
X150142717Y-105858867D02*
X150095098Y-105811248D01*
X150095098Y-105811248D02*
X149999860Y-105763629D01*
X149999860Y-105763629D02*
X149857003Y-105763629D01*
X149857003Y-105763629D02*
X149761765Y-105811248D01*
X149761765Y-105811248D02*
X149714146Y-105858867D01*
X149714146Y-105858867D02*
X149666527Y-105954105D01*
X149666527Y-105954105D02*
X149666527Y-106335057D01*
X149095098Y-104668391D02*
X149142717Y-104763629D01*
X149142717Y-104763629D02*
X149237956Y-104858867D01*
X149237956Y-104858867D02*
X149380813Y-105001724D01*
X149380813Y-105001724D02*
X149428432Y-105096962D01*
X149428432Y-105096962D02*
X149428432Y-105192200D01*
X149190336Y-105144581D02*
X149237956Y-105239819D01*
X149237956Y-105239819D02*
X149333194Y-105335057D01*
X149333194Y-105335057D02*
X149523670Y-105382676D01*
X149523670Y-105382676D02*
X149857003Y-105382676D01*
X149857003Y-105382676D02*
X150047479Y-105335057D01*
X150047479Y-105335057D02*
X150142717Y-105239819D01*
X150142717Y-105239819D02*
X150190336Y-105144581D01*
X150190336Y-105144581D02*
X150190336Y-104954105D01*
X150190336Y-104954105D02*
X150142717Y-104858867D01*
X150142717Y-104858867D02*
X150047479Y-104763629D01*
X150047479Y-104763629D02*
X149857003Y-104716010D01*
X149857003Y-104716010D02*
X149523670Y-104716010D01*
X149523670Y-104716010D02*
X149333194Y-104763629D01*
X149333194Y-104763629D02*
X149237956Y-104858867D01*
X149237956Y-104858867D02*
X149190336Y-104954105D01*
X149190336Y-104954105D02*
X149190336Y-105144581D01*
X145180336Y-106831247D02*
X146180336Y-106831247D01*
X146180336Y-106831247D02*
X145466051Y-106497914D01*
X145466051Y-106497914D02*
X146180336Y-106164581D01*
X146180336Y-106164581D02*
X145180336Y-106164581D01*
X145180336Y-105688390D02*
X146180336Y-105688390D01*
X145227956Y-105259819D02*
X145180336Y-105116962D01*
X145180336Y-105116962D02*
X145180336Y-104878867D01*
X145180336Y-104878867D02*
X145227956Y-104783629D01*
X145227956Y-104783629D02*
X145275575Y-104736010D01*
X145275575Y-104736010D02*
X145370813Y-104688391D01*
X145370813Y-104688391D02*
X145466051Y-104688391D01*
X145466051Y-104688391D02*
X145561289Y-104736010D01*
X145561289Y-104736010D02*
X145608908Y-104783629D01*
X145608908Y-104783629D02*
X145656527Y-104878867D01*
X145656527Y-104878867D02*
X145704146Y-105069343D01*
X145704146Y-105069343D02*
X145751765Y-105164581D01*
X145751765Y-105164581D02*
X145799384Y-105212200D01*
X145799384Y-105212200D02*
X145894622Y-105259819D01*
X145894622Y-105259819D02*
X145989860Y-105259819D01*
X145989860Y-105259819D02*
X146085098Y-105212200D01*
X146085098Y-105212200D02*
X146132717Y-105164581D01*
X146132717Y-105164581D02*
X146180336Y-105069343D01*
X146180336Y-105069343D02*
X146180336Y-104831248D01*
X146180336Y-104831248D02*
X146132717Y-104688391D01*
X146180336Y-104069343D02*
X146180336Y-103878867D01*
X146180336Y-103878867D02*
X146132717Y-103783629D01*
X146132717Y-103783629D02*
X146037479Y-103688391D01*
X146037479Y-103688391D02*
X145847003Y-103640772D01*
X145847003Y-103640772D02*
X145513670Y-103640772D01*
X145513670Y-103640772D02*
X145323194Y-103688391D01*
X145323194Y-103688391D02*
X145227956Y-103783629D01*
X145227956Y-103783629D02*
X145180336Y-103878867D01*
X145180336Y-103878867D02*
X145180336Y-104069343D01*
X145180336Y-104069343D02*
X145227956Y-104164581D01*
X145227956Y-104164581D02*
X145323194Y-104259819D01*
X145323194Y-104259819D02*
X145513670Y-104307438D01*
X145513670Y-104307438D02*
X145847003Y-104307438D01*
X145847003Y-104307438D02*
X146037479Y-104259819D01*
X146037479Y-104259819D02*
X146132717Y-104164581D01*
X146132717Y-104164581D02*
X146180336Y-104069343D01*
%LPC*%
D11*
X124080000Y-58640000D03*
X156120000Y-58640000D03*
D12*
X128530000Y-103060000D03*
D13*
X130530000Y-103060000D03*
D11*
X124060000Y-88020000D03*
D12*
X137670000Y-107810000D03*
D13*
X139670000Y-107810000D03*
X141670000Y-107810000D03*
X143670000Y-107810000D03*
X145670000Y-107810000D03*
X147670000Y-107810000D03*
X149670000Y-107810000D03*
X151670000Y-107810000D03*
D11*
X156110000Y-88020000D03*
%LPD*%
M02*
