G04 #@! TF.GenerationSoftware,KiCad,Pcbnew,7.0.9*
G04 #@! TF.CreationDate,2024-04-03T14:25:17+02:00*
G04 #@! TF.ProjectId,NFC_Programmer,4e46435f-5072-46f6-9772-616d6d65722e,3.0*
G04 #@! TF.SameCoordinates,Original*
G04 #@! TF.FileFunction,Copper,L2,Bot*
G04 #@! TF.FilePolarity,Positive*
%FSLAX46Y46*%
G04 Gerber Fmt 4.6, Leading zero omitted, Abs format (unit mm)*
G04 Created by KiCad (PCBNEW 7.0.9) date 2024-04-03 14:25:17*
%MOMM*%
%LPD*%
G01*
G04 APERTURE LIST*
G04 #@! TA.AperFunction,ComponentPad*
%ADD10R,1.350000X1.350000*%
G04 #@! TD*
G04 #@! TA.AperFunction,ComponentPad*
%ADD11O,1.350000X1.350000*%
G04 #@! TD*
G04 #@! TA.AperFunction,ViaPad*
%ADD12C,0.360000*%
G04 #@! TD*
G04 #@! TA.AperFunction,ViaPad*
%ADD13C,0.500000*%
G04 #@! TD*
G04 #@! TA.AperFunction,Conductor*
%ADD14C,0.100000*%
G04 #@! TD*
G04 #@! TA.AperFunction,Conductor*
%ADD15C,0.250000*%
G04 #@! TD*
G04 APERTURE END LIST*
D10*
X128530000Y-103060000D03*
D11*
X130530000Y-103060000D03*
D10*
X137670000Y-107810000D03*
D11*
X139670000Y-107810000D03*
X141670000Y-107810000D03*
X143670000Y-107810000D03*
X145670000Y-107810000D03*
X147670000Y-107810000D03*
X149670000Y-107810000D03*
X151670000Y-107810000D03*
D12*
X159130000Y-95860000D03*
X128970000Y-104540000D03*
X157940000Y-91280000D03*
X131870000Y-105550000D03*
X124300000Y-91250000D03*
X125190000Y-98820000D03*
X127340000Y-91240000D03*
X157250000Y-91280000D03*
X129940000Y-105570000D03*
X142640000Y-109210000D03*
X135120000Y-99770000D03*
X150620000Y-109150000D03*
X121160000Y-98970000D03*
X122870000Y-109150000D03*
X154830000Y-109120000D03*
D13*
X134251582Y-95601582D03*
D12*
X126460000Y-94700000D03*
X144350000Y-91290000D03*
X159080000Y-104020000D03*
X155130000Y-94450000D03*
X129220000Y-91250000D03*
X125190000Y-98210000D03*
X130030000Y-109160000D03*
X134590000Y-100240000D03*
X148440000Y-92230000D03*
X150480000Y-99510000D03*
X154370000Y-97580000D03*
X153610000Y-106680000D03*
X155400000Y-109120000D03*
X123600000Y-91240000D03*
X133980000Y-97190000D03*
X159130000Y-96470000D03*
X121160000Y-92260000D03*
X152660000Y-97670000D03*
X134525750Y-102440000D03*
X154960000Y-93780000D03*
X125860000Y-109180000D03*
X121170000Y-91560000D03*
X141860000Y-91280000D03*
X121120000Y-108950000D03*
X148700000Y-91290000D03*
X158550000Y-91280000D03*
X125740000Y-97180000D03*
X121130000Y-106460000D03*
X132560000Y-101260000D03*
X137450000Y-95930000D03*
X159120000Y-92860000D03*
X127700000Y-104640000D03*
X143780000Y-91290000D03*
X124910000Y-108130000D03*
X148000000Y-91280000D03*
X121160000Y-92870000D03*
X151917606Y-102411550D03*
X152920000Y-91280000D03*
X147701096Y-92221952D03*
X149280000Y-92220000D03*
X159090000Y-99740000D03*
X139410000Y-91290000D03*
X159090000Y-101530000D03*
X132820000Y-105550000D03*
X131290000Y-109180000D03*
X133790000Y-101240000D03*
X153610000Y-108460000D03*
X151890000Y-97650000D03*
X159130000Y-95290000D03*
X130870000Y-105570000D03*
X131960000Y-102880000D03*
X134525750Y-103210000D03*
X128320000Y-104550000D03*
X125250000Y-109180000D03*
X127520000Y-92500000D03*
X127740000Y-109160000D03*
X159120000Y-98960000D03*
X126610000Y-96460000D03*
X131630000Y-104040000D03*
X158390000Y-109150000D03*
X121130000Y-104670000D03*
X152310000Y-91280000D03*
X126670000Y-92870000D03*
X126440000Y-93840000D03*
X140680000Y-91280000D03*
X156070000Y-91280000D03*
X136910000Y-99940000D03*
X150460000Y-100300000D03*
X140020000Y-91290000D03*
X153450000Y-97640000D03*
X134950000Y-98240000D03*
X154170000Y-109120000D03*
X151364342Y-91970000D03*
X135077887Y-95174346D03*
X155410000Y-91290000D03*
X159080000Y-107150000D03*
X123410000Y-109150000D03*
X159090000Y-105270000D03*
X136980000Y-95110000D03*
X128330000Y-92550000D03*
X153140000Y-106270000D03*
X150470000Y-98680000D03*
X148720000Y-109150000D03*
X121160000Y-94050000D03*
X121810000Y-91240000D03*
D13*
X142620000Y-93280000D03*
D12*
X131010000Y-91250000D03*
X121690000Y-109150000D03*
X149880000Y-91290000D03*
X125480000Y-91250000D03*
X128310000Y-109160000D03*
X153610000Y-107250000D03*
X127050000Y-102380000D03*
X127910000Y-91240000D03*
X156550000Y-109120000D03*
X153600000Y-109120000D03*
X131820000Y-109180000D03*
X151460000Y-104220000D03*
X124910000Y-107590000D03*
X150530000Y-100960000D03*
X134950000Y-96480000D03*
X136540000Y-95870000D03*
X153540000Y-92730000D03*
X131960000Y-101650000D03*
X121130000Y-105850000D03*
X155130000Y-95290000D03*
X126400000Y-109180000D03*
X130430000Y-104500000D03*
X125760000Y-106200000D03*
X159080000Y-107760000D03*
X124910000Y-106980000D03*
X127050000Y-104100000D03*
X124910000Y-106410000D03*
X133540000Y-91240000D03*
X159090000Y-104660000D03*
X152060000Y-103740000D03*
X128800000Y-105570000D03*
X121120000Y-107160000D03*
X131160000Y-104360000D03*
X121120000Y-108340000D03*
X135620000Y-95890000D03*
X156010000Y-109120000D03*
X132850000Y-91240000D03*
X159130000Y-94680000D03*
X127050000Y-102950000D03*
X121130000Y-100360000D03*
X152220000Y-103020000D03*
X121120000Y-102240000D03*
X152310000Y-106410000D03*
X121160000Y-93440000D03*
X126970000Y-109180000D03*
X151740000Y-91280000D03*
X125190000Y-99360000D03*
X121130000Y-101540000D03*
X159120000Y-93430000D03*
X159090000Y-100920000D03*
X126670000Y-97160000D03*
X128970000Y-92080000D03*
D13*
X150700000Y-104480000D03*
D12*
X159080000Y-108330000D03*
X129460000Y-109160000D03*
X122420000Y-91240000D03*
X159120000Y-97780000D03*
X126540000Y-105870000D03*
X131780000Y-102240000D03*
X121160000Y-98360000D03*
X133530000Y-96280000D03*
X159090000Y-106450000D03*
X121130000Y-105280000D03*
X121120000Y-104030000D03*
X146820000Y-91280000D03*
X129780000Y-104480000D03*
X159130000Y-91550000D03*
X132280000Y-91240000D03*
X136340000Y-101680000D03*
X157120000Y-109120000D03*
X130400000Y-91250000D03*
X128520000Y-91240000D03*
X125670000Y-100350000D03*
X159080000Y-108940000D03*
X159120000Y-97170000D03*
X133210000Y-96990000D03*
X142470000Y-91280000D03*
X154800000Y-91290000D03*
X147200000Y-91900000D03*
X122990000Y-91240000D03*
X125190000Y-99930000D03*
X145600000Y-91280000D03*
X128920000Y-109160000D03*
X151070000Y-98110000D03*
X149310000Y-91290000D03*
X121130000Y-99750000D03*
X124910000Y-91250000D03*
X152170000Y-91820000D03*
X157820000Y-109150000D03*
X154230000Y-91290000D03*
X151130000Y-91280000D03*
X134150000Y-91240000D03*
X159090000Y-105840000D03*
X129830000Y-91250000D03*
X146210000Y-91280000D03*
X123980000Y-109150000D03*
X137000000Y-101280000D03*
X137000000Y-100650000D03*
X134960000Y-99050000D03*
X159090000Y-100350000D03*
X131670000Y-91240000D03*
X127100000Y-101690000D03*
X136100000Y-95140000D03*
X122260000Y-109150000D03*
X146740000Y-109170000D03*
X127050000Y-103560000D03*
X126090000Y-91250000D03*
X159120000Y-98350000D03*
X147390000Y-91280000D03*
X121170000Y-95300000D03*
X126130000Y-100790000D03*
X134890000Y-97330000D03*
X136100000Y-99920000D03*
X121160000Y-97180000D03*
X130670000Y-109180000D03*
X126610000Y-101210000D03*
X121120000Y-107770000D03*
X121170000Y-95870000D03*
X149880000Y-91890000D03*
X144960000Y-91290000D03*
X121120000Y-102850000D03*
X151124464Y-102010199D03*
X159080000Y-102230000D03*
X121120000Y-103420000D03*
X143170000Y-91290000D03*
X124910000Y-108700000D03*
X159120000Y-94040000D03*
X144710000Y-109150000D03*
X134250000Y-100770000D03*
X121130000Y-100930000D03*
X153420000Y-92190000D03*
X155210000Y-96260000D03*
D13*
X137990000Y-95230000D03*
D12*
X121170000Y-96480000D03*
X150570000Y-101750000D03*
X156680000Y-91280000D03*
X125190000Y-97640000D03*
X135450000Y-101790000D03*
X126700000Y-105300000D03*
X159080000Y-102840000D03*
X153610000Y-107890000D03*
X154390000Y-93370000D03*
X153620000Y-91290000D03*
X159120000Y-92250000D03*
X150680000Y-105400000D03*
D13*
X125870000Y-95560000D03*
D12*
X121160000Y-97790000D03*
X150700000Y-106280000D03*
X121170000Y-94690000D03*
X152140000Y-109230000D03*
D13*
X141500000Y-97570000D03*
D12*
X127050000Y-104670000D03*
X155050000Y-97220000D03*
X128250000Y-105320000D03*
X124680000Y-109180000D03*
X159080000Y-103410000D03*
X141290000Y-91280000D03*
X153610000Y-93260000D03*
X133840000Y-105540000D03*
X133130000Y-101260000D03*
X152870000Y-91870000D03*
X150690000Y-91810000D03*
X151510000Y-106310000D03*
X132400000Y-109200000D03*
X150490000Y-91290000D03*
X126730000Y-91240000D03*
X131940000Y-103530000D03*
D13*
X151160000Y-103180000D03*
X127550000Y-105990000D03*
X141910000Y-104760000D03*
X138600000Y-88350000D03*
X142020000Y-57200000D03*
X140200000Y-55400000D03*
X130850000Y-96740000D03*
X129280000Y-96770000D03*
X140920000Y-88330000D03*
D14*
X147770000Y-106570000D02*
X138910000Y-106570000D01*
X151160000Y-103180000D02*
X147770000Y-106570000D01*
X138910000Y-106570000D02*
X137670000Y-107810000D01*
X141910000Y-104760000D02*
X140380000Y-106290000D01*
X127850000Y-106290000D02*
X127550000Y-105990000D01*
X140380000Y-106290000D02*
X127850000Y-106290000D01*
X130180000Y-96770000D02*
X138600000Y-88350000D01*
X140920000Y-88330000D02*
X132510000Y-96740000D01*
X129280000Y-96770000D02*
X130180000Y-96770000D01*
X132510000Y-96740000D02*
X130850000Y-96740000D01*
D15*
X142000000Y-57200000D02*
X142020000Y-57200000D01*
X142000000Y-57200000D02*
X140200000Y-55400000D01*
G04 #@! TA.AperFunction,Conductor*
G36*
X134979153Y-90979685D02*
G01*
X135024908Y-91032489D01*
X135034852Y-91101647D01*
X135005827Y-91165203D01*
X134999795Y-91171681D01*
X129988294Y-96183181D01*
X129926971Y-96216666D01*
X129900613Y-96219500D01*
X129842229Y-96219500D01*
X129775190Y-96199815D01*
X129754548Y-96183181D01*
X129750890Y-96179523D01*
X129750884Y-96179518D01*
X129607697Y-96089547D01*
X129607694Y-96089545D01*
X129448056Y-96033685D01*
X129280003Y-96014751D01*
X129279997Y-96014751D01*
X129111943Y-96033685D01*
X128952305Y-96089545D01*
X128952302Y-96089547D01*
X128809115Y-96179518D01*
X128809109Y-96179523D01*
X128689523Y-96299109D01*
X128689518Y-96299115D01*
X128599547Y-96442302D01*
X128599545Y-96442305D01*
X128543685Y-96601943D01*
X128524751Y-96769997D01*
X128524751Y-96770002D01*
X128543685Y-96938056D01*
X128599545Y-97097694D01*
X128599547Y-97097697D01*
X128689518Y-97240884D01*
X128689523Y-97240890D01*
X128809109Y-97360476D01*
X128809115Y-97360481D01*
X128952302Y-97450452D01*
X128952305Y-97450454D01*
X128952309Y-97450455D01*
X128952310Y-97450456D01*
X129024913Y-97475860D01*
X129111943Y-97506314D01*
X129279997Y-97525249D01*
X129280000Y-97525249D01*
X129280003Y-97525249D01*
X129448056Y-97506314D01*
X129479678Y-97495249D01*
X129607690Y-97450456D01*
X129607692Y-97450454D01*
X129607694Y-97450454D01*
X129607697Y-97450452D01*
X129750884Y-97360481D01*
X129750885Y-97360480D01*
X129750890Y-97360477D01*
X129754548Y-97356819D01*
X129815871Y-97323334D01*
X129842229Y-97320500D01*
X130170603Y-97320500D01*
X130236826Y-97322762D01*
X130279836Y-97312279D01*
X130286049Y-97311098D01*
X130292448Y-97310219D01*
X130361539Y-97320602D01*
X130375284Y-97328073D01*
X130379110Y-97330477D01*
X130522310Y-97420456D01*
X130608046Y-97450456D01*
X130681943Y-97476314D01*
X130849997Y-97495249D01*
X130850000Y-97495249D01*
X130850003Y-97495249D01*
X131018056Y-97476314D01*
X131091954Y-97450456D01*
X131177690Y-97420456D01*
X131177692Y-97420454D01*
X131177694Y-97420454D01*
X131177697Y-97420452D01*
X131320884Y-97330481D01*
X131320885Y-97330480D01*
X131320890Y-97330477D01*
X131324548Y-97326819D01*
X131385871Y-97293334D01*
X131412229Y-97290500D01*
X132500603Y-97290500D01*
X132566826Y-97292762D01*
X132609832Y-97282280D01*
X132616051Y-97281098D01*
X132659920Y-97275070D01*
X132676383Y-97267918D01*
X132696416Y-97261181D01*
X132713852Y-97256933D01*
X132752465Y-97235221D01*
X132758090Y-97232427D01*
X132798720Y-97214780D01*
X132812632Y-97203460D01*
X132830123Y-97191557D01*
X132845755Y-97182768D01*
X132845753Y-97182768D01*
X132845759Y-97182766D01*
X132877059Y-97151464D01*
X132881771Y-97147211D01*
X132916108Y-97119278D01*
X132926456Y-97104616D01*
X132940074Y-97088449D01*
X139032205Y-90996319D01*
X139093528Y-90962834D01*
X139119886Y-90960000D01*
X159390500Y-90960000D01*
X159457539Y-90979685D01*
X159503294Y-91032489D01*
X159514500Y-91084000D01*
X159514500Y-109310500D01*
X159494815Y-109377539D01*
X159442011Y-109423294D01*
X159390500Y-109434500D01*
X120989500Y-109434500D01*
X120922461Y-109414815D01*
X120876706Y-109362011D01*
X120865500Y-109310500D01*
X120865500Y-105990002D01*
X126794751Y-105990002D01*
X126813685Y-106158056D01*
X126869545Y-106317694D01*
X126869547Y-106317697D01*
X126959518Y-106460884D01*
X126959523Y-106460890D01*
X127079109Y-106580476D01*
X127079115Y-106580481D01*
X127222302Y-106670452D01*
X127222308Y-106670455D01*
X127222310Y-106670456D01*
X127381941Y-106726313D01*
X127503517Y-106740011D01*
X127564560Y-106764428D01*
X127577658Y-106774361D01*
X127594353Y-106780944D01*
X127613290Y-106790351D01*
X127628618Y-106799672D01*
X127671247Y-106811616D01*
X127677263Y-106813639D01*
X127718436Y-106829876D01*
X127736287Y-106831711D01*
X127757052Y-106835657D01*
X127774335Y-106840500D01*
X127818594Y-106840500D01*
X127824935Y-106840824D01*
X127868972Y-106845352D01*
X127886656Y-106842303D01*
X127907724Y-106840500D01*
X136392068Y-106840500D01*
X136459107Y-106860185D01*
X136504862Y-106912989D01*
X136514806Y-106982147D01*
X136508251Y-107007831D01*
X136500908Y-107027517D01*
X136494501Y-107087116D01*
X136494500Y-107087135D01*
X136494500Y-108532870D01*
X136494501Y-108532876D01*
X136500908Y-108592483D01*
X136551202Y-108727328D01*
X136551206Y-108727335D01*
X136637452Y-108842544D01*
X136637455Y-108842547D01*
X136752664Y-108928793D01*
X136752671Y-108928797D01*
X136887517Y-108979091D01*
X136887516Y-108979091D01*
X136894444Y-108979835D01*
X136947127Y-108985500D01*
X138392872Y-108985499D01*
X138452483Y-108979091D01*
X138587331Y-108928796D01*
X138702546Y-108842546D01*
X138764785Y-108759404D01*
X138820718Y-108717535D01*
X138890410Y-108712551D01*
X138947588Y-108742078D01*
X138958568Y-108752088D01*
X138958570Y-108752089D01*
X138958571Y-108752090D01*
X139143786Y-108866770D01*
X139143792Y-108866773D01*
X139166664Y-108875633D01*
X139346931Y-108945470D01*
X139561074Y-108985500D01*
X139561076Y-108985500D01*
X139778924Y-108985500D01*
X139778926Y-108985500D01*
X139993069Y-108945470D01*
X140196210Y-108866772D01*
X140381432Y-108752088D01*
X140542427Y-108605322D01*
X140571047Y-108567422D01*
X140627153Y-108525787D01*
X140696865Y-108521094D01*
X140758048Y-108554836D01*
X140768946Y-108567414D01*
X140797573Y-108605322D01*
X140958568Y-108752088D01*
X140958575Y-108752092D01*
X140958576Y-108752093D01*
X141143786Y-108866770D01*
X141143792Y-108866773D01*
X141166664Y-108875633D01*
X141346931Y-108945470D01*
X141561074Y-108985500D01*
X141561076Y-108985500D01*
X141778924Y-108985500D01*
X141778926Y-108985500D01*
X141993069Y-108945470D01*
X142196210Y-108866772D01*
X142381432Y-108752088D01*
X142542427Y-108605322D01*
X142571047Y-108567422D01*
X142627153Y-108525787D01*
X142696865Y-108521094D01*
X142758048Y-108554836D01*
X142768946Y-108567414D01*
X142797573Y-108605322D01*
X142958568Y-108752088D01*
X142958575Y-108752092D01*
X142958576Y-108752093D01*
X143143786Y-108866770D01*
X143143792Y-108866773D01*
X143166664Y-108875633D01*
X143346931Y-108945470D01*
X143561074Y-108985500D01*
X143561076Y-108985500D01*
X143778924Y-108985500D01*
X143778926Y-108985500D01*
X143993069Y-108945470D01*
X144196210Y-108866772D01*
X144381432Y-108752088D01*
X144542427Y-108605322D01*
X144571047Y-108567422D01*
X144627153Y-108525787D01*
X144696865Y-108521094D01*
X144758048Y-108554836D01*
X144768946Y-108567414D01*
X144797573Y-108605322D01*
X144958568Y-108752088D01*
X144958575Y-108752092D01*
X144958576Y-108752093D01*
X145143786Y-108866770D01*
X145143792Y-108866773D01*
X145166664Y-108875633D01*
X145346931Y-108945470D01*
X145561074Y-108985500D01*
X145561076Y-108985500D01*
X145778924Y-108985500D01*
X145778926Y-108985500D01*
X145993069Y-108945470D01*
X146196210Y-108866772D01*
X146381432Y-108752088D01*
X146542427Y-108605322D01*
X146571047Y-108567422D01*
X146627153Y-108525787D01*
X146696865Y-108521094D01*
X146758048Y-108554836D01*
X146768946Y-108567414D01*
X146797573Y-108605322D01*
X146958568Y-108752088D01*
X146958575Y-108752092D01*
X146958576Y-108752093D01*
X147143786Y-108866770D01*
X147143792Y-108866773D01*
X147166664Y-108875633D01*
X147346931Y-108945470D01*
X147561074Y-108985500D01*
X147561076Y-108985500D01*
X147778924Y-108985500D01*
X147778926Y-108985500D01*
X147993069Y-108945470D01*
X148196210Y-108866772D01*
X148381432Y-108752088D01*
X148542427Y-108605322D01*
X148571047Y-108567422D01*
X148627153Y-108525787D01*
X148696865Y-108521094D01*
X148758048Y-108554836D01*
X148768946Y-108567414D01*
X148797573Y-108605322D01*
X148958568Y-108752088D01*
X148958575Y-108752092D01*
X148958576Y-108752093D01*
X149143786Y-108866770D01*
X149143792Y-108866773D01*
X149166664Y-108875633D01*
X149346931Y-108945470D01*
X149561074Y-108985500D01*
X149561076Y-108985500D01*
X149778924Y-108985500D01*
X149778926Y-108985500D01*
X149993069Y-108945470D01*
X150196210Y-108866772D01*
X150381432Y-108752088D01*
X150542427Y-108605322D01*
X150571359Y-108567009D01*
X150627465Y-108525373D01*
X150697177Y-108520680D01*
X150758360Y-108554421D01*
X150769267Y-108567009D01*
X150797942Y-108604981D01*
X150797949Y-108604989D01*
X150958868Y-108751685D01*
X151144012Y-108866322D01*
X151144023Y-108866327D01*
X151347060Y-108944984D01*
X151420000Y-108958619D01*
X151420000Y-108125686D01*
X151431955Y-108137641D01*
X151544852Y-108195165D01*
X151638519Y-108210000D01*
X151701481Y-108210000D01*
X151795148Y-108195165D01*
X151908045Y-108137641D01*
X151920000Y-108125686D01*
X151920000Y-108958619D01*
X151992939Y-108944984D01*
X152195976Y-108866327D01*
X152195987Y-108866322D01*
X152381130Y-108751685D01*
X152381131Y-108751685D01*
X152542054Y-108604985D01*
X152673284Y-108431208D01*
X152770348Y-108236280D01*
X152820505Y-108060000D01*
X151985686Y-108060000D01*
X151997641Y-108048045D01*
X152055165Y-107935148D01*
X152074986Y-107810000D01*
X152055165Y-107684852D01*
X151997641Y-107571955D01*
X151985686Y-107560000D01*
X152820505Y-107560000D01*
X152820505Y-107559999D01*
X152770348Y-107383719D01*
X152673284Y-107188791D01*
X152542054Y-107015014D01*
X152381131Y-106868314D01*
X152195987Y-106753677D01*
X152195985Y-106753676D01*
X151992931Y-106675013D01*
X151992921Y-106675010D01*
X151920001Y-106661378D01*
X151920000Y-106661379D01*
X151920000Y-107494314D01*
X151908045Y-107482359D01*
X151795148Y-107424835D01*
X151701481Y-107410000D01*
X151638519Y-107410000D01*
X151544852Y-107424835D01*
X151431955Y-107482359D01*
X151420000Y-107494314D01*
X151420000Y-106661379D01*
X151419998Y-106661378D01*
X151347078Y-106675010D01*
X151347068Y-106675013D01*
X151144014Y-106753676D01*
X151144012Y-106753677D01*
X150958869Y-106868314D01*
X150958868Y-106868314D01*
X150797945Y-107015014D01*
X150769267Y-107052990D01*
X150713157Y-107094626D01*
X150643445Y-107099317D01*
X150582264Y-107065575D01*
X150571359Y-107052990D01*
X150562547Y-107041321D01*
X150542427Y-107014678D01*
X150381432Y-106867912D01*
X150381428Y-106867909D01*
X150381423Y-106867906D01*
X150196213Y-106753229D01*
X150196207Y-106753226D01*
X150111113Y-106720260D01*
X149993069Y-106674530D01*
X149778926Y-106634500D01*
X149561074Y-106634500D01*
X149346931Y-106674530D01*
X149298130Y-106693435D01*
X149143792Y-106753226D01*
X149143786Y-106753229D01*
X148958576Y-106867906D01*
X148958566Y-106867913D01*
X148797573Y-107014676D01*
X148768953Y-107052576D01*
X148712844Y-107094211D01*
X148643132Y-107098902D01*
X148581950Y-107065159D01*
X148571047Y-107052576D01*
X148542426Y-107014676D01*
X148408969Y-106893015D01*
X148372687Y-106833304D01*
X148374448Y-106763457D01*
X148404824Y-106713699D01*
X151155551Y-103962972D01*
X151216872Y-103929489D01*
X151229347Y-103927435D01*
X151328054Y-103916314D01*
X151328057Y-103916313D01*
X151328059Y-103916313D01*
X151487690Y-103860456D01*
X151487692Y-103860454D01*
X151487694Y-103860454D01*
X151487697Y-103860452D01*
X151630884Y-103770481D01*
X151630885Y-103770480D01*
X151630890Y-103770477D01*
X151750477Y-103650890D01*
X151840452Y-103507697D01*
X151840454Y-103507694D01*
X151840454Y-103507692D01*
X151840456Y-103507690D01*
X151896313Y-103348059D01*
X151896313Y-103348058D01*
X151896314Y-103348056D01*
X151915249Y-103180002D01*
X151915249Y-103179997D01*
X151896314Y-103011943D01*
X151840454Y-102852305D01*
X151840452Y-102852302D01*
X151750481Y-102709115D01*
X151750476Y-102709109D01*
X151630890Y-102589523D01*
X151630884Y-102589518D01*
X151487697Y-102499547D01*
X151487694Y-102499545D01*
X151328056Y-102443685D01*
X151160003Y-102424751D01*
X151159997Y-102424751D01*
X150991943Y-102443685D01*
X150832305Y-102499545D01*
X150832302Y-102499547D01*
X150689115Y-102589518D01*
X150689109Y-102589523D01*
X150569523Y-102709109D01*
X150569518Y-102709115D01*
X150479547Y-102852302D01*
X150479544Y-102852307D01*
X150423685Y-103011946D01*
X150412564Y-103110651D01*
X150385497Y-103175065D01*
X150377025Y-103184448D01*
X147578294Y-105983181D01*
X147516971Y-106016666D01*
X147490613Y-106019500D01*
X141728387Y-106019500D01*
X141661348Y-105999815D01*
X141615593Y-105947011D01*
X141605649Y-105877853D01*
X141634674Y-105814297D01*
X141640697Y-105807827D01*
X141905552Y-105542971D01*
X141966871Y-105509489D01*
X141979347Y-105507435D01*
X142078054Y-105496314D01*
X142078057Y-105496313D01*
X142078059Y-105496313D01*
X142237690Y-105440456D01*
X142237692Y-105440454D01*
X142237694Y-105440454D01*
X142237697Y-105440452D01*
X142380884Y-105350481D01*
X142380885Y-105350480D01*
X142380890Y-105350477D01*
X142500477Y-105230890D01*
X142590452Y-105087697D01*
X142590454Y-105087694D01*
X142590454Y-105087692D01*
X142590456Y-105087690D01*
X142646313Y-104928059D01*
X142646313Y-104928058D01*
X142646314Y-104928056D01*
X142665249Y-104760002D01*
X142665249Y-104759997D01*
X142646314Y-104591943D01*
X142590454Y-104432305D01*
X142590452Y-104432302D01*
X142500481Y-104289115D01*
X142500476Y-104289109D01*
X142380890Y-104169523D01*
X142380884Y-104169518D01*
X142237697Y-104079547D01*
X142237694Y-104079545D01*
X142078056Y-104023685D01*
X141910003Y-104004751D01*
X141909997Y-104004751D01*
X141741943Y-104023685D01*
X141582305Y-104079545D01*
X141582302Y-104079547D01*
X141439115Y-104169518D01*
X141439109Y-104169523D01*
X141319523Y-104289109D01*
X141319518Y-104289115D01*
X141229547Y-104432302D01*
X141229544Y-104432307D01*
X141173685Y-104591946D01*
X141162564Y-104690651D01*
X141135497Y-104755065D01*
X141127025Y-104764448D01*
X140188294Y-105703181D01*
X140126971Y-105736666D01*
X140100613Y-105739500D01*
X128345449Y-105739500D01*
X128278410Y-105719815D01*
X128233859Y-105668401D01*
X128233479Y-105668585D01*
X128232803Y-105667182D01*
X128232655Y-105667011D01*
X128232320Y-105666179D01*
X128230456Y-105662308D01*
X128140481Y-105519115D01*
X128140476Y-105519109D01*
X128020890Y-105399523D01*
X128020884Y-105399518D01*
X127877697Y-105309547D01*
X127877694Y-105309545D01*
X127718056Y-105253685D01*
X127550003Y-105234751D01*
X127549997Y-105234751D01*
X127381943Y-105253685D01*
X127222305Y-105309545D01*
X127222302Y-105309547D01*
X127079115Y-105399518D01*
X127079109Y-105399523D01*
X126959523Y-105519109D01*
X126959518Y-105519115D01*
X126869547Y-105662302D01*
X126869545Y-105662305D01*
X126813685Y-105821943D01*
X126794751Y-105989997D01*
X126794751Y-105990002D01*
X120865500Y-105990002D01*
X120865500Y-103782870D01*
X127354500Y-103782870D01*
X127354501Y-103782876D01*
X127360908Y-103842483D01*
X127411202Y-103977328D01*
X127411206Y-103977335D01*
X127497452Y-104092544D01*
X127497455Y-104092547D01*
X127612664Y-104178793D01*
X127612671Y-104178797D01*
X127747517Y-104229091D01*
X127747516Y-104229091D01*
X127754444Y-104229835D01*
X127807127Y-104235500D01*
X129252872Y-104235499D01*
X129312483Y-104229091D01*
X129447331Y-104178796D01*
X129562546Y-104092546D01*
X129624785Y-104009404D01*
X129680718Y-103967535D01*
X129750410Y-103962551D01*
X129807588Y-103992078D01*
X129818568Y-104002088D01*
X129818570Y-104002089D01*
X129818571Y-104002090D01*
X130003786Y-104116770D01*
X130003792Y-104116773D01*
X130026664Y-104125633D01*
X130206931Y-104195470D01*
X130421074Y-104235500D01*
X130421076Y-104235500D01*
X130638924Y-104235500D01*
X130638926Y-104235500D01*
X130853069Y-104195470D01*
X131056210Y-104116772D01*
X131241432Y-104002088D01*
X131402427Y-103855322D01*
X131533712Y-103681472D01*
X131630817Y-103486459D01*
X131690435Y-103276923D01*
X131710536Y-103060000D01*
X131690435Y-102843077D01*
X131630817Y-102633541D01*
X131533712Y-102438528D01*
X131402427Y-102264678D01*
X131375016Y-102239690D01*
X131285996Y-102158537D01*
X131241432Y-102117912D01*
X131241428Y-102117909D01*
X131241423Y-102117906D01*
X131056213Y-102003229D01*
X131056207Y-102003226D01*
X130971113Y-101970260D01*
X130853069Y-101924530D01*
X130638926Y-101884500D01*
X130421074Y-101884500D01*
X130206931Y-101924530D01*
X130163896Y-101941202D01*
X130003792Y-102003226D01*
X130003786Y-102003229D01*
X129818565Y-102117913D01*
X129807585Y-102127923D01*
X129744780Y-102158537D01*
X129675393Y-102150336D01*
X129624785Y-102110594D01*
X129598848Y-102075948D01*
X129562546Y-102027454D01*
X129562544Y-102027453D01*
X129562544Y-102027452D01*
X129447335Y-101941206D01*
X129447328Y-101941202D01*
X129312482Y-101890908D01*
X129312483Y-101890908D01*
X129252883Y-101884501D01*
X129252881Y-101884500D01*
X129252873Y-101884500D01*
X129252864Y-101884500D01*
X127807129Y-101884500D01*
X127807123Y-101884501D01*
X127747516Y-101890908D01*
X127612671Y-101941202D01*
X127612664Y-101941206D01*
X127497455Y-102027452D01*
X127497452Y-102027455D01*
X127411206Y-102142664D01*
X127411202Y-102142671D01*
X127360908Y-102277517D01*
X127354501Y-102337116D01*
X127354500Y-102337135D01*
X127354500Y-103782870D01*
X120865500Y-103782870D01*
X120865500Y-91084000D01*
X120885185Y-91016961D01*
X120937989Y-90971206D01*
X120989500Y-90960000D01*
X134912114Y-90960000D01*
X134979153Y-90979685D01*
G37*
G04 #@! TD.AperFunction*
M02*
