M48
; DRILL file {KiCad 7.0.9} date Wed Apr  3 14:25:31 2024
; FORMAT={-:-/ absolute / metric / decimal}
; #@! TF.CreationDate,2024-04-03T14:25:31+02:00
; #@! TF.GenerationSoftware,Kicad,Pcbnew,7.0.9
; #@! TF.FileFunction,Plated,1,2,PTH
FMAT,2
METRIC
; #@! TA.AperFunction,Plated,PTH,ViaDrill
T1C0.100
; #@! TA.AperFunction,Plated,PTH,ViaDrill
T2C0.200
; #@! TA.AperFunction,Plated,PTH,ComponentDrill
T3C0.800
%
G90
G05
T1
X121.12Y-102.24
X121.12Y-102.85
X121.12Y-103.42
X121.12Y-104.03
X121.12Y-107.16
X121.12Y-107.77
X121.12Y-108.34
X121.12Y-108.95
X121.13Y-99.75
X121.13Y-100.36
X121.13Y-100.93
X121.13Y-101.54
X121.13Y-104.67
X121.13Y-105.28
X121.13Y-105.85
X121.13Y-106.46
X121.16Y-92.26
X121.16Y-92.87
X121.16Y-93.44
X121.16Y-94.05
X121.16Y-97.18
X121.16Y-97.79
X121.16Y-98.36
X121.16Y-98.97
X121.17Y-91.56
X121.17Y-94.69
X121.17Y-95.3
X121.17Y-95.87
X121.17Y-96.48
X121.69Y-109.15
X121.81Y-91.24
X122.26Y-109.15
X122.42Y-91.24
X122.87Y-109.15
X122.99Y-91.24
X123.41Y-109.15
X123.6Y-91.24
X123.98Y-109.15
X124.3Y-91.25
X124.68Y-109.18
X124.91Y-91.25
X124.91Y-106.41
X124.91Y-106.98
X124.91Y-107.59
X124.91Y-108.13
X124.91Y-108.7
X125.19Y-97.64
X125.19Y-98.21
X125.19Y-98.82
X125.19Y-99.36
X125.19Y-99.93
X125.25Y-109.18
X125.48Y-91.25
X125.67Y-100.35
X125.74Y-97.18
X125.76Y-106.2
X125.86Y-109.18
X126.09Y-91.25
X126.13Y-100.79
X126.4Y-109.18
X126.44Y-93.84
X126.46Y-94.7
X126.54Y-105.87
X126.61Y-96.46
X126.61Y-101.21
X126.67Y-92.87
X126.67Y-97.16
X126.7Y-105.3
X126.73Y-91.24
X126.97Y-109.18
X127.05Y-102.38
X127.05Y-102.95
X127.05Y-103.56
X127.05Y-104.1
X127.05Y-104.67
X127.1Y-101.69
X127.34Y-91.24
X127.52Y-92.5
X127.7Y-104.64
X127.74Y-109.16
X127.91Y-91.24
X128.25Y-105.32
X128.31Y-109.16
X128.32Y-104.55
X128.33Y-92.55
X128.52Y-91.24
X128.8Y-105.57
X128.92Y-109.16
X128.97Y-92.08
X128.97Y-104.54
X129.22Y-91.25
X129.46Y-109.16
X129.78Y-104.48
X129.83Y-91.25
X129.94Y-105.57
X130.03Y-109.16
X130.4Y-91.25
X130.43Y-104.5
X130.67Y-109.18
X130.87Y-105.57
X131.01Y-91.25
X131.16Y-104.36
X131.29Y-109.18
X131.63Y-104.04
X131.67Y-91.24
X131.78Y-102.24
X131.82Y-109.18
X131.87Y-105.55
X131.94Y-103.53
X131.96Y-101.65
X131.96Y-102.88
X132.28Y-91.24
X132.4Y-109.2
X132.56Y-101.26
X132.82Y-105.55
X132.85Y-91.24
X133.13Y-101.26
X133.21Y-96.99
X133.53Y-96.28
X133.54Y-91.24
X133.79Y-101.24
X133.84Y-105.54
X133.98Y-97.19
X134.15Y-91.24
X134.25Y-100.77
X134.526Y-102.44
X134.526Y-103.21
X134.59Y-100.24
X134.89Y-97.33
X134.95Y-96.48
X134.95Y-98.24
X134.96Y-99.05
X135.078Y-95.174
X135.12Y-99.77
X135.45Y-101.79
X135.62Y-95.89
X136.1Y-95.14
X136.1Y-99.92
X136.34Y-101.68
X136.54Y-95.87
X136.91Y-99.94
X136.98Y-95.11
X137.0Y-100.65
X137.0Y-101.28
X137.45Y-95.93
X139.41Y-91.29
X140.02Y-91.29
X140.68Y-91.28
X141.29Y-91.28
X141.86Y-91.28
X142.47Y-91.28
X142.64Y-109.21
X143.17Y-91.29
X143.78Y-91.29
X144.35Y-91.29
X144.71Y-109.15
X144.96Y-91.29
X145.6Y-91.28
X146.21Y-91.28
X146.74Y-109.17
X146.82Y-91.28
X147.2Y-91.9
X147.39Y-91.28
X147.701Y-92.222
X148.0Y-91.28
X148.44Y-92.23
X148.7Y-91.29
X148.72Y-109.15
X149.28Y-92.22
X149.31Y-91.29
X149.88Y-91.29
X149.88Y-91.89
X150.46Y-100.3
X150.47Y-98.68
X150.48Y-99.51
X150.49Y-91.29
X150.53Y-100.96
X150.57Y-101.75
X150.62Y-109.15
X150.68Y-105.4
X150.69Y-91.81
X150.7Y-106.28
X151.07Y-98.11
X151.124Y-102.01
X151.13Y-91.28
X151.364Y-91.97
X151.46Y-104.22
X151.51Y-106.31
X151.74Y-91.28
X151.89Y-97.65
X151.918Y-102.412
X152.06Y-103.74
X152.14Y-109.23
X152.17Y-91.82
X152.22Y-103.02
X152.31Y-91.28
X152.31Y-106.41
X152.66Y-97.67
X152.87Y-91.87
X152.92Y-91.28
X153.14Y-106.27
X153.42Y-92.19
X153.45Y-97.64
X153.54Y-92.73
X153.6Y-109.12
X153.61Y-93.26
X153.61Y-106.68
X153.61Y-107.25
X153.61Y-107.89
X153.61Y-108.46
X153.62Y-91.29
X154.17Y-109.12
X154.23Y-91.29
X154.37Y-97.58
X154.39Y-93.37
X154.8Y-91.29
X154.83Y-109.12
X154.96Y-93.78
X155.05Y-97.22
X155.13Y-94.45
X155.13Y-95.29
X155.21Y-96.26
X155.4Y-109.12
X155.41Y-91.29
X156.01Y-109.12
X156.07Y-91.28
X156.55Y-109.12
X156.68Y-91.28
X157.12Y-109.12
X157.25Y-91.28
X157.82Y-109.15
X157.94Y-91.28
X158.39Y-109.15
X158.55Y-91.28
X159.08Y-102.23
X159.08Y-102.84
X159.08Y-103.41
X159.08Y-104.02
X159.08Y-107.15
X159.08Y-107.76
X159.08Y-108.33
X159.08Y-108.94
X159.09Y-99.74
X159.09Y-100.35
X159.09Y-100.92
X159.09Y-101.53
X159.09Y-104.66
X159.09Y-105.27
X159.09Y-105.84
X159.09Y-106.45
X159.12Y-92.25
X159.12Y-92.86
X159.12Y-93.43
X159.12Y-94.04
X159.12Y-97.17
X159.12Y-97.78
X159.12Y-98.35
X159.12Y-98.96
X159.13Y-91.55
X159.13Y-94.68
X159.13Y-95.29
X159.13Y-95.86
X159.13Y-96.47
T2
X125.87Y-95.56
X127.55Y-105.99
X129.28Y-96.77
X130.85Y-96.74
X134.252Y-95.602
X137.99Y-95.23
X138.6Y-88.35
X140.2Y-55.4
X140.92Y-88.33
X141.5Y-97.57
X141.91Y-104.76
X142.02Y-57.2
X142.62Y-93.28
X150.7Y-104.48
X151.16Y-103.18
T3
X128.53Y-103.06
X130.53Y-103.06
X137.67Y-107.81
X139.67Y-107.81
X141.67Y-107.81
X143.67Y-107.81
X145.67Y-107.81
X147.67Y-107.81
X149.67Y-107.81
X151.67Y-107.81
T0
M30
