G04 #@! TF.GenerationSoftware,KiCad,Pcbnew,7.0.9*
G04 #@! TF.CreationDate,2024-04-20T19:13:06+02:00*
G04 #@! TF.ProjectId,NFC_Programmer,4e46435f-5072-46f6-9772-616d6d65722e,3.0*
G04 #@! TF.SameCoordinates,Original*
G04 #@! TF.FileFunction,Legend,Bot*
G04 #@! TF.FilePolarity,Positive*
%FSLAX46Y46*%
G04 Gerber Fmt 4.6, Leading zero omitted, Abs format (unit mm)*
G04 Created by KiCad (PCBNEW 7.0.9) date 2024-04-20 19:13:06*
%MOMM*%
%LPD*%
G01*
G04 APERTURE LIST*
%ADD10C,0.153000*%
%ADD11C,3.000000*%
%ADD12R,1.700000X1.700000*%
%ADD13O,1.700000X1.700000*%
G04 APERTURE END LIST*
D10*
X144210771Y-71679663D02*
X144115533Y-71679663D01*
X144115533Y-71679663D02*
X144020295Y-71727282D01*
X144020295Y-71727282D02*
X143972676Y-71774901D01*
X143972676Y-71774901D02*
X143925057Y-71870139D01*
X143925057Y-71870139D02*
X143877438Y-72060615D01*
X143877438Y-72060615D02*
X143877438Y-72298710D01*
X143877438Y-72298710D02*
X143925057Y-72489186D01*
X143925057Y-72489186D02*
X143972676Y-72584424D01*
X143972676Y-72584424D02*
X144020295Y-72632044D01*
X144020295Y-72632044D02*
X144115533Y-72679663D01*
X144115533Y-72679663D02*
X144210771Y-72679663D01*
X144210771Y-72679663D02*
X144306009Y-72632044D01*
X144306009Y-72632044D02*
X144353628Y-72584424D01*
X144353628Y-72584424D02*
X144401247Y-72489186D01*
X144401247Y-72489186D02*
X144448866Y-72298710D01*
X144448866Y-72298710D02*
X144448866Y-72060615D01*
X144448866Y-72060615D02*
X144401247Y-71870139D01*
X144401247Y-71870139D02*
X144353628Y-71774901D01*
X144353628Y-71774901D02*
X144306009Y-71727282D01*
X144306009Y-71727282D02*
X144210771Y-71679663D01*
X143496485Y-71774901D02*
X143448866Y-71727282D01*
X143448866Y-71727282D02*
X143353628Y-71679663D01*
X143353628Y-71679663D02*
X143115533Y-71679663D01*
X143115533Y-71679663D02*
X143020295Y-71727282D01*
X143020295Y-71727282D02*
X142972676Y-71774901D01*
X142972676Y-71774901D02*
X142925057Y-71870139D01*
X142925057Y-71870139D02*
X142925057Y-71965377D01*
X142925057Y-71965377D02*
X142972676Y-72108234D01*
X142972676Y-72108234D02*
X143544104Y-72679663D01*
X143544104Y-72679663D02*
X142925057Y-72679663D01*
X141782200Y-71632044D02*
X142639342Y-72917758D01*
X141258390Y-71679663D02*
X141163152Y-71679663D01*
X141163152Y-71679663D02*
X141067914Y-71727282D01*
X141067914Y-71727282D02*
X141020295Y-71774901D01*
X141020295Y-71774901D02*
X140972676Y-71870139D01*
X140972676Y-71870139D02*
X140925057Y-72060615D01*
X140925057Y-72060615D02*
X140925057Y-72298710D01*
X140925057Y-72298710D02*
X140972676Y-72489186D01*
X140972676Y-72489186D02*
X141020295Y-72584424D01*
X141020295Y-72584424D02*
X141067914Y-72632044D01*
X141067914Y-72632044D02*
X141163152Y-72679663D01*
X141163152Y-72679663D02*
X141258390Y-72679663D01*
X141258390Y-72679663D02*
X141353628Y-72632044D01*
X141353628Y-72632044D02*
X141401247Y-72584424D01*
X141401247Y-72584424D02*
X141448866Y-72489186D01*
X141448866Y-72489186D02*
X141496485Y-72298710D01*
X141496485Y-72298710D02*
X141496485Y-72060615D01*
X141496485Y-72060615D02*
X141448866Y-71870139D01*
X141448866Y-71870139D02*
X141401247Y-71774901D01*
X141401247Y-71774901D02*
X141353628Y-71727282D01*
X141353628Y-71727282D02*
X141258390Y-71679663D01*
X140067914Y-72012996D02*
X140067914Y-72679663D01*
X140306009Y-71632044D02*
X140544104Y-72346329D01*
X140544104Y-72346329D02*
X139925057Y-72346329D01*
X138829819Y-71632044D02*
X139686961Y-72917758D01*
X138544104Y-71774901D02*
X138496485Y-71727282D01*
X138496485Y-71727282D02*
X138401247Y-71679663D01*
X138401247Y-71679663D02*
X138163152Y-71679663D01*
X138163152Y-71679663D02*
X138067914Y-71727282D01*
X138067914Y-71727282D02*
X138020295Y-71774901D01*
X138020295Y-71774901D02*
X137972676Y-71870139D01*
X137972676Y-71870139D02*
X137972676Y-71965377D01*
X137972676Y-71965377D02*
X138020295Y-72108234D01*
X138020295Y-72108234D02*
X138591723Y-72679663D01*
X138591723Y-72679663D02*
X137972676Y-72679663D01*
X137353628Y-71679663D02*
X137258390Y-71679663D01*
X137258390Y-71679663D02*
X137163152Y-71727282D01*
X137163152Y-71727282D02*
X137115533Y-71774901D01*
X137115533Y-71774901D02*
X137067914Y-71870139D01*
X137067914Y-71870139D02*
X137020295Y-72060615D01*
X137020295Y-72060615D02*
X137020295Y-72298710D01*
X137020295Y-72298710D02*
X137067914Y-72489186D01*
X137067914Y-72489186D02*
X137115533Y-72584424D01*
X137115533Y-72584424D02*
X137163152Y-72632044D01*
X137163152Y-72632044D02*
X137258390Y-72679663D01*
X137258390Y-72679663D02*
X137353628Y-72679663D01*
X137353628Y-72679663D02*
X137448866Y-72632044D01*
X137448866Y-72632044D02*
X137496485Y-72584424D01*
X137496485Y-72584424D02*
X137544104Y-72489186D01*
X137544104Y-72489186D02*
X137591723Y-72298710D01*
X137591723Y-72298710D02*
X137591723Y-72060615D01*
X137591723Y-72060615D02*
X137544104Y-71870139D01*
X137544104Y-71870139D02*
X137496485Y-71774901D01*
X137496485Y-71774901D02*
X137448866Y-71727282D01*
X137448866Y-71727282D02*
X137353628Y-71679663D01*
X136639342Y-71774901D02*
X136591723Y-71727282D01*
X136591723Y-71727282D02*
X136496485Y-71679663D01*
X136496485Y-71679663D02*
X136258390Y-71679663D01*
X136258390Y-71679663D02*
X136163152Y-71727282D01*
X136163152Y-71727282D02*
X136115533Y-71774901D01*
X136115533Y-71774901D02*
X136067914Y-71870139D01*
X136067914Y-71870139D02*
X136067914Y-71965377D01*
X136067914Y-71965377D02*
X136115533Y-72108234D01*
X136115533Y-72108234D02*
X136686961Y-72679663D01*
X136686961Y-72679663D02*
X136067914Y-72679663D01*
X135210771Y-72012996D02*
X135210771Y-72679663D01*
X135448866Y-71632044D02*
X135686961Y-72346329D01*
X135686961Y-72346329D02*
X135067914Y-72346329D01*
X150699663Y-104108752D02*
X149699663Y-104108752D01*
X149699663Y-104108752D02*
X150699663Y-104680180D01*
X150699663Y-104680180D02*
X149699663Y-104680180D01*
X150652044Y-105108752D02*
X150699663Y-105251609D01*
X150699663Y-105251609D02*
X150699663Y-105489704D01*
X150699663Y-105489704D02*
X150652044Y-105584942D01*
X150652044Y-105584942D02*
X150604424Y-105632561D01*
X150604424Y-105632561D02*
X150509186Y-105680180D01*
X150509186Y-105680180D02*
X150413948Y-105680180D01*
X150413948Y-105680180D02*
X150318710Y-105632561D01*
X150318710Y-105632561D02*
X150271091Y-105584942D01*
X150271091Y-105584942D02*
X150223472Y-105489704D01*
X150223472Y-105489704D02*
X150175853Y-105299228D01*
X150175853Y-105299228D02*
X150128234Y-105203990D01*
X150128234Y-105203990D02*
X150080615Y-105156371D01*
X150080615Y-105156371D02*
X149985377Y-105108752D01*
X149985377Y-105108752D02*
X149890139Y-105108752D01*
X149890139Y-105108752D02*
X149794901Y-105156371D01*
X149794901Y-105156371D02*
X149747282Y-105203990D01*
X149747282Y-105203990D02*
X149699663Y-105299228D01*
X149699663Y-105299228D02*
X149699663Y-105537323D01*
X149699663Y-105537323D02*
X149747282Y-105680180D01*
X150652044Y-106061133D02*
X150699663Y-106203990D01*
X150699663Y-106203990D02*
X150699663Y-106442085D01*
X150699663Y-106442085D02*
X150652044Y-106537323D01*
X150652044Y-106537323D02*
X150604424Y-106584942D01*
X150604424Y-106584942D02*
X150509186Y-106632561D01*
X150509186Y-106632561D02*
X150413948Y-106632561D01*
X150413948Y-106632561D02*
X150318710Y-106584942D01*
X150318710Y-106584942D02*
X150271091Y-106537323D01*
X150271091Y-106537323D02*
X150223472Y-106442085D01*
X150223472Y-106442085D02*
X150175853Y-106251609D01*
X150175853Y-106251609D02*
X150128234Y-106156371D01*
X150128234Y-106156371D02*
X150080615Y-106108752D01*
X150080615Y-106108752D02*
X149985377Y-106061133D01*
X149985377Y-106061133D02*
X149890139Y-106061133D01*
X149890139Y-106061133D02*
X149794901Y-106108752D01*
X149794901Y-106108752D02*
X149747282Y-106156371D01*
X149747282Y-106156371D02*
X149699663Y-106251609D01*
X149699663Y-106251609D02*
X149699663Y-106489704D01*
X149699663Y-106489704D02*
X149747282Y-106632561D01*
X141324104Y-74689663D02*
X140990771Y-75689663D01*
X140990771Y-75689663D02*
X140657438Y-74689663D01*
X139847914Y-74689663D02*
X140324104Y-74689663D01*
X140324104Y-74689663D02*
X140371723Y-75165853D01*
X140371723Y-75165853D02*
X140324104Y-75118234D01*
X140324104Y-75118234D02*
X140228866Y-75070615D01*
X140228866Y-75070615D02*
X139990771Y-75070615D01*
X139990771Y-75070615D02*
X139895533Y-75118234D01*
X139895533Y-75118234D02*
X139847914Y-75165853D01*
X139847914Y-75165853D02*
X139800295Y-75261091D01*
X139800295Y-75261091D02*
X139800295Y-75499186D01*
X139800295Y-75499186D02*
X139847914Y-75594424D01*
X139847914Y-75594424D02*
X139895533Y-75642044D01*
X139895533Y-75642044D02*
X139990771Y-75689663D01*
X139990771Y-75689663D02*
X140228866Y-75689663D01*
X140228866Y-75689663D02*
X140324104Y-75642044D01*
X140324104Y-75642044D02*
X140371723Y-75594424D01*
X139371723Y-75594424D02*
X139324104Y-75642044D01*
X139324104Y-75642044D02*
X139371723Y-75689663D01*
X139371723Y-75689663D02*
X139419342Y-75642044D01*
X139419342Y-75642044D02*
X139371723Y-75594424D01*
X139371723Y-75594424D02*
X139371723Y-75689663D01*
X138705057Y-74689663D02*
X138609819Y-74689663D01*
X138609819Y-74689663D02*
X138514581Y-74737282D01*
X138514581Y-74737282D02*
X138466962Y-74784901D01*
X138466962Y-74784901D02*
X138419343Y-74880139D01*
X138419343Y-74880139D02*
X138371724Y-75070615D01*
X138371724Y-75070615D02*
X138371724Y-75308710D01*
X138371724Y-75308710D02*
X138419343Y-75499186D01*
X138419343Y-75499186D02*
X138466962Y-75594424D01*
X138466962Y-75594424D02*
X138514581Y-75642044D01*
X138514581Y-75642044D02*
X138609819Y-75689663D01*
X138609819Y-75689663D02*
X138705057Y-75689663D01*
X138705057Y-75689663D02*
X138800295Y-75642044D01*
X138800295Y-75642044D02*
X138847914Y-75594424D01*
X138847914Y-75594424D02*
X138895533Y-75499186D01*
X138895533Y-75499186D02*
X138943152Y-75308710D01*
X138943152Y-75308710D02*
X138943152Y-75070615D01*
X138943152Y-75070615D02*
X138895533Y-74880139D01*
X138895533Y-74880139D02*
X138847914Y-74784901D01*
X138847914Y-74784901D02*
X138800295Y-74737282D01*
X138800295Y-74737282D02*
X138705057Y-74689663D01*
X148399663Y-103638752D02*
X147399663Y-103638752D01*
X147399663Y-103638752D02*
X148113948Y-103972085D01*
X148113948Y-103972085D02*
X147399663Y-104305418D01*
X147399663Y-104305418D02*
X148399663Y-104305418D01*
X148399663Y-104781609D02*
X147399663Y-104781609D01*
X148352044Y-105210180D02*
X148399663Y-105353037D01*
X148399663Y-105353037D02*
X148399663Y-105591132D01*
X148399663Y-105591132D02*
X148352044Y-105686370D01*
X148352044Y-105686370D02*
X148304424Y-105733989D01*
X148304424Y-105733989D02*
X148209186Y-105781608D01*
X148209186Y-105781608D02*
X148113948Y-105781608D01*
X148113948Y-105781608D02*
X148018710Y-105733989D01*
X148018710Y-105733989D02*
X147971091Y-105686370D01*
X147971091Y-105686370D02*
X147923472Y-105591132D01*
X147923472Y-105591132D02*
X147875853Y-105400656D01*
X147875853Y-105400656D02*
X147828234Y-105305418D01*
X147828234Y-105305418D02*
X147780615Y-105257799D01*
X147780615Y-105257799D02*
X147685377Y-105210180D01*
X147685377Y-105210180D02*
X147590139Y-105210180D01*
X147590139Y-105210180D02*
X147494901Y-105257799D01*
X147494901Y-105257799D02*
X147447282Y-105305418D01*
X147447282Y-105305418D02*
X147399663Y-105400656D01*
X147399663Y-105400656D02*
X147399663Y-105638751D01*
X147399663Y-105638751D02*
X147447282Y-105781608D01*
X147399663Y-106400656D02*
X147399663Y-106591132D01*
X147399663Y-106591132D02*
X147447282Y-106686370D01*
X147447282Y-106686370D02*
X147542520Y-106781608D01*
X147542520Y-106781608D02*
X147732996Y-106829227D01*
X147732996Y-106829227D02*
X148066329Y-106829227D01*
X148066329Y-106829227D02*
X148256805Y-106781608D01*
X148256805Y-106781608D02*
X148352044Y-106686370D01*
X148352044Y-106686370D02*
X148399663Y-106591132D01*
X148399663Y-106591132D02*
X148399663Y-106400656D01*
X148399663Y-106400656D02*
X148352044Y-106305418D01*
X148352044Y-106305418D02*
X148256805Y-106210180D01*
X148256805Y-106210180D02*
X148066329Y-106162561D01*
X148066329Y-106162561D02*
X147732996Y-106162561D01*
X147732996Y-106162561D02*
X147542520Y-106210180D01*
X147542520Y-106210180D02*
X147447282Y-106305418D01*
X147447282Y-106305418D02*
X147399663Y-106400656D01*
X145732044Y-104361133D02*
X145779663Y-104503990D01*
X145779663Y-104503990D02*
X145779663Y-104742085D01*
X145779663Y-104742085D02*
X145732044Y-104837323D01*
X145732044Y-104837323D02*
X145684424Y-104884942D01*
X145684424Y-104884942D02*
X145589186Y-104932561D01*
X145589186Y-104932561D02*
X145493948Y-104932561D01*
X145493948Y-104932561D02*
X145398710Y-104884942D01*
X145398710Y-104884942D02*
X145351091Y-104837323D01*
X145351091Y-104837323D02*
X145303472Y-104742085D01*
X145303472Y-104742085D02*
X145255853Y-104551609D01*
X145255853Y-104551609D02*
X145208234Y-104456371D01*
X145208234Y-104456371D02*
X145160615Y-104408752D01*
X145160615Y-104408752D02*
X145065377Y-104361133D01*
X145065377Y-104361133D02*
X144970139Y-104361133D01*
X144970139Y-104361133D02*
X144874901Y-104408752D01*
X144874901Y-104408752D02*
X144827282Y-104456371D01*
X144827282Y-104456371D02*
X144779663Y-104551609D01*
X144779663Y-104551609D02*
X144779663Y-104789704D01*
X144779663Y-104789704D02*
X144827282Y-104932561D01*
X145684424Y-105932561D02*
X145732044Y-105884942D01*
X145732044Y-105884942D02*
X145779663Y-105742085D01*
X145779663Y-105742085D02*
X145779663Y-105646847D01*
X145779663Y-105646847D02*
X145732044Y-105503990D01*
X145732044Y-105503990D02*
X145636805Y-105408752D01*
X145636805Y-105408752D02*
X145541567Y-105361133D01*
X145541567Y-105361133D02*
X145351091Y-105313514D01*
X145351091Y-105313514D02*
X145208234Y-105313514D01*
X145208234Y-105313514D02*
X145017758Y-105361133D01*
X145017758Y-105361133D02*
X144922520Y-105408752D01*
X144922520Y-105408752D02*
X144827282Y-105503990D01*
X144827282Y-105503990D02*
X144779663Y-105646847D01*
X144779663Y-105646847D02*
X144779663Y-105742085D01*
X144779663Y-105742085D02*
X144827282Y-105884942D01*
X144827282Y-105884942D02*
X144874901Y-105932561D01*
X145779663Y-106361133D02*
X144779663Y-106361133D01*
X145779663Y-106932561D02*
X145208234Y-106503990D01*
X144779663Y-106932561D02*
X145351091Y-106361133D01*
X143259663Y-103528752D02*
X142259663Y-103528752D01*
X142259663Y-103528752D02*
X142973948Y-103862085D01*
X142973948Y-103862085D02*
X142259663Y-104195418D01*
X142259663Y-104195418D02*
X143259663Y-104195418D01*
X142259663Y-104862085D02*
X142259663Y-105052561D01*
X142259663Y-105052561D02*
X142307282Y-105147799D01*
X142307282Y-105147799D02*
X142402520Y-105243037D01*
X142402520Y-105243037D02*
X142592996Y-105290656D01*
X142592996Y-105290656D02*
X142926329Y-105290656D01*
X142926329Y-105290656D02*
X143116805Y-105243037D01*
X143116805Y-105243037D02*
X143212044Y-105147799D01*
X143212044Y-105147799D02*
X143259663Y-105052561D01*
X143259663Y-105052561D02*
X143259663Y-104862085D01*
X143259663Y-104862085D02*
X143212044Y-104766847D01*
X143212044Y-104766847D02*
X143116805Y-104671609D01*
X143116805Y-104671609D02*
X142926329Y-104623990D01*
X142926329Y-104623990D02*
X142592996Y-104623990D01*
X142592996Y-104623990D02*
X142402520Y-104671609D01*
X142402520Y-104671609D02*
X142307282Y-104766847D01*
X142307282Y-104766847D02*
X142259663Y-104862085D01*
X143212044Y-105671609D02*
X143259663Y-105814466D01*
X143259663Y-105814466D02*
X143259663Y-106052561D01*
X143259663Y-106052561D02*
X143212044Y-106147799D01*
X143212044Y-106147799D02*
X143164424Y-106195418D01*
X143164424Y-106195418D02*
X143069186Y-106243037D01*
X143069186Y-106243037D02*
X142973948Y-106243037D01*
X142973948Y-106243037D02*
X142878710Y-106195418D01*
X142878710Y-106195418D02*
X142831091Y-106147799D01*
X142831091Y-106147799D02*
X142783472Y-106052561D01*
X142783472Y-106052561D02*
X142735853Y-105862085D01*
X142735853Y-105862085D02*
X142688234Y-105766847D01*
X142688234Y-105766847D02*
X142640615Y-105719228D01*
X142640615Y-105719228D02*
X142545377Y-105671609D01*
X142545377Y-105671609D02*
X142450139Y-105671609D01*
X142450139Y-105671609D02*
X142354901Y-105719228D01*
X142354901Y-105719228D02*
X142307282Y-105766847D01*
X142307282Y-105766847D02*
X142259663Y-105862085D01*
X142259663Y-105862085D02*
X142259663Y-106100180D01*
X142259663Y-106100180D02*
X142307282Y-106243037D01*
X143259663Y-106671609D02*
X142259663Y-106671609D01*
X137219663Y-103843514D02*
X137219663Y-104462561D01*
X137219663Y-104462561D02*
X137600615Y-104129228D01*
X137600615Y-104129228D02*
X137600615Y-104272085D01*
X137600615Y-104272085D02*
X137648234Y-104367323D01*
X137648234Y-104367323D02*
X137695853Y-104414942D01*
X137695853Y-104414942D02*
X137791091Y-104462561D01*
X137791091Y-104462561D02*
X138029186Y-104462561D01*
X138029186Y-104462561D02*
X138124424Y-104414942D01*
X138124424Y-104414942D02*
X138172044Y-104367323D01*
X138172044Y-104367323D02*
X138219663Y-104272085D01*
X138219663Y-104272085D02*
X138219663Y-103986371D01*
X138219663Y-103986371D02*
X138172044Y-103891133D01*
X138172044Y-103891133D02*
X138124424Y-103843514D01*
X138124424Y-104891133D02*
X138172044Y-104938752D01*
X138172044Y-104938752D02*
X138219663Y-104891133D01*
X138219663Y-104891133D02*
X138172044Y-104843514D01*
X138172044Y-104843514D02*
X138124424Y-104891133D01*
X138124424Y-104891133D02*
X138219663Y-104891133D01*
X137219663Y-105272085D02*
X137219663Y-105891132D01*
X137219663Y-105891132D02*
X137600615Y-105557799D01*
X137600615Y-105557799D02*
X137600615Y-105700656D01*
X137600615Y-105700656D02*
X137648234Y-105795894D01*
X137648234Y-105795894D02*
X137695853Y-105843513D01*
X137695853Y-105843513D02*
X137791091Y-105891132D01*
X137791091Y-105891132D02*
X138029186Y-105891132D01*
X138029186Y-105891132D02*
X138124424Y-105843513D01*
X138124424Y-105843513D02*
X138172044Y-105795894D01*
X138172044Y-105795894D02*
X138219663Y-105700656D01*
X138219663Y-105700656D02*
X138219663Y-105414942D01*
X138219663Y-105414942D02*
X138172044Y-105319704D01*
X138172044Y-105319704D02*
X138124424Y-105272085D01*
X137219663Y-106176847D02*
X138219663Y-106510180D01*
X138219663Y-106510180D02*
X137219663Y-106843513D01*
X140709663Y-102038752D02*
X139709663Y-102038752D01*
X139709663Y-102038752D02*
X139709663Y-102419704D01*
X139709663Y-102419704D02*
X139757282Y-102514942D01*
X139757282Y-102514942D02*
X139804901Y-102562561D01*
X139804901Y-102562561D02*
X139900139Y-102610180D01*
X139900139Y-102610180D02*
X140042996Y-102610180D01*
X140042996Y-102610180D02*
X140138234Y-102562561D01*
X140138234Y-102562561D02*
X140185853Y-102514942D01*
X140185853Y-102514942D02*
X140233472Y-102419704D01*
X140233472Y-102419704D02*
X140233472Y-102038752D01*
X140709663Y-103038752D02*
X139709663Y-103038752D01*
X139709663Y-103038752D02*
X139709663Y-103276847D01*
X139709663Y-103276847D02*
X139757282Y-103419704D01*
X139757282Y-103419704D02*
X139852520Y-103514942D01*
X139852520Y-103514942D02*
X139947758Y-103562561D01*
X139947758Y-103562561D02*
X140138234Y-103610180D01*
X140138234Y-103610180D02*
X140281091Y-103610180D01*
X140281091Y-103610180D02*
X140471567Y-103562561D01*
X140471567Y-103562561D02*
X140566805Y-103514942D01*
X140566805Y-103514942D02*
X140662044Y-103419704D01*
X140662044Y-103419704D02*
X140709663Y-103276847D01*
X140709663Y-103276847D02*
X140709663Y-103038752D01*
X139709663Y-104229228D02*
X139709663Y-104419704D01*
X139709663Y-104419704D02*
X139757282Y-104514942D01*
X139757282Y-104514942D02*
X139852520Y-104610180D01*
X139852520Y-104610180D02*
X140042996Y-104657799D01*
X140042996Y-104657799D02*
X140376329Y-104657799D01*
X140376329Y-104657799D02*
X140566805Y-104610180D01*
X140566805Y-104610180D02*
X140662044Y-104514942D01*
X140662044Y-104514942D02*
X140709663Y-104419704D01*
X140709663Y-104419704D02*
X140709663Y-104229228D01*
X140709663Y-104229228D02*
X140662044Y-104133990D01*
X140662044Y-104133990D02*
X140566805Y-104038752D01*
X140566805Y-104038752D02*
X140376329Y-103991133D01*
X140376329Y-103991133D02*
X140042996Y-103991133D01*
X140042996Y-103991133D02*
X139852520Y-104038752D01*
X139852520Y-104038752D02*
X139757282Y-104133990D01*
X139757282Y-104133990D02*
X139709663Y-104229228D01*
X139709663Y-104991133D02*
X140709663Y-105229228D01*
X140709663Y-105229228D02*
X139995377Y-105419704D01*
X139995377Y-105419704D02*
X140709663Y-105610180D01*
X140709663Y-105610180D02*
X139709663Y-105848276D01*
X140709663Y-106229228D02*
X139709663Y-106229228D01*
X139709663Y-106229228D02*
X140709663Y-106800656D01*
X140709663Y-106800656D02*
X139709663Y-106800656D01*
X155027282Y-104742561D02*
X154979663Y-104647323D01*
X154979663Y-104647323D02*
X154979663Y-104504466D01*
X154979663Y-104504466D02*
X155027282Y-104361609D01*
X155027282Y-104361609D02*
X155122520Y-104266371D01*
X155122520Y-104266371D02*
X155217758Y-104218752D01*
X155217758Y-104218752D02*
X155408234Y-104171133D01*
X155408234Y-104171133D02*
X155551091Y-104171133D01*
X155551091Y-104171133D02*
X155741567Y-104218752D01*
X155741567Y-104218752D02*
X155836805Y-104266371D01*
X155836805Y-104266371D02*
X155932044Y-104361609D01*
X155932044Y-104361609D02*
X155979663Y-104504466D01*
X155979663Y-104504466D02*
X155979663Y-104599704D01*
X155979663Y-104599704D02*
X155932044Y-104742561D01*
X155932044Y-104742561D02*
X155884424Y-104790180D01*
X155884424Y-104790180D02*
X155551091Y-104790180D01*
X155551091Y-104790180D02*
X155551091Y-104599704D01*
X155979663Y-105218752D02*
X154979663Y-105218752D01*
X154979663Y-105218752D02*
X155979663Y-105790180D01*
X155979663Y-105790180D02*
X154979663Y-105790180D01*
X155979663Y-106266371D02*
X154979663Y-106266371D01*
X154979663Y-106266371D02*
X154979663Y-106504466D01*
X154979663Y-106504466D02*
X155027282Y-106647323D01*
X155027282Y-106647323D02*
X155122520Y-106742561D01*
X155122520Y-106742561D02*
X155217758Y-106790180D01*
X155217758Y-106790180D02*
X155408234Y-106837799D01*
X155408234Y-106837799D02*
X155551091Y-106837799D01*
X155551091Y-106837799D02*
X155741567Y-106790180D01*
X155741567Y-106790180D02*
X155836805Y-106742561D01*
X155836805Y-106742561D02*
X155932044Y-106647323D01*
X155932044Y-106647323D02*
X155979663Y-106504466D01*
X155979663Y-106504466D02*
X155979663Y-106266371D01*
X153249663Y-104658752D02*
X152249663Y-104658752D01*
X153249663Y-105706370D02*
X152773472Y-105373037D01*
X153249663Y-105134942D02*
X152249663Y-105134942D01*
X152249663Y-105134942D02*
X152249663Y-105515894D01*
X152249663Y-105515894D02*
X152297282Y-105611132D01*
X152297282Y-105611132D02*
X152344901Y-105658751D01*
X152344901Y-105658751D02*
X152440139Y-105706370D01*
X152440139Y-105706370D02*
X152582996Y-105706370D01*
X152582996Y-105706370D02*
X152678234Y-105658751D01*
X152678234Y-105658751D02*
X152725853Y-105611132D01*
X152725853Y-105611132D02*
X152773472Y-105515894D01*
X152773472Y-105515894D02*
X152773472Y-105134942D01*
X153344901Y-106801608D02*
X153297282Y-106706370D01*
X153297282Y-106706370D02*
X153202044Y-106611132D01*
X153202044Y-106611132D02*
X153059186Y-106468275D01*
X153059186Y-106468275D02*
X153011567Y-106373037D01*
X153011567Y-106373037D02*
X153011567Y-106277799D01*
X153249663Y-106325418D02*
X153202044Y-106230180D01*
X153202044Y-106230180D02*
X153106805Y-106134942D01*
X153106805Y-106134942D02*
X152916329Y-106087323D01*
X152916329Y-106087323D02*
X152582996Y-106087323D01*
X152582996Y-106087323D02*
X152392520Y-106134942D01*
X152392520Y-106134942D02*
X152297282Y-106230180D01*
X152297282Y-106230180D02*
X152249663Y-106325418D01*
X152249663Y-106325418D02*
X152249663Y-106515894D01*
X152249663Y-106515894D02*
X152297282Y-106611132D01*
X152297282Y-106611132D02*
X152392520Y-106706370D01*
X152392520Y-106706370D02*
X152582996Y-106753989D01*
X152582996Y-106753989D02*
X152916329Y-106753989D01*
X152916329Y-106753989D02*
X153106805Y-106706370D01*
X153106805Y-106706370D02*
X153202044Y-106611132D01*
X153202044Y-106611132D02*
X153249663Y-106515894D01*
X153249663Y-106515894D02*
X153249663Y-106325418D01*
X148571247Y-70199663D02*
X148571247Y-69199663D01*
X148571247Y-69199663D02*
X148190295Y-69199663D01*
X148190295Y-69199663D02*
X148095057Y-69247282D01*
X148095057Y-69247282D02*
X148047438Y-69294901D01*
X148047438Y-69294901D02*
X147999819Y-69390139D01*
X147999819Y-69390139D02*
X147999819Y-69532996D01*
X147999819Y-69532996D02*
X148047438Y-69628234D01*
X148047438Y-69628234D02*
X148095057Y-69675853D01*
X148095057Y-69675853D02*
X148190295Y-69723472D01*
X148190295Y-69723472D02*
X148571247Y-69723472D01*
X147190295Y-70152044D02*
X147285533Y-70199663D01*
X147285533Y-70199663D02*
X147476009Y-70199663D01*
X147476009Y-70199663D02*
X147571247Y-70152044D01*
X147571247Y-70152044D02*
X147618866Y-70056805D01*
X147618866Y-70056805D02*
X147618866Y-69675853D01*
X147618866Y-69675853D02*
X147571247Y-69580615D01*
X147571247Y-69580615D02*
X147476009Y-69532996D01*
X147476009Y-69532996D02*
X147285533Y-69532996D01*
X147285533Y-69532996D02*
X147190295Y-69580615D01*
X147190295Y-69580615D02*
X147142676Y-69675853D01*
X147142676Y-69675853D02*
X147142676Y-69771091D01*
X147142676Y-69771091D02*
X147618866Y-69866329D01*
X146285533Y-70199663D02*
X146285533Y-69199663D01*
X146285533Y-70152044D02*
X146380771Y-70199663D01*
X146380771Y-70199663D02*
X146571247Y-70199663D01*
X146571247Y-70199663D02*
X146666485Y-70152044D01*
X146666485Y-70152044D02*
X146714104Y-70104424D01*
X146714104Y-70104424D02*
X146761723Y-70009186D01*
X146761723Y-70009186D02*
X146761723Y-69723472D01*
X146761723Y-69723472D02*
X146714104Y-69628234D01*
X146714104Y-69628234D02*
X146666485Y-69580615D01*
X146666485Y-69580615D02*
X146571247Y-69532996D01*
X146571247Y-69532996D02*
X146380771Y-69532996D01*
X146380771Y-69532996D02*
X146285533Y-69580615D01*
X145809342Y-70199663D02*
X145809342Y-69532996D01*
X145809342Y-69723472D02*
X145761723Y-69628234D01*
X145761723Y-69628234D02*
X145714104Y-69580615D01*
X145714104Y-69580615D02*
X145618866Y-69532996D01*
X145618866Y-69532996D02*
X145523628Y-69532996D01*
X145047437Y-70199663D02*
X145142675Y-70152044D01*
X145142675Y-70152044D02*
X145190294Y-70104424D01*
X145190294Y-70104424D02*
X145237913Y-70009186D01*
X145237913Y-70009186D02*
X145237913Y-69723472D01*
X145237913Y-69723472D02*
X145190294Y-69628234D01*
X145190294Y-69628234D02*
X145142675Y-69580615D01*
X145142675Y-69580615D02*
X145047437Y-69532996D01*
X145047437Y-69532996D02*
X144904580Y-69532996D01*
X144904580Y-69532996D02*
X144809342Y-69580615D01*
X144809342Y-69580615D02*
X144761723Y-69628234D01*
X144761723Y-69628234D02*
X144714104Y-69723472D01*
X144714104Y-69723472D02*
X144714104Y-70009186D01*
X144714104Y-70009186D02*
X144761723Y-70104424D01*
X144761723Y-70104424D02*
X144809342Y-70152044D01*
X144809342Y-70152044D02*
X144904580Y-70199663D01*
X144904580Y-70199663D02*
X145047437Y-70199663D01*
X143666484Y-69199663D02*
X143095056Y-69199663D01*
X143380770Y-70199663D02*
X143380770Y-69199663D01*
X142761722Y-70199663D02*
X142761722Y-69532996D01*
X142761722Y-69723472D02*
X142714103Y-69628234D01*
X142714103Y-69628234D02*
X142666484Y-69580615D01*
X142666484Y-69580615D02*
X142571246Y-69532996D01*
X142571246Y-69532996D02*
X142476008Y-69532996D01*
X141761722Y-70152044D02*
X141856960Y-70199663D01*
X141856960Y-70199663D02*
X142047436Y-70199663D01*
X142047436Y-70199663D02*
X142142674Y-70152044D01*
X142142674Y-70152044D02*
X142190293Y-70056805D01*
X142190293Y-70056805D02*
X142190293Y-69675853D01*
X142190293Y-69675853D02*
X142142674Y-69580615D01*
X142142674Y-69580615D02*
X142047436Y-69532996D01*
X142047436Y-69532996D02*
X141856960Y-69532996D01*
X141856960Y-69532996D02*
X141761722Y-69580615D01*
X141761722Y-69580615D02*
X141714103Y-69675853D01*
X141714103Y-69675853D02*
X141714103Y-69771091D01*
X141714103Y-69771091D02*
X142190293Y-69866329D01*
X141285531Y-69532996D02*
X141285531Y-70199663D01*
X141285531Y-69628234D02*
X141237912Y-69580615D01*
X141237912Y-69580615D02*
X141142674Y-69532996D01*
X141142674Y-69532996D02*
X140999817Y-69532996D01*
X140999817Y-69532996D02*
X140904579Y-69580615D01*
X140904579Y-69580615D02*
X140856960Y-69675853D01*
X140856960Y-69675853D02*
X140856960Y-70199663D01*
X139952198Y-70199663D02*
X139952198Y-69675853D01*
X139952198Y-69675853D02*
X139999817Y-69580615D01*
X139999817Y-69580615D02*
X140095055Y-69532996D01*
X140095055Y-69532996D02*
X140285531Y-69532996D01*
X140285531Y-69532996D02*
X140380769Y-69580615D01*
X139952198Y-70152044D02*
X140047436Y-70199663D01*
X140047436Y-70199663D02*
X140285531Y-70199663D01*
X140285531Y-70199663D02*
X140380769Y-70152044D01*
X140380769Y-70152044D02*
X140428388Y-70056805D01*
X140428388Y-70056805D02*
X140428388Y-69961567D01*
X140428388Y-69961567D02*
X140380769Y-69866329D01*
X140380769Y-69866329D02*
X140285531Y-69818710D01*
X140285531Y-69818710D02*
X140047436Y-69818710D01*
X140047436Y-69818710D02*
X139952198Y-69771091D01*
X139047436Y-70199663D02*
X139047436Y-69199663D01*
X139047436Y-70152044D02*
X139142674Y-70199663D01*
X139142674Y-70199663D02*
X139333150Y-70199663D01*
X139333150Y-70199663D02*
X139428388Y-70152044D01*
X139428388Y-70152044D02*
X139476007Y-70104424D01*
X139476007Y-70104424D02*
X139523626Y-70009186D01*
X139523626Y-70009186D02*
X139523626Y-69723472D01*
X139523626Y-69723472D02*
X139476007Y-69628234D01*
X139476007Y-69628234D02*
X139428388Y-69580615D01*
X139428388Y-69580615D02*
X139333150Y-69532996D01*
X139333150Y-69532996D02*
X139142674Y-69532996D01*
X139142674Y-69532996D02*
X139047436Y-69580615D01*
X138428388Y-70199663D02*
X138523626Y-70152044D01*
X138523626Y-70152044D02*
X138571245Y-70104424D01*
X138571245Y-70104424D02*
X138618864Y-70009186D01*
X138618864Y-70009186D02*
X138618864Y-69723472D01*
X138618864Y-69723472D02*
X138571245Y-69628234D01*
X138571245Y-69628234D02*
X138523626Y-69580615D01*
X138523626Y-69580615D02*
X138428388Y-69532996D01*
X138428388Y-69532996D02*
X138285531Y-69532996D01*
X138285531Y-69532996D02*
X138190293Y-69580615D01*
X138190293Y-69580615D02*
X138142674Y-69628234D01*
X138142674Y-69628234D02*
X138095055Y-69723472D01*
X138095055Y-69723472D02*
X138095055Y-70009186D01*
X138095055Y-70009186D02*
X138142674Y-70104424D01*
X138142674Y-70104424D02*
X138190293Y-70152044D01*
X138190293Y-70152044D02*
X138285531Y-70199663D01*
X138285531Y-70199663D02*
X138428388Y-70199663D01*
X136571245Y-69675853D02*
X136904578Y-69675853D01*
X136904578Y-70199663D02*
X136904578Y-69199663D01*
X136904578Y-69199663D02*
X136428388Y-69199663D01*
X136047435Y-70199663D02*
X136047435Y-69532996D01*
X136047435Y-69199663D02*
X136095054Y-69247282D01*
X136095054Y-69247282D02*
X136047435Y-69294901D01*
X136047435Y-69294901D02*
X135999816Y-69247282D01*
X135999816Y-69247282D02*
X136047435Y-69199663D01*
X136047435Y-69199663D02*
X136047435Y-69294901D01*
X135142674Y-69532996D02*
X135142674Y-70342520D01*
X135142674Y-70342520D02*
X135190293Y-70437758D01*
X135190293Y-70437758D02*
X135237912Y-70485377D01*
X135237912Y-70485377D02*
X135333150Y-70532996D01*
X135333150Y-70532996D02*
X135476007Y-70532996D01*
X135476007Y-70532996D02*
X135571245Y-70485377D01*
X135142674Y-70152044D02*
X135237912Y-70199663D01*
X135237912Y-70199663D02*
X135428388Y-70199663D01*
X135428388Y-70199663D02*
X135523626Y-70152044D01*
X135523626Y-70152044D02*
X135571245Y-70104424D01*
X135571245Y-70104424D02*
X135618864Y-70009186D01*
X135618864Y-70009186D02*
X135618864Y-69723472D01*
X135618864Y-69723472D02*
X135571245Y-69628234D01*
X135571245Y-69628234D02*
X135523626Y-69580615D01*
X135523626Y-69580615D02*
X135428388Y-69532996D01*
X135428388Y-69532996D02*
X135237912Y-69532996D01*
X135237912Y-69532996D02*
X135142674Y-69580615D01*
X134237912Y-69532996D02*
X134237912Y-70199663D01*
X134666483Y-69532996D02*
X134666483Y-70056805D01*
X134666483Y-70056805D02*
X134618864Y-70152044D01*
X134618864Y-70152044D02*
X134523626Y-70199663D01*
X134523626Y-70199663D02*
X134380769Y-70199663D01*
X134380769Y-70199663D02*
X134285531Y-70152044D01*
X134285531Y-70152044D02*
X134237912Y-70104424D01*
X133380769Y-70152044D02*
X133476007Y-70199663D01*
X133476007Y-70199663D02*
X133666483Y-70199663D01*
X133666483Y-70199663D02*
X133761721Y-70152044D01*
X133761721Y-70152044D02*
X133809340Y-70056805D01*
X133809340Y-70056805D02*
X133809340Y-69675853D01*
X133809340Y-69675853D02*
X133761721Y-69580615D01*
X133761721Y-69580615D02*
X133666483Y-69532996D01*
X133666483Y-69532996D02*
X133476007Y-69532996D01*
X133476007Y-69532996D02*
X133380769Y-69580615D01*
X133380769Y-69580615D02*
X133333150Y-69675853D01*
X133333150Y-69675853D02*
X133333150Y-69771091D01*
X133333150Y-69771091D02*
X133809340Y-69866329D01*
X132904578Y-70199663D02*
X132904578Y-69532996D01*
X132904578Y-69723472D02*
X132856959Y-69628234D01*
X132856959Y-69628234D02*
X132809340Y-69580615D01*
X132809340Y-69580615D02*
X132714102Y-69532996D01*
X132714102Y-69532996D02*
X132618864Y-69532996D01*
X132142673Y-70199663D02*
X132237911Y-70152044D01*
X132237911Y-70152044D02*
X132285530Y-70104424D01*
X132285530Y-70104424D02*
X132333149Y-70009186D01*
X132333149Y-70009186D02*
X132333149Y-69723472D01*
X132333149Y-69723472D02*
X132285530Y-69628234D01*
X132285530Y-69628234D02*
X132237911Y-69580615D01*
X132237911Y-69580615D02*
X132142673Y-69532996D01*
X132142673Y-69532996D02*
X131999816Y-69532996D01*
X131999816Y-69532996D02*
X131904578Y-69580615D01*
X131904578Y-69580615D02*
X131856959Y-69628234D01*
X131856959Y-69628234D02*
X131809340Y-69723472D01*
X131809340Y-69723472D02*
X131809340Y-70009186D01*
X131809340Y-70009186D02*
X131856959Y-70104424D01*
X131856959Y-70104424D02*
X131904578Y-70152044D01*
X131904578Y-70152044D02*
X131999816Y-70199663D01*
X131999816Y-70199663D02*
X132142673Y-70199663D01*
X130952197Y-70199663D02*
X130952197Y-69675853D01*
X130952197Y-69675853D02*
X130999816Y-69580615D01*
X130999816Y-69580615D02*
X131095054Y-69532996D01*
X131095054Y-69532996D02*
X131285530Y-69532996D01*
X131285530Y-69532996D02*
X131380768Y-69580615D01*
X130952197Y-70152044D02*
X131047435Y-70199663D01*
X131047435Y-70199663D02*
X131285530Y-70199663D01*
X131285530Y-70199663D02*
X131380768Y-70152044D01*
X131380768Y-70152044D02*
X131428387Y-70056805D01*
X131428387Y-70056805D02*
X131428387Y-69961567D01*
X131428387Y-69961567D02*
X131380768Y-69866329D01*
X131380768Y-69866329D02*
X131285530Y-69818710D01*
X131285530Y-69818710D02*
X131047435Y-69818710D01*
X131047435Y-69818710D02*
X130952197Y-69771091D01*
%LPC*%
D11*
X124080000Y-58640000D03*
X156120000Y-58640000D03*
D12*
X128530000Y-103060000D03*
D13*
X131070000Y-103060000D03*
D11*
X124060000Y-88020000D03*
D12*
X137660000Y-108090000D03*
D13*
X140200000Y-108090000D03*
X142740000Y-108090000D03*
X145280000Y-108090000D03*
X147820000Y-108090000D03*
X150360000Y-108090000D03*
X152900000Y-108090000D03*
X155440000Y-108090000D03*
D11*
X156110000Y-88020000D03*
%LPD*%
M02*
