G04 #@! TF.GenerationSoftware,KiCad,Pcbnew,7.0.9*
G04 #@! TF.CreationDate,2024-04-20T19:13:06+02:00*
G04 #@! TF.ProjectId,NFC_Programmer,4e46435f-5072-46f6-9772-616d6d65722e,3.0*
G04 #@! TF.SameCoordinates,Original*
G04 #@! TF.FileFunction,Copper,L2,Bot*
G04 #@! TF.FilePolarity,Positive*
%FSLAX46Y46*%
G04 Gerber Fmt 4.6, Leading zero omitted, Abs format (unit mm)*
G04 Created by KiCad (PCBNEW 7.0.9) date 2024-04-20 19:13:06*
%MOMM*%
%LPD*%
G01*
G04 APERTURE LIST*
G04 #@! TA.AperFunction,ComponentPad*
%ADD10R,1.700000X1.700000*%
G04 #@! TD*
G04 #@! TA.AperFunction,ComponentPad*
%ADD11O,1.700000X1.700000*%
G04 #@! TD*
G04 #@! TA.AperFunction,ViaPad*
%ADD12C,0.360000*%
G04 #@! TD*
G04 #@! TA.AperFunction,ViaPad*
%ADD13C,0.500000*%
G04 #@! TD*
G04 #@! TA.AperFunction,Conductor*
%ADD14C,0.100000*%
G04 #@! TD*
G04 #@! TA.AperFunction,Conductor*
%ADD15C,0.250000*%
G04 #@! TD*
G04 APERTURE END LIST*
D10*
X128530000Y-103060000D03*
D11*
X131070000Y-103060000D03*
D10*
X137660000Y-108090000D03*
D11*
X140200000Y-108090000D03*
X142740000Y-108090000D03*
X145280000Y-108090000D03*
X147820000Y-108090000D03*
X150360000Y-108090000D03*
X152900000Y-108090000D03*
X155440000Y-108090000D03*
D12*
X159130000Y-95860000D03*
X129280000Y-104760237D03*
X157940000Y-91280000D03*
X131870000Y-105550000D03*
X124300000Y-91250000D03*
X125190000Y-98820000D03*
X127340000Y-91240000D03*
X131640000Y-109190000D03*
X157250000Y-91280000D03*
X129940000Y-105570000D03*
X135120000Y-99770000D03*
X121160000Y-98970000D03*
D13*
X134251582Y-95601582D03*
D12*
X126460000Y-94700000D03*
X144350000Y-91290000D03*
X159080000Y-104020000D03*
X155130000Y-94450000D03*
X129220000Y-91250000D03*
X125190000Y-98210000D03*
X134590000Y-100240000D03*
X148440000Y-92230000D03*
X123510000Y-109180000D03*
X150480000Y-99510000D03*
X154370000Y-97580000D03*
X132780000Y-101850237D03*
X123600000Y-91240000D03*
X133980000Y-97190000D03*
X159130000Y-96470000D03*
X121160000Y-92260000D03*
X152660000Y-97670000D03*
X134420000Y-102300000D03*
X154960000Y-93780000D03*
X121690000Y-109190000D03*
X121170000Y-91560000D03*
X141860000Y-91280000D03*
X121120000Y-108950000D03*
X148700000Y-91290000D03*
X158550000Y-91280000D03*
X125740000Y-97180000D03*
X124120000Y-109180000D03*
X121130000Y-106460000D03*
X137450000Y-95930000D03*
X159120000Y-92860000D03*
X127720000Y-104720000D03*
X143780000Y-91290000D03*
X124860000Y-108380000D03*
X148000000Y-91280000D03*
X121160000Y-92870000D03*
X151917606Y-102411550D03*
X122260000Y-109190000D03*
X152920000Y-91280000D03*
X147701096Y-92221952D03*
X149280000Y-92220000D03*
X159090000Y-99740000D03*
X139410000Y-91290000D03*
X128520000Y-109190000D03*
X159090000Y-101530000D03*
X132820000Y-105550000D03*
X133790000Y-101240000D03*
X151890000Y-97650000D03*
X159130000Y-95290000D03*
X130870000Y-105570000D03*
X134260000Y-103310000D03*
X128410000Y-104770000D03*
X127520000Y-92500000D03*
X159120000Y-98960000D03*
X126610000Y-96460000D03*
X158390000Y-109150000D03*
X121130000Y-104670000D03*
X132790000Y-103480237D03*
X152310000Y-91280000D03*
X126670000Y-92870000D03*
X126440000Y-93840000D03*
X140680000Y-91280000D03*
X156070000Y-91280000D03*
X136910000Y-99940000D03*
X150460000Y-100300000D03*
X140020000Y-91290000D03*
X153450000Y-97640000D03*
X134950000Y-98240000D03*
X151364342Y-91970000D03*
X135077887Y-95174346D03*
X155410000Y-91290000D03*
X159080000Y-107150000D03*
X159090000Y-105270000D03*
X126610000Y-109190000D03*
X136980000Y-95110000D03*
X128330000Y-92550000D03*
X150470000Y-98680000D03*
X134310000Y-104440000D03*
X121160000Y-94050000D03*
X121810000Y-91240000D03*
D13*
X142620000Y-93280000D03*
D12*
X131010000Y-91250000D03*
X149880000Y-91290000D03*
X125480000Y-91250000D03*
X126970000Y-102420237D03*
X127910000Y-91240000D03*
X151460000Y-104220000D03*
X124910000Y-107590000D03*
X132870000Y-104310237D03*
X129480000Y-109180000D03*
X150530000Y-100960000D03*
X134950000Y-96480000D03*
X136540000Y-95870000D03*
X153540000Y-92730000D03*
X130600000Y-109190000D03*
X121130000Y-105850000D03*
X155130000Y-95290000D03*
X131040000Y-104810237D03*
X125760000Y-106200000D03*
X159080000Y-107760000D03*
X124910000Y-106980000D03*
X126820000Y-103920000D03*
X124910000Y-106410000D03*
X133540000Y-91240000D03*
X159090000Y-104660000D03*
X152060000Y-103740000D03*
X128800000Y-105570000D03*
X125640000Y-109210000D03*
X121120000Y-107160000D03*
X122870000Y-109190000D03*
X121120000Y-108340000D03*
X127540000Y-109190000D03*
X135620000Y-95890000D03*
X134630000Y-105320000D03*
X132850000Y-91240000D03*
X159130000Y-94680000D03*
X121130000Y-100360000D03*
X152220000Y-103020000D03*
X121120000Y-102240000D03*
D13*
X137050000Y-101330000D03*
D12*
X121160000Y-93440000D03*
X151740000Y-91280000D03*
X125190000Y-99360000D03*
X121130000Y-101540000D03*
X159120000Y-93430000D03*
X159090000Y-100920000D03*
X126670000Y-97160000D03*
X128970000Y-92080000D03*
D13*
X150700000Y-104480000D03*
D12*
X159080000Y-108330000D03*
X122420000Y-91240000D03*
X159120000Y-97780000D03*
X126540000Y-105870000D03*
X121160000Y-98360000D03*
X133530000Y-96280000D03*
X159090000Y-106450000D03*
X121130000Y-105280000D03*
X121120000Y-104030000D03*
X146820000Y-91280000D03*
X130070000Y-104810237D03*
X159130000Y-91550000D03*
X132280000Y-91240000D03*
X136340000Y-101680000D03*
X130400000Y-91250000D03*
X128520000Y-91240000D03*
X125670000Y-100350000D03*
X159080000Y-108940000D03*
X159120000Y-97170000D03*
X133210000Y-96990000D03*
X142470000Y-91280000D03*
X154800000Y-91290000D03*
X147200000Y-91900000D03*
X122990000Y-91240000D03*
X125190000Y-99930000D03*
X145600000Y-91280000D03*
X151070000Y-98110000D03*
X149310000Y-91290000D03*
X121130000Y-99750000D03*
X124910000Y-91250000D03*
X152170000Y-91820000D03*
X157820000Y-109150000D03*
X154230000Y-91290000D03*
X151130000Y-91280000D03*
X134150000Y-91240000D03*
X159090000Y-105840000D03*
X129830000Y-91250000D03*
X146210000Y-91280000D03*
X137000000Y-100650000D03*
X134960000Y-99050000D03*
X159090000Y-100350000D03*
X131670000Y-91240000D03*
X126910000Y-101760000D03*
X136100000Y-95140000D03*
X132080000Y-104790237D03*
X126840000Y-103180000D03*
X126090000Y-91250000D03*
X159120000Y-98350000D03*
X147390000Y-91280000D03*
X121170000Y-95300000D03*
X126130000Y-100790000D03*
X134890000Y-97330000D03*
X136100000Y-99920000D03*
X121160000Y-97180000D03*
X126610000Y-101210000D03*
X121120000Y-107770000D03*
X121170000Y-95870000D03*
X149880000Y-91890000D03*
X144960000Y-91290000D03*
X121120000Y-102850000D03*
X151124464Y-102010199D03*
X159080000Y-102230000D03*
X121120000Y-103420000D03*
X143170000Y-91290000D03*
X124930000Y-109000000D03*
X159120000Y-94040000D03*
X134250000Y-100770000D03*
X121130000Y-100930000D03*
X153420000Y-92190000D03*
X155210000Y-96260000D03*
D13*
X137990000Y-95230000D03*
D12*
X121170000Y-96480000D03*
X150570000Y-101750000D03*
X156680000Y-91280000D03*
X125190000Y-97640000D03*
X135110000Y-101700000D03*
X126700000Y-105300000D03*
X159080000Y-102840000D03*
X154390000Y-93370000D03*
X153620000Y-91290000D03*
X159120000Y-92250000D03*
X150680000Y-105400000D03*
D13*
X125870000Y-95560000D03*
D12*
X121160000Y-97790000D03*
X121170000Y-94690000D03*
D13*
X141500000Y-97570000D03*
D12*
X127050000Y-104670000D03*
X155050000Y-97220000D03*
X128250000Y-105320000D03*
X159080000Y-103410000D03*
X141290000Y-91280000D03*
X153610000Y-93260000D03*
X133840000Y-105540000D03*
X133130000Y-101260000D03*
X152870000Y-91870000D03*
X150690000Y-91810000D03*
X150490000Y-91290000D03*
X132760000Y-102520237D03*
X126730000Y-91240000D03*
D13*
X151160000Y-103180000D03*
X127550000Y-105990000D03*
X141910000Y-104760000D03*
X143530000Y-59600000D03*
X140200000Y-55400000D03*
X130850000Y-96740000D03*
X141680000Y-85910000D03*
X138620000Y-85930000D03*
X129280000Y-96770000D03*
D14*
X138730237Y-108090000D02*
X137660000Y-108090000D01*
X140250237Y-106570000D02*
X138730237Y-108090000D01*
X151160000Y-103180000D02*
X147770000Y-106570000D01*
X147770000Y-106570000D02*
X140250237Y-106570000D01*
X141910000Y-104760000D02*
X140380000Y-106290000D01*
X127850000Y-106290000D02*
X127550000Y-105990000D01*
X140380000Y-106290000D02*
X127850000Y-106290000D01*
D15*
X141680000Y-85910000D02*
X130850000Y-96740000D01*
X143530000Y-59190000D02*
X140200000Y-55860000D01*
X138620000Y-85930000D02*
X138620000Y-87430000D01*
X140200000Y-55860000D02*
X140200000Y-55400000D01*
X138620000Y-87430000D02*
X129280000Y-96770000D01*
X143530000Y-59600000D02*
X143530000Y-59190000D01*
G04 #@! TA.AperFunction,Conductor*
G36*
X133973086Y-90979685D02*
G01*
X134018841Y-91032489D01*
X134028785Y-91101647D01*
X133999760Y-91165203D01*
X133993728Y-91171681D01*
X129162380Y-96003027D01*
X129115653Y-96032388D01*
X128952308Y-96089544D01*
X128952302Y-96089547D01*
X128809115Y-96179518D01*
X128809109Y-96179523D01*
X128689523Y-96299109D01*
X128689518Y-96299115D01*
X128599547Y-96442302D01*
X128599545Y-96442305D01*
X128543685Y-96601943D01*
X128524751Y-96769997D01*
X128524751Y-96770002D01*
X128543685Y-96938056D01*
X128599545Y-97097694D01*
X128599547Y-97097697D01*
X128689518Y-97240884D01*
X128689523Y-97240890D01*
X128809109Y-97360476D01*
X128809115Y-97360481D01*
X128952302Y-97450452D01*
X128952305Y-97450454D01*
X128952309Y-97450455D01*
X128952310Y-97450456D01*
X129024913Y-97475860D01*
X129111943Y-97506314D01*
X129279997Y-97525249D01*
X129280000Y-97525249D01*
X129280003Y-97525249D01*
X129448056Y-97506314D01*
X129479678Y-97495249D01*
X129607690Y-97450456D01*
X129607692Y-97450454D01*
X129607694Y-97450454D01*
X129607697Y-97450452D01*
X129750884Y-97360481D01*
X129750885Y-97360480D01*
X129750890Y-97360477D01*
X129870477Y-97240890D01*
X129870481Y-97240884D01*
X129960449Y-97097702D01*
X129960450Y-97097698D01*
X129960456Y-97097690D01*
X129960459Y-97097680D01*
X129962005Y-97094472D01*
X129963565Y-97092743D01*
X129964162Y-97091794D01*
X129964328Y-97091898D01*
X130008826Y-97042611D01*
X130076252Y-97024295D01*
X130142877Y-97045340D01*
X130178721Y-97082296D01*
X130259521Y-97210888D01*
X130379109Y-97330476D01*
X130379115Y-97330481D01*
X130522302Y-97420452D01*
X130522305Y-97420454D01*
X130522309Y-97420455D01*
X130522310Y-97420456D01*
X130594913Y-97445860D01*
X130681943Y-97476314D01*
X130849997Y-97495249D01*
X130850000Y-97495249D01*
X130850003Y-97495249D01*
X131018056Y-97476314D01*
X131091954Y-97450456D01*
X131177690Y-97420456D01*
X131177692Y-97420454D01*
X131177694Y-97420454D01*
X131177697Y-97420452D01*
X131320884Y-97330481D01*
X131320885Y-97330480D01*
X131320890Y-97330477D01*
X131440477Y-97210890D01*
X131511598Y-97097702D01*
X131530452Y-97067697D01*
X131530455Y-97067692D01*
X131530456Y-97067690D01*
X131586313Y-96908059D01*
X131586313Y-96908054D01*
X131587613Y-96904341D01*
X131616972Y-96857616D01*
X137478271Y-90996318D01*
X137539594Y-90962834D01*
X137565952Y-90960000D01*
X159460500Y-90960000D01*
X159527539Y-90979685D01*
X159573294Y-91032489D01*
X159584500Y-91084000D01*
X159584500Y-109370737D01*
X159564815Y-109437776D01*
X159512011Y-109483531D01*
X159460500Y-109494737D01*
X156180012Y-109494737D01*
X156112973Y-109475052D01*
X156067218Y-109422248D01*
X156057274Y-109353090D01*
X156086299Y-109289534D01*
X156113439Y-109267126D01*
X156113144Y-109266705D01*
X156311082Y-109128105D01*
X156478105Y-108961082D01*
X156613600Y-108767578D01*
X156713429Y-108553492D01*
X156713432Y-108553486D01*
X156770636Y-108340000D01*
X155873686Y-108340000D01*
X155899493Y-108299844D01*
X155940000Y-108161889D01*
X155940000Y-108018111D01*
X155899493Y-107880156D01*
X155873686Y-107840000D01*
X156770636Y-107840000D01*
X156770635Y-107839999D01*
X156713432Y-107626513D01*
X156713429Y-107626507D01*
X156613600Y-107412422D01*
X156613599Y-107412420D01*
X156478113Y-107218926D01*
X156478108Y-107218920D01*
X156311082Y-107051894D01*
X156117578Y-106916399D01*
X155903492Y-106816570D01*
X155903486Y-106816567D01*
X155690000Y-106759364D01*
X155690000Y-107654498D01*
X155582315Y-107605320D01*
X155475763Y-107590000D01*
X155404237Y-107590000D01*
X155297685Y-107605320D01*
X155190000Y-107654498D01*
X155190000Y-106759364D01*
X155189999Y-106759364D01*
X154976513Y-106816567D01*
X154976507Y-106816570D01*
X154762422Y-106916399D01*
X154762420Y-106916400D01*
X154568926Y-107051886D01*
X154568920Y-107051891D01*
X154401891Y-107218920D01*
X154401890Y-107218922D01*
X154271880Y-107404595D01*
X154217303Y-107448219D01*
X154147804Y-107455412D01*
X154085450Y-107423890D01*
X154068730Y-107404594D01*
X153938494Y-107218597D01*
X153771402Y-107051506D01*
X153771395Y-107051501D01*
X153577834Y-106915967D01*
X153577830Y-106915965D01*
X153536956Y-106896905D01*
X153363663Y-106816097D01*
X153363659Y-106816096D01*
X153363655Y-106816094D01*
X153135413Y-106754938D01*
X153135403Y-106754936D01*
X152900001Y-106734341D01*
X152899999Y-106734341D01*
X152664596Y-106754936D01*
X152664586Y-106754938D01*
X152436344Y-106816094D01*
X152436335Y-106816098D01*
X152222171Y-106915964D01*
X152222169Y-106915965D01*
X152028597Y-107051505D01*
X151861505Y-107218597D01*
X151731575Y-107404158D01*
X151676998Y-107447783D01*
X151607500Y-107454977D01*
X151545145Y-107423454D01*
X151528425Y-107404158D01*
X151398494Y-107218597D01*
X151231402Y-107051506D01*
X151231395Y-107051501D01*
X151037834Y-106915967D01*
X151037830Y-106915965D01*
X150996956Y-106896905D01*
X150823663Y-106816097D01*
X150823659Y-106816096D01*
X150823655Y-106816094D01*
X150595413Y-106754938D01*
X150595403Y-106754936D01*
X150360001Y-106734341D01*
X150359999Y-106734341D01*
X150124596Y-106754936D01*
X150124586Y-106754938D01*
X149896344Y-106816094D01*
X149896335Y-106816098D01*
X149682171Y-106915964D01*
X149682169Y-106915965D01*
X149488597Y-107051505D01*
X149321505Y-107218597D01*
X149191575Y-107404158D01*
X149136998Y-107447783D01*
X149067500Y-107454977D01*
X149005145Y-107423454D01*
X148988425Y-107404158D01*
X148858494Y-107218597D01*
X148691402Y-107051506D01*
X148691395Y-107051501D01*
X148497832Y-106915966D01*
X148456956Y-106896905D01*
X148404517Y-106850732D01*
X148385366Y-106783538D01*
X148405582Y-106716657D01*
X148421676Y-106696847D01*
X151155551Y-103962972D01*
X151216872Y-103929489D01*
X151229347Y-103927435D01*
X151328054Y-103916314D01*
X151328057Y-103916313D01*
X151328059Y-103916313D01*
X151487690Y-103860456D01*
X151487692Y-103860454D01*
X151487694Y-103860454D01*
X151487697Y-103860452D01*
X151630884Y-103770481D01*
X151630885Y-103770480D01*
X151630890Y-103770477D01*
X151750477Y-103650890D01*
X151830419Y-103523664D01*
X151840452Y-103507697D01*
X151840454Y-103507694D01*
X151840454Y-103507692D01*
X151840456Y-103507690D01*
X151896313Y-103348059D01*
X151896313Y-103348058D01*
X151896314Y-103348056D01*
X151915249Y-103180002D01*
X151915249Y-103179997D01*
X151896314Y-103011943D01*
X151840454Y-102852305D01*
X151840452Y-102852302D01*
X151750481Y-102709115D01*
X151750476Y-102709109D01*
X151630890Y-102589523D01*
X151630884Y-102589518D01*
X151487697Y-102499547D01*
X151487694Y-102499545D01*
X151328056Y-102443685D01*
X151160003Y-102424751D01*
X151159997Y-102424751D01*
X150991943Y-102443685D01*
X150832305Y-102499545D01*
X150832302Y-102499547D01*
X150689115Y-102589518D01*
X150689109Y-102589523D01*
X150569523Y-102709109D01*
X150569518Y-102709115D01*
X150479547Y-102852302D01*
X150479544Y-102852307D01*
X150423685Y-103011946D01*
X150412564Y-103110651D01*
X150385497Y-103175065D01*
X150377025Y-103184448D01*
X147578294Y-105983181D01*
X147516971Y-106016666D01*
X147490613Y-106019500D01*
X141728387Y-106019500D01*
X141661348Y-105999815D01*
X141615593Y-105947011D01*
X141605649Y-105877853D01*
X141634674Y-105814297D01*
X141640697Y-105807827D01*
X141905552Y-105542971D01*
X141966871Y-105509489D01*
X141979347Y-105507435D01*
X142078054Y-105496314D01*
X142078057Y-105496313D01*
X142078059Y-105496313D01*
X142237690Y-105440456D01*
X142237692Y-105440454D01*
X142237694Y-105440454D01*
X142237697Y-105440452D01*
X142380884Y-105350481D01*
X142380885Y-105350480D01*
X142380890Y-105350477D01*
X142500477Y-105230890D01*
X142590452Y-105087697D01*
X142590454Y-105087694D01*
X142590454Y-105087692D01*
X142590456Y-105087690D01*
X142646313Y-104928059D01*
X142646313Y-104928058D01*
X142646314Y-104928056D01*
X142665249Y-104760002D01*
X142665249Y-104759997D01*
X142646314Y-104591943D01*
X142590454Y-104432305D01*
X142590452Y-104432302D01*
X142500481Y-104289115D01*
X142500476Y-104289109D01*
X142380890Y-104169523D01*
X142380884Y-104169518D01*
X142237697Y-104079547D01*
X142237694Y-104079545D01*
X142078056Y-104023685D01*
X141910003Y-104004751D01*
X141909997Y-104004751D01*
X141741943Y-104023685D01*
X141582305Y-104079545D01*
X141582302Y-104079547D01*
X141439115Y-104169518D01*
X141439109Y-104169523D01*
X141319523Y-104289109D01*
X141319518Y-104289115D01*
X141229547Y-104432302D01*
X141229544Y-104432307D01*
X141173685Y-104591946D01*
X141162564Y-104690651D01*
X141135497Y-104755065D01*
X141127025Y-104764448D01*
X140188294Y-105703181D01*
X140126971Y-105736666D01*
X140100613Y-105739500D01*
X128345449Y-105739500D01*
X128278410Y-105719815D01*
X128233859Y-105668401D01*
X128233479Y-105668585D01*
X128232803Y-105667182D01*
X128232655Y-105667011D01*
X128232320Y-105666179D01*
X128230456Y-105662308D01*
X128140481Y-105519115D01*
X128140476Y-105519109D01*
X128020890Y-105399523D01*
X128020884Y-105399518D01*
X127877697Y-105309547D01*
X127877694Y-105309545D01*
X127718056Y-105253685D01*
X127550003Y-105234751D01*
X127549997Y-105234751D01*
X127381943Y-105253685D01*
X127222305Y-105309545D01*
X127222302Y-105309547D01*
X127079115Y-105399518D01*
X127079109Y-105399523D01*
X126959523Y-105519109D01*
X126959518Y-105519115D01*
X126869547Y-105662302D01*
X126869545Y-105662305D01*
X126813685Y-105821943D01*
X126794751Y-105989997D01*
X126794751Y-105990002D01*
X126813685Y-106158056D01*
X126869545Y-106317694D01*
X126869547Y-106317697D01*
X126959518Y-106460884D01*
X126959523Y-106460890D01*
X127079109Y-106580476D01*
X127079115Y-106580481D01*
X127222302Y-106670452D01*
X127222308Y-106670455D01*
X127222310Y-106670456D01*
X127381941Y-106726313D01*
X127503517Y-106740011D01*
X127564560Y-106764428D01*
X127577658Y-106774361D01*
X127594353Y-106780944D01*
X127613290Y-106790351D01*
X127628618Y-106799672D01*
X127671247Y-106811616D01*
X127677263Y-106813639D01*
X127718436Y-106829876D01*
X127736287Y-106831711D01*
X127757052Y-106835657D01*
X127774335Y-106840500D01*
X127818594Y-106840500D01*
X127824935Y-106840824D01*
X127868972Y-106845352D01*
X127886656Y-106842303D01*
X127907724Y-106840500D01*
X136246231Y-106840500D01*
X136313270Y-106860185D01*
X136359025Y-106912989D01*
X136368969Y-106982147D01*
X136362413Y-107007833D01*
X136315908Y-107132517D01*
X136309501Y-107192116D01*
X136309500Y-107192135D01*
X136309500Y-108987870D01*
X136309501Y-108987876D01*
X136315908Y-109047483D01*
X136366202Y-109182328D01*
X136366203Y-109182330D01*
X136366204Y-109182331D01*
X136446456Y-109289534D01*
X136451616Y-109296426D01*
X136476033Y-109361890D01*
X136461182Y-109430163D01*
X136411777Y-109479569D01*
X136352349Y-109494737D01*
X121059500Y-109494737D01*
X120992461Y-109475052D01*
X120946706Y-109422248D01*
X120935500Y-109370737D01*
X120935500Y-103957870D01*
X127179500Y-103957870D01*
X127179501Y-103957876D01*
X127185908Y-104017483D01*
X127236202Y-104152328D01*
X127236206Y-104152335D01*
X127322452Y-104267544D01*
X127322455Y-104267547D01*
X127437664Y-104353793D01*
X127437671Y-104353797D01*
X127572517Y-104404091D01*
X127572516Y-104404091D01*
X127579444Y-104404835D01*
X127632127Y-104410500D01*
X129427872Y-104410499D01*
X129487483Y-104404091D01*
X129622331Y-104353796D01*
X129737546Y-104267546D01*
X129823796Y-104152331D01*
X129872810Y-104020916D01*
X129914681Y-103964984D01*
X129980145Y-103940566D01*
X130048418Y-103955417D01*
X130076673Y-103976569D01*
X130198599Y-104098495D01*
X130295384Y-104166265D01*
X130392165Y-104234032D01*
X130392167Y-104234033D01*
X130392170Y-104234035D01*
X130606337Y-104333903D01*
X130834592Y-104395063D01*
X131011034Y-104410500D01*
X131069999Y-104415659D01*
X131070000Y-104415659D01*
X131070001Y-104415659D01*
X131128966Y-104410500D01*
X131305408Y-104395063D01*
X131533663Y-104333903D01*
X131747830Y-104234035D01*
X131941401Y-104098495D01*
X132108495Y-103931401D01*
X132244035Y-103737830D01*
X132343903Y-103523663D01*
X132405063Y-103295408D01*
X132425659Y-103060000D01*
X132405063Y-102824592D01*
X132343903Y-102596337D01*
X132244035Y-102382171D01*
X132108495Y-102188599D01*
X132108494Y-102188597D01*
X131941402Y-102021506D01*
X131941395Y-102021501D01*
X131747834Y-101885967D01*
X131747830Y-101885965D01*
X131747828Y-101885964D01*
X131533663Y-101786097D01*
X131533659Y-101786096D01*
X131533655Y-101786094D01*
X131305413Y-101724938D01*
X131305403Y-101724936D01*
X131070001Y-101704341D01*
X131069999Y-101704341D01*
X130834596Y-101724936D01*
X130834586Y-101724938D01*
X130606344Y-101786094D01*
X130606335Y-101786098D01*
X130392171Y-101885964D01*
X130392169Y-101885965D01*
X130198600Y-102021503D01*
X130076673Y-102143430D01*
X130015350Y-102176914D01*
X129945658Y-102171930D01*
X129889725Y-102130058D01*
X129872810Y-102099081D01*
X129823797Y-101967671D01*
X129823793Y-101967664D01*
X129737547Y-101852455D01*
X129737544Y-101852452D01*
X129622335Y-101766206D01*
X129622328Y-101766202D01*
X129487482Y-101715908D01*
X129487483Y-101715908D01*
X129427883Y-101709501D01*
X129427881Y-101709500D01*
X129427873Y-101709500D01*
X129427864Y-101709500D01*
X127632129Y-101709500D01*
X127632123Y-101709501D01*
X127572516Y-101715908D01*
X127437671Y-101766202D01*
X127437664Y-101766206D01*
X127322455Y-101852452D01*
X127322452Y-101852455D01*
X127236206Y-101967664D01*
X127236202Y-101967671D01*
X127185908Y-102102517D01*
X127179501Y-102162116D01*
X127179500Y-102162135D01*
X127179500Y-103957870D01*
X120935500Y-103957870D01*
X120935500Y-91084000D01*
X120955185Y-91016961D01*
X121007989Y-90971206D01*
X121059500Y-90960000D01*
X133906047Y-90960000D01*
X133973086Y-90979685D01*
G37*
G04 #@! TD.AperFunction*
M02*
